<?xml version="1.0" encoding="UTF-8" standalone="no"?>
<svg
   xmlns:dc="http://purl.org/dc/elements/1.1/"
   xmlns:cc="http://creativecommons.org/ns#"
   xmlns:rdf="http://www.w3.org/1999/02/22-rdf-syntax-ns#"
   xmlns:svg="http://www.w3.org/2000/svg"
   xmlns="http://www.w3.org/2000/svg"
   xmlns:xlink="http://www.w3.org/1999/xlink"
   xmlns:sodipodi="http://sodipodi.sourceforge.net/DTD/sodipodi-0.dtd"
   xmlns:inkscape="http://www.inkscape.org/namespaces/inkscape"
   version="1.1"
   viewBox="100 133 53.25 61.5"
   width="71"
   height="82"
   id="svg5325"
   sodipodi:docname="flood_low.svg"
   inkscape:export-filename="/home/mognom/Git/orion/ngsi-datamodel2poi-operator/src/images/alerts/weather/flood_low.png"
   inkscape:export-xdpi="130.68494"
   inkscape:export-ydpi="130.68494"
   inkscape:version="0.91 r13725">
  <sodipodi:namedview
     pagecolor="#ffffff"
     bordercolor="#666666"
     borderopacity="1"
     objecttolerance="10"
     gridtolerance="10"
     guidetolerance="10"
     inkscape:pageopacity="0"
     inkscape:pageshadow="2"
     inkscape:window-width="1920"
     inkscape:window-height="1056"
     id="namedview5327"
     showgrid="false"
     units="px"
     fit-margin-top="0"
     fit-margin-left="0"
     fit-margin-right="0"
     fit-margin-bottom="0"
     inkscape:zoom="7.3750002"
     inkscape:cx="64.445151"
     inkscape:cy="25.557609"
     inkscape:window-x="0"
     inkscape:window-y="24"
     inkscape:window-maximized="1"
     inkscape:current-layer="svg5325" />
  <metadata
     id="metadata5244">
    <dc:date>2017-02-14 20:31Z</dc:date>
    <!-- Produced by OmniGraffle Professional 5.4.2 -->
    <rdf:RDF>
      <cc:Work
         rdf:about="">
        <dc:format>image/svg+xml</dc:format>
        <dc:type
           rdf:resource="http://purl.org/dc/dcmitype/StillImage" />
        <dc:title></dc:title>
      </cc:Work>
    </rdf:RDF>
  </metadata>
  <defs
     id="defs5279">
    <linearGradient
       x1="0"
       x2="1"
       id="Gradient"
       gradientUnits="userSpaceOnUse">
      <stop
         offset="0"
         stop-color="#a1a1a1"
         id="stop5246" />
      <stop
         offset=".5"
         stop-color="#d3ddda"
         id="stop5248" />
      <stop
         offset="1"
         stop-color="#333"
         id="stop5250" />
    </linearGradient>
    <linearGradient
       id="Obj_Gradient"
       xlink:href="#Gradient"
       gradientTransform="matrix(-9.6901415,0,0,-9.6901415,151.86676,195.96937)" />
    <radialGradient
       cx="0"
       cy="0"
       r="1"
       id="Gradient_2"
       gradientUnits="userSpaceOnUse">
      <stop
         offset="0"
         stop-color="#333"
         id="stop5254" />
      <stop
         offset="1"
         stop-color="#fefcff"
         id="stop5256" />
    </radialGradient>
    <radialGradient
       id="Obj_Gradient_2"
       xlink:href="#Gradient_2"
       gradientTransform="matrix(11.294566,-3.8890311,3.8890311,11.294566,152.17186,169.50531)" />
    <radialGradient
       cx="0"
       cy="0"
       r="1"
       id="Gradient_3"
       gradientUnits="userSpaceOnUse">
      <stop
         offset="0"
         stop-color="#333"
         id="stop5260" />
      <stop
         offset="1"
         stop-color="#858586"
         id="stop5262" />
    </radialGradient>
    <radialGradient
       id="Obj_Gradient_3"
       xlink:href="#Gradient_3"
       gradientTransform="matrix(8.5071218,-2.929237,2.929237,8.5071218,143.84009,168.83939)" />
    <radialGradient
       cx="0"
       cy="0"
       r="1"
       id="Gradient_4"
       gradientUnits="userSpaceOnUse">
      <stop
         offset="0"
         stop-color="#fefcff"
         id="stop5266" />
      <stop
         offset="1"
         stop-color="#333"
         id="stop5268" />
    </radialGradient>
    <radialGradient
       id="Obj_Gradient_4"
       xlink:href="#Gradient_4"
       gradientTransform="matrix(-5.2298003,-17.640525,13.831792,-4.1006441,127.07119,190.8652)"
       fx="0.53321111"
       fy="0.55251503"
       cx="0.53321111"
       cy="0.55251503" />
    <radialGradient
       id="Obj_Gradient_5"
       xlink:href="#Gradient_3"
       gradientTransform="matrix(10.232955,-3.523489,3.523489,10.232955,142.2044,184.12234)" />
    <radialGradient
       cx="0"
       cy="0"
       r="1"
       id="Gradient_5"
       gradientUnits="userSpaceOnUse">
      <stop
         offset="0"
         stop-color="#fbfcff"
         id="stop5273" />
      <stop
         offset="1"
         stop-color="#333"
         id="stop5275" />
    </radialGradient>
    <radialGradient
       id="Obj_Gradient_6"
       xlink:href="#Gradient_5"
       gradientTransform="matrix(7.9377967,1.1155846,-1.1155846,7.9377967,162.65024,176.08292)"
       fx="0.021611352"
       fy="0.048555344"
       cx="0.021611352"
       cy="0.048555344" />
    <filter
       style="color-interpolation-filters:sRGB;"
       inkscape:label="Drop Shadow"
       id="filter6193">
      <feFlood
         flood-opacity="0.498039"
         flood-color="rgb(0,0,0)"
         result="flood"
         id="feFlood6183" />
      <feComposite
         in="flood"
         in2="SourceGraphic"
         operator="in"
         result="composite1"
         id="feComposite6185" />
      <feGaussianBlur
         in="composite1"
         stdDeviation="1"
         result="blur"
         id="feGaussianBlur6187" />
      <feOffset
         dx="1"
         dy="1"
         result="offset"
         id="feOffset6189" />
      <feComposite
         in="SourceGraphic"
         in2="offset"
         operator="over"
         result="composite2"
         id="feComposite6191" />
    </filter>
    <linearGradient
       gradientUnits="userSpaceOnUse"
       y2="135.92974"
       x2="208.72091"
       y1="135.92974"
       x1="195.40309"
       id="Obj_Gradient-3"
       xlink:href="#Gradient-6"
       gradientTransform="scale(0.72760683,1.3743686)" />
    <linearGradient
       x1="0"
       x2="1"
       id="Gradient-6"
       gradientUnits="userSpaceOnUse">
      <stop
         offset="0"
         stop-color="#a1a1a1"
         id="stop5246-7" />
      <stop
         offset=".5"
         stop-color="#d3ddda"
         id="stop5248-5" />
      <stop
         offset="1"
         stop-color="#333"
         id="stop5250-3" />
    </linearGradient>
    <radialGradient
       cx="0"
       cy="0"
       r="1"
       id="Gradient_2-5"
       gradientUnits="userSpaceOnUse">
      <stop
         offset="0"
         stop-color="#333"
         id="stop5254-6" />
      <stop
         offset="1"
         stop-color="#fefcff"
         id="stop5256-2" />
    </radialGradient>
    <radialGradient
       gradientUnits="userSpaceOnUse"
       r="4.1147059"
       fy="120.33257"
       fx="192.30219"
       cy="120.33257"
       cx="192.30219"
       id="Obj_Gradient_3-9"
       xlink:href="#Gradient_3-1"
       gradientTransform="scale(0.72765715,1.3742736)" />
    <radialGradient
       cx="0"
       cy="0"
       r="1"
       id="Gradient_3-1"
       gradientUnits="userSpaceOnUse">
      <stop
         offset="0"
         stop-color="#333"
         id="stop5260-2" />
      <stop
         offset="1"
         stop-color="#858586"
         id="stop5262-7" />
    </radialGradient>
    <radialGradient
       gradientUnits="userSpaceOnUse"
       r="5.840255"
       id="Obj_Gradient_4-0"
       xlink:href="#Gradient_4-9"
       gradientTransform="scale(1.0949967,0.91324475)"
       fx="122.9148"
       fy="198.07489"
       cx="122.9148"
       cy="198.07489" />
    <radialGradient
       cx="0"
       cy="0"
       r="1"
       id="Gradient_4-9"
       gradientUnits="userSpaceOnUse">
      <stop
         offset="0"
         stop-color="#fefcff"
         id="stop5266-3" />
      <stop
         offset="1"
         stop-color="#333"
         id="stop5268-6" />
    </radialGradient>
    <radialGradient
       id="Obj_Gradient_5-0"
       xlink:href="#Gradient_3-1"
       gradientTransform="matrix(10.232955,-3.523489,3.523489,10.232955,142.2044,184.12234)" />
    <radialGradient
       cx="0"
       cy="0"
       r="1"
       id="radialGradient5229"
       gradientUnits="userSpaceOnUse">
      <stop
         offset="0"
         stop-color="#333"
         id="stop5231" />
      <stop
         offset="1"
         stop-color="#858586"
         id="stop5233" />
    </radialGradient>
    <radialGradient
       cx="0"
       cy="0"
       r="1"
       id="Gradient_5-6"
       gradientUnits="userSpaceOnUse">
      <stop
         offset="0"
         stop-color="#fbfcff"
         id="stop5273-2" />
      <stop
         offset="1"
         stop-color="#333"
         id="stop5275-6" />
    </radialGradient>
    <linearGradient
       x1="0"
       x2="1"
       id="Gradient-8"
       gradientUnits="userSpaceOnUse">
      <stop
         offset="0"
         stop-color="#a1a1a1"
         id="stop5246-79" />
      <stop
         offset=".5"
         stop-color="#d3ddda"
         id="stop5248-2" />
      <stop
         offset="1"
         stop-color="#333"
         id="stop5250-0" />
    </linearGradient>
    <radialGradient
       cx="0"
       cy="0"
       r="1"
       id="Gradient_2-2"
       gradientUnits="userSpaceOnUse">
      <stop
         offset="0"
         stop-color="#333"
         id="stop5254-3" />
      <stop
         offset="1"
         stop-color="#fefcff"
         id="stop5256-7" />
    </radialGradient>
    <radialGradient
       gradientUnits="userSpaceOnUse"
       r="4.1147059"
       fy="120.33257"
       fx="192.30219"
       cy="120.33257"
       cx="192.30219"
       id="Obj_Gradient_3-5"
       xlink:href="#Gradient_3-9"
       gradientTransform="scale(0.72765715,1.3742736)" />
    <radialGradient
       cx="0"
       cy="0"
       r="1"
       id="Gradient_3-9"
       gradientUnits="userSpaceOnUse">
      <stop
         offset="0"
         stop-color="#333"
         id="stop5260-22" />
      <stop
         offset="1"
         stop-color="#858586"
         id="stop5262-8" />
    </radialGradient>
    <radialGradient
       gradientUnits="userSpaceOnUse"
       r="5.840255"
       id="Obj_Gradient_4-9"
       xlink:href="#Gradient_4-7"
       gradientTransform="scale(1.0949967,0.91324475)"
       fx="122.9148"
       fy="198.07489"
       cx="122.9148"
       cy="198.07489" />
    <radialGradient
       cx="0"
       cy="0"
       r="1"
       id="Gradient_4-7"
       gradientUnits="userSpaceOnUse">
      <stop
         offset="0"
         stop-color="#fefcff"
         id="stop5266-36" />
      <stop
         offset="1"
         stop-color="#333"
         id="stop5268-1" />
    </radialGradient>
    <radialGradient
       id="Obj_Gradient_5-2"
       xlink:href="#Gradient_3-9"
       gradientTransform="matrix(10.232955,-3.523489,3.523489,10.232955,142.2044,184.12234)" />
    <radialGradient
       cx="0"
       cy="0"
       r="1"
       id="radialGradient5229-9"
       gradientUnits="userSpaceOnUse">
      <stop
         offset="0"
         stop-color="#333"
         id="stop5231-3" />
      <stop
         offset="1"
         stop-color="#858586"
         id="stop5233-1" />
    </radialGradient>
    <radialGradient
       cx="0"
       cy="0"
       r="1"
       id="Gradient_5-9"
       gradientUnits="userSpaceOnUse">
      <stop
         offset="0"
         stop-color="#fbfcff"
         id="stop5273-4" />
      <stop
         offset="1"
         stop-color="#333"
         id="stop5275-7" />
    </radialGradient>
  </defs>
  <path
     style="fill:#79bc6a;fill-opacity:1;stroke:#333333;stroke-width:2.09588695;stroke-linecap:round;stroke-linejoin:round;stroke-dasharray:none;stroke-opacity:1;filter:url(#filter6193)"
     d="m 151.07706,159.20895 c 0,13.5045 -24.45206,33.53419 -24.45206,33.53419 0,0 -24.45206,-20.02969 -24.45206,-33.53419 0,-13.5045 10.94756,-24.45206 24.45206,-24.45206 13.5045,0 24.45206,10.94756 24.45206,24.45206 z"
     id="circle5287"
     inkscape:connector-curvature="0"
     sodipodi:nodetypes="scsss"
     transform="matrix(0.93294792,0,0,0.93294792,8.4904676,10.979762)" />
  <g
     transform="matrix(0.08899693,0,0,0.08899693,112.14597,142.37465)"
     id="g12509"
     style="fill:#ffffff">
    <g
       id="g12511"
       style="fill:#ffffff">
      <path
         inkscape:connector-curvature="0"
         style="fill:#ffffff"
         d="m 48.639,29.915 0,48.076 71.845,-58.954 -60.967,0 c -6,0 -10.878,4.879 -10.878,10.878 z"
         id="path12513" />
      <path
         inkscape:connector-curvature="0"
         style="fill:#ffffff"
         d="m 273.68,29.915 c 0,-5.999 -4.879,-10.878 -10.878,-10.878 l -60.635,0 71.513,58.682 0,-47.804 z"
         id="path12515" />
      <path
         inkscape:connector-curvature="0"
         style="fill:#ffffff"
         d="m 226.795,158.75 24.302,14.082 c 0.337,0.087 1.142,0.239 2.284,0.239 1.017,0 1.735,-0.125 2.04,-0.196 l 18.254,-10.106 0,-42.115 c -3.873,-0.484 -7.5,-1.942 -10.405,-4.324 L 161.325,32.678 59.375,116.331 c -2.986,2.453 -6.739,3.916 -10.737,4.351 l 0,39.993 7.109,-3.568 c 7.528,-3.78 16.431,-5.776 25.749,-5.776 11.166,0 22.028,2.899 30.589,8.169 l 16.323,10.062 0,-62.277 c 0,-3.008 2.431,-5.439 5.439,-5.439 l 62.549,0 c 3.008,0 5.439,2.431 5.439,5.439 l 0,44.225 c 9.111,0.675 17.846,3.112 24.96,7.24 z"
         id="path12517" />
      <path
         inkscape:connector-curvature="0"
         style="fill:#ffffff"
         d="m 302.159,213.766 -41.941,23.225 c -3.378,1.876 -10.737,1.8 -14.071,-0.125 L 221.541,222.61 c -13.076,-7.587 -32.433,-8.18 -46.004,-1.452 l -32.536,16.159 c -3.563,1.773 -11.161,1.458 -14.495,-0.598 L 106.592,223.214 C 93.56,215.191 74.153,214.381 60.458,221.267 L 12.996,245.09 c -8.05,4.047 -11.308,13.853 -7.267,21.903 2.866,5.706 8.621,9.002 14.598,9.002 2.464,0 4.96,-0.566 7.31,-1.735 l 47.467,-23.829 c 3.53,-1.773 11.058,-1.474 14.375,0.566 l 21.919,13.505 c 12.999,8.006 32.379,8.866 46.118,2.051 l 32.542,-16.159 c 3.677,-1.828 11.591,-1.605 15.131,0.451 l 24.606,14.256 c 13.32,7.729 32.776,7.903 46.243,0.435 l 41.935,-23.225 c 7.881,-4.362 10.737,-14.294 6.369,-22.175 -4.365,-7.887 -14.302,-10.754 -22.183,-6.37 z"
         id="path12519" />
      <path
         inkscape:connector-curvature="0"
         style="fill:#ffffff"
         d="m 302.159,268.157 -41.941,23.225 c -3.378,1.871 -10.737,1.795 -14.071,-0.125 l -24.606,-14.256 c -13.076,-7.588 -32.433,-8.186 -46.004,-1.452 l -32.536,16.159 c -3.563,1.773 -11.161,1.458 -14.495,-0.598 L 106.592,277.605 C 93.56,269.582 74.153,268.772 60.458,275.658 L 12.996,299.48 c -8.05,4.047 -11.308,13.853 -7.267,21.903 2.866,5.706 8.621,9.002 14.598,9.002 2.464,0 4.96,-0.566 7.31,-1.735 l 47.467,-23.829 c 3.53,-1.773 11.058,-1.474 14.375,0.566 l 21.919,13.505 c 12.999,8.006 32.379,8.86 46.118,2.051 l 32.542,-16.159 c 3.677,-1.833 11.591,-1.605 15.131,0.451 l 24.606,14.256 c 13.32,7.729 32.776,7.908 46.243,0.435 l 41.935,-23.225 c 7.881,-4.362 10.737,-14.294 6.369,-22.175 -4.365,-7.892 -14.302,-10.759 -22.183,-6.369 z"
         id="path12521" />
      <path
         inkscape:connector-curvature="0"
         style="fill:#ffffff"
         d="m 43.199,93.008 -4.873,3.998 c -0.218,0.179 -0.375,0.381 -0.566,0.571 -3.563,3.427 -3.563,8.452 0,11.879 0.196,0.19 0.354,0.392 0.566,0.571 1.403,1.148 3.089,1.893 4.873,2.306 1.006,0.234 2.029,0.392 3.062,0.392 0.8,0 1.594,-0.087 2.377,-0.223 2.034,-0.359 3.976,-1.175 5.559,-2.475 l 107.128,-87.906 107.128,87.901 c 1.496,1.229 3.318,2.002 5.227,2.393 0.892,0.179 1.795,0.305 2.709,0.305 0.919,0 1.833,-0.125 2.73,-0.31 1.904,-0.392 3.715,-1.164 5.2,-2.388 0.092,-0.076 0.152,-0.163 0.239,-0.239 4.03,-3.53 4.03,-9.013 0,-12.542 -0.087,-0.076 -0.147,-0.163 -0.239,-0.239 l -5.2,-4.27 -5.439,-4.46 -84.376,-69.234 -6.63,-5.439 -6.625,-5.439 -6.788,-5.57 C 167.156,0.865 164.24,0 161.325,0 c -2.915,0 -5.831,0.865 -7.936,2.589 l -6.788,5.57 -6.625,5.439 -6.63,5.439 -84.707,69.506 -5.44,4.465 z"
         id="path12523" />
      <path
         inkscape:connector-curvature="0"
         style="fill:#ffffff"
         d="m 170.876,156.982 c 5.972,-2.97 12.836,-4.792 20.086,-5.455 l 0,-38.808 -51.671,0 0,59.944 31.585,-15.681 z"
         id="path12525" />
      <path
         inkscape:connector-curvature="0"
         style="fill:#ffffff"
         d="m 5.893,212.51 c 2.807,5.749 8.507,9.083 14.43,9.083 2.399,0 4.835,-0.549 7.131,-1.697 l 47.467,-23.823 c 1.61,-0.81 4.025,-1.197 6.511,-1.197 3.122,0 6.358,0.615 8.251,1.779 l 21.914,13.505 c 7.076,4.357 16.062,6.581 24.976,6.581 7.326,0 14.609,-1.501 20.75,-4.547 l 32.542,-16.159 c 1.719,-0.854 4.34,-1.273 7.027,-1.273 3.214,0 6.516,0.593 8.49,1.735 l 24.606,14.261 c 6.744,3.905 15.066,5.863 23.377,5.863 7.974,0 15.936,-1.806 22.474,-5.434 l 41.935,-23.225 c 7.8,-4.319 10.671,-14.229 6.413,-22.137 -2.921,-5.428 -8.436,-8.501 -14.131,-8.501 -2.605,0 -5.249,0.642 -7.696,2.002 l -17.889,9.905 -5.978,3.307 -18.074,10.008 c -1.692,0.941 -4.346,1.403 -7.027,1.403 -2.828,0 -5.678,-0.517 -7.435,-1.528 l -5.619,-3.258 -18.988,-10.998 c -5.651,-3.274 -12.483,-5.167 -19.504,-5.793 -1.621,-0.141 -3.242,-0.288 -4.873,-0.288 -0.19,0 -0.381,0.027 -0.566,0.027 -1.822,0.016 -3.639,0.12 -5.439,0.321 -5.428,0.604 -10.671,2.018 -15.246,4.286 l -12.929,6.424 -10.954,5.439 -1.175,0.582 -7.49,3.72 c -1.49,0.734 -3.682,1.082 -5.967,1.137 -0.185,0.005 -0.354,0.044 -0.544,0.044 -0.305,0 -0.604,-0.033 -0.908,-0.044 -1.452,-0.054 -2.877,-0.228 -4.177,-0.533 -1.267,-0.299 -2.42,-0.696 -3.28,-1.218 l -5.031,-3.1 -16.883,-10.405 C 99.33,164.424 90.382,162.21 81.5,162.21 c -7.375,0 -14.702,1.523 -20.87,4.618 l -11.161,5.602 -4.863,2.442 -4.835,2.426 -26.595,13.352 c -7.968,3.992 -11.232,13.783 -7.283,21.86 z"
         id="path12527" />
    </g>
  </g>
</svg>
