<?xml version="1.0" encoding="UTF-8" standalone="no"?>
<svg
   xmlns:dc="http://purl.org/dc/elements/1.1/"
   xmlns:cc="http://creativecommons.org/ns#"
   xmlns:rdf="http://www.w3.org/1999/02/22-rdf-syntax-ns#"
   xmlns:svg="http://www.w3.org/2000/svg"
   xmlns="http://www.w3.org/2000/svg"
   xmlns:xlink="http://www.w3.org/1999/xlink"
   xmlns:sodipodi="http://sodipodi.sourceforge.net/DTD/sodipodi-0.dtd"
   xmlns:inkscape="http://www.inkscape.org/namespaces/inkscape"
   version="1.1"
   viewBox="100 133 53.25 61.5"
   width="71"
   height="82"
   id="svg5325"
   sodipodi:docname="rainfall_medium.svg"
   inkscape:export-filename="/home/mognom/Git/orion/ngsi-datamodel2poi-operator/src/images/alerts/weather/rainfall_medium.png"
   inkscape:export-xdpi="134.3662"
   inkscape:export-ydpi="134.3662"
   inkscape:version="0.91 r13725">
  <sodipodi:namedview
     pagecolor="#ffffff"
     bordercolor="#666666"
     borderopacity="1"
     objecttolerance="10"
     gridtolerance="10"
     guidetolerance="10"
     inkscape:pageopacity="0"
     inkscape:pageshadow="2"
     inkscape:window-width="1920"
     inkscape:window-height="1056"
     id="namedview5327"
     showgrid="false"
     units="px"
     fit-margin-top="0"
     fit-margin-left="0"
     fit-margin-right="0"
     fit-margin-bottom="0"
     inkscape:zoom="5.2149127"
     inkscape:cx="17.29333"
     inkscape:cy="15.868955"
     inkscape:window-x="0"
     inkscape:window-y="24"
     inkscape:window-maximized="1"
     inkscape:current-layer="svg5325" />
  <metadata
     id="metadata5244">
    <dc:date>2017-02-14 20:31Z</dc:date>
    <!-- Produced by OmniGraffle Professional 5.4.2 -->
    <rdf:RDF>
      <cc:Work
         rdf:about="">
        <dc:format>image/svg+xml</dc:format>
        <dc:type
           rdf:resource="http://purl.org/dc/dcmitype/StillImage" />
        <dc:title></dc:title>
      </cc:Work>
    </rdf:RDF>
  </metadata>
  <defs
     id="defs5279">
    <linearGradient
       x1="0"
       x2="1"
       id="Gradient"
       gradientUnits="userSpaceOnUse">
      <stop
         offset="0"
         stop-color="#a1a1a1"
         id="stop5246" />
      <stop
         offset=".5"
         stop-color="#d3ddda"
         id="stop5248" />
      <stop
         offset="1"
         stop-color="#333"
         id="stop5250" />
    </linearGradient>
    <linearGradient
       id="Obj_Gradient"
       xlink:href="#Gradient"
       gradientTransform="matrix(-9.6901415,0,0,-9.6901415,151.86676,195.96937)" />
    <radialGradient
       cx="0"
       cy="0"
       r="1"
       id="Gradient_2"
       gradientUnits="userSpaceOnUse">
      <stop
         offset="0"
         stop-color="#333"
         id="stop5254" />
      <stop
         offset="1"
         stop-color="#fefcff"
         id="stop5256" />
    </radialGradient>
    <radialGradient
       id="Obj_Gradient_2"
       xlink:href="#Gradient_2"
       gradientTransform="matrix(11.294566,-3.8890311,3.8890311,11.294566,152.17186,169.50531)" />
    <radialGradient
       cx="0"
       cy="0"
       r="1"
       id="Gradient_3"
       gradientUnits="userSpaceOnUse">
      <stop
         offset="0"
         stop-color="#333"
         id="stop5260" />
      <stop
         offset="1"
         stop-color="#858586"
         id="stop5262" />
    </radialGradient>
    <radialGradient
       id="Obj_Gradient_3"
       xlink:href="#Gradient_3"
       gradientTransform="matrix(8.5071218,-2.929237,2.929237,8.5071218,143.84009,168.83939)" />
    <radialGradient
       cx="0"
       cy="0"
       r="1"
       id="Gradient_4"
       gradientUnits="userSpaceOnUse">
      <stop
         offset="0"
         stop-color="#fefcff"
         id="stop5266" />
      <stop
         offset="1"
         stop-color="#333"
         id="stop5268" />
    </radialGradient>
    <radialGradient
       id="Obj_Gradient_4"
       xlink:href="#Gradient_4"
       gradientTransform="matrix(-5.2298003,-17.640525,13.831792,-4.1006441,127.07119,190.8652)"
       fx="0.53321111"
       fy="0.55251503"
       cx="0.53321111"
       cy="0.55251503" />
    <radialGradient
       id="Obj_Gradient_5"
       xlink:href="#Gradient_3"
       gradientTransform="matrix(10.232955,-3.523489,3.523489,10.232955,142.2044,184.12234)" />
    <radialGradient
       cx="0"
       cy="0"
       r="1"
       id="Gradient_5"
       gradientUnits="userSpaceOnUse">
      <stop
         offset="0"
         stop-color="#fbfcff"
         id="stop5273" />
      <stop
         offset="1"
         stop-color="#333"
         id="stop5275" />
    </radialGradient>
    <radialGradient
       id="Obj_Gradient_6"
       xlink:href="#Gradient_5"
       gradientTransform="matrix(7.9377967,1.1155846,-1.1155846,7.9377967,162.65024,176.08292)"
       fx="0.021611352"
       fy="0.048555344"
       cx="0.021611352"
       cy="0.048555344" />
    <filter
       style="color-interpolation-filters:sRGB;"
       inkscape:label="Drop Shadow"
       id="filter6193">
      <feFlood
         flood-opacity="0.498039"
         flood-color="rgb(0,0,0)"
         result="flood"
         id="feFlood6183" />
      <feComposite
         in="flood"
         in2="SourceGraphic"
         operator="in"
         result="composite1"
         id="feComposite6185" />
      <feGaussianBlur
         in="composite1"
         stdDeviation="1"
         result="blur"
         id="feGaussianBlur6187" />
      <feOffset
         dx="1"
         dy="1"
         result="offset"
         id="feOffset6189" />
      <feComposite
         in="SourceGraphic"
         in2="offset"
         operator="over"
         result="composite2"
         id="feComposite6191" />
    </filter>
  </defs>
  <path
     style="fill:#eec20b;fill-opacity:1;stroke:#333333;stroke-width:2.09588695;stroke-linecap:round;stroke-linejoin:round;stroke-dasharray:none;stroke-opacity:1;filter:url(#filter6193)"
     d="m 151.07706,159.20895 c 0,13.5045 -24.45206,33.53419 -24.45206,33.53419 0,0 -24.45206,-20.02969 -24.45206,-33.53419 0,-13.5045 10.94756,-24.45206 24.45206,-24.45206 13.5045,0 24.45206,10.94756 24.45206,24.45206 z"
     id="circle5287"
     inkscape:connector-curvature="0"
     sodipodi:nodetypes="scsss"
     transform="matrix(0.93294792,0,0,0.93294792,8.4904676,10.979762)" />
  <g
     transform="matrix(0.99061272,0,0,0.99061272,111.04422,140.82597)"
     id="g10060"
     style="fill:#ffffff"
     inkscape:export-xdpi="134"
     inkscape:export-ydpi="134">
    <g
       id="g10062"
       style="fill:#ffffff">
      <path
         inkscape:connector-curvature="0"
         style="fill:#ffffff"
         d="m 20,25.5 c -0.553,0 -1,0.443 -1,1.01 l 0,1.98 c 0,0.558 0.443,1.01 1,1.01 0.553,0 1,-0.443 1,-1.01 l 0,-1.98 C 21,25.952 20.557,25.5 20,25.5 Z"
         id="path10064" />
      <path
         inkscape:connector-curvature="0"
         style="fill:#ffffff"
         d="m 12,25.5 c -0.553,0 -1,0.443 -1,1.01 l 0,1.98 c 0,0.558 0.444,1.01 1,1.01 0.553,0 1,-0.443 1,-1.01 l 0,-1.98 C 13,25.952 12.556,25.5 12,25.5 Z"
         id="path10066" />
      <path
         inkscape:connector-curvature="0"
         style="fill:#ffffff"
         d="m 24,23.5 c -0.553,0 -1,0.443 -1,1.01 l 0,1.98 c 0,0.558 0.443,1.01 1,1.01 0.553,0 1,-0.443 1,-1.01 l 0,-1.98 C 25,23.952 24.557,23.5 24,23.5 Z"
         id="path10068" />
      <path
         inkscape:connector-curvature="0"
         style="fill:#ffffff"
         d="m 16,23.5 c -0.553,0 -1,0.443 -1,1.01 l 0,1.98 c 0,0.558 0.444,1.01 1,1.01 0.553,0 1,-0.443 1,-1.01 l 0,-1.98 C 17,23.952 16.557,23.5 16,23.5 Z"
         id="path10070" />
      <path
         inkscape:connector-curvature="0"
         style="fill:#ffffff"
         d="m 8,23.5 c -0.553,0 -1,0.443 -1,1.01 l 0,1.98 c 0,0.558 0.444,1.01 1,1.01 0.553,0 1,-0.443 1,-1.01 L 9,24.51 C 9,23.952 8.556,23.5 8,23.5 Z"
         id="path10072" />
      <path
         inkscape:connector-curvature="0"
         style="fill:#ffffff"
         d="M 27.586,10.712 C 26.66,8.251 24.284,6.5 21.5,6.5 20.859,6.5 20.24,6.593 19.654,6.766 18.068,4.205 15.233,2.5 12,2.5 7.096,2.5 3.106,6.424 3.002,11.303 1.207,12.342 0,14.283 0,16.5 c 0,3.312 2.687,6 6,6 l 20,0 c 3.312,0 6,-2.693 6,-6 0,-2.765 -1.87,-5.093 -4.414,-5.788 z M 26.003,20.5 5.997,20.5 C 3.794,20.5 2,18.709 2,16.5 2,14.608 3.317,13.018 5.087,12.604 5.029,12.245 5,11.876 5,11.5 c 0,-3.866 3.134,-7 7,-7 3.162,0 5.834,2.097 6.702,4.975 C 19.471,8.864 20.441,8.5 21.5,8.5 c 2.316,0 4.225,1.75 4.473,4 l 0.03,0 c 2.203,0 3.997,1.791 3.997,4 0,2.205 -1.789,4 -3.997,4 z"
         id="path10074" />
    </g>
  </g>
</svg>
