<?xml version="1.0" encoding="UTF-8" standalone="no"?>
<svg
   xmlns:dc="http://purl.org/dc/elements/1.1/"
   xmlns:cc="http://creativecommons.org/ns#"
   xmlns:rdf="http://www.w3.org/1999/02/22-rdf-syntax-ns#"
   xmlns:svg="http://www.w3.org/2000/svg"
   xmlns="http://www.w3.org/2000/svg"
   xmlns:xlink="http://www.w3.org/1999/xlink"
   xmlns:sodipodi="http://sodipodi.sourceforge.net/DTD/sodipodi-0.dtd"
   xmlns:inkscape="http://www.inkscape.org/namespaces/inkscape"
   version="1.1"
   viewBox="100 133 53.25 61.5"
   width="71"
   height="82"
   id="svg5325"
   sodipodi:docname="snow_medium.svg"
   inkscape:export-filename="/home/mognom/Git/orion/ngsi-datamodel2poi-operator/src/images/alerts/weather/snow_medium.png"
   inkscape:export-xdpi="134.3662"
   inkscape:export-ydpi="134.3662"
   inkscape:version="0.91 r13725">
  <sodipodi:namedview
     pagecolor="#ffffff"
     bordercolor="#666666"
     borderopacity="1"
     objecttolerance="10"
     gridtolerance="10"
     guidetolerance="10"
     inkscape:pageopacity="0"
     inkscape:pageshadow="2"
     inkscape:window-width="1920"
     inkscape:window-height="1056"
     id="namedview5327"
     showgrid="false"
     units="px"
     fit-margin-top="0"
     fit-margin-left="0"
     fit-margin-right="0"
     fit-margin-bottom="0"
     inkscape:zoom="5.2149127"
     inkscape:cx="17.29333"
     inkscape:cy="15.868955"
     inkscape:window-x="0"
     inkscape:window-y="24"
     inkscape:window-maximized="1"
     inkscape:current-layer="svg5325" />
  <metadata
     id="metadata5244">
    <dc:date>2017-02-14 20:31Z</dc:date>
    <!-- Produced by OmniGraffle Professional 5.4.2 -->
    <rdf:RDF>
      <cc:Work
         rdf:about="">
        <dc:format>image/svg+xml</dc:format>
        <dc:type
           rdf:resource="http://purl.org/dc/dcmitype/StillImage" />
        <dc:title></dc:title>
      </cc:Work>
    </rdf:RDF>
  </metadata>
  <defs
     id="defs5279">
    <linearGradient
       x1="0"
       x2="1"
       id="Gradient"
       gradientUnits="userSpaceOnUse">
      <stop
         offset="0"
         stop-color="#a1a1a1"
         id="stop5246" />
      <stop
         offset=".5"
         stop-color="#d3ddda"
         id="stop5248" />
      <stop
         offset="1"
         stop-color="#333"
         id="stop5250" />
    </linearGradient>
    <linearGradient
       id="Obj_Gradient"
       xlink:href="#Gradient"
       gradientTransform="matrix(-9.6901415,0,0,-9.6901415,151.86676,195.96937)" />
    <radialGradient
       cx="0"
       cy="0"
       r="1"
       id="Gradient_2"
       gradientUnits="userSpaceOnUse">
      <stop
         offset="0"
         stop-color="#333"
         id="stop5254" />
      <stop
         offset="1"
         stop-color="#fefcff"
         id="stop5256" />
    </radialGradient>
    <radialGradient
       id="Obj_Gradient_2"
       xlink:href="#Gradient_2"
       gradientTransform="matrix(11.294566,-3.8890311,3.8890311,11.294566,152.17186,169.50531)" />
    <radialGradient
       cx="0"
       cy="0"
       r="1"
       id="Gradient_3"
       gradientUnits="userSpaceOnUse">
      <stop
         offset="0"
         stop-color="#333"
         id="stop5260" />
      <stop
         offset="1"
         stop-color="#858586"
         id="stop5262" />
    </radialGradient>
    <radialGradient
       id="Obj_Gradient_3"
       xlink:href="#Gradient_3"
       gradientTransform="matrix(8.5071218,-2.929237,2.929237,8.5071218,143.84009,168.83939)" />
    <radialGradient
       cx="0"
       cy="0"
       r="1"
       id="Gradient_4"
       gradientUnits="userSpaceOnUse">
      <stop
         offset="0"
         stop-color="#fefcff"
         id="stop5266" />
      <stop
         offset="1"
         stop-color="#333"
         id="stop5268" />
    </radialGradient>
    <radialGradient
       id="Obj_Gradient_4"
       xlink:href="#Gradient_4"
       gradientTransform="matrix(-5.2298003,-17.640525,13.831792,-4.1006441,127.07119,190.8652)"
       fx="0.53321111"
       fy="0.55251503"
       cx="0.53321111"
       cy="0.55251503" />
    <radialGradient
       id="Obj_Gradient_5"
       xlink:href="#Gradient_3"
       gradientTransform="matrix(10.232955,-3.523489,3.523489,10.232955,142.2044,184.12234)" />
    <radialGradient
       cx="0"
       cy="0"
       r="1"
       id="Gradient_5"
       gradientUnits="userSpaceOnUse">
      <stop
         offset="0"
         stop-color="#fbfcff"
         id="stop5273" />
      <stop
         offset="1"
         stop-color="#333"
         id="stop5275" />
    </radialGradient>
    <radialGradient
       id="Obj_Gradient_6"
       xlink:href="#Gradient_5"
       gradientTransform="matrix(7.9377967,1.1155846,-1.1155846,7.9377967,162.65024,176.08292)"
       fx="0.021611352"
       fy="0.048555344"
       cx="0.021611352"
       cy="0.048555344" />
    <filter
       style="color-interpolation-filters:sRGB;"
       inkscape:label="Drop Shadow"
       id="filter6193">
      <feFlood
         flood-opacity="0.498039"
         flood-color="rgb(0,0,0)"
         result="flood"
         id="feFlood6183" />
      <feComposite
         in="flood"
         in2="SourceGraphic"
         operator="in"
         result="composite1"
         id="feComposite6185" />
      <feGaussianBlur
         in="composite1"
         stdDeviation="1"
         result="blur"
         id="feGaussianBlur6187" />
      <feOffset
         dx="1"
         dy="1"
         result="offset"
         id="feOffset6189" />
      <feComposite
         in="SourceGraphic"
         in2="offset"
         operator="over"
         result="composite2"
         id="feComposite6191" />
    </filter>
    <filter
       style="color-interpolation-filters:sRGB"
       inkscape:label="Drop Shadow"
       id="filter6193-5">
      <feFlood
         flood-opacity="0.498039"
         flood-color="rgb(0,0,0)"
         result="flood"
         id="feFlood6183-0" />
      <feComposite
         in="flood"
         in2="SourceGraphic"
         operator="in"
         result="composite1"
         id="feComposite6185-3" />
      <feGaussianBlur
         in="composite1"
         stdDeviation="1"
         result="blur"
         id="feGaussianBlur6187-6" />
      <feOffset
         dx="1"
         dy="1"
         result="offset"
         id="feOffset6189-1" />
      <feComposite
         in="SourceGraphic"
         in2="offset"
         operator="over"
         result="composite2"
         id="feComposite6191-0" />
    </filter>
  </defs>
  <path
     style="fill:#eec20b;fill-opacity:1;stroke:#333333;stroke-width:2.09588695;stroke-linecap:round;stroke-linejoin:round;stroke-dasharray:none;stroke-opacity:1;filter:url(#filter6193)"
     d="m 151.07706,159.20895 c 0,13.5045 -24.45206,33.53419 -24.45206,33.53419 0,0 -24.45206,-20.02969 -24.45206,-33.53419 0,-13.5045 10.94756,-24.45206 24.45206,-24.45206 13.5045,0 24.45206,10.94756 24.45206,24.45206 z"
     id="circle5287"
     inkscape:connector-curvature="0"
     sodipodi:nodetypes="scsss"
     transform="matrix(0.93294792,0,0,0.93294792,8.4904676,10.979762)" />
  <g
     transform="matrix(0.04533326,0,0,0.04533326,110.59061,142.38581)"
     id="g11696"
     style="fill:#ffffff">
    <path
       inkscape:connector-curvature="0"
       d="m 645.527,495.815 -75.609,-43.689 63.832,-38.015 c 10.262,-4.944 13.438,-18.724 7.602,-28.855 -5.941,-10.375 -18.764,-12.563 -28.498,-6.89 l -85.107,49.849 -135.259,-78.705 135.258,-77.894 85.107,49.768 c 2.658,1.945 6.078,3.08 9.881,3.08 7.213,0 13.674,-3.404 18.617,-9.889 5.699,-10.294 2.66,-23.911 -7.602,-28.855 l -63.832,-38.015 75.609,-43.688 c 9.855,-5.674 13.244,-18.4 7.602,-28.856 -5.389,-10.051 -18.723,-13.536 -28.879,-7.619 l -75.99,44.094 -1.135,-76.03 c -0.178,-11.753 -9.119,-21.237 -20.896,-21.237 -11.775,0 -20.984,10.213 -20.895,21.237 l 0.754,100.346 -134.496,77.894 0,-158.058 84.727,-48.309 c 9.891,-5.593 14.201,-18.643 8.357,-28.855 -5.934,-10.375 -18.115,-13.456 -28.498,-7.619 l -64.586,36.475 0,-86.244 C 371.591,9.483 362.091,0 350.314,0 338.537,0 329.418,9.483 329.418,21.236 l 0,87.053 -66.871,-37.285 c -10.416,-5.755 -22.274,-2.513 -28.118,7.619 -5.933,10.375 -2.245,23.101 7.976,28.855 l 87.013,49.039 0,156.518 -137.542,-79.353 0.762,-98.077 c 1.143,-11.023 -8.738,-21.237 -20.515,-21.237 l -0.762,0 c -11.016,0 -20.774,9.484 -20.896,21.237 l -0.762,73.76 -74.084,-42.554 c -10.343,-5.998 -23.109,-2.432 -28.499,7.538 -5.642,10.537 -2.724,22.939 7.603,28.937 l 74.846,43.283 -65.354,39.15 C 53.96,290.664 50.758,304.443 57,314.575 c 4.02,6.566 9.873,9.889 17.856,9.889 4.174,0 7.651,-1.054 11.015,-3.08 L 171.36,270.886 308.522,349.51 171.36,428.944 85.871,378.366 c -10.262,-5.998 -23.49,-3.161 -28.872,6.89 -5.642,10.456 -2.578,23.02 7.214,28.855 l 65.355,38.744 -74.847,43.689 c -10.302,5.998 -13.642,18.643 -7.603,28.937 4.224,7.133 9.882,10.619 17.858,10.619 1.897,0 5.698,-1.135 10.643,-3.08 l 74.084,-42.554 0.762,73.76 c 0.122,11.753 9.88,20.831 20.896,20.831 l 0.762,0 c 11.777,0 20.604,-9.808 20.515,-21.642 l -0.762,-97.996 137.542,-78.623 0,155.707 -87.013,49.038 c -10.383,5.836 -14.015,18.562 -7.976,28.856 4.223,7.214 9.881,10.699 17.856,10.699 3.802,0 7.303,-0.648 10.262,-2.351 l 66.871,-37.935 0,88.513 c 0,11.753 9.119,20.912 20.896,20.912 11.777,0 21.277,-9.159 21.277,-20.912 l 0,-87.054 64.586,36.476 c 2.957,1.702 6.459,2.351 9.881,2.351 8.355,0 14.516,-3.404 18.617,-10.699 5.771,-10.213 2.043,-23.021 -8.357,-28.856 l -84.727,-47.498 0,-158.058 134.496,77.894 -0.754,99.536 c -0.098,11.834 9.119,21.642 20.896,21.642 11.777,0 20.717,-9.078 20.895,-20.831 l 1.135,-76.435 75.99,44.499 c 2.934,1.702 6.84,2.27 11.023,2.27 7.977,0 13.828,-3.323 17.855,-9.889 6.236,-10.132 2.255,-23.182 -7.6,-28.856 z"
       id="path11698"
       style="fill:#ffffff" />
  </g>
</svg>
