<?xml version="1.0" encoding="UTF-8" standalone="no"?>
<svg
   xmlns:dc="http://purl.org/dc/elements/1.1/"
   xmlns:cc="http://creativecommons.org/ns#"
   xmlns:rdf="http://www.w3.org/1999/02/22-rdf-syntax-ns#"
   xmlns:svg="http://www.w3.org/2000/svg"
   xmlns="http://www.w3.org/2000/svg"
   xmlns:xlink="http://www.w3.org/1999/xlink"
   xmlns:sodipodi="http://sodipodi.sourceforge.net/DTD/sodipodi-0.dtd"
   xmlns:inkscape="http://www.inkscape.org/namespaces/inkscape"
   version="1.1"
   viewBox="100 133 53.25 61.5"
   width="71"
   height="82"
   id="svg5325"
   sodipodi:docname="tsunami_high.svg"
   inkscape:export-filename="/home/mognom/Git/orion/ngsi-datamodel2poi-operator/src/images/alerts/weather/tsunami_high.png"
   inkscape:export-xdpi="134.3662"
   inkscape:export-ydpi="134.3662"
   inkscape:version="0.91 r13725">
  <sodipodi:namedview
     pagecolor="#ffffff"
     bordercolor="#666666"
     borderopacity="1"
     objecttolerance="10"
     gridtolerance="10"
     guidetolerance="10"
     inkscape:pageopacity="0"
     inkscape:pageshadow="2"
     inkscape:window-width="1920"
     inkscape:window-height="1056"
     id="namedview5327"
     showgrid="false"
     units="px"
     fit-margin-top="0"
     fit-margin-left="0"
     fit-margin-right="0"
     fit-margin-bottom="0"
     inkscape:zoom="7.3750002"
     inkscape:cx="102.60281"
     inkscape:cy="38.422697"
     inkscape:window-x="0"
     inkscape:window-y="24"
     inkscape:window-maximized="1"
     inkscape:current-layer="svg5325" />
  <metadata
     id="metadata5244">
    <dc:date>2017-02-14 20:31Z</dc:date>
    <!-- Produced by OmniGraffle Professional 5.4.2 -->
    <rdf:RDF>
      <cc:Work
         rdf:about="">
        <dc:format>image/svg+xml</dc:format>
        <dc:type
           rdf:resource="http://purl.org/dc/dcmitype/StillImage" />
        <dc:title></dc:title>
      </cc:Work>
    </rdf:RDF>
  </metadata>
  <defs
     id="defs5279">
    <linearGradient
       x1="0"
       x2="1"
       id="Gradient"
       gradientUnits="userSpaceOnUse">
      <stop
         offset="0"
         stop-color="#a1a1a1"
         id="stop5246" />
      <stop
         offset=".5"
         stop-color="#d3ddda"
         id="stop5248" />
      <stop
         offset="1"
         stop-color="#333"
         id="stop5250" />
    </linearGradient>
    <linearGradient
       id="Obj_Gradient"
       xlink:href="#Gradient"
       gradientTransform="matrix(-9.6901415,0,0,-9.6901415,151.86676,195.96937)" />
    <radialGradient
       cx="0"
       cy="0"
       r="1"
       id="Gradient_2"
       gradientUnits="userSpaceOnUse">
      <stop
         offset="0"
         stop-color="#333"
         id="stop5254" />
      <stop
         offset="1"
         stop-color="#fefcff"
         id="stop5256" />
    </radialGradient>
    <radialGradient
       id="Obj_Gradient_2"
       xlink:href="#Gradient_2"
       gradientTransform="matrix(11.294566,-3.8890311,3.8890311,11.294566,152.17186,169.50531)" />
    <radialGradient
       cx="0"
       cy="0"
       r="1"
       id="Gradient_3"
       gradientUnits="userSpaceOnUse">
      <stop
         offset="0"
         stop-color="#333"
         id="stop5260" />
      <stop
         offset="1"
         stop-color="#858586"
         id="stop5262" />
    </radialGradient>
    <radialGradient
       id="Obj_Gradient_3"
       xlink:href="#Gradient_3"
       gradientTransform="matrix(8.5071218,-2.929237,2.929237,8.5071218,143.84009,168.83939)" />
    <radialGradient
       cx="0"
       cy="0"
       r="1"
       id="Gradient_4"
       gradientUnits="userSpaceOnUse">
      <stop
         offset="0"
         stop-color="#fefcff"
         id="stop5266" />
      <stop
         offset="1"
         stop-color="#333"
         id="stop5268" />
    </radialGradient>
    <radialGradient
       id="Obj_Gradient_4"
       xlink:href="#Gradient_4"
       gradientTransform="matrix(-5.2298003,-17.640525,13.831792,-4.1006441,127.07119,190.8652)"
       fx="0.53321111"
       fy="0.55251503"
       cx="0.53321111"
       cy="0.55251503" />
    <radialGradient
       id="Obj_Gradient_5"
       xlink:href="#Gradient_3"
       gradientTransform="matrix(10.232955,-3.523489,3.523489,10.232955,142.2044,184.12234)" />
    <radialGradient
       cx="0"
       cy="0"
       r="1"
       id="Gradient_5"
       gradientUnits="userSpaceOnUse">
      <stop
         offset="0"
         stop-color="#fbfcff"
         id="stop5273" />
      <stop
         offset="1"
         stop-color="#333"
         id="stop5275" />
    </radialGradient>
    <radialGradient
       id="Obj_Gradient_6"
       xlink:href="#Gradient_5"
       gradientTransform="matrix(7.9377967,1.1155846,-1.1155846,7.9377967,162.65024,176.08292)"
       fx="0.021611352"
       fy="0.048555344"
       cx="0.021611352"
       cy="0.048555344" />
    <filter
       style="color-interpolation-filters:sRGB;"
       inkscape:label="Drop Shadow"
       id="filter6193">
      <feFlood
         flood-opacity="0.498039"
         flood-color="rgb(0,0,0)"
         result="flood"
         id="feFlood6183" />
      <feComposite
         in="flood"
         in2="SourceGraphic"
         operator="in"
         result="composite1"
         id="feComposite6185" />
      <feGaussianBlur
         in="composite1"
         stdDeviation="1"
         result="blur"
         id="feGaussianBlur6187" />
      <feOffset
         dx="1"
         dy="1"
         result="offset"
         id="feOffset6189" />
      <feComposite
         in="SourceGraphic"
         in2="offset"
         operator="over"
         result="composite2"
         id="feComposite6191" />
    </filter>
  </defs>
  <path
     style="fill:#f8001c;fill-opacity:1;stroke:#333333;stroke-width:2.09588695;stroke-linecap:round;stroke-linejoin:round;stroke-dasharray:none;stroke-opacity:1;filter:url(#filter6193)"
     d="m 151.07706,159.20895 c 0,13.5045 -24.45206,33.53419 -24.45206,33.53419 0,0 -24.45206,-20.02969 -24.45206,-33.53419 0,-13.5045 10.94756,-24.45206 24.45206,-24.45206 13.5045,0 24.45206,10.94756 24.45206,24.45206 z"
     id="circle5287"
     inkscape:connector-curvature="0"
     sodipodi:nodetypes="scsss"
     transform="matrix(0.93294792,0,0,0.93294792,8.1853829,11.081457)" />
  <path
     style="fill:#ffffff"
     d="m 110.73624,159.99825 0,-7.61992 0.79475,-0.40273 c 1.74912,-0.88635 4.23832,-2.4635 6.52223,-4.13247 2.94777,-2.15408 4.49654,-2.98422 6.05932,-3.24782 2.06554,-0.34839 3.75374,0.0343 5.60581,1.27119 0.88459,0.5907 2.70465,2.14696 2.60756,2.2296 -0.0243,0.0206 -0.4293,-0.0155 -0.89986,-0.0805 -2.34763,-0.32456 -4.43757,0.82453 -5.50247,3.02529 -1.17403,2.42632 -0.83099,5.23562 0.87613,7.17502 0.75817,0.86131 1.57298,1.39832 2.72093,1.79328 0.87712,0.30176 2.83877,0.57444 2.83877,0.39457 0,-0.0559 -0.11656,-0.52058 -0.25884,-1.03264 -0.2722,-0.97902 -0.41514,-1.07655 -1.16999,-0.79824 -1.34022,0.49413 -1.3354,0.48091 0.89487,-2.45191 l 2.12592,-2.79558 0.79852,0.31513 c 0.43921,0.17332 1.81116,0.69905 3.0488,1.16831 2.91432,1.10494 2.86578,1.07393 2.02105,1.29153 -0.38136,0.0982 -0.83992,0.22734 -1.01906,0.2869 l -0.32571,0.10833 0.36947,1.20628 0.36949,1.20626 0.65624,-0.33308 c 0.36095,-0.1832 0.95378,-0.53687 1.3174,-0.78595 l 0.66115,-0.45286 0,5.14102 0,5.14103 -15.55624,0 -15.55624,0 0,-7.61994 z m 24.11217,0.23305 c 0.55941,-0.0759 3.24205,-0.80859 3.37789,-0.92252 0.0447,-0.0374 -1.00645,-3.52717 -1.08646,-3.60719 -0.19209,-0.19208 -2.83939,-1.12827 -2.91845,-1.03207 -0.0519,0.0631 -0.46819,0.59996 -0.92513,1.19297 l -0.83076,1.07818 0.18888,0.71079 c 0.63599,2.39332 0.81274,2.81153 1.1589,2.74209 0.1843,-0.0369 0.65011,-0.11003 1.03513,-0.16225 z"
     id="path12837"
     inkscape:connector-curvature="0" />
</svg>
