<?xml version="1.0" encoding="UTF-8" standalone="no"?>
<svg
   xmlns:dc="http://purl.org/dc/elements/1.1/"
   xmlns:cc="http://creativecommons.org/ns#"
   xmlns:rdf="http://www.w3.org/1999/02/22-rdf-syntax-ns#"
   xmlns:svg="http://www.w3.org/2000/svg"
   xmlns="http://www.w3.org/2000/svg"
   xmlns:xlink="http://www.w3.org/1999/xlink"
   xmlns:sodipodi="http://sodipodi.sourceforge.net/DTD/sodipodi-0.dtd"
   xmlns:inkscape="http://www.inkscape.org/namespaces/inkscape"
   version="1.1"
   viewBox="100 133 53.25 61.5"
   width="71"
   height="82"
   id="svg5325"
   sodipodi:docname="low.svg"
   inkscape:export-filename="/Users/aarranz/src/macs/demos/GSMA/ngsi-entity2poi-gsma/images/low2.png"
   inkscape:export-xdpi="192"
   inkscape:export-ydpi="192"
   inkscape:version="0.92.0 r">
  <sodipodi:namedview
     pagecolor="#ffffff"
     bordercolor="#666666"
     borderopacity="1"
     objecttolerance="10"
     gridtolerance="10"
     guidetolerance="10"
     inkscape:pageopacity="0"
     inkscape:pageshadow="2"
     inkscape:window-width="1341"
     inkscape:window-height="771"
     id="namedview5327"
     showgrid="false"
     units="px"
     fit-margin-top="0"
     fit-margin-left="0"
     fit-margin-right="0"
     fit-margin-bottom="0"
     inkscape:zoom="2.6074563"
     inkscape:cx="44.713216"
     inkscape:cy="65.766131"
     inkscape:window-x="190"
     inkscape:window-y="94"
     inkscape:window-maximized="0"
     inkscape:current-layer="svg5325" />
  <metadata
     id="metadata5244">
    <dc:date>2017-02-14 20:31Z</dc:date>
    <!-- Produced by OmniGraffle Professional 5.4.2 -->
    <rdf:RDF>
      <cc:Work
         rdf:about="">
        <dc:format>image/svg+xml</dc:format>
        <dc:type
           rdf:resource="http://purl.org/dc/dcmitype/StillImage" />
        <dc:title></dc:title>
      </cc:Work>
    </rdf:RDF>
  </metadata>
  <defs
     id="defs5279">
    <linearGradient
       x1="0"
       x2="1"
       id="Gradient"
       gradientUnits="userSpaceOnUse">
      <stop
         offset="0"
         stop-color="#a1a1a1"
         id="stop5246" />
      <stop
         offset=".5"
         stop-color="#d3ddda"
         id="stop5248" />
      <stop
         offset="1"
         stop-color="#333"
         id="stop5250" />
    </linearGradient>
    <linearGradient
       id="Obj_Gradient"
       xlink:href="#Gradient"
       gradientTransform="matrix(-9.6901415,0,0,-9.6901415,151.86676,195.96937)" />
    <radialGradient
       cx="0"
       cy="0"
       r="1"
       id="Gradient_2"
       gradientUnits="userSpaceOnUse">
      <stop
         offset="0"
         stop-color="#333"
         id="stop5254" />
      <stop
         offset="1"
         stop-color="#fefcff"
         id="stop5256" />
    </radialGradient>
    <radialGradient
       id="Obj_Gradient_2"
       xlink:href="#Gradient_2"
       gradientTransform="matrix(11.294566,-3.8890311,3.8890311,11.294566,152.17186,169.50531)" />
    <radialGradient
       cx="0"
       cy="0"
       r="1"
       id="Gradient_3"
       gradientUnits="userSpaceOnUse">
      <stop
         offset="0"
         stop-color="#333"
         id="stop5260" />
      <stop
         offset="1"
         stop-color="#858586"
         id="stop5262" />
    </radialGradient>
    <radialGradient
       id="Obj_Gradient_3"
       xlink:href="#Gradient_3"
       gradientTransform="matrix(8.5071218,-2.929237,2.929237,8.5071218,143.84009,168.83939)" />
    <radialGradient
       cx="0"
       cy="0"
       r="1"
       id="Gradient_4"
       gradientUnits="userSpaceOnUse">
      <stop
         offset="0"
         stop-color="#fefcff"
         id="stop5266" />
      <stop
         offset="1"
         stop-color="#333"
         id="stop5268" />
    </radialGradient>
    <radialGradient
       id="Obj_Gradient_4"
       xlink:href="#Gradient_4"
       gradientTransform="matrix(-5.2298003,-17.640525,13.831792,-4.1006441,127.07119,190.8652)"
       fx="0.53321111"
       fy="0.55251503"
       cx="0.53321111"
       cy="0.55251503" />
    <radialGradient
       id="Obj_Gradient_5"
       xlink:href="#Gradient_3"
       gradientTransform="matrix(10.232955,-3.523489,3.523489,10.232955,142.2044,184.12234)" />
    <radialGradient
       cx="0"
       cy="0"
       r="1"
       id="Gradient_5"
       gradientUnits="userSpaceOnUse">
      <stop
         offset="0"
         stop-color="#fbfcff"
         id="stop5273" />
      <stop
         offset="1"
         stop-color="#333"
         id="stop5275" />
    </radialGradient>
    <radialGradient
       id="Obj_Gradient_6"
       xlink:href="#Gradient_5"
       gradientTransform="matrix(7.9377967,1.1155846,-1.1155846,7.9377967,162.65024,176.08292)"
       fx="0.021611352"
       fy="0.048555344"
       cx="0.021611352"
       cy="0.048555344" />
    <filter
       style="color-interpolation-filters:sRGB;"
       inkscape:label="Drop Shadow"
       id="filter6193">
      <feFlood
         flood-opacity="0.498039"
         flood-color="rgb(0,0,0)"
         result="flood"
         id="feFlood6183" />
      <feComposite
         in="flood"
         in2="SourceGraphic"
         operator="in"
         result="composite1"
         id="feComposite6185" />
      <feGaussianBlur
         in="composite1"
         stdDeviation="1"
         result="blur"
         id="feGaussianBlur6187" />
      <feOffset
         dx="1"
         dy="1"
         result="offset"
         id="feOffset6189" />
      <feComposite
         in="SourceGraphic"
         in2="offset"
         operator="over"
         result="composite2"
         id="feComposite6191" />
    </filter>
    <radialGradient
       inkscape:collect="always"
       xlink:href="#Gradient_5"
       id="radialGradient6265"
       gradientTransform="matrix(22.872445,5.658432,-3.8874601,15.713844,162.46206,175.60718)"
       cx="0.021611352"
       cy="0.048555344"
       fx="0.021611352"
       fy="0.048555344" />
    <linearGradient
       inkscape:collect="always"
       xlink:href="#Gradient_2"
       id="linearGradient6267"
       x1="145.76482"
       y1="170.82925"
       x2="142.02412"
       y2="159.81586"
       gradientUnits="userSpaceOnUse" />
  </defs>
  <path
     style="fill:#bbcf4c;fill-opacity:1;stroke:#333333;stroke-width:2.09588695;stroke-linecap:round;stroke-linejoin:round;stroke-dasharray:none;stroke-opacity:1;filter:url(#filter6193)"
     d="m 151.07706,159.20895 c 0,13.5045 -24.45206,33.53419 -24.45206,33.53419 0,0 -24.45206,-20.02969 -24.45206,-33.53419 0,-13.5045 10.94756,-24.45206 24.45206,-24.45206 13.5045,0 24.45206,10.94756 24.45206,24.45206 z"
     id="circle5287"
     inkscape:connector-curvature="0"
     sodipodi:nodetypes="scsss"
     transform="matrix(0.93294792,0,0,0.93294792,8.4904676,10.979762)" />
  <g
     id="g5981"
     transform="matrix(0.69862899,0,0,0.69862899,23.22791,32.757098)">
    <path
       inkscape:connector-curvature="0"
       style="fill:url(#Obj_Gradient);fill-opacity:1;stroke:none;stroke-dasharray:none;stroke-opacity:1"
       id="path5289"
       d="m 142.17662,203.29081 v -14.64288 c 0,-1.01036 2.17059,-1.83036 4.84507,-1.83036 2.67448,0 4.84507,0.82 4.84507,1.83036 v 14.64288 c 0,1.01036 -2.17059,1.83036 -4.84507,1.83036 -2.67448,0 -4.84507,-0.82 -4.84507,-1.83036" />
    <path
       style="fill:none;fill-opacity:1;stroke:#000000;stroke-width:1;stroke-linecap:round;stroke-linejoin:round;stroke-dasharray:none;stroke-opacity:1"
       inkscape:connector-curvature="0"
       id="path5291"
       d="m 142.17662,203.29081 v -14.64288 c 0,-1.01036 2.17059,-1.83036 4.84507,-1.83036 2.67448,0 4.84507,0.82 4.84507,1.83036 v 14.64288 c 0,1.01036 -2.17059,1.83036 -4.84507,1.83036 -2.67448,0 -4.84507,-0.82 -4.84507,-1.83036 m 0,-14.64288 c 0,1.01036 2.17059,1.83036 4.84507,1.83036 2.67448,0 4.84507,-0.82 4.84507,-1.83036" />
    <path
       inkscape:connector-curvature="0"
       style="fill:url(#linearGradient6267);fill-opacity:1;stroke:none;stroke-dasharray:none;stroke-opacity:1"
       id="path5293"
       d="m 142.62151,170.7061 3.81759,-1.3145 c 1.90879,-0.65725 3.3356,-2.71428 1.88965,-6.91363 -1.44595,-4.19934 -3.83673,-4.94187 -5.74552,-4.28462 l -3.81759,1.3145 z" />
    <path
       style="fill:none;fill-opacity:1;stroke:#000000;stroke-width:1;stroke-linecap:round;stroke-linejoin:round;stroke-dasharray:none;stroke-opacity:1"
       inkscape:connector-curvature="0"
       id="path5295"
       d="m 142.62151,170.7061 3.81759,-1.3145 c 1.90879,-0.65725 3.3356,-2.71428 1.88965,-6.91363 -1.44595,-4.19934 -3.83673,-4.94187 -5.74552,-4.28462 l -3.81759,1.3145 z" />
    <path
       inkscape:connector-curvature="0"
       style="fill:url(#Obj_Gradient_3);fill-opacity:1;stroke:none;stroke-dasharray:none;stroke-opacity:1"
       id="path5297"
       d="m 140.18647,160.853 c 1.64742,1.87859 2.86812,5.42375 2.72651,7.91836 -0.14161,2.49461 -1.59191,2.99398 -3.23933,1.11539 -1.64743,-1.87859 -2.86812,-5.42376 -2.72651,-7.91836 0.14161,-2.49461 1.5919,-2.99399 3.23933,-1.11539" />
    <path
       style="fill:none;fill-opacity:1;stroke:#000000;stroke-width:1;stroke-linecap:round;stroke-linejoin:round;stroke-dasharray:none;stroke-opacity:1"
       inkscape:connector-curvature="0"
       id="path5299"
       d="m 140.18647,160.853 c 1.64742,1.87859 2.86812,5.42375 2.72651,7.91836 -0.14161,2.49461 -1.59191,2.99398 -3.23933,1.11539 -1.64743,-1.87859 -2.86812,-5.42376 -2.72651,-7.91836 0.14161,-2.49461 1.5919,-2.99399 3.23933,-1.11539" />
    <path
       inkscape:connector-curvature="0"
       style="fill:url(#Obj_Gradient_4);fill-opacity:1;stroke:none;stroke-dasharray:none;stroke-opacity:1"
       id="path5301"
       d="m 140.56159,180.84706 -1.64222,-3.68849 c -0.82111,-1.84425 -2.99467,-3.08635 -7.05201,-1.2799 -4.05735,1.80644 -4.58868,4.25284 -3.76757,6.09708 l 1.64222,3.6885 z" />
    <path
       style="fill:none;fill-opacity:1;stroke:#000000;stroke-width:1;stroke-linecap:round;stroke-linejoin:round;stroke-dasharray:none;stroke-opacity:1"
       inkscape:connector-curvature="0"
       id="path5303"
       d="m 140.56159,180.84706 -1.64222,-3.68849 c -0.82111,-1.84425 -2.99467,-3.08635 -7.05201,-1.2799 -4.05735,1.80644 -4.58868,4.25284 -3.76757,6.09708 l 1.64222,3.6885 z" />
    <path
       inkscape:connector-curvature="0"
       style="fill:url(#Obj_Gradient_5);fill-opacity:1;stroke:none;stroke-dasharray:none;stroke-opacity:1"
       id="path5305"
       d="m 138.21335,179.03133 c 2.74192,0.76642 3.59564,3.24578 1.90682,5.53783 -1.6888,2.29204 -5.2806,3.5288 -8.02251,2.76237 -2.74193,-0.76642 -3.59564,-3.24579 -1.90683,-5.53783 1.6888,-2.29204 5.2806,-3.5288 8.02252,-2.76237" />
    <path
       style="fill:none;fill-opacity:1;stroke:#000000;stroke-width:1;stroke-linecap:round;stroke-linejoin:round;stroke-dasharray:none;stroke-opacity:1"
       inkscape:connector-curvature="0"
       id="path5307"
       d="m 138.21335,179.03133 c 2.74192,0.76642 3.59564,3.24578 1.90682,5.53783 -1.6888,2.29204 -5.2806,3.5288 -8.02251,2.76237 -2.74193,-0.76642 -3.59564,-3.24579 -1.90683,-5.53783 1.6888,-2.29204 5.2806,-3.5288 8.02252,-2.76237" />
    <path
       inkscape:connector-curvature="0"
       style="fill:url(#radialGradient6265);fill-opacity:1;stroke:none;stroke-dasharray:none;stroke-opacity:1"
       id="path5309"
       d="m 167.52376,173.18891 c 2.14676,2.2783 1.70509,5.42093 -0.98649,7.01925 -2.69157,1.59833 -6.6138,1.0471 -8.76055,-1.23122 -2.14675,-2.2783 -1.70509,-5.42093 0.9865,-7.01925 2.69157,-1.59833 6.61379,-1.0471 8.76054,1.23122" />
    <path
       style="fill:none;fill-opacity:1;stroke:#000000;stroke-width:1;stroke-linecap:round;stroke-linejoin:round;stroke-dasharray:none;stroke-opacity:1"
       inkscape:connector-curvature="0"
       id="path5311"
       d="m 167.52376,173.18891 c 2.14676,2.2783 1.70509,5.42093 -0.98649,7.01925 -2.69157,1.59833 -6.6138,1.0471 -8.76055,-1.23122 -2.14675,-2.2783 -1.70509,-5.42093 0.9865,-7.01925 2.69157,-1.59833 6.61379,-1.0471 8.76054,1.23122" />
    <path
       inkscape:connector-curvature="0"
       id="line5313"
       d="m 147.02168,173.2166 v 14.87886"
       style="fill:none;fill-opacity:1;stroke:#000000;stroke-width:2;stroke-linecap:round;stroke-linejoin:miter;stroke-dasharray:none;stroke-opacity:1" />
    <path
       inkscape:connector-curvature="0"
       id="line5315"
       d="m 147.02168,173.2166 -8.15326,3.83195"
       style="fill:none;fill-opacity:1;stroke:#000000;stroke-width:1;stroke-linecap:round;stroke-linejoin:round;stroke-dasharray:none;stroke-opacity:1" />
    <path
       inkscape:connector-curvature="0"
       id="line5317"
       d="m 147.02168,173.2166 -0.98228,-3.68736"
       style="fill:none;fill-opacity:1;stroke:#000000;stroke-width:1;stroke-linecap:round;stroke-linejoin:round;stroke-dasharray:none;stroke-opacity:1" />
    <path
       inkscape:connector-curvature="0"
       id="line5319"
       d="m 156.50027,174.955 -9.47859,-1.7384"
       style="fill:none;fill-opacity:1;stroke:#000000;stroke-width:1;stroke-linecap:round;stroke-linejoin:round;stroke-dasharray:none;stroke-opacity:1" />
  </g>
</svg>
