<?xml version="1.0" encoding="UTF-8" standalone="no"?>
<svg
   xmlns:dc="http://purl.org/dc/elements/1.1/"
   xmlns:cc="http://creativecommons.org/ns#"
   xmlns:rdf="http://www.w3.org/1999/02/22-rdf-syntax-ns#"
   xmlns:svg="http://www.w3.org/2000/svg"
   xmlns="http://www.w3.org/2000/svg"
   xmlns:xlink="http://www.w3.org/1999/xlink"
   xmlns:sodipodi="http://sodipodi.sourceforge.net/DTD/sodipodi-0.dtd"
   xmlns:inkscape="http://www.inkscape.org/namespaces/inkscape"
   version="1.1"
   viewBox="100 133 53.25 61.5"
   width="71"
   height="82"
   id="svg5325"
   sodipodi:docname="airPollution_medium.svg"
   inkscape:export-filename="/home/mognom/Git/orion/ngsi-datamodel2poi-operator/src/images/alerts/environment/airPollution_medium.png"
   inkscape:export-xdpi="134.3662"
   inkscape:export-ydpi="134.3662"
   inkscape:version="0.91 r13725">
  <sodipodi:namedview
     pagecolor="#ffffff"
     bordercolor="#666666"
     borderopacity="1"
     objecttolerance="10"
     gridtolerance="10"
     guidetolerance="10"
     inkscape:pageopacity="0"
     inkscape:pageshadow="2"
     inkscape:window-width="1920"
     inkscape:window-height="1056"
     id="namedview5327"
     showgrid="false"
     units="px"
     fit-margin-top="0"
     fit-margin-left="0"
     fit-margin-right="0"
     fit-margin-bottom="0"
     inkscape:zoom="1.8437501"
     inkscape:cx="-74.609934"
     inkscape:cy="-108.66423"
     inkscape:window-x="0"
     inkscape:window-y="24"
     inkscape:window-maximized="1"
     inkscape:current-layer="svg5325" />
  <metadata
     id="metadata5244">
    <dc:date>2017-02-14 20:31Z</dc:date>
    <!-- Produced by OmniGraffle Professional 5.4.2 -->
    <rdf:RDF>
      <cc:Work
         rdf:about="">
        <dc:format>image/svg+xml</dc:format>
        <dc:type
           rdf:resource="http://purl.org/dc/dcmitype/StillImage" />
        <dc:title />
      </cc:Work>
    </rdf:RDF>
  </metadata>
  <defs
     id="defs5279">
    <linearGradient
       x1="0"
       x2="1"
       id="Gradient"
       gradientUnits="userSpaceOnUse">
      <stop
         offset="0"
         stop-color="#a1a1a1"
         id="stop5246" />
      <stop
         offset=".5"
         stop-color="#d3ddda"
         id="stop5248" />
      <stop
         offset="1"
         stop-color="#333"
         id="stop5250" />
    </linearGradient>
    <linearGradient
       id="Obj_Gradient"
       xlink:href="#Gradient"
       gradientTransform="matrix(-9.6901415,0,0,-9.6901415,151.86676,195.96937)" />
    <radialGradient
       cx="0"
       cy="0"
       r="1"
       id="Gradient_2"
       gradientUnits="userSpaceOnUse">
      <stop
         offset="0"
         stop-color="#333"
         id="stop5254" />
      <stop
         offset="1"
         stop-color="#fefcff"
         id="stop5256" />
    </radialGradient>
    <radialGradient
       id="Obj_Gradient_2"
       xlink:href="#Gradient_2"
       gradientTransform="matrix(11.294566,-3.8890311,3.8890311,11.294566,152.17186,169.50531)" />
    <radialGradient
       cx="0"
       cy="0"
       r="1"
       id="Gradient_3"
       gradientUnits="userSpaceOnUse">
      <stop
         offset="0"
         stop-color="#333"
         id="stop5260" />
      <stop
         offset="1"
         stop-color="#858586"
         id="stop5262" />
    </radialGradient>
    <radialGradient
       id="Obj_Gradient_3"
       xlink:href="#Gradient_3"
       gradientTransform="matrix(8.5071218,-2.929237,2.929237,8.5071218,143.84009,168.83939)" />
    <radialGradient
       cx="0"
       cy="0"
       r="1"
       id="Gradient_4"
       gradientUnits="userSpaceOnUse">
      <stop
         offset="0"
         stop-color="#fefcff"
         id="stop5266" />
      <stop
         offset="1"
         stop-color="#333"
         id="stop5268" />
    </radialGradient>
    <radialGradient
       id="Obj_Gradient_4"
       xlink:href="#Gradient_4"
       gradientTransform="matrix(-5.2298003,-17.640525,13.831792,-4.1006441,127.07119,190.8652)"
       fx="0.53321111"
       fy="0.55251503"
       cx="0.53321111"
       cy="0.55251503" />
    <radialGradient
       id="Obj_Gradient_5"
       xlink:href="#Gradient_3"
       gradientTransform="matrix(10.232955,-3.523489,3.523489,10.232955,142.2044,184.12234)" />
    <radialGradient
       cx="0"
       cy="0"
       r="1"
       id="Gradient_5"
       gradientUnits="userSpaceOnUse">
      <stop
         offset="0"
         stop-color="#fbfcff"
         id="stop5273" />
      <stop
         offset="1"
         stop-color="#333"
         id="stop5275" />
    </radialGradient>
    <radialGradient
       id="Obj_Gradient_6"
       xlink:href="#Gradient_5"
       gradientTransform="matrix(7.9377967,1.1155846,-1.1155846,7.9377967,162.65024,176.08292)"
       fx="0.021611352"
       fy="0.048555344"
       cx="0.021611352"
       cy="0.048555344" />
    <filter
       style="color-interpolation-filters:sRGB;"
       inkscape:label="Drop Shadow"
       id="filter6193">
      <feFlood
         flood-opacity="0.498039"
         flood-color="rgb(0,0,0)"
         result="flood"
         id="feFlood6183" />
      <feComposite
         in="flood"
         in2="SourceGraphic"
         operator="in"
         result="composite1"
         id="feComposite6185" />
      <feGaussianBlur
         in="composite1"
         stdDeviation="1"
         result="blur"
         id="feGaussianBlur6187" />
      <feOffset
         dx="1"
         dy="1"
         result="offset"
         id="feOffset6189" />
      <feComposite
         in="SourceGraphic"
         in2="offset"
         operator="over"
         result="composite2"
         id="feComposite6191" />
    </filter>
  </defs>
  <path
     style="fill:#eec20b;fill-opacity:1;stroke:#333333;stroke-width:2.09588695;stroke-linecap:round;stroke-linejoin:round;stroke-dasharray:none;stroke-opacity:1;filter:url(#filter6193)"
     d="m 151.07706,159.20895 c 0,13.5045 -24.45206,33.53419 -24.45206,33.53419 0,0 -24.45206,-20.02969 -24.45206,-33.53419 0,-13.5045 10.94756,-24.45206 24.45206,-24.45206 13.5045,0 24.45206,10.94756 24.45206,24.45206 z"
     id="circle5287"
     inkscape:connector-curvature="0"
     sodipodi:nodetypes="scsss"
     transform="matrix(0.93294792,0,0,0.93294792,8.4904676,10.979762)" />
  <path
     style="fill:#ffffff"
     d="m 113.49319,166.87944 0,-6.50749 3.425,0 3.42499,0 0,6.50749 0,6.50749 -0.685,0 -0.68499,0 0,-4.28125 0,-4.28123 -2.055,0 -2.05501,0 0,4.28123 0,4.28125 -0.68498,0 -0.68501,0 0,-6.50749 z m 5.48,-3.93875 0,-1.19875 -2.055,0 -2.05501,0 0,1.19875 0,1.19875 2.05501,0 2.055,0 0,-1.19875 z m 3.42499,2.22625 0,-8.21999 3.425,0 3.42499,0 0,8.21999 0,8.21999 -0.68501,0 -0.68498,0 0,-5.99374 0,-5.99375 -2.055,0 -2.055,0 0,5.99375 0,5.99374 -0.685,0 -0.685,0 0,-8.21999 z m 5.48,-5.65124 0,-1.19875 -2.055,0 -2.055,0 0,1.19875 0,1.19874 2.055,0 2.055,0 0,-1.19874 z m 3.42499,9.07623 0,-4.79499 3.425,0 3.42499,0 0,4.79499 0,4.795 -0.685,0 -0.68499,0 0,-2.56874 0,-2.56876 -2.055,0 -2.05499,0 0,2.56876 0,2.56874 -0.685,0 -0.68501,0 0,-4.795 z m 5.48,-2.22624 0,-1.19875 -2.055,0 -2.05499,0 0,1.19875 0,1.19875 2.05499,0 2.055,0 0,-1.19875 z m -11.78904,-11.19718 c -1.54446,-2.54835 -1.62975,-4.65176 -0.25383,-6.25923 0.53527,-0.62534 0.97085,-0.85031 2.15319,-1.11209 0.3291,-0.0729 0.47093,-0.21136 0.47093,-0.45989 0,-1.06081 1.11403,-1.90423 2.5512,-1.93152 0.91085,-0.0174 0.9788,-0.0496 1.34204,-0.63959 0.68956,-1.11987 2.05137,-1.4638 3.38934,-0.85602 0.50653,0.23012 0.94898,0.29168 1.66765,0.23208 1.17213,-0.0972 1.74062,0.1986 2.11813,1.1021 0.31572,0.75564 0.10314,1.50342 -0.62607,2.20203 -0.28039,0.26862 -0.5098,0.65525 -0.5098,0.85917 0,0.49114 -0.67433,1.47317 -1.20388,1.75325 -0.43263,0.22882 -2.0316,0.20306 -2.60643,-0.0419 -0.2125,-0.0906 -0.29968,-0.0495 -0.29968,0.14148 0,0.48326 -1.02636,1.46639 -1.72815,1.65538 -0.69023,0.18585 -1.88235,-0.0101 -2.33904,-0.38444 -0.16213,-0.1329 -0.21553,-0.056 -0.22012,0.31643 -0.009,0.692 -0.31053,1.15757 -1.14074,1.75863 -0.67068,0.48557 -0.72649,0.58933 -0.83556,1.55336 l -0.11688,1.03304 -0.6267,0 c -0.57464,0 -0.67309,-0.0767 -1.1856,-0.92219 z"
     id="path5530-4"
     inkscape:connector-curvature="0" />
</svg>
