<?xml version="1.0" encoding="UTF-8" standalone="no"?>
<svg
   xmlns:dc="http://purl.org/dc/elements/1.1/"
   xmlns:cc="http://creativecommons.org/ns#"
   xmlns:rdf="http://www.w3.org/1999/02/22-rdf-syntax-ns#"
   xmlns:svg="http://www.w3.org/2000/svg"
   xmlns="http://www.w3.org/2000/svg"
   xmlns:xlink="http://www.w3.org/1999/xlink"
   xmlns:sodipodi="http://sodipodi.sourceforge.net/DTD/sodipodi-0.dtd"
   xmlns:inkscape="http://www.inkscape.org/namespaces/inkscape"
   version="1.1"
   viewBox="100 133 53.25 61.5"
   width="71"
   height="82"
   id="svg5325"
   sodipodi:docname="pollenConcentration_informational.svg"
   inkscape:export-filename="/home/mognom/Git/orion/ngsi-datamodel2poi-operator/src/images/alerts/environment/pollenConcentration_informational.png"
   inkscape:export-xdpi="131.01186"
   inkscape:export-ydpi="131.01186"
   inkscape:version="0.91 r13725">
  <sodipodi:namedview
     pagecolor="#ffffff"
     bordercolor="#666666"
     borderopacity="1"
     objecttolerance="10"
     gridtolerance="10"
     guidetolerance="10"
     inkscape:pageopacity="0"
     inkscape:pageshadow="2"
     inkscape:window-width="1920"
     inkscape:window-height="1056"
     id="namedview5327"
     showgrid="false"
     units="px"
     fit-margin-top="0"
     fit-margin-left="0"
     fit-margin-right="0"
     fit-margin-bottom="0"
     inkscape:zoom="5.2149127"
     inkscape:cx="-22.798766"
     inkscape:cy="0.85949477"
     inkscape:window-x="0"
     inkscape:window-y="24"
     inkscape:window-maximized="1"
     inkscape:current-layer="svg5325" />
  <metadata
     id="metadata5244">
    <dc:date>2017-02-14 20:31Z</dc:date>
    <!-- Produced by OmniGraffle Professional 5.4.2 -->
    <rdf:RDF>
      <cc:Work
         rdf:about="">
        <dc:format>image/svg+xml</dc:format>
        <dc:type
           rdf:resource="http://purl.org/dc/dcmitype/StillImage" />
        <dc:title></dc:title>
      </cc:Work>
    </rdf:RDF>
  </metadata>
  <defs
     id="defs5279">
    <linearGradient
       x1="0"
       x2="1"
       id="Gradient"
       gradientUnits="userSpaceOnUse">
      <stop
         offset="0"
         stop-color="#a1a1a1"
         id="stop5246" />
      <stop
         offset=".5"
         stop-color="#d3ddda"
         id="stop5248" />
      <stop
         offset="1"
         stop-color="#333"
         id="stop5250" />
    </linearGradient>
    <linearGradient
       id="Obj_Gradient"
       xlink:href="#Gradient"
       gradientTransform="matrix(-9.6901415,0,0,-9.6901415,151.86676,195.96937)" />
    <radialGradient
       cx="0"
       cy="0"
       r="1"
       id="Gradient_2"
       gradientUnits="userSpaceOnUse">
      <stop
         offset="0"
         stop-color="#333"
         id="stop5254" />
      <stop
         offset="1"
         stop-color="#fefcff"
         id="stop5256" />
    </radialGradient>
    <radialGradient
       id="Obj_Gradient_2"
       xlink:href="#Gradient_2"
       gradientTransform="matrix(11.294566,-3.8890311,3.8890311,11.294566,152.17186,169.50531)" />
    <radialGradient
       cx="0"
       cy="0"
       r="1"
       id="Gradient_3"
       gradientUnits="userSpaceOnUse">
      <stop
         offset="0"
         stop-color="#333"
         id="stop5260" />
      <stop
         offset="1"
         stop-color="#858586"
         id="stop5262" />
    </radialGradient>
    <radialGradient
       id="Obj_Gradient_3"
       xlink:href="#Gradient_3"
       gradientTransform="matrix(8.5071218,-2.929237,2.929237,8.5071218,143.84009,168.83939)" />
    <radialGradient
       cx="0"
       cy="0"
       r="1"
       id="Gradient_4"
       gradientUnits="userSpaceOnUse">
      <stop
         offset="0"
         stop-color="#fefcff"
         id="stop5266" />
      <stop
         offset="1"
         stop-color="#333"
         id="stop5268" />
    </radialGradient>
    <radialGradient
       id="Obj_Gradient_4"
       xlink:href="#Gradient_4"
       gradientTransform="matrix(-5.2298003,-17.640525,13.831792,-4.1006441,127.07119,190.8652)"
       fx="0.53321111"
       fy="0.55251503"
       cx="0.53321111"
       cy="0.55251503" />
    <radialGradient
       id="Obj_Gradient_5"
       xlink:href="#Gradient_3"
       gradientTransform="matrix(10.232955,-3.523489,3.523489,10.232955,142.2044,184.12234)" />
    <radialGradient
       cx="0"
       cy="0"
       r="1"
       id="Gradient_5"
       gradientUnits="userSpaceOnUse">
      <stop
         offset="0"
         stop-color="#fbfcff"
         id="stop5273" />
      <stop
         offset="1"
         stop-color="#333"
         id="stop5275" />
    </radialGradient>
    <radialGradient
       id="Obj_Gradient_6"
       xlink:href="#Gradient_5"
       gradientTransform="matrix(7.9377967,1.1155846,-1.1155846,7.9377967,162.65024,176.08292)"
       fx="0.021611352"
       fy="0.048555344"
       cx="0.021611352"
       cy="0.048555344" />
    <filter
       style="color-interpolation-filters:sRGB;"
       inkscape:label="Drop Shadow"
       id="filter6193">
      <feFlood
         flood-opacity="0.498039"
         flood-color="rgb(0,0,0)"
         result="flood"
         id="feFlood6183" />
      <feComposite
         in="flood"
         in2="SourceGraphic"
         operator="in"
         result="composite1"
         id="feComposite6185" />
      <feGaussianBlur
         in="composite1"
         stdDeviation="1"
         result="blur"
         id="feGaussianBlur6187" />
      <feOffset
         dx="1"
         dy="1"
         result="offset"
         id="feOffset6189" />
      <feComposite
         in="SourceGraphic"
         in2="offset"
         operator="over"
         result="composite2"
         id="feComposite6191" />
    </filter>
  </defs>
  <path
     style="fill:#3952a3;fill-opacity:1;stroke:#333333;stroke-width:2.09588695;stroke-linecap:round;stroke-linejoin:round;stroke-dasharray:none;stroke-opacity:1;filter:url(#filter6193)"
     d="m 151.07706,159.20895 c 0,13.5045 -24.45206,33.53419 -24.45206,33.53419 0,0 -24.45206,-20.02969 -24.45206,-33.53419 0,-13.5045 10.94756,-24.45206 24.45206,-24.45206 13.5045,0 24.45206,10.94756 24.45206,24.45206 z"
     id="circle5287"
     inkscape:connector-curvature="0"
     sodipodi:nodetypes="scsss"
     transform="matrix(0.93294792,0,0,0.93294792,8.4904676,10.979762)" />
  <path
     style="fill:#ffffff"
     d="m 129.45008,170.43952 0,-1.08501 1.1179,0 1.11787,0 0,1.08501 0,1.08501 -1.11787,0 -1.1179,0 0,-1.08501 z m -5.5349,-4.63593 c -0.27106,-0.41593 -1.51488,-2.31286 -2.76402,-4.21544 -2.46699,-3.75745 -2.69798,-4.13 -3.11282,-5.02072 -0.64582,-1.38671 -0.94077,-2.50827 -0.99636,-3.78857 -0.0442,-1.01746 0.0363,-1.72161 0.28842,-2.52548 0.20498,-0.65342 0.71164,-1.64878 1.10473,-2.17028 0.16302,-0.21628 0.29641,-0.40886 0.29641,-0.42794 0,-0.019 -0.18495,-0.15937 -0.411,-0.31173 -1.13566,-0.7655 -2.64825,-1.18201 -4.73457,-1.3037 l -0.77265,-0.045 0,-1.07712 0,-1.07712 0.62729,0 c 1.64402,0 3.5737,0.39942 4.94184,1.0229 0.46989,0.21413 1.35247,0.76905 1.77041,1.11313 l 0.2048,0.1686 0.35414,-0.23876 c 0.83878,-0.56552 1.96987,-1.00568 2.95419,-1.14961 0.86676,-0.12673 2.1687,-0.0466 3.0963,0.19037 1.20262,0.30734 2.3547,0.80093 3.50977,1.50369 0.8854,0.5387 8.65469,5.55814 8.63384,5.578 -0.0108,0.0107 -1.41032,0.49925 -3.11017,1.08668 -1.69984,0.58743 -3.15329,1.09113 -3.22989,1.11935 -0.13768,0.0506 -0.13111,0.092 0.5801,3.64628 0.39567,1.97725 0.70527,3.60909 0.68801,3.62635 -0.0173,0.0172 -1.6099,-0.28319 -3.53922,-0.66766 -1.9293,-0.38446 -3.54749,-0.70471 -3.59596,-0.71163 -0.0605,-0.009 -0.42692,0.9796 -1.1659,3.14379 -0.59279,1.73601 -1.08837,3.18599 -1.10131,3.22215 -0.013,0.0362 -0.2453,-0.27454 -0.51638,-0.69046 z m 0.5718,-6.32921 c 0.48576,-1.43423 0.66602,-1.89057 0.74678,-1.89066 0.0585,-6e-5 1.37426,0.25361 2.92381,0.5637 1.54954,0.3101 2.83139,0.54979 2.84854,0.53264 0.0171,-0.0171 -0.22236,-1.31819 -0.53227,-2.89118 -0.30989,-1.573 -0.56345,-2.8863 -0.56345,-2.91845 0,-0.0322 0.88773,-0.3652 1.97274,-0.74014 1.08501,-0.37493 1.9725,-0.69945 1.97218,-0.72114 -9e-4,-0.0704 -4.81349,-3.13727 -5.45735,-3.47787 -0.75941,-0.40173 -1.69376,-0.75346 -2.40016,-0.90355 -0.74748,-0.1588 -1.89311,-0.14806 -2.54061,0.0239 -1.958,0.51977 -3.75039,2.42683 -4.13648,4.40108 -0.11638,0.59509 -0.0476,1.94869 0.13269,2.61314 0.18714,0.68951 0.58806,1.64611 0.96462,2.30153 0.60777,1.05788 3.3407,5.15854 3.3845,5.07837 0.0243,-0.0444 0.33228,-0.93151 0.68446,-1.97131 z m 4.9631,5.40701 0,-1.11949 1.10145,0.0181 1.10145,0.0181 0.0181,1.10145 0.018,1.10145 -1.11947,0 -1.11948,0 0,-1.11948 z m 6.64156,9e-4 0,-1.11789 1.1179,0 1.11787,0 0,1.11789 0,1.11789 -1.11787,0 -1.1179,0 0,-1.11789 z m 0,-6.64155 0,-1.1179 1.1179,0 1.11787,0 0,1.1179 0,1.11788 -1.11787,0 -1.1179,0 0,-1.11788 z m 5.58943,0 0,-1.1179 1.08501,0 1.08501,0 0,1.1179 0,1.11788 -1.08501,0 -1.08501,0 0,-1.11788 z"
     id="path6317"
     inkscape:connector-curvature="0" />
</svg>
