<?xml version="1.0" encoding="UTF-8" standalone="no"?>
<svg
   xmlns:dc="http://purl.org/dc/elements/1.1/"
   xmlns:cc="http://creativecommons.org/ns#"
   xmlns:rdf="http://www.w3.org/1999/02/22-rdf-syntax-ns#"
   xmlns:svg="http://www.w3.org/2000/svg"
   xmlns="http://www.w3.org/2000/svg"
   xmlns:xlink="http://www.w3.org/1999/xlink"
   xmlns:sodipodi="http://sodipodi.sourceforge.net/DTD/sodipodi-0.dtd"
   xmlns:inkscape="http://www.inkscape.org/namespaces/inkscape"
   version="1.1"
   viewBox="100 133 53.25 61.5"
   width="71"
   height="82"
   id="svg5325"
   sodipodi:docname="ok.svg"
   inkscape:export-filename="wastecontainer.png"
   inkscape:export-xdpi="134.3662"
   inkscape:export-ydpi="134.3662"
   inkscape:version="0.91 r13725">
  <sodipodi:namedview
     pagecolor="#ffffff"
     bordercolor="#666666"
     borderopacity="1"
     objecttolerance="10"
     gridtolerance="10"
     guidetolerance="10"
     inkscape:pageopacity="0"
     inkscape:pageshadow="2"
     inkscape:window-width="1920"
     inkscape:window-height="1056"
     id="namedview5327"
     showgrid="false"
     units="px"
     fit-margin-top="0"
     fit-margin-left="0"
     fit-margin-right="0"
     fit-margin-bottom="0"
     inkscape:zoom="10.429825"
     inkscape:cx="29.056319"
     inkscape:cy="56.168054"
     inkscape:window-x="0"
     inkscape:window-y="24"
     inkscape:window-maximized="1"
     inkscape:current-layer="svg5325" />
  <metadata
     id="metadata5244">
    <dc:date>2017-02-14 20:31Z</dc:date>
    <!-- Produced by OmniGraffle Professional 5.4.2 -->
    <rdf:RDF>
      <cc:Work
         rdf:about="">
        <dc:format>image/svg+xml</dc:format>
        <dc:type
           rdf:resource="http://purl.org/dc/dcmitype/StillImage" />
        <dc:title></dc:title>
      </cc:Work>
    </rdf:RDF>
  </metadata>
  <defs
     id="defs5279">
    <linearGradient
       x1="0"
       x2="1"
       id="Gradient"
       gradientUnits="userSpaceOnUse">
      <stop
         offset="0"
         stop-color="#a1a1a1"
         id="stop5246" />
      <stop
         offset=".5"
         stop-color="#d3ddda"
         id="stop5248" />
      <stop
         offset="1"
         stop-color="#333"
         id="stop5250" />
    </linearGradient>
    <linearGradient
       id="Obj_Gradient"
       xlink:href="#Gradient"
       gradientTransform="matrix(-9.6901415,0,0,-9.6901415,151.86676,195.96937)" />
    <radialGradient
       cx="0"
       cy="0"
       r="1"
       id="Gradient_2"
       gradientUnits="userSpaceOnUse">
      <stop
         offset="0"
         stop-color="#333"
         id="stop5254" />
      <stop
         offset="1"
         stop-color="#fefcff"
         id="stop5256" />
    </radialGradient>
    <radialGradient
       id="Obj_Gradient_2"
       xlink:href="#Gradient_2"
       gradientTransform="matrix(11.294566,-3.8890311,3.8890311,11.294566,152.17186,169.50531)" />
    <radialGradient
       cx="0"
       cy="0"
       r="1"
       id="Gradient_3"
       gradientUnits="userSpaceOnUse">
      <stop
         offset="0"
         stop-color="#333"
         id="stop5260" />
      <stop
         offset="1"
         stop-color="#858586"
         id="stop5262" />
    </radialGradient>
    <radialGradient
       id="Obj_Gradient_3"
       xlink:href="#Gradient_3"
       gradientTransform="matrix(8.5071218,-2.929237,2.929237,8.5071218,143.84009,168.83939)" />
    <radialGradient
       cx="0"
       cy="0"
       r="1"
       id="Gradient_4"
       gradientUnits="userSpaceOnUse">
      <stop
         offset="0"
         stop-color="#fefcff"
         id="stop5266" />
      <stop
         offset="1"
         stop-color="#333"
         id="stop5268" />
    </radialGradient>
    <radialGradient
       id="Obj_Gradient_4"
       xlink:href="#Gradient_4"
       gradientTransform="matrix(-5.2298003,-17.640525,13.831792,-4.1006441,127.07119,190.8652)"
       fx="0.53321111"
       fy="0.55251503"
       cx="0.53321111"
       cy="0.55251503" />
    <radialGradient
       id="Obj_Gradient_5"
       xlink:href="#Gradient_3"
       gradientTransform="matrix(10.232955,-3.523489,3.523489,10.232955,142.2044,184.12234)" />
    <radialGradient
       cx="0"
       cy="0"
       r="1"
       id="Gradient_5"
       gradientUnits="userSpaceOnUse">
      <stop
         offset="0"
         stop-color="#fbfcff"
         id="stop5273" />
      <stop
         offset="1"
         stop-color="#333"
         id="stop5275" />
    </radialGradient>
    <radialGradient
       id="Obj_Gradient_6"
       xlink:href="#Gradient_5"
       gradientTransform="matrix(7.9377967,1.1155846,-1.1155846,7.9377967,162.65024,176.08292)"
       fx="0.021611352"
       fy="0.048555344"
       cx="0.021611352"
       cy="0.048555344" />
    <filter
       style="color-interpolation-filters:sRGB;"
       inkscape:label="Drop Shadow"
       id="filter6193">
      <feFlood
         flood-opacity="0.498039"
         flood-color="rgb(0,0,0)"
         result="flood"
         id="feFlood6183" />
      <feComposite
         in="flood"
         in2="SourceGraphic"
         operator="in"
         result="composite1"
         id="feComposite6185" />
      <feGaussianBlur
         in="composite1"
         stdDeviation="1"
         result="blur"
         id="feGaussianBlur6187" />
      <feOffset
         dx="1"
         dy="1"
         result="offset"
         id="feOffset6189" />
      <feComposite
         in="SourceGraphic"
         in2="offset"
         operator="over"
         result="composite2"
         id="feComposite6191" />
    </filter>
  </defs>
  <path
     style="fill:#3952a3;fill-opacity:1;stroke:#333333;stroke-width:2.09588695;stroke-linecap:round;stroke-linejoin:round;stroke-dasharray:none;stroke-opacity:1;filter:url(#filter6193)"
     d="m 151.07706,159.20895 c 0,13.5045 -24.45206,33.53419 -24.45206,33.53419 0,0 -24.45206,-20.02969 -24.45206,-33.53419 0,-13.5045 10.94756,-24.45206 24.45206,-24.45206 13.5045,0 24.45206,10.94756 24.45206,24.45206 z"
     id="circle5287"
     inkscape:connector-curvature="0"
     sodipodi:nodetypes="scsss"
     transform="matrix(0.93294792,0,0,0.93294792,8.4904676,10.979762)" />
  <g
     id="g6716"
     transform="matrix(0.05140453,0,0,0.05140453,110.58954,142.23311)"
     style="fill:#ffffff">
    <g
       id="g6718"
       style="fill:#ffffff">
      <g
         id="g6720"
         style="fill:#ffffff">
        <path
           d="M 510.812,85.933 C 481.558,71.004 452.445,69.608 451.22,69.558 c -0.246,-0.012 -0.492,-0.017 -0.737,-0.017 l -46.303,0 c 0.003,-0.139 0.022,-0.273 0.022,-0.415 0,-26.812 -12.761,-48.09 -35.931,-59.913 C 352.133,0.979 336.395,0.091 334.653,0.019 334.409,0.006 334.163,0 333.917,0 l -55.832,0 c -0.246,0 -0.492,0.006 -0.737,0.017 -1.741,0.074 -17.48,0.96 -33.616,9.194 C 220.56,21.035 207.8,42.313 207.8,69.124 c 0,0.142 0.017,0.276 0.022,0.415 l -46.303,0 c -0.246,0 -0.492,0.006 -0.737,0.017 -1.226,0.051 -30.337,1.446 -59.593,16.375 -28.241,14.41 -61.905,44.075 -61.905,103.548 0,9.581 7.767,17.35 17.35,17.35 l 15.245,0 67.087,390.755 c 1.43,8.328 8.65,14.416 17.099,14.416 l 299.873,0 c 8.449,0 15.67,-6.088 17.099,-14.416 l 67.087,-390.755 15.245,0 c 9.581,0 17.35,-7.768 17.35,-17.35 -0.001,-59.473 -33.666,-89.138 -61.907,-103.546 z M 75.398,172.13 c 4.22,-24.493 17.846,-42.891 40.665,-54.828 21.272,-11.123 43.329,-12.888 45.936,-13.063 l 288.005,0 c 2.585,0.172 24.08,1.906 45.034,12.6 23.361,11.922 37.29,30.475 41.562,55.29 l -461.202,0.001 0,0 z M 242.5,69.125 c 0,-13.566 5.156,-22.656 16.226,-28.599 8.889,-4.773 18.372,-5.701 19.886,-5.825 l 54.742,0 c 1.736,0.142 11.12,1.102 19.92,5.825 11.07,5.944 16.228,15.033 16.228,28.599 0,0.142 0.017,0.276 0.022,0.415 l -127.044,0 c 0.002,-0.139 0.02,-0.275 0.02,-0.415 z m 198.812,508.176 -270.624,0 -63.605,-370.472 397.834,0 -63.605,370.472 z"
           id="path6722"
           inkscape:connector-curvature="0"
           style="fill:#ffffff" />
        <path
           d="m 306,519.57 c 9.581,0 17.35,-7.768 17.35,-17.35 l 0,-244.311 c 0,-9.581 -7.768,-17.35 -17.35,-17.35 -9.583,0 -17.35,7.768 -17.35,17.35 l 0,244.311 c 0,9.582 7.769,17.35 17.35,17.35 z"
           id="path6724"
           inkscape:connector-curvature="0"
           style="fill:#ffffff" />
        <path
           d="m 203.782,503.754 c 0.801,9.022 8.373,15.816 17.261,15.816 0.513,0 1.032,-0.023 1.553,-0.068 9.545,-0.847 16.596,-9.273 15.749,-18.816 L 216.658,256.375 c -0.847,-9.545 -9.265,-16.609 -18.817,-15.749 -9.545,0.847 -16.595,9.27 -15.748,18.816 l 21.689,244.312 z"
           id="path6726"
           inkscape:connector-curvature="0"
           style="fill:#ffffff" />
        <path
           d="m 389.404,519.502 c 0.52,0.045 1.04,0.068 1.553,0.068 8.889,0 16.462,-6.794 17.263,-15.816 l 21.687,-244.313 c 0.847,-9.545 -6.202,-17.968 -15.748,-18.816 -9.544,-0.856 -17.968,6.204 -18.817,15.749 l -21.687,244.311 c -0.847,9.544 6.204,17.97 15.749,18.817 z"
           id="path6728"
           inkscape:connector-curvature="0"
           style="fill:#ffffff" />
      </g>
    </g>
  </g>
</svg>
