<?xml version="1.0" encoding="UTF-8" standalone="no"?>
<svg
   xmlns:dc="http://purl.org/dc/elements/1.1/"
   xmlns:cc="http://creativecommons.org/ns#"
   xmlns:rdf="http://www.w3.org/1999/02/22-rdf-syntax-ns#"
   xmlns:svg="http://www.w3.org/2000/svg"
   xmlns="http://www.w3.org/2000/svg"
   xmlns:xlink="http://www.w3.org/1999/xlink"
   xmlns:sodipodi="http://sodipodi.sourceforge.net/DTD/sodipodi-0.dtd"
   xmlns:inkscape="http://www.inkscape.org/namespaces/inkscape"
   version="1.1"
   viewBox="100 133 53.25 61.5"
   width="71"
   height="82"
   id="svg5325"
   sodipodi:docname="HVAC.svg"
   inkscape:export-filename="HVAC.png"
   inkscape:export-xdpi="134.3662"
   inkscape:export-ydpi="134.3662"
   inkscape:version="0.91 r13725">
  <sodipodi:namedview
     pagecolor="#ffffff"
     bordercolor="#666666"
     borderopacity="1"
     objecttolerance="10"
     gridtolerance="10"
     guidetolerance="10"
     inkscape:pageopacity="0"
     inkscape:pageshadow="2"
     inkscape:window-width="1920"
     inkscape:window-height="1056"
     id="namedview5327"
     showgrid="false"
     units="px"
     fit-margin-top="0"
     fit-margin-left="0"
     fit-margin-right="0"
     fit-margin-bottom="0"
     inkscape:zoom="3.6875001"
     inkscape:cx="-23.541771"
     inkscape:cy="8.7325102"
     inkscape:window-x="0"
     inkscape:window-y="24"
     inkscape:window-maximized="1"
     inkscape:current-layer="svg5325" />
  <metadata
     id="metadata5244">
    <dc:date>2017-02-14 20:31Z</dc:date>
    <!-- Produced by OmniGraffle Professional 5.4.2 -->
    <rdf:RDF>
      <cc:Work
         rdf:about="">
        <dc:format>image/svg+xml</dc:format>
        <dc:type
           rdf:resource="http://purl.org/dc/dcmitype/StillImage" />
        <dc:title />
      </cc:Work>
    </rdf:RDF>
  </metadata>
  <defs
     id="defs5279">
    <linearGradient
       x1="0"
       x2="1"
       id="Gradient"
       gradientUnits="userSpaceOnUse">
      <stop
         offset="0"
         stop-color="#a1a1a1"
         id="stop5246" />
      <stop
         offset=".5"
         stop-color="#d3ddda"
         id="stop5248" />
      <stop
         offset="1"
         stop-color="#333"
         id="stop5250" />
    </linearGradient>
    <linearGradient
       id="Obj_Gradient"
       xlink:href="#Gradient"
       gradientTransform="matrix(-9.6901415,0,0,-9.6901415,151.86676,195.96937)" />
    <radialGradient
       cx="0"
       cy="0"
       r="1"
       id="Gradient_2"
       gradientUnits="userSpaceOnUse">
      <stop
         offset="0"
         stop-color="#333"
         id="stop5254" />
      <stop
         offset="1"
         stop-color="#fefcff"
         id="stop5256" />
    </radialGradient>
    <radialGradient
       id="Obj_Gradient_2"
       xlink:href="#Gradient_2"
       gradientTransform="matrix(11.294566,-3.8890311,3.8890311,11.294566,152.17186,169.50531)" />
    <radialGradient
       cx="0"
       cy="0"
       r="1"
       id="Gradient_3"
       gradientUnits="userSpaceOnUse">
      <stop
         offset="0"
         stop-color="#333"
         id="stop5260" />
      <stop
         offset="1"
         stop-color="#858586"
         id="stop5262" />
    </radialGradient>
    <radialGradient
       id="Obj_Gradient_3"
       xlink:href="#Gradient_3"
       gradientTransform="matrix(8.5071218,-2.929237,2.929237,8.5071218,143.84009,168.83939)" />
    <radialGradient
       cx="0"
       cy="0"
       r="1"
       id="Gradient_4"
       gradientUnits="userSpaceOnUse">
      <stop
         offset="0"
         stop-color="#fefcff"
         id="stop5266" />
      <stop
         offset="1"
         stop-color="#333"
         id="stop5268" />
    </radialGradient>
    <radialGradient
       id="Obj_Gradient_4"
       xlink:href="#Gradient_4"
       gradientTransform="matrix(-5.2298003,-17.640525,13.831792,-4.1006441,127.07119,190.8652)"
       fx="0.53321111"
       fy="0.55251503"
       cx="0.53321111"
       cy="0.55251503" />
    <radialGradient
       id="Obj_Gradient_5"
       xlink:href="#Gradient_3"
       gradientTransform="matrix(10.232955,-3.523489,3.523489,10.232955,142.2044,184.12234)" />
    <radialGradient
       cx="0"
       cy="0"
       r="1"
       id="Gradient_5"
       gradientUnits="userSpaceOnUse">
      <stop
         offset="0"
         stop-color="#fbfcff"
         id="stop5273" />
      <stop
         offset="1"
         stop-color="#333"
         id="stop5275" />
    </radialGradient>
    <radialGradient
       id="Obj_Gradient_6"
       xlink:href="#Gradient_5"
       gradientTransform="matrix(7.9377967,1.1155846,-1.1155846,7.9377967,162.65024,176.08292)"
       fx="0.021611352"
       fy="0.048555344"
       cx="0.021611352"
       cy="0.048555344" />
    <filter
       style="color-interpolation-filters:sRGB;"
       inkscape:label="Drop Shadow"
       id="filter6193">
      <feFlood
         flood-opacity="0.498039"
         flood-color="rgb(0,0,0)"
         result="flood"
         id="feFlood6183" />
      <feComposite
         in="flood"
         in2="SourceGraphic"
         operator="in"
         result="composite1"
         id="feComposite6185" />
      <feGaussianBlur
         in="composite1"
         stdDeviation="1"
         result="blur"
         id="feGaussianBlur6187" />
      <feOffset
         dx="1"
         dy="1"
         result="offset"
         id="feOffset6189" />
      <feComposite
         in="SourceGraphic"
         in2="offset"
         operator="over"
         result="composite2"
         id="feComposite6191" />
    </filter>
  </defs>
  <path
     style="fill:#3952a3;fill-opacity:1;stroke:#333333;stroke-width:2.09588695;stroke-linecap:round;stroke-linejoin:round;stroke-dasharray:none;stroke-opacity:1;filter:url(#filter6193)"
     d="m 151.07706,159.20895 c 0,13.5045 -24.45206,33.53419 -24.45206,33.53419 0,0 -24.45206,-20.02969 -24.45206,-33.53419 0,-13.5045 10.94756,-24.45206 24.45206,-24.45206 13.5045,0 24.45206,10.94756 24.45206,24.45206 z"
     id="circle5287"
     inkscape:connector-curvature="0"
     sodipodi:nodetypes="scsss"
     transform="matrix(0.93294792,0,0,0.93294792,8.4904676,10.979762)" />
  <g
     transform="matrix(0.03420683,0,0,0.03420683,109.44315,141.09342)"
     id="g4321"
     style="fill:#ffffff">
    <g
       transform="matrix(0.1,0,0,-0.1,0,512)"
       id="g4323"
       style="fill:#ffffff">
      <path
         inkscape:connector-curvature="0"
         d="M 5105.3,5007.8 C 5074.7,5004 4965.6,4988.7 4866,4971.4 4196.1,4856.6 3667.8,4397.2 3495.5,3777 c -49.8,-178 -51.7,-727.3 -1.9,-957 107.2,-499.6 333.1,-978.1 633.6,-1347.5 80.4,-97.6 88,-114.8 61.3,-130.2 -126.3,-70.8 -323.5,-277.5 -453.6,-474.7 -30.6,-45.9 -30.6,-45.9 -178,-23 -273.7,42.1 -537.9,183.8 -811.6,436.4 -76.6,70.8 -266.1,269.9 -421.1,444.1 -191.4,216.3 -315.8,338.8 -394.3,390.5 -333,214.4 -819.2,214.4 -1150.4,0 C 379.5,1857.3 100,1191.2 100,500.2 c 0,-218.2 47.9,-570.4 97.6,-735 97.6,-315.8 313.9,-647 551.2,-842.2 145.5,-120.6 413.4,-260.3 595.3,-308.2 181.8,-49.8 752.2,-47.9 966.6,1.9 514.9,118.7 974.3,335 1336,631.6 61.3,49.8 114.8,88.1 116.8,84.2 91.9,-151.2 298.6,-354.1 457.5,-453.6 53.6,-32.5 70.8,-55.5 70.8,-93.8 -1.9,-109.1 -59.3,-325.4 -124.4,-455.6 -134,-273.7 -310.1,-474.7 -773.3,-886.2 -214.4,-189.5 -338.8,-313.9 -388.6,-392.4 -143.6,-222 -199.1,-530.2 -141.6,-794.3 80.4,-375.1 287.1,-608.7 723.5,-815.4 612.5,-290.9 1448.9,-294.8 2034.6,-9.6 444.1,214.4 746.5,562.7 874.7,1008.7 38.3,130.2 44,193.3 44,493.8 0,268 -7.7,379 -36.4,497.7 -118.7,514.9 -335,974.2 -631.6,1336 -49.8,61.3 -88,114.8 -84.2,116.8 3.8,1.9 70.8,57.4 149.3,120.6 130.2,107.2 225.9,214.4 315.8,356 38.3,61.3 74.7,63.2 268,23 359.8,-76.6 637.4,-285.2 1156.1,-869 189.5,-214.4 313.9,-336.9 392.4,-388.6 333,-214.4 819.2,-214.4 1150.3,0 398.2,258.6 679.6,926.6 679.6,1611.8 0,669.9 -233.5,1238.4 -648.9,1581 -141.6,118.7 -411.5,260.3 -585.7,306.3 -176.1,47.9 -645,57.4 -870.9,19.1 -528.3,-91.9 -1079.5,-340.7 -1450.9,-656.5 -55.5,-47.9 -103.4,-84.2 -105.3,-80.4 -111,170.4 -298.6,356 -459.4,455.5 -82.3,49.8 -86.1,74.6 -42.1,279.5 76.6,359.8 285.2,637.4 869,1156.1 214.4,189.5 336.9,313.9 388.5,392.4 214.4,333 214.4,819.2 0,1150.4 -264.1,407.7 -943.6,687.1 -1640.4,677.6 -105.1,-2 -216.1,-7.8 -248.6,-11.6 z m 189.5,-3757.3 c 208.6,-53.6 363.7,-141.7 520.6,-296.7 164.6,-162.7 262.2,-331.1 315.8,-547.4 185.7,-733.1 -373.2,-1450.9 -1133.1,-1452.8 -641.2,-1.9 -1163.7,522.5 -1165.7,1169.5 0,308.2 120.6,601 342.6,823 294.8,294.8 714,409.7 1119.8,304.4 z"
         id="path4325"
         style="fill:#ffffff" />
      <path
         inkscape:connector-curvature="0"
         d="M 4866,764.3 C 4732,735.6 4653.5,693.5 4546.3,594 4154,232.2 4362.6,-443.4 4892.8,-525.7 c 446,-70.8 825,308.2 754.1,754.1 -42.1,273.7 -258.4,490 -539.8,541.7 -63.2,11.5 -118.7,21.1 -124.4,19.1 -5.7,0 -59.3,-11.5 -116.7,-24.9 z"
         id="path4327"
         style="fill:#ffffff" />
    </g>
  </g>
</svg>
