<?xml version="1.0" encoding="UTF-8" standalone="no"?>
<svg
   xmlns:dc="http://purl.org/dc/elements/1.1/"
   xmlns:cc="http://creativecommons.org/ns#"
   xmlns:rdf="http://www.w3.org/1999/02/22-rdf-syntax-ns#"
   xmlns:svg="http://www.w3.org/2000/svg"
   xmlns="http://www.w3.org/2000/svg"
   xmlns:xlink="http://www.w3.org/1999/xlink"
   xmlns:sodipodi="http://sodipodi.sourceforge.net/DTD/sodipodi-0.dtd"
   xmlns:inkscape="http://www.inkscape.org/namespaces/inkscape"
   version="1.1"
   viewBox="100 133 53.25 61.5"
   width="71"
   height="82"
   id="svg5325"
   sodipodi:docname="network.svg"
   inkscape:export-filename="network.png"
   inkscape:export-xdpi="134.3662"
   inkscape:export-ydpi="134.3662"
   inkscape:version="0.91 r13725">
  <sodipodi:namedview
     pagecolor="#ffffff"
     bordercolor="#666666"
     borderopacity="1"
     objecttolerance="10"
     gridtolerance="10"
     guidetolerance="10"
     inkscape:pageopacity="0"
     inkscape:pageshadow="2"
     inkscape:window-width="1920"
     inkscape:window-height="1056"
     id="namedview5327"
     showgrid="false"
     units="px"
     fit-margin-top="0"
     fit-margin-left="0"
     fit-margin-right="0"
     fit-margin-bottom="0"
     inkscape:zoom="3.6875001"
     inkscape:cx="-23.541771"
     inkscape:cy="8.7325102"
     inkscape:window-x="0"
     inkscape:window-y="24"
     inkscape:window-maximized="1"
     inkscape:current-layer="svg5325" />
  <metadata
     id="metadata5244">
    <dc:date>2017-02-14 20:31Z</dc:date>
    <!-- Produced by OmniGraffle Professional 5.4.2 -->
    <rdf:RDF>
      <cc:Work
         rdf:about="">
        <dc:format>image/svg+xml</dc:format>
        <dc:type
           rdf:resource="http://purl.org/dc/dcmitype/StillImage" />
        <dc:title />
      </cc:Work>
    </rdf:RDF>
  </metadata>
  <defs
     id="defs5279">
    <linearGradient
       x1="0"
       x2="1"
       id="Gradient"
       gradientUnits="userSpaceOnUse">
      <stop
         offset="0"
         stop-color="#a1a1a1"
         id="stop5246" />
      <stop
         offset=".5"
         stop-color="#d3ddda"
         id="stop5248" />
      <stop
         offset="1"
         stop-color="#333"
         id="stop5250" />
    </linearGradient>
    <linearGradient
       id="Obj_Gradient"
       xlink:href="#Gradient"
       gradientTransform="matrix(-9.6901415,0,0,-9.6901415,151.86676,195.96937)" />
    <radialGradient
       cx="0"
       cy="0"
       r="1"
       id="Gradient_2"
       gradientUnits="userSpaceOnUse">
      <stop
         offset="0"
         stop-color="#333"
         id="stop5254" />
      <stop
         offset="1"
         stop-color="#fefcff"
         id="stop5256" />
    </radialGradient>
    <radialGradient
       id="Obj_Gradient_2"
       xlink:href="#Gradient_2"
       gradientTransform="matrix(11.294566,-3.8890311,3.8890311,11.294566,152.17186,169.50531)" />
    <radialGradient
       cx="0"
       cy="0"
       r="1"
       id="Gradient_3"
       gradientUnits="userSpaceOnUse">
      <stop
         offset="0"
         stop-color="#333"
         id="stop5260" />
      <stop
         offset="1"
         stop-color="#858586"
         id="stop5262" />
    </radialGradient>
    <radialGradient
       id="Obj_Gradient_3"
       xlink:href="#Gradient_3"
       gradientTransform="matrix(8.5071218,-2.929237,2.929237,8.5071218,143.84009,168.83939)" />
    <radialGradient
       cx="0"
       cy="0"
       r="1"
       id="Gradient_4"
       gradientUnits="userSpaceOnUse">
      <stop
         offset="0"
         stop-color="#fefcff"
         id="stop5266" />
      <stop
         offset="1"
         stop-color="#333"
         id="stop5268" />
    </radialGradient>
    <radialGradient
       id="Obj_Gradient_4"
       xlink:href="#Gradient_4"
       gradientTransform="matrix(-5.2298003,-17.640525,13.831792,-4.1006441,127.07119,190.8652)"
       fx="0.53321111"
       fy="0.55251503"
       cx="0.53321111"
       cy="0.55251503" />
    <radialGradient
       id="Obj_Gradient_5"
       xlink:href="#Gradient_3"
       gradientTransform="matrix(10.232955,-3.523489,3.523489,10.232955,142.2044,184.12234)" />
    <radialGradient
       cx="0"
       cy="0"
       r="1"
       id="Gradient_5"
       gradientUnits="userSpaceOnUse">
      <stop
         offset="0"
         stop-color="#fbfcff"
         id="stop5273" />
      <stop
         offset="1"
         stop-color="#333"
         id="stop5275" />
    </radialGradient>
    <radialGradient
       id="Obj_Gradient_6"
       xlink:href="#Gradient_5"
       gradientTransform="matrix(7.9377967,1.1155846,-1.1155846,7.9377967,162.65024,176.08292)"
       fx="0.021611352"
       fy="0.048555344"
       cx="0.021611352"
       cy="0.048555344" />
    <filter
       style="color-interpolation-filters:sRGB;"
       inkscape:label="Drop Shadow"
       id="filter6193">
      <feFlood
         flood-opacity="0.498039"
         flood-color="rgb(0,0,0)"
         result="flood"
         id="feFlood6183" />
      <feComposite
         in="flood"
         in2="SourceGraphic"
         operator="in"
         result="composite1"
         id="feComposite6185" />
      <feGaussianBlur
         in="composite1"
         stdDeviation="1"
         result="blur"
         id="feGaussianBlur6187" />
      <feOffset
         dx="1"
         dy="1"
         result="offset"
         id="feOffset6189" />
      <feComposite
         in="SourceGraphic"
         in2="offset"
         operator="over"
         result="composite2"
         id="feComposite6191" />
    </filter>
  </defs>
  <path
     style="fill:#3952a3;fill-opacity:1;stroke:#333333;stroke-width:2.09588695;stroke-linecap:round;stroke-linejoin:round;stroke-dasharray:none;stroke-opacity:1;filter:url(#filter6193)"
     d="m 151.07706,159.20895 c 0,13.5045 -24.45206,33.53419 -24.45206,33.53419 0,0 -24.45206,-20.02969 -24.45206,-33.53419 0,-13.5045 10.94756,-24.45206 24.45206,-24.45206 13.5045,0 24.45206,10.94756 24.45206,24.45206 z"
     id="circle5287"
     inkscape:connector-curvature="0"
     sodipodi:nodetypes="scsss"
     transform="matrix(0.93294792,0,0,0.93294792,8.4904676,10.979762)" />
  <g
     id="g4475"
     transform="matrix(0.32774961,0,0,0.32774961,111.66912,142.30471)"
     style="fill:#ffffff">
    <path
       inkscape:connector-curvature="0"
       style="fill:#ffffff"
       d="m 22.366,30.569 c 1.004,0 1.974,0.152 2.887,0.434 3.448,-3.864 7.271,-7.379 11.411,-10.5 -0.173,-0.731 -0.275,-1.489 -0.275,-2.274 0,-1.084 0.184,-2.125 0.51,-3.1 -4.637,-3.328 -9.682,-6.12 -15.047,-8.279 -5.031,3.109 -9.418,7.162 -12.914,11.912 2.596,4.596 5.682,8.883 9.189,12.784 1.284,-0.62 2.72,-0.977 4.239,-0.977 z m -9.786,9.786 c 0,-1.374 0.287,-2.682 0.798,-3.868 C 10.236,33.039 7.392,29.317 4.899,25.352 1.771,31.562 0,38.572 0,45.999 0,54.601 2.366,62.646 6.476,69.532 7.944,61.255 10.73,53.436 14.579,46.264 13.328,44.622 12.58,42.579 12.58,40.355 Z M 46.176,8.441 c 2.585,0 4.929,1.009 6.678,2.646 C 57.96,8.89 63.339,7.206 68.932,6.129 62.18,2.238 54.354,0 46,0 40.306,0 34.854,1.043 29.82,2.936 33.816,4.908 37.623,7.212 41.205,9.809 42.663,8.945 44.36,8.441 46.176,8.441 Z m 14.636,46.097 c 0.609,-1.268 1.474,-2.389 2.543,-3.281 -2.888,-8.891 -7.465,-17.021 -13.359,-24.016 -1.173,0.498 -2.464,0.774 -3.82,0.774 -2.123,0 -4.082,-0.684 -5.686,-1.832 -3.547,2.696 -6.83,5.719 -9.815,9.018 0.932,1.497 1.479,3.261 1.479,5.154 0,1.023 -0.158,2.007 -0.448,2.933 8.585,5.736 18.463,9.668 29.106,11.25 z m 12.695,13.211 c 0.135,1.853 0.206,3.723 0.206,5.609 0,3.321 -0.212,6.592 -0.612,9.805 C 80.9,77.465 86.84,69.376 89.835,59.97 c -3.547,0.858 -7.188,1.471 -10.902,1.828 -0.874,2.678 -2.867,4.845 -5.426,5.951 z M 58.519,61.116 C 47.165,59.235 36.636,54.903 27.473,48.695 c -1.487,0.912 -3.232,1.449 -5.105,1.449 -0.688,0 -1.358,-0.073 -2.007,-0.208 -4.387,8.317 -7.19,17.593 -7.996,27.428 4.38,4.696 9.724,8.479 15.727,11.019 C 35.543,76.921 45.964,67.44 58.519,61.116 Z M 76.88,11.906 c -7.371,0.711 -14.412,2.561 -20.967,5.342 0.035,0.323 0.051,0.649 0.051,0.98 0,1.545 -0.368,3.001 -1.005,4.301 6.548,7.688 11.635,16.648 14.846,26.456 3.979,0.071 7.382,2.509 8.845,5.971 4.428,-0.449 8.74,-1.296 12.894,-2.518 0.294,-2.104 0.457,-4.251 0.457,-6.439 0,-13.52 -5.834,-25.677 -15.121,-34.093 z M 63.443,66.345 c -11.72,5.49 -21.519,13.945 -28.616,24.282 3.577,0.893 7.318,1.374 11.173,1.374 6.939,0 13.514,-1.546 19.413,-4.297 0.948,-4.637 1.45,-9.433 1.45,-14.346 0,-1.775 -0.08,-3.532 -0.213,-5.273 -1.183,-0.379 -2.267,-0.973 -3.207,-1.74 z"
       id="path4477" />
  </g>
</svg>
