<?xml version="1.0" encoding="UTF-8" standalone="no"?>
<svg
   xmlns:dc="http://purl.org/dc/elements/1.1/"
   xmlns:cc="http://creativecommons.org/ns#"
   xmlns:rdf="http://www.w3.org/1999/02/22-rdf-syntax-ns#"
   xmlns:svg="http://www.w3.org/2000/svg"
   xmlns="http://www.w3.org/2000/svg"
   xmlns:xlink="http://www.w3.org/1999/xlink"
   xmlns:sodipodi="http://sodipodi.sourceforge.net/DTD/sodipodi-0.dtd"
   xmlns:inkscape="http://www.inkscape.org/namespaces/inkscape"
   version="1.1"
   viewBox="100 133 53.25 61.5"
   width="71"
   height="82"
   id="svg5325"
   sodipodi:docname="sensor.svg"
   inkscape:export-filename="sensor.png"
   inkscape:export-xdpi="134.3662"
   inkscape:export-ydpi="134.3662"
   inkscape:version="0.91 r13725">
  <sodipodi:namedview
     pagecolor="#ffffff"
     bordercolor="#666666"
     borderopacity="1"
     objecttolerance="10"
     gridtolerance="10"
     guidetolerance="10"
     inkscape:pageopacity="0"
     inkscape:pageshadow="2"
     inkscape:window-width="1920"
     inkscape:window-height="1056"
     id="namedview5327"
     showgrid="false"
     units="px"
     fit-margin-top="0"
     fit-margin-left="0"
     fit-margin-right="0"
     fit-margin-bottom="0"
     inkscape:zoom="3.6875001"
     inkscape:cx="-85.261513"
     inkscape:cy="58.56248"
     inkscape:window-x="0"
     inkscape:window-y="24"
     inkscape:window-maximized="1"
     inkscape:current-layer="svg5325" />
  <metadata
     id="metadata5244">
    <dc:date>2017-02-14 20:31Z</dc:date>
    <!-- Produced by OmniGraffle Professional 5.4.2 -->
    <rdf:RDF>
      <cc:Work
         rdf:about="">
        <dc:format>image/svg+xml</dc:format>
        <dc:type
           rdf:resource="http://purl.org/dc/dcmitype/StillImage" />
        <dc:title />
      </cc:Work>
    </rdf:RDF>
  </metadata>
  <defs
     id="defs5279">
    <linearGradient
       x1="0"
       x2="1"
       id="Gradient"
       gradientUnits="userSpaceOnUse">
      <stop
         offset="0"
         stop-color="#a1a1a1"
         id="stop5246" />
      <stop
         offset=".5"
         stop-color="#d3ddda"
         id="stop5248" />
      <stop
         offset="1"
         stop-color="#333"
         id="stop5250" />
    </linearGradient>
    <linearGradient
       id="Obj_Gradient"
       xlink:href="#Gradient"
       gradientTransform="matrix(-9.6901415,0,0,-9.6901415,151.86676,195.96937)" />
    <radialGradient
       cx="0"
       cy="0"
       r="1"
       id="Gradient_2"
       gradientUnits="userSpaceOnUse">
      <stop
         offset="0"
         stop-color="#333"
         id="stop5254" />
      <stop
         offset="1"
         stop-color="#fefcff"
         id="stop5256" />
    </radialGradient>
    <radialGradient
       id="Obj_Gradient_2"
       xlink:href="#Gradient_2"
       gradientTransform="matrix(11.294566,-3.8890311,3.8890311,11.294566,152.17186,169.50531)" />
    <radialGradient
       cx="0"
       cy="0"
       r="1"
       id="Gradient_3"
       gradientUnits="userSpaceOnUse">
      <stop
         offset="0"
         stop-color="#333"
         id="stop5260" />
      <stop
         offset="1"
         stop-color="#858586"
         id="stop5262" />
    </radialGradient>
    <radialGradient
       id="Obj_Gradient_3"
       xlink:href="#Gradient_3"
       gradientTransform="matrix(8.5071218,-2.929237,2.929237,8.5071218,143.84009,168.83939)" />
    <radialGradient
       cx="0"
       cy="0"
       r="1"
       id="Gradient_4"
       gradientUnits="userSpaceOnUse">
      <stop
         offset="0"
         stop-color="#fefcff"
         id="stop5266" />
      <stop
         offset="1"
         stop-color="#333"
         id="stop5268" />
    </radialGradient>
    <radialGradient
       id="Obj_Gradient_4"
       xlink:href="#Gradient_4"
       gradientTransform="matrix(-5.2298003,-17.640525,13.831792,-4.1006441,127.07119,190.8652)"
       fx="0.53321111"
       fy="0.55251503"
       cx="0.53321111"
       cy="0.55251503" />
    <radialGradient
       id="Obj_Gradient_5"
       xlink:href="#Gradient_3"
       gradientTransform="matrix(10.232955,-3.523489,3.523489,10.232955,142.2044,184.12234)" />
    <radialGradient
       cx="0"
       cy="0"
       r="1"
       id="Gradient_5"
       gradientUnits="userSpaceOnUse">
      <stop
         offset="0"
         stop-color="#fbfcff"
         id="stop5273" />
      <stop
         offset="1"
         stop-color="#333"
         id="stop5275" />
    </radialGradient>
    <radialGradient
       id="Obj_Gradient_6"
       xlink:href="#Gradient_5"
       gradientTransform="matrix(7.9377967,1.1155846,-1.1155846,7.9377967,162.65024,176.08292)"
       fx="0.021611352"
       fy="0.048555344"
       cx="0.021611352"
       cy="0.048555344" />
    <filter
       style="color-interpolation-filters:sRGB;"
       inkscape:label="Drop Shadow"
       id="filter6193">
      <feFlood
         flood-opacity="0.498039"
         flood-color="rgb(0,0,0)"
         result="flood"
         id="feFlood6183" />
      <feComposite
         in="flood"
         in2="SourceGraphic"
         operator="in"
         result="composite1"
         id="feComposite6185" />
      <feGaussianBlur
         in="composite1"
         stdDeviation="1"
         result="blur"
         id="feGaussianBlur6187" />
      <feOffset
         dx="1"
         dy="1"
         result="offset"
         id="feOffset6189" />
      <feComposite
         in="SourceGraphic"
         in2="offset"
         operator="over"
         result="composite2"
         id="feComposite6191" />
    </filter>
  </defs>
  <path
     style="fill:#3952a3;fill-opacity:1;stroke:#333333;stroke-width:2.09588695;stroke-linecap:round;stroke-linejoin:round;stroke-dasharray:none;stroke-opacity:1;filter:url(#filter6193)"
     d="m 151.07706,159.20895 c 0,13.5045 -24.45206,33.53419 -24.45206,33.53419 0,0 -24.45206,-20.02969 -24.45206,-33.53419 0,-13.5045 10.94756,-24.45206 24.45206,-24.45206 13.5045,0 24.45206,10.94756 24.45206,24.45206 z"
     id="circle5287"
     inkscape:connector-curvature="0"
     sodipodi:nodetypes="scsss"
     transform="matrix(0.93294792,0,0,0.93294792,8.4904676,10.979762)" />
  <g
     transform="matrix(0.38144852,0,0,0.38144852,108.81005,139.1223)"
     id="g4060"
     style="fill:#ffffff">
    <path
       inkscape:connector-curvature="0"
       d="m 46.759,60.918 c 6.021,0 10.918,-4.898 10.918,-10.918 0,-6.02 -4.897,-10.918 -10.918,-10.918 -4.916,0 -9.081,3.268 -10.444,7.744 l -25.289,0 0,6.348 25.289,0 c 1.363,4.476 5.528,7.744 10.444,7.744 z m 0,-19.455 c 4.707,0 8.536,3.829 8.536,8.536 0,4.708 -3.829,8.536 -8.536,8.536 -4.707,0 -8.536,-3.828 -8.536,-8.535 0,-4.708 3.829,-8.537 8.536,-8.537 z"
       id="path4062"
       style="fill:#ffffff" />
    <path
       inkscape:connector-curvature="0"
       d="m 33.751,63.008 c -1.085,-1.086 -2.846,-1.086 -3.931,0 -1.085,1.084 -1.085,2.844 0.001,3.93 4.669,4.67 10.803,7.004 16.938,7.004 6.134,0 12.268,-2.334 16.938,-7.004 9.34,-9.34 9.34,-24.538 0,-33.877 -9.34,-9.339 -24.535,-9.339 -33.876,10e-4 -1.085,1.085 -1.085,2.845 0,3.931 1.085,1.084 2.845,1.084 3.931,0 7.172,-7.172 18.842,-7.173 26.015,-0.001 7.173,7.172 7.173,18.843 0,26.017 -7.174,7.169 -18.844,7.169 -26.016,-10e-4 z"
       id="path4064"
       style="fill:#ffffff" />
    <path
       inkscape:connector-curvature="0"
       d="m 23.302,70.648 c -0.775,0.773 -0.775,2.031 0,2.807 6.266,6.266 14.596,9.717 23.457,9.717 l 0,0 c 8.861,0 17.192,-3.451 23.456,-9.717 12.935,-12.934 12.935,-33.979 0,-46.913 -6.265,-6.266 -14.595,-9.716 -23.456,-9.715 -8.861,0 -17.191,3.45 -23.457,9.716 -0.775,0.775 -0.775,2.032 0,2.807 0.774,0.775 2.032,0.775 2.807,0 11.387,-11.386 29.913,-11.387 41.3,0 11.386,11.387 11.386,29.915 0,41.299 -5.516,5.516 -12.849,8.553 -20.649,8.553 -7.8,0 -15.135,-3.037 -20.65,-8.553 -0.777,-0.776 -2.034,-0.776 -2.808,-0.001 z"
       id="path4066"
       style="fill:#ffffff" />
    <path
       inkscape:connector-curvature="0"
       d="M 76.623,20.133 C 60.156,3.666 33.36,3.666 16.893,20.135 c -0.466,0.465 -0.466,1.219 0,1.684 0.466,0.465 1.22,0.465 1.685,0 C 34.116,6.28 59.4,6.279 74.939,21.818 c 15.539,15.54 15.539,40.825 0,56.364 C 59.4,93.721 34.117,93.721 18.577,78.18 c -0.465,-0.465 -1.219,-0.465 -1.685,0 -0.466,0.465 -0.466,1.219 0,1.686 8.235,8.234 19.05,12.352 29.866,12.352 10.815,-0.002 21.632,-4.117 29.864,-12.352 16.47,-16.468 16.47,-43.264 0.001,-59.733 z"
       id="path4068"
       style="fill:#ffffff" />
  </g>
</svg>
