<?xml version="1.0" encoding="UTF-8" standalone="no"?>
<svg
   xmlns:dc="http://purl.org/dc/elements/1.1/"
   xmlns:cc="http://creativecommons.org/ns#"
   xmlns:rdf="http://www.w3.org/1999/02/22-rdf-syntax-ns#"
   xmlns:svg="http://www.w3.org/2000/svg"
   xmlns="http://www.w3.org/2000/svg"
   xmlns:xlink="http://www.w3.org/1999/xlink"
   xmlns:sodipodi="http://sodipodi.sourceforge.net/DTD/sodipodi-0.dtd"
   xmlns:inkscape="http://www.inkscape.org/namespaces/inkscape"
   version="1.1"
   viewBox="100 133 53.25 61.5"
   width="71"
   height="82"
   id="svg5325"
   sodipodi:docname="full.svg"
   inkscape:export-filename="full.png"
   inkscape:export-xdpi="134.3662"
   inkscape:export-ydpi="134.3662"
   inkscape:version="0.91 r13725">
  <sodipodi:namedview
     pagecolor="#ffffff"
     bordercolor="#666666"
     borderopacity="1"
     objecttolerance="10"
     gridtolerance="10"
     guidetolerance="10"
     inkscape:pageopacity="0"
     inkscape:pageshadow="2"
     inkscape:window-width="1341"
     inkscape:window-height="771"
     id="namedview5327"
     showgrid="false"
     units="px"
     fit-margin-top="0"
     fit-margin-left="0"
     fit-margin-right="0"
     fit-margin-bottom="0"
     inkscape:zoom="2.6074563"
     inkscape:cx="-19.909152"
     inkscape:cy="65.766131"
     inkscape:window-x="223"
     inkscape:window-y="178"
     inkscape:window-maximized="0"
     inkscape:current-layer="svg5325" />
  <metadata
     id="metadata5244">
    <dc:date>2017-02-14 20:31Z</dc:date>
    <!-- Produced by OmniGraffle Professional 5.4.2 -->
    <rdf:RDF>
      <cc:Work
         rdf:about="">
        <dc:format>image/svg+xml</dc:format>
        <dc:type
           rdf:resource="http://purl.org/dc/dcmitype/StillImage" />
        <dc:title></dc:title>
      </cc:Work>
    </rdf:RDF>
  </metadata>
  <defs
     id="defs5279">
    <linearGradient
       x1="0"
       x2="1"
       id="Gradient"
       gradientUnits="userSpaceOnUse">
      <stop
         offset="0"
         stop-color="#a1a1a1"
         id="stop5246" />
      <stop
         offset=".5"
         stop-color="#d3ddda"
         id="stop5248" />
      <stop
         offset="1"
         stop-color="#333"
         id="stop5250" />
    </linearGradient>
    <linearGradient
       id="Obj_Gradient"
       xlink:href="#Gradient"
       gradientTransform="matrix(-9.6901415,0,0,-9.6901415,151.86676,195.96937)" />
    <radialGradient
       cx="0"
       cy="0"
       r="1"
       id="Gradient_2"
       gradientUnits="userSpaceOnUse">
      <stop
         offset="0"
         stop-color="#333"
         id="stop5254" />
      <stop
         offset="1"
         stop-color="#fefcff"
         id="stop5256" />
    </radialGradient>
    <radialGradient
       id="Obj_Gradient_2"
       xlink:href="#Gradient_2"
       gradientTransform="matrix(11.294566,-3.8890311,3.8890311,11.294566,152.17186,169.50531)" />
    <radialGradient
       cx="0"
       cy="0"
       r="1"
       id="Gradient_3"
       gradientUnits="userSpaceOnUse">
      <stop
         offset="0"
         stop-color="#333"
         id="stop5260" />
      <stop
         offset="1"
         stop-color="#858586"
         id="stop5262" />
    </radialGradient>
    <radialGradient
       id="Obj_Gradient_3"
       xlink:href="#Gradient_3"
       gradientTransform="matrix(8.5071218,-2.929237,2.929237,8.5071218,143.84009,168.83939)" />
    <radialGradient
       cx="0"
       cy="0"
       r="1"
       id="Gradient_4"
       gradientUnits="userSpaceOnUse">
      <stop
         offset="0"
         stop-color="#fefcff"
         id="stop5266" />
      <stop
         offset="1"
         stop-color="#333"
         id="stop5268" />
    </radialGradient>
    <radialGradient
       id="Obj_Gradient_4"
       xlink:href="#Gradient_4"
       gradientTransform="matrix(-5.2298003,-17.640525,13.831792,-4.1006441,127.07119,190.8652)"
       fx="0.53321111"
       fy="0.55251503"
       cx="0.53321111"
       cy="0.55251503" />
    <radialGradient
       id="Obj_Gradient_5"
       xlink:href="#Gradient_3"
       gradientTransform="matrix(10.232955,-3.523489,3.523489,10.232955,142.2044,184.12234)" />
    <radialGradient
       cx="0"
       cy="0"
       r="1"
       id="Gradient_5"
       gradientUnits="userSpaceOnUse">
      <stop
         offset="0"
         stop-color="#fbfcff"
         id="stop5273" />
      <stop
         offset="1"
         stop-color="#333"
         id="stop5275" />
    </radialGradient>
    <radialGradient
       id="Obj_Gradient_6"
       xlink:href="#Gradient_5"
       gradientTransform="matrix(7.9377967,1.1155846,-1.1155846,7.9377967,162.65024,176.08292)"
       fx="0.021611352"
       fy="0.048555344"
       cx="0.021611352"
       cy="0.048555344" />
    <filter
       style="color-interpolation-filters:sRGB;"
       inkscape:label="Drop Shadow"
       id="filter6193">
      <feFlood
         flood-opacity="0.498039"
         flood-color="rgb(0,0,0)"
         result="flood"
         id="feFlood6183" />
      <feComposite
         in="flood"
         in2="SourceGraphic"
         operator="in"
         result="composite1"
         id="feComposite6185" />
      <feGaussianBlur
         in="composite1"
         stdDeviation="1"
         result="blur"
         id="feGaussianBlur6187" />
      <feOffset
         dx="1"
         dy="1"
         result="offset"
         id="feOffset6189" />
      <feComposite
         in="SourceGraphic"
         in2="offset"
         operator="over"
         result="composite2"
         id="feComposite6191" />
    </filter>
  </defs>
  <path
     style="fill:#f8001c;fill-opacity:1;stroke:#333333;stroke-width:2.09588695;stroke-linecap:round;stroke-linejoin:round;stroke-dasharray:none;stroke-opacity:1;filter:url(#filter6193)"
     d="m 151.07706,159.20895 c 0,13.5045 -24.45206,33.53419 -24.45206,33.53419 0,0 -24.45206,-20.02969 -24.45206,-33.53419 0,-13.5045 10.94756,-24.45206 24.45206,-24.45206 13.5045,0 24.45206,10.94756 24.45206,24.45206 z"
     id="circle5287"
     inkscape:connector-curvature="0"
     sodipodi:nodetypes="scsss"
     transform="matrix(0.93294792,0,0,0.93294792,8.4904676,10.979762)" />
  <g
     transform="matrix(0.10217995,0,0,0.10161172,109.65442,141.25388)"
     id="g7757">
    <path
       style="fill:#ffffff"
       inkscape:connector-curvature="0"
       d="m 261.724,134.361 c -2.524,0 -5.007,0.17 -7.452,0.467 L 238.907,82.23 c 1.501,-1.749 2.413,-4.018 2.413,-6.503 0,-5.522 -4.478,-10 -10,-10 l -41.249,0 c -5.522,0 -10,4.478 -10,10 0,5.522 4.478,10 10,10 l 26.125,0 -10.622,16.907 c -0.469,-0.06 -0.95,-0.094 -1.432,-0.081 l -89.302,1.295 c 2.213,-1.834 3.623,-4.604 3.623,-7.702 0,-5.522 -4.477,-10 -10,-10 l -24.09,0 c -5.523,0 -10,4.478 -10,10 0,5.522 4.477,10 10,10 l 1.799,0 c 0.24,0.895 0.603,1.772 1.109,2.604 l 4.016,6.609 -11.084,21.868 C 74.348,135.369 68.108,134.36 61.636,134.36 27.65,134.361 0,162.01 0,195.997 c 0,33.987 27.65,61.637 61.636,61.637 29.35,0 53.957,-20.627 60.13,-48.141 l 32.978,1.908 c 0.194,0.011 0.387,0.017 0.579,0.017 3.425,0 6.63,-1.758 8.466,-4.681 l 61.88,-98.495 9.403,32.186 c -20.679,9.958 -34.985,31.124 -34.985,55.569 0,33.986 27.65,61.637 61.637,61.637 33.987,0 61.637,-27.65 61.637,-61.637 0,-33.987 -27.651,-61.636 -61.637,-61.636 z m -158.203,1.118 33.329,54.853 -13.92,-0.805 c -1.856,-17.71 -11.246,-33.204 -24.894,-43.228 z M 20,195.997 c 0,-22.958 18.678,-41.636 41.636,-41.636 3.215,0 6.342,0.378 9.349,1.072 l -18.269,36.044 c -1.525,3.008 -1.431,6.582 0.251,9.506 1.682,2.924 4.724,4.803 8.091,4.998 l 40.353,2.335 C 96.147,225.28 80.307,237.634 61.636,237.634 38.678,237.634 20,218.956 20,195.997 Z m 57.46,-9.102 11.354,-22.401 c 7.006,6.053 11.977,14.393 13.742,23.853 z m 77.986,-4.473 -35.633,-58.644 73.142,-1.061 z m 106.278,55.212 c -22.959,0 -41.637,-18.678 -41.637,-41.637 0,-15.333 8.337,-28.747 20.71,-35.972 l 11.328,38.776 c 1.55,5.302 7.106,8.345 12.402,6.795 5.302,-1.549 8.344,-7.102 6.795,-12.402 l -11.331,-38.788 c 0.575,-0.024 1.152,-0.044 1.733,-0.044 22.959,0 41.637,18.678 41.637,41.636 0,22.958 -18.678,41.636 -41.637,41.636 z"
       id="path7755" />
  </g>
</svg>
