<?xml version="1.0" encoding="UTF-8" standalone="no"?>
<svg
   xmlns:dc="http://purl.org/dc/elements/1.1/"
   xmlns:cc="http://creativecommons.org/ns#"
   xmlns:rdf="http://www.w3.org/1999/02/22-rdf-syntax-ns#"
   xmlns:svg="http://www.w3.org/2000/svg"
   xmlns="http://www.w3.org/2000/svg"
   xmlns:xlink="http://www.w3.org/1999/xlink"
   xmlns:sodipodi="http://sodipodi.sourceforge.net/DTD/sodipodi-0.dtd"
   xmlns:inkscape="http://www.inkscape.org/namespaces/inkscape"
   version="1.1"
   viewBox="100 133 53.25 61.5"
   width="71"
   height="82"
   id="svg5325"
   sodipodi:docname="asthmaAttack_medium.svg"
   inkscape:export-filename="/home/mognom/Git/orion/ngsi-datamodel2poi-operator/src/images/alerts/health/asthmaAttack_medium.png"
   inkscape:export-xdpi="134.3662"
   inkscape:export-ydpi="134.3662"
   inkscape:version="0.91 r13725">
  <sodipodi:namedview
     pagecolor="#ffffff"
     bordercolor="#666666"
     borderopacity="1"
     objecttolerance="10"
     gridtolerance="10"
     guidetolerance="10"
     inkscape:pageopacity="0"
     inkscape:pageshadow="2"
     inkscape:window-width="1920"
     inkscape:window-height="1056"
     id="namedview5327"
     showgrid="false"
     units="px"
     fit-margin-top="0"
     fit-margin-left="0"
     fit-margin-right="0"
     fit-margin-bottom="0"
     inkscape:zoom="3.6875001"
     inkscape:cx="-20.635248"
     inkscape:cy="28.875355"
     inkscape:window-x="0"
     inkscape:window-y="24"
     inkscape:window-maximized="1"
     inkscape:current-layer="svg5325" />
  <metadata
     id="metadata5244">
    <dc:date>2017-02-14 20:31Z</dc:date>
    <!-- Produced by OmniGraffle Professional 5.4.2 -->
    <rdf:RDF>
      <cc:Work
         rdf:about="">
        <dc:format>image/svg+xml</dc:format>
        <dc:type
           rdf:resource="http://purl.org/dc/dcmitype/StillImage" />
        <dc:title></dc:title>
      </cc:Work>
    </rdf:RDF>
  </metadata>
  <defs
     id="defs5279">
    <linearGradient
       x1="0"
       x2="1"
       id="Gradient"
       gradientUnits="userSpaceOnUse">
      <stop
         offset="0"
         stop-color="#a1a1a1"
         id="stop5246" />
      <stop
         offset=".5"
         stop-color="#d3ddda"
         id="stop5248" />
      <stop
         offset="1"
         stop-color="#333"
         id="stop5250" />
    </linearGradient>
    <linearGradient
       id="Obj_Gradient"
       xlink:href="#Gradient"
       gradientTransform="matrix(-9.6901415,0,0,-9.6901415,151.86676,195.96937)" />
    <radialGradient
       cx="0"
       cy="0"
       r="1"
       id="Gradient_2"
       gradientUnits="userSpaceOnUse">
      <stop
         offset="0"
         stop-color="#333"
         id="stop5254" />
      <stop
         offset="1"
         stop-color="#fefcff"
         id="stop5256" />
    </radialGradient>
    <radialGradient
       id="Obj_Gradient_2"
       xlink:href="#Gradient_2"
       gradientTransform="matrix(11.294566,-3.8890311,3.8890311,11.294566,152.17186,169.50531)" />
    <radialGradient
       cx="0"
       cy="0"
       r="1"
       id="Gradient_3"
       gradientUnits="userSpaceOnUse">
      <stop
         offset="0"
         stop-color="#333"
         id="stop5260" />
      <stop
         offset="1"
         stop-color="#858586"
         id="stop5262" />
    </radialGradient>
    <radialGradient
       id="Obj_Gradient_3"
       xlink:href="#Gradient_3"
       gradientTransform="matrix(8.5071218,-2.929237,2.929237,8.5071218,143.84009,168.83939)" />
    <radialGradient
       cx="0"
       cy="0"
       r="1"
       id="Gradient_4"
       gradientUnits="userSpaceOnUse">
      <stop
         offset="0"
         stop-color="#fefcff"
         id="stop5266" />
      <stop
         offset="1"
         stop-color="#333"
         id="stop5268" />
    </radialGradient>
    <radialGradient
       id="Obj_Gradient_4"
       xlink:href="#Gradient_4"
       gradientTransform="matrix(-5.2298003,-17.640525,13.831792,-4.1006441,127.07119,190.8652)"
       fx="0.53321111"
       fy="0.55251503"
       cx="0.53321111"
       cy="0.55251503" />
    <radialGradient
       id="Obj_Gradient_5"
       xlink:href="#Gradient_3"
       gradientTransform="matrix(10.232955,-3.523489,3.523489,10.232955,142.2044,184.12234)" />
    <radialGradient
       cx="0"
       cy="0"
       r="1"
       id="Gradient_5"
       gradientUnits="userSpaceOnUse">
      <stop
         offset="0"
         stop-color="#fbfcff"
         id="stop5273" />
      <stop
         offset="1"
         stop-color="#333"
         id="stop5275" />
    </radialGradient>
    <radialGradient
       id="Obj_Gradient_6"
       xlink:href="#Gradient_5"
       gradientTransform="matrix(7.9377967,1.1155846,-1.1155846,7.9377967,162.65024,176.08292)"
       fx="0.021611352"
       fy="0.048555344"
       cx="0.021611352"
       cy="0.048555344" />
    <filter
       style="color-interpolation-filters:sRGB;"
       inkscape:label="Drop Shadow"
       id="filter6193">
      <feFlood
         flood-opacity="0.498039"
         flood-color="rgb(0,0,0)"
         result="flood"
         id="feFlood6183" />
      <feComposite
         in="flood"
         in2="SourceGraphic"
         operator="in"
         result="composite1"
         id="feComposite6185" />
      <feGaussianBlur
         in="composite1"
         stdDeviation="1"
         result="blur"
         id="feGaussianBlur6187" />
      <feOffset
         dx="1"
         dy="1"
         result="offset"
         id="feOffset6189" />
      <feComposite
         in="SourceGraphic"
         in2="offset"
         operator="over"
         result="composite2"
         id="feComposite6191" />
    </filter>
  </defs>
  <path
     style="fill:#eec20b;fill-opacity:1;stroke:#333333;stroke-width:2.09588695;stroke-linecap:round;stroke-linejoin:round;stroke-dasharray:none;stroke-opacity:1;filter:url(#filter6193)"
     d="m 151.07706,159.20895 c 0,13.5045 -24.45206,33.53419 -24.45206,33.53419 0,0 -24.45206,-20.02969 -24.45206,-33.53419 0,-13.5045 10.94756,-24.45206 24.45206,-24.45206 13.5045,0 24.45206,10.94756 24.45206,24.45206 z"
     id="circle5287"
     inkscape:connector-curvature="0"
     sodipodi:nodetypes="scsss"
     transform="matrix(0.93294792,0,0,0.93294792,8.4904676,10.979762)" />
  <g
     transform="matrix(0.06132638,0,0,0.06132638,112.36824,141.58014)"
     id="g3988"
     style="fill:#ffffff">
    <g
       id="g3990"
       style="fill:#ffffff">
      <path
         inkscape:connector-curvature="0"
         d="m 501.328,387.355 -53.312,0 c -5.891,0 -10.688,4.781 -10.688,10.672 0,5.891 4.781,10.672 10.672,10.672 l 53.328,0 c 5.891,0 10.672,-4.781 10.672,-10.672 0,-5.891 -4.781,-10.672 -10.672,-10.672 z"
         id="path3992"
         style="fill:#ffffff" />
    </g>
  </g>
  <g
     transform="matrix(0.06132638,0,0,0.06132638,112.36824,141.58014)"
     id="g3994"
     style="fill:#ffffff">
    <g
       id="g3996"
       style="fill:#ffffff">
      <path
         inkscape:connector-curvature="0"
         d="m 476.078,311.293 c -4.172,-4.156 -10.922,-4.156 -15.094,0 l -37.703,37.719 c -4.172,4.156 -4.172,10.906 0,15.078 4.157,4.172 10.907,4.172 15.078,0 l 37.688,-37.703 c 4.172,-4.156 4.188,-10.938 0.031,-15.094 z"
         id="path3998"
         style="fill:#ffffff" />
    </g>
  </g>
  <g
     transform="matrix(0.06132638,0,0,0.06132638,112.36824,141.58014)"
     id="g4000"
     style="fill:#ffffff">
    <g
       id="g4002"
       style="fill:#ffffff">
      <path
         inkscape:connector-curvature="0"
         d="m 476.079,469.684 -37.688,-37.672 c -4.172,-4.172 -10.953,-4.219 -15.109,-0.031 -4.172,4.156 -4.172,10.906 0,15.078 l 37.688,37.703 c 4.172,4.156 10.938,4.172 15.109,0 4.156,-4.156 4.156,-10.906 0,-15.078 z"
         id="path4004"
         style="fill:#ffffff" />
    </g>
  </g>
  <g
     transform="matrix(0.06132638,0,0,0.06132638,112.36824,141.58014)"
     id="g4006"
     style="fill:#ffffff">
    <g
       id="g4008"
       style="fill:#ffffff">
      <path
         inkscape:connector-curvature="0"
         d="m 267.156,312.699 -68.5,-255.617 -16.984,4.555 -5.812,-21.703 c -2.547,-9.531 -11.172,-15.82 -20.594,-15.82 -1.828,0 -3.688,0.234 -5.531,0.734 L 26.094,57.973 C 14.719,61.028 7.953,72.723 11.016,84.106 l 5.812,21.703 -16.828,4.507 99.969,373.039 212.953,0 23.688,0 47.39,0 0,-170.656 -116.844,0 z M 36.766,77.199 c 1.531,5.695 7.375,9.07 13.062,7.547 5.688,-1.531 9.078,-7.375 7.547,-13.062 l 0,-0.008 10.297,-2.758 c 1.531,5.688 7.375,9.07 13.062,7.547 5.703,-1.531 9.078,-7.375 7.547,-13.07 l 10.312,-2.758 c 1.516,5.688 7.359,9.062 13.062,7.539 5.688,-1.523 9.062,-7.367 7.531,-13.062 l 10.312,-2.758 c 1.516,5.688 7.375,9.062 13.062,7.539 5.687,-1.523 9.062,-7.367 7.547,-13.062 l 5.141,-1.383 5.828,21.711 -123.638,33.124 -5.828,-21.703 5.156,-1.383 z m 276.156,384.828 -196.594,0 -90.203,-336.625 157.453,-42.188 63.5,236.984 -31.938,31.938 c -4.172,4.156 -4.172,10.906 0,15.078 4.172,4.172 10.922,4.172 15.078,0 l 33.188,-33.188 49.516,0 0,128.001 z m 49.75,0 -26.062,0 0,-128 26.062,0 0,128 z"
         id="path4010"
         style="fill:#ffffff" />
    </g>
  </g>
</svg>
