<?xml version="1.0" encoding="UTF-8" standalone="no"?>
<svg
   xmlns:dc="http://purl.org/dc/elements/1.1/"
   xmlns:cc="http://creativecommons.org/ns#"
   xmlns:rdf="http://www.w3.org/1999/02/22-rdf-syntax-ns#"
   xmlns:svg="http://www.w3.org/2000/svg"
   xmlns="http://www.w3.org/2000/svg"
   xmlns:xlink="http://www.w3.org/1999/xlink"
   xmlns:sodipodi="http://sodipodi.sourceforge.net/DTD/sodipodi-0.dtd"
   xmlns:inkscape="http://www.inkscape.org/namespaces/inkscape"
   version="1.1"
   viewBox="100 133 53.25 61.5"
   width="71"
   height="82"
   id="svg5325"
   sodipodi:docname="fallenPatient_medium.svg"
   inkscape:export-filename="/home/mognom/Git/orion/ngsi-datamodel2poi-operator/src/images/alerts/health/fallenPatient_medium.png"
   inkscape:export-xdpi="134.3662"
   inkscape:export-ydpi="134.3662"
   inkscape:version="0.91 r13725">
  <sodipodi:namedview
     pagecolor="#ffffff"
     bordercolor="#666666"
     borderopacity="1"
     objecttolerance="10"
     gridtolerance="10"
     guidetolerance="10"
     inkscape:pageopacity="0"
     inkscape:pageshadow="2"
     inkscape:window-width="1920"
     inkscape:window-height="1056"
     id="namedview5327"
     showgrid="false"
     units="px"
     fit-margin-top="0"
     fit-margin-left="0"
     fit-margin-right="0"
     fit-margin-bottom="0"
     inkscape:zoom="3.6875001"
     inkscape:cx="-66.330162"
     inkscape:cy="28.875355"
     inkscape:window-x="0"
     inkscape:window-y="24"
     inkscape:window-maximized="1"
     inkscape:current-layer="svg5325" />
  <metadata
     id="metadata5244">
    <dc:date>2017-02-14 20:31Z</dc:date>
    <!-- Produced by OmniGraffle Professional 5.4.2 -->
    <rdf:RDF>
      <cc:Work
         rdf:about="">
        <dc:format>image/svg+xml</dc:format>
        <dc:type
           rdf:resource="http://purl.org/dc/dcmitype/StillImage" />
        <dc:title />
      </cc:Work>
    </rdf:RDF>
  </metadata>
  <defs
     id="defs5279">
    <linearGradient
       x1="0"
       x2="1"
       id="Gradient"
       gradientUnits="userSpaceOnUse">
      <stop
         offset="0"
         stop-color="#a1a1a1"
         id="stop5246" />
      <stop
         offset=".5"
         stop-color="#d3ddda"
         id="stop5248" />
      <stop
         offset="1"
         stop-color="#333"
         id="stop5250" />
    </linearGradient>
    <linearGradient
       id="Obj_Gradient"
       xlink:href="#Gradient"
       gradientTransform="matrix(-9.6901415,0,0,-9.6901415,151.86676,195.96937)" />
    <radialGradient
       cx="0"
       cy="0"
       r="1"
       id="Gradient_2"
       gradientUnits="userSpaceOnUse">
      <stop
         offset="0"
         stop-color="#333"
         id="stop5254" />
      <stop
         offset="1"
         stop-color="#fefcff"
         id="stop5256" />
    </radialGradient>
    <radialGradient
       id="Obj_Gradient_2"
       xlink:href="#Gradient_2"
       gradientTransform="matrix(11.294566,-3.8890311,3.8890311,11.294566,152.17186,169.50531)" />
    <radialGradient
       cx="0"
       cy="0"
       r="1"
       id="Gradient_3"
       gradientUnits="userSpaceOnUse">
      <stop
         offset="0"
         stop-color="#333"
         id="stop5260" />
      <stop
         offset="1"
         stop-color="#858586"
         id="stop5262" />
    </radialGradient>
    <radialGradient
       id="Obj_Gradient_3"
       xlink:href="#Gradient_3"
       gradientTransform="matrix(8.5071218,-2.929237,2.929237,8.5071218,143.84009,168.83939)" />
    <radialGradient
       cx="0"
       cy="0"
       r="1"
       id="Gradient_4"
       gradientUnits="userSpaceOnUse">
      <stop
         offset="0"
         stop-color="#fefcff"
         id="stop5266" />
      <stop
         offset="1"
         stop-color="#333"
         id="stop5268" />
    </radialGradient>
    <radialGradient
       id="Obj_Gradient_4"
       xlink:href="#Gradient_4"
       gradientTransform="matrix(-5.2298003,-17.640525,13.831792,-4.1006441,127.07119,190.8652)"
       fx="0.53321111"
       fy="0.55251503"
       cx="0.53321111"
       cy="0.55251503" />
    <radialGradient
       id="Obj_Gradient_5"
       xlink:href="#Gradient_3"
       gradientTransform="matrix(10.232955,-3.523489,3.523489,10.232955,142.2044,184.12234)" />
    <radialGradient
       cx="0"
       cy="0"
       r="1"
       id="Gradient_5"
       gradientUnits="userSpaceOnUse">
      <stop
         offset="0"
         stop-color="#fbfcff"
         id="stop5273" />
      <stop
         offset="1"
         stop-color="#333"
         id="stop5275" />
    </radialGradient>
    <radialGradient
       id="Obj_Gradient_6"
       xlink:href="#Gradient_5"
       gradientTransform="matrix(7.9377967,1.1155846,-1.1155846,7.9377967,162.65024,176.08292)"
       fx="0.021611352"
       fy="0.048555344"
       cx="0.021611352"
       cy="0.048555344" />
    <filter
       style="color-interpolation-filters:sRGB;"
       inkscape:label="Drop Shadow"
       id="filter6193">
      <feFlood
         flood-opacity="0.498039"
         flood-color="rgb(0,0,0)"
         result="flood"
         id="feFlood6183" />
      <feComposite
         in="flood"
         in2="SourceGraphic"
         operator="in"
         result="composite1"
         id="feComposite6185" />
      <feGaussianBlur
         in="composite1"
         stdDeviation="1"
         result="blur"
         id="feGaussianBlur6187" />
      <feOffset
         dx="1"
         dy="1"
         result="offset"
         id="feOffset6189" />
      <feComposite
         in="SourceGraphic"
         in2="offset"
         operator="over"
         result="composite2"
         id="feComposite6191" />
    </filter>
  </defs>
  <path
     style="fill:#eec20b;fill-opacity:1;stroke:#333333;stroke-width:2.09588695;stroke-linecap:round;stroke-linejoin:round;stroke-dasharray:none;stroke-opacity:1;filter:url(#filter6193)"
     d="m 151.07706,159.20895 c 0,13.5045 -24.45206,33.53419 -24.45206,33.53419 0,0 -24.45206,-20.02969 -24.45206,-33.53419 0,-13.5045 10.94756,-24.45206 24.45206,-24.45206 13.5045,0 24.45206,10.94756 24.45206,24.45206 z"
     id="circle5287"
     inkscape:connector-curvature="0"
     sodipodi:nodetypes="scsss"
     transform="matrix(0.93294792,0,0,0.93294792,8.4904676,10.979762)" />
  <path
     style="fill:#ffffff"
     d="m 113.70858,172.0611 c -0.55588,-0.0992 -1.04854,-0.56058 -1.18912,-1.11362 -0.0454,-0.17845 -0.0451,-0.52136 4.1e-4,-0.71483 0.0485,-0.20593 0.20103,-0.48926 0.34722,-0.6452 0.067,-0.0715 2.23103,-1.89764 4.80892,-4.05813 2.5779,-2.16049 4.69638,-3.93653 4.70775,-3.94677 0.0114,-0.0102 -0.072,-0.13037 -0.18542,-0.26695 -0.16466,-0.1984 -0.21841,-0.24842 -0.26737,-0.24875 -0.0337,-2.1e-4 -1.06563,-0.13113 -2.2932,-0.29088 -1.22757,-0.15975 -2.23864,-0.28378 -2.24684,-0.27563 -0.008,0.008 -0.50317,1.14077 -1.09993,2.51694 -0.75957,1.75158 -1.1172,2.54996 -1.19228,2.6616 -0.26498,0.39401 -0.66963,0.61909 -1.15827,0.64427 -0.29662,0.0153 -0.46276,-0.0199 -0.74006,-0.1566 -0.6142,-0.30282 -0.92648,-0.96374 -0.78312,-1.65739 0.0133,-0.0646 0.63726,-1.52967 1.38647,-3.25568 1.48263,-3.41572 1.44241,-3.33311 1.73042,-3.55454 0.28152,-0.21643 0.57613,-0.32166 0.90364,-0.32275 0.11385,-4.1e-4 1.12935,0.12063 2.48114,0.29563 1.25863,0.16295 2.30165,0.29318 2.31782,0.28938 0.0162,-0.004 1.55871,-1.29031 3.42786,-2.85893 l 3.39848,-2.85203 -0.0687,-0.073 c -0.16024,-0.1703 -2.55842,-3.04365 -2.62969,-3.15071 -0.1863,-0.27985 -0.2359,-0.70851 -0.11962,-1.03374 0.10387,-0.29049 2.27584,-5.25857 2.34945,-5.37399 0.16577,-0.26 0.50663,-0.48091 0.82748,-0.53631 0.30273,-0.0523 0.61482,0.0196 0.8894,0.20492 0.417,0.2814 0.62225,0.81253 0.49812,1.28909 -0.02,0.0768 -0.46933,1.13588 -0.9985,2.35343 -0.52916,1.21755 -0.96211,2.22463 -0.96211,2.23794 0,0.0262 5.64758,6.768 5.6932,6.79629 0.0152,0.009 0.77296,0.0808 1.68395,0.15869 0.91099,0.0779 1.6898,0.14712 1.7307,0.1539 0.0698,0.0115 0.16366,-0.0626 1.53887,-1.21642 2.26903,-1.90378 2.48611,-2.08438 2.58064,-2.14693 0.31512,-0.20855 0.82412,-0.23315 1.17453,-0.0568 0.42197,0.2124 0.68519,0.62599 0.68836,1.08157 0.002,0.34413 -0.12091,0.64841 -0.35593,0.87835 -0.073,0.0714 -1.10502,0.94495 -2.29336,1.94117 -2.33241,1.95535 -2.31767,1.94424 -2.65567,2.00018 -0.14858,0.0246 -0.41611,0.006 -2.7723,-0.19973 -1.43432,-0.12481 -2.64195,-0.22947 -2.68364,-0.23257 -0.0673,-0.005 -0.13594,0.0448 -0.61084,0.44318 -0.29429,0.24687 -4.16666,3.49667 -8.60529,7.22178 -4.43862,3.72512 -8.13283,6.8139 -8.20935,6.86396 -0.27088,0.17721 -0.71575,0.26521 -1.0443,0.20657 z m 6.35213,-0.007 c -0.28229,-0.0686 -0.56983,-0.31299 -0.67263,-0.57159 -0.0434,-0.10925 -0.0542,-0.18209 -0.0549,-0.37134 -8.1e-4,-0.22152 0.004,-0.2451 0.0798,-0.39921 0.10033,-0.20376 0.25762,-0.36008 0.46523,-0.46227 l 0.15799,-0.0778 8.47012,0 8.47012,0 0.15836,0.075 c 0.20498,0.0971 0.37435,0.26646 0.47144,0.47143 0.0696,0.14688 0.075,0.17631 0.075,0.40556 0,0.23062 -0.005,0.25741 -0.0752,0.4 -0.13581,0.27585 -0.40404,0.48536 -0.69115,0.53979 -0.19209,0.0364 -16.70361,0.027 -16.8542,-0.01 z m 13.97312,-18.55132 c -0.51,-0.0716 -0.96869,-0.29874 -1.32332,-0.65515 -0.30354,-0.30505 -0.51231,-0.67038 -0.61404,-1.07455 -0.0724,-0.28755 -0.0723,-0.8254 1e-4,-1.09302 0.19882,-0.73428 0.74874,-1.34635 1.43169,-1.59347 0.42373,-0.15333 0.93889,-0.18088 1.35719,-0.0726 0.20378,0.0528 0.56003,0.21456 0.73019,0.33163 0.64697,0.44513 1.04822,1.27494 0.98618,2.03948 -0.0952,1.17328 -1.02143,2.07472 -2.18612,2.12762 -0.1293,0.006 -0.30116,0.002 -0.38192,-0.01 z"
     id="path4848"
     inkscape:connector-curvature="0"
     inkscape:export-xdpi="134"
     inkscape:export-ydpi="134" />
</svg>
