<?xml version="1.0" encoding="UTF-8" standalone="no"?>
<svg
   xmlns:dc="http://purl.org/dc/elements/1.1/"
   xmlns:cc="http://creativecommons.org/ns#"
   xmlns:rdf="http://www.w3.org/1999/02/22-rdf-syntax-ns#"
   xmlns:svg="http://www.w3.org/2000/svg"
   xmlns="http://www.w3.org/2000/svg"
   xmlns:xlink="http://www.w3.org/1999/xlink"
   xmlns:sodipodi="http://sodipodi.sourceforge.net/DTD/sodipodi-0.dtd"
   xmlns:inkscape="http://www.inkscape.org/namespaces/inkscape"
   version="1.1"
   viewBox="100 133 53.25 61.5"
   width="71"
   height="82"
   id="svg5325"
   sodipodi:docname="heartAttack_high.svg"
   inkscape:export-filename="/home/mognom/Git/orion/ngsi-datamodel2poi-operator/src/images/alerts/health/heartAttack_high.png"
   inkscape:export-xdpi="134.3662"
   inkscape:export-ydpi="134.3662"
   inkscape:version="0.91 r13725">
  <sodipodi:namedview
     pagecolor="#ffffff"
     bordercolor="#666666"
     borderopacity="1"
     objecttolerance="10"
     gridtolerance="10"
     guidetolerance="10"
     inkscape:pageopacity="0"
     inkscape:pageshadow="2"
     inkscape:window-width="1920"
     inkscape:window-height="1056"
     id="namedview5327"
     showgrid="false"
     units="px"
     fit-margin-top="0"
     fit-margin-left="0"
     fit-margin-right="0"
     fit-margin-bottom="0"
     inkscape:zoom="7.3750002"
     inkscape:cx="-1.3336526"
     inkscape:cy="73.713338"
     inkscape:window-x="0"
     inkscape:window-y="24"
     inkscape:window-maximized="1"
     inkscape:current-layer="svg5325" />
  <metadata
     id="metadata5244">
    <dc:date>2017-02-14 20:31Z</dc:date>
    <!-- Produced by OmniGraffle Professional 5.4.2 -->
    <rdf:RDF>
      <cc:Work
         rdf:about="">
        <dc:format>image/svg+xml</dc:format>
        <dc:type
           rdf:resource="http://purl.org/dc/dcmitype/StillImage" />
        <dc:title></dc:title>
      </cc:Work>
    </rdf:RDF>
  </metadata>
  <defs
     id="defs5279">
    <linearGradient
       x1="0"
       x2="1"
       id="Gradient"
       gradientUnits="userSpaceOnUse">
      <stop
         offset="0"
         stop-color="#a1a1a1"
         id="stop5246" />
      <stop
         offset=".5"
         stop-color="#d3ddda"
         id="stop5248" />
      <stop
         offset="1"
         stop-color="#333"
         id="stop5250" />
    </linearGradient>
    <linearGradient
       id="Obj_Gradient"
       xlink:href="#Gradient"
       gradientTransform="matrix(-9.6901415,0,0,-9.6901415,151.86676,195.96937)" />
    <radialGradient
       cx="0"
       cy="0"
       r="1"
       id="Gradient_2"
       gradientUnits="userSpaceOnUse">
      <stop
         offset="0"
         stop-color="#333"
         id="stop5254" />
      <stop
         offset="1"
         stop-color="#fefcff"
         id="stop5256" />
    </radialGradient>
    <radialGradient
       id="Obj_Gradient_2"
       xlink:href="#Gradient_2"
       gradientTransform="matrix(11.294566,-3.8890311,3.8890311,11.294566,152.17186,169.50531)" />
    <radialGradient
       cx="0"
       cy="0"
       r="1"
       id="Gradient_3"
       gradientUnits="userSpaceOnUse">
      <stop
         offset="0"
         stop-color="#333"
         id="stop5260" />
      <stop
         offset="1"
         stop-color="#858586"
         id="stop5262" />
    </radialGradient>
    <radialGradient
       id="Obj_Gradient_3"
       xlink:href="#Gradient_3"
       gradientTransform="matrix(8.5071218,-2.929237,2.929237,8.5071218,143.84009,168.83939)" />
    <radialGradient
       cx="0"
       cy="0"
       r="1"
       id="Gradient_4"
       gradientUnits="userSpaceOnUse">
      <stop
         offset="0"
         stop-color="#fefcff"
         id="stop5266" />
      <stop
         offset="1"
         stop-color="#333"
         id="stop5268" />
    </radialGradient>
    <radialGradient
       id="Obj_Gradient_4"
       xlink:href="#Gradient_4"
       gradientTransform="matrix(-5.2298003,-17.640525,13.831792,-4.1006441,127.07119,190.8652)"
       fx="0.53321111"
       fy="0.55251503"
       cx="0.53321111"
       cy="0.55251503" />
    <radialGradient
       id="Obj_Gradient_5"
       xlink:href="#Gradient_3"
       gradientTransform="matrix(10.232955,-3.523489,3.523489,10.232955,142.2044,184.12234)" />
    <radialGradient
       cx="0"
       cy="0"
       r="1"
       id="Gradient_5"
       gradientUnits="userSpaceOnUse">
      <stop
         offset="0"
         stop-color="#fbfcff"
         id="stop5273" />
      <stop
         offset="1"
         stop-color="#333"
         id="stop5275" />
    </radialGradient>
    <radialGradient
       id="Obj_Gradient_6"
       xlink:href="#Gradient_5"
       gradientTransform="matrix(7.9377967,1.1155846,-1.1155846,7.9377967,162.65024,176.08292)"
       fx="0.021611352"
       fy="0.048555344"
       cx="0.021611352"
       cy="0.048555344" />
    <filter
       style="color-interpolation-filters:sRGB;"
       inkscape:label="Drop Shadow"
       id="filter6193">
      <feFlood
         flood-opacity="0.498039"
         flood-color="rgb(0,0,0)"
         result="flood"
         id="feFlood6183" />
      <feComposite
         in="flood"
         in2="SourceGraphic"
         operator="in"
         result="composite1"
         id="feComposite6185" />
      <feGaussianBlur
         in="composite1"
         stdDeviation="1"
         result="blur"
         id="feGaussianBlur6187" />
      <feOffset
         dx="1"
         dy="1"
         result="offset"
         id="feOffset6189" />
      <feComposite
         in="SourceGraphic"
         in2="offset"
         operator="over"
         result="composite2"
         id="feComposite6191" />
    </filter>
  </defs>
  <path
     style="fill:#f8001c;fill-opacity:1;stroke:#333333;stroke-width:2.09588695;stroke-linecap:round;stroke-linejoin:round;stroke-dasharray:none;stroke-opacity:1;filter:url(#filter6193)"
     d="m 151.07706,159.20895 c 0,13.5045 -24.45206,33.53419 -24.45206,33.53419 0,0 -24.45206,-20.02969 -24.45206,-33.53419 0,-13.5045 10.94756,-24.45206 24.45206,-24.45206 13.5045,0 24.45206,10.94756 24.45206,24.45206 z"
     id="circle5287"
     inkscape:connector-curvature="0"
     sodipodi:nodetypes="scsss"
     transform="matrix(0.93294792,0,0,0.93294792,8.4904676,10.979762)" />
  <path
     style="fill:#ffffff"
     d="m 125.24056,172.41029 c -2.25188,-1.9437 -4.94681,-4.56658 -6.69639,-6.51734 -2.65764,-2.96325 -4.99655,-6.03585 -4.99655,-6.56389 0,-0.12023 1.0857,-0.189 3.00123,-0.19013 l 3.00123,-0.002 1.63536,-2.87241 c 0.89945,-1.57982 1.66053,-2.84647 1.69126,-2.81478 0.0974,0.10038 3.4141,15.69191 3.42546,16.10261 0.009,0.32497 0.0429,0.34485 0.19736,0.11549 0.10257,-0.15238 1.25272,-2.81192 2.55586,-5.91012 l 2.36936,-5.63307 4.08216,-0.0497 c 2.24519,-0.0274 4.08215,0.0204 4.08215,0.10608 0,0.27427 -2.14614,3.40152 -3.41418,4.975 -1.90483,2.36363 -4.48701,5.09058 -7.25793,7.66484 -1.39331,1.29442 -2.59058,2.35409 -2.66058,2.3548 -0.07,6.7e-4 -0.52712,-0.34381 -1.0158,-0.76562 z m 0.22983,-14.9424 -1.46229,-6.84415 -0.75149,0.12193 c -0.41331,0.067 -0.82475,0.19081 -0.9143,0.275 -0.0896,0.0842 -0.93156,1.50929 -1.8711,3.16691 l -1.70827,3.01386 -3.29552,0 -3.29553,0 -0.53413,-1.38518 c -0.70018,-1.81585 -0.8554,-3.90183 -0.40615,-5.45795 0.68713,-2.38001 2.27398,-4.55095 3.9933,-5.46316 0.67176,-0.35641 1.09361,-0.43284 2.38591,-0.43233 1.39976,4.7e-4 1.69075,0.0636 2.68539,0.5811 1.62651,0.84637 3.52644,2.60651 5.12219,4.74529 0.38903,0.52142 0.73914,0.94804 0.77803,0.94804 0.0389,0 0.48059,-0.58178 0.98157,-1.29284 1.85747,-2.63635 3.89758,-4.29552 5.91376,-4.80947 1.42615,-0.36355 2.31332,-0.25166 3.85098,0.48565 2.08274,0.99868 4.06011,3.78907 4.50916,6.36312 0.20461,1.17288 -0.0426,2.7856 -0.65005,4.23923 l -0.2705,0.64738 -5.15321,0 -5.1532,0 -1.55127,3.96743 c -0.85319,2.18209 -1.59395,3.96897 -1.64613,3.97086 -0.0522,0.002 -0.75291,-3.07644 -1.55715,-6.84072 z"
     id="path4644"
     inkscape:connector-curvature="0" />
</svg>
