<?xml version="1.0" encoding="UTF-8" standalone="no"?>
<svg
   xmlns:dc="http://purl.org/dc/elements/1.1/"
   xmlns:cc="http://creativecommons.org/ns#"
   xmlns:rdf="http://www.w3.org/1999/02/22-rdf-syntax-ns#"
   xmlns:svg="http://www.w3.org/2000/svg"
   xmlns="http://www.w3.org/2000/svg"
   xmlns:xlink="http://www.w3.org/1999/xlink"
   xmlns:sodipodi="http://sodipodi.sourceforge.net/DTD/sodipodi-0.dtd"
   xmlns:inkscape="http://www.inkscape.org/namespaces/inkscape"
   version="1.1"
   viewBox="100 133 53.25 61.5"
   width="71"
   height="82"
   id="svg5325"
   sodipodi:docname="agriculturalVehicle-onRoute.svg"
   inkscape:export-filename="agriculturalVehicle--onRoute.png"
   inkscape:export-xdpi="134.3662"
   inkscape:export-ydpi="134.3662"
   inkscape:version="0.91 r13725">
  <sodipodi:namedview
     pagecolor="#ffffff"
     bordercolor="#666666"
     borderopacity="1"
     objecttolerance="10"
     gridtolerance="10"
     guidetolerance="10"
     inkscape:pageopacity="0"
     inkscape:pageshadow="2"
     inkscape:window-width="1920"
     inkscape:window-height="1056"
     id="namedview5327"
     showgrid="false"
     units="px"
     fit-margin-top="0"
     fit-margin-left="0"
     fit-margin-right="0"
     fit-margin-bottom="0"
     inkscape:zoom="5.2149128"
     inkscape:cx="93.668014"
     inkscape:cy="55.133134"
     inkscape:window-x="0"
     inkscape:window-y="24"
     inkscape:window-maximized="1"
     inkscape:current-layer="svg5325" />
  <metadata
     id="metadata5244">
    <dc:date>2017-02-14 20:31Z</dc:date>
    <!-- Produced by OmniGraffle Professional 5.4.2 -->
    <rdf:RDF>
      <cc:Work
         rdf:about="">
        <dc:format>image/svg+xml</dc:format>
        <dc:type
           rdf:resource="http://purl.org/dc/dcmitype/StillImage" />
        <dc:title></dc:title>
      </cc:Work>
    </rdf:RDF>
  </metadata>
  <defs
     id="defs5279">
    <linearGradient
       x1="0"
       x2="1"
       id="Gradient"
       gradientUnits="userSpaceOnUse">
      <stop
         offset="0"
         stop-color="#a1a1a1"
         id="stop5246" />
      <stop
         offset=".5"
         stop-color="#d3ddda"
         id="stop5248" />
      <stop
         offset="1"
         stop-color="#333"
         id="stop5250" />
    </linearGradient>
    <linearGradient
       id="Obj_Gradient"
       xlink:href="#Gradient"
       gradientTransform="matrix(-9.6901415,0,0,-9.6901415,151.86676,195.96937)" />
    <radialGradient
       cx="0"
       cy="0"
       r="1"
       id="Gradient_2"
       gradientUnits="userSpaceOnUse">
      <stop
         offset="0"
         stop-color="#333"
         id="stop5254" />
      <stop
         offset="1"
         stop-color="#fefcff"
         id="stop5256" />
    </radialGradient>
    <radialGradient
       id="Obj_Gradient_2"
       xlink:href="#Gradient_2"
       gradientTransform="matrix(11.294566,-3.8890311,3.8890311,11.294566,152.17186,169.50531)" />
    <radialGradient
       cx="0"
       cy="0"
       r="1"
       id="Gradient_3"
       gradientUnits="userSpaceOnUse">
      <stop
         offset="0"
         stop-color="#333"
         id="stop5260" />
      <stop
         offset="1"
         stop-color="#858586"
         id="stop5262" />
    </radialGradient>
    <radialGradient
       id="Obj_Gradient_3"
       xlink:href="#Gradient_3"
       gradientTransform="matrix(8.5071218,-2.929237,2.929237,8.5071218,143.84009,168.83939)" />
    <radialGradient
       cx="0"
       cy="0"
       r="1"
       id="Gradient_4"
       gradientUnits="userSpaceOnUse">
      <stop
         offset="0"
         stop-color="#fefcff"
         id="stop5266" />
      <stop
         offset="1"
         stop-color="#333"
         id="stop5268" />
    </radialGradient>
    <radialGradient
       id="Obj_Gradient_4"
       xlink:href="#Gradient_4"
       gradientTransform="matrix(-5.2298003,-17.640525,13.831792,-4.1006441,127.07119,190.8652)"
       fx="0.53321111"
       fy="0.55251503"
       cx="0.53321111"
       cy="0.55251503" />
    <radialGradient
       id="Obj_Gradient_5"
       xlink:href="#Gradient_3"
       gradientTransform="matrix(10.232955,-3.523489,3.523489,10.232955,142.2044,184.12234)" />
    <radialGradient
       cx="0"
       cy="0"
       r="1"
       id="Gradient_5"
       gradientUnits="userSpaceOnUse">
      <stop
         offset="0"
         stop-color="#fbfcff"
         id="stop5273" />
      <stop
         offset="1"
         stop-color="#333"
         id="stop5275" />
    </radialGradient>
    <radialGradient
       id="Obj_Gradient_6"
       xlink:href="#Gradient_5"
       gradientTransform="matrix(7.9377967,1.1155846,-1.1155846,7.9377967,162.65024,176.08292)"
       fx="0.021611352"
       fy="0.048555344"
       cx="0.021611352"
       cy="0.048555344" />
    <filter
       style="color-interpolation-filters:sRGB;"
       inkscape:label="Drop Shadow"
       id="filter6193">
      <feFlood
         flood-opacity="0.498039"
         flood-color="rgb(0,0,0)"
         result="flood"
         id="feFlood6183" />
      <feComposite
         in="flood"
         in2="SourceGraphic"
         operator="in"
         result="composite1"
         id="feComposite6185" />
      <feGaussianBlur
         in="composite1"
         stdDeviation="1"
         result="blur"
         id="feGaussianBlur6187" />
      <feOffset
         dx="1"
         dy="1"
         result="offset"
         id="feOffset6189" />
      <feComposite
         in="SourceGraphic"
         in2="offset"
         operator="over"
         result="composite2"
         id="feComposite6191" />
    </filter>
  </defs>
  <path
     style="fill:#3952a3;fill-opacity:1;stroke:#333333;stroke-width:2.09588695;stroke-linecap:round;stroke-linejoin:round;stroke-dasharray:none;stroke-opacity:1;filter:url(#filter6193)"
     d="m 151.07706,159.20895 c 0,13.5045 -24.45206,33.53419 -24.45206,33.53419 0,0 -24.45206,-20.02969 -24.45206,-33.53419 0,-13.5045 10.94756,-24.45206 24.45206,-24.45206 13.5045,0 24.45206,10.94756 24.45206,24.45206 z"
     id="circle5287"
     inkscape:connector-curvature="0"
     sodipodi:nodetypes="scsss"
     transform="matrix(0.93294792,0,0,0.93294792,8.4904676,10.979762)" />
  <g
     transform="matrix(0.0209159,0,0,0.0209159,111.38803,142.2168)"
     id="g4116"
     style="fill:#ffffff">
    <g
       id="g4118"
       style="fill:#ffffff">
      <path
         inkscape:connector-curvature="0"
         style="fill:#ffffff"
         d="m 1414.637,629.379 -57.796,0 0,-239.485 -0.911,-8.199 c 0,-0.304 -4.353,-22.673 6.883,-36.54 11.337,-13.969 36.54,-16.903 55.67,-16.903 20.75,0 37.451,-16.802 37.451,-37.451 0,-20.649 -16.701,-37.451 -37.451,-37.451 -52.128,0 -90.692,15.284 -114.681,45.65 -28.544,36.034 -24.495,79.356 -21.965,94.437 l 0,236.043 -379.369,0 L 733.837,230.677 C 702.763,154.56 656.203,99.497 583.932,99.497 l -365.4,0 c -72.27,0 -131.18,58.808 -131.18,131.18 l 0,483.625 22.066,-22.066 c 29.151,-29.151 68.829,-44.435 109.924,-43.726 27.43,-29.354 66.4,-47.067 109.215,-47.067 l 75.003,0 c 42.917,0 81.785,17.713 109.316,47.067 41.196,-0.81 80.671,14.575 109.924,43.828 l 52.937,52.937 c 29.758,29.657 44.739,70.044 43.625,110.328 29.252,27.633 47.269,66.805 47.269,108.912 l 0,68.728 235.03,0 c -35.629,37.957 -57.594,88.769 -57.594,144.845 0,116.807 95.045,212.054 212.054,212.054 116.807,0 212.054,-95.146 212.054,-212.054 0,-56.48 -22.37,-107.596 -58.201,-145.553 41.804,-3.442 104.762,-35.224 104.762,-74.092 l 74.902,-253.958 c -0.099,-41.603 -33.704,-75.106 -75.001,-75.106 z m -1213.413,-91.097 0,-265.194 c 0,-47.978 39.071,-86.947 86.947,-86.947 l 242.217,0 c 47.877,0 78.85,36.439 99.397,86.947 L 741.53,539.294 201.224,538.282 Z m 954.798,739.304 c -54.861,0 -99.599,-44.637 -99.599,-99.498 0,-54.962 44.739,-99.6 99.599,-99.6 54.86,0 99.499,44.637 99.499,99.6 0.1,54.758 -44.638,99.498 -99.499,99.498 z"
         id="path4120" />
      <path
         inkscape:connector-curvature="0"
         style="fill:#ffffff"
         d="M 632.619,804.488 585.451,757.32 c -26.013,-26.114 -61.238,-39.779 -97.98,-39.071 -24.495,-26.114 -59.112,-41.905 -97.373,-41.905 l -66.703,0 c -38.16,0 -72.877,15.79 -97.272,41.905 -36.54,-0.709 -71.966,12.956 -97.98,39.071 L 80.874,804.488 C 53.849,831.615 40.386,867.345 41.702,903.278 15.891,927.873 0,962.592 0,999.84 l 0,66.703 c 0,37.249 15.891,71.967 41.703,96.664 -1.215,35.831 12.146,71.562 39.172,98.689 l 47.168,47.168 c 26.013,26.114 61.44,40.184 97.98,39.071 24.495,26.216 59.112,42.006 97.272,42.006 l 66.703,0 c 38.16,0 72.877,-15.79 97.373,-42.006 36.742,1.215 71.966,-12.956 97.98,-39.071 l 47.168,-47.168 c 26.519,-26.418 39.779,-62.452 38.868,-98.284 26.013,-24.697 42.107,-59.517 42.107,-97.069 l 0,-66.703 c 0,-37.552 -16.094,-72.27 -42.107,-96.968 1.011,-35.932 -12.35,-71.865 -38.768,-98.384 z m -275.923,452.044 c -123.082,0 -223.289,-100.207 -223.289,-223.289 0,-123.082 100.206,-223.29 223.289,-223.29 123.083,0 223.289,100.206 223.289,223.29 0,123.084 -100.207,223.289 -223.289,223.289 z"
         id="path4122" />
      <circle
         style="fill:#ffffff"
         cx="356.69601"
         cy="1033.2419"
         r="123.082"
         id="circle4124" />
    </g>
  </g>
</svg>
