<?xml version="1.0" encoding="UTF-8" standalone="no"?>
<svg
   xmlns:dc="http://purl.org/dc/elements/1.1/"
   xmlns:cc="http://creativecommons.org/ns#"
   xmlns:rdf="http://www.w3.org/1999/02/22-rdf-syntax-ns#"
   xmlns:svg="http://www.w3.org/2000/svg"
   xmlns="http://www.w3.org/2000/svg"
   xmlns:xlink="http://www.w3.org/1999/xlink"
   xmlns:sodipodi="http://sodipodi.sourceforge.net/DTD/sodipodi-0.dtd"
   xmlns:inkscape="http://www.inkscape.org/namespaces/inkscape"
   version="1.1"
   viewBox="100 133 53.25 61.5"
   width="71"
   height="82"
   id="svg5325"
   sodipodi:docname="binTrolley-parked.svg"
   inkscape:export-filename="binTrolley-parked.png"
   inkscape:export-xdpi="130.68494"
   inkscape:export-ydpi="130.68494"
   inkscape:version="0.91 r13725">
  <sodipodi:namedview
     pagecolor="#ffffff"
     bordercolor="#666666"
     borderopacity="1"
     objecttolerance="10"
     gridtolerance="10"
     guidetolerance="10"
     inkscape:pageopacity="0"
     inkscape:pageshadow="2"
     inkscape:window-width="1920"
     inkscape:window-height="1056"
     id="namedview5327"
     showgrid="false"
     units="px"
     fit-margin-top="0"
     fit-margin-left="0"
     fit-margin-right="0"
     fit-margin-bottom="0"
     inkscape:zoom="2.6074563"
     inkscape:cx="-223.20885"
     inkscape:cy="-29.131583"
     inkscape:window-x="0"
     inkscape:window-y="24"
     inkscape:window-maximized="1"
     inkscape:current-layer="svg5325" />
  <metadata
     id="metadata5244">
    <dc:date>2017-02-14 20:31Z</dc:date>
    <!-- Produced by OmniGraffle Professional 5.4.2 -->
    <rdf:RDF>
      <cc:Work
         rdf:about="">
        <dc:format>image/svg+xml</dc:format>
        <dc:type
           rdf:resource="http://purl.org/dc/dcmitype/StillImage" />
        <dc:title></dc:title>
      </cc:Work>
    </rdf:RDF>
  </metadata>
  <defs
     id="defs5279">
    <linearGradient
       x1="0"
       x2="1"
       id="Gradient"
       gradientUnits="userSpaceOnUse">
      <stop
         offset="0"
         stop-color="#a1a1a1"
         id="stop5246" />
      <stop
         offset=".5"
         stop-color="#d3ddda"
         id="stop5248" />
      <stop
         offset="1"
         stop-color="#333"
         id="stop5250" />
    </linearGradient>
    <linearGradient
       id="Obj_Gradient"
       xlink:href="#Gradient"
       gradientTransform="matrix(-9.6901415,0,0,-9.6901415,151.86676,195.96937)" />
    <radialGradient
       cx="0"
       cy="0"
       r="1"
       id="Gradient_2"
       gradientUnits="userSpaceOnUse">
      <stop
         offset="0"
         stop-color="#333"
         id="stop5254" />
      <stop
         offset="1"
         stop-color="#fefcff"
         id="stop5256" />
    </radialGradient>
    <radialGradient
       id="Obj_Gradient_2"
       xlink:href="#Gradient_2"
       gradientTransform="matrix(11.294566,-3.8890311,3.8890311,11.294566,152.17186,169.50531)" />
    <radialGradient
       cx="0"
       cy="0"
       r="1"
       id="Gradient_3"
       gradientUnits="userSpaceOnUse">
      <stop
         offset="0"
         stop-color="#333"
         id="stop5260" />
      <stop
         offset="1"
         stop-color="#858586"
         id="stop5262" />
    </radialGradient>
    <radialGradient
       id="Obj_Gradient_3"
       xlink:href="#Gradient_3"
       gradientTransform="matrix(8.5071218,-2.929237,2.929237,8.5071218,143.84009,168.83939)" />
    <radialGradient
       cx="0"
       cy="0"
       r="1"
       id="Gradient_4"
       gradientUnits="userSpaceOnUse">
      <stop
         offset="0"
         stop-color="#fefcff"
         id="stop5266" />
      <stop
         offset="1"
         stop-color="#333"
         id="stop5268" />
    </radialGradient>
    <radialGradient
       id="Obj_Gradient_4"
       xlink:href="#Gradient_4"
       gradientTransform="matrix(-5.2298003,-17.640525,13.831792,-4.1006441,127.07119,190.8652)"
       fx="0.53321111"
       fy="0.55251503"
       cx="0.53321111"
       cy="0.55251503" />
    <radialGradient
       id="Obj_Gradient_5"
       xlink:href="#Gradient_3"
       gradientTransform="matrix(10.232955,-3.523489,3.523489,10.232955,142.2044,184.12234)" />
    <radialGradient
       cx="0"
       cy="0"
       r="1"
       id="Gradient_5"
       gradientUnits="userSpaceOnUse">
      <stop
         offset="0"
         stop-color="#fbfcff"
         id="stop5273" />
      <stop
         offset="1"
         stop-color="#333"
         id="stop5275" />
    </radialGradient>
    <radialGradient
       id="Obj_Gradient_6"
       xlink:href="#Gradient_5"
       gradientTransform="matrix(7.9377967,1.1155846,-1.1155846,7.9377967,162.65024,176.08292)"
       fx="0.021611352"
       fy="0.048555344"
       cx="0.021611352"
       cy="0.048555344" />
    <filter
       style="color-interpolation-filters:sRGB;"
       inkscape:label="Drop Shadow"
       id="filter6193">
      <feFlood
         flood-opacity="0.498039"
         flood-color="rgb(0,0,0)"
         result="flood"
         id="feFlood6183" />
      <feComposite
         in="flood"
         in2="SourceGraphic"
         operator="in"
         result="composite1"
         id="feComposite6185" />
      <feGaussianBlur
         in="composite1"
         stdDeviation="1"
         result="blur"
         id="feGaussianBlur6187" />
      <feOffset
         dx="1"
         dy="1"
         result="offset"
         id="feOffset6189" />
      <feComposite
         in="SourceGraphic"
         in2="offset"
         operator="over"
         result="composite2"
         id="feComposite6191" />
    </filter>
  </defs>
  <path
     style="fill:#f29305;fill-opacity:1;stroke:#333333;stroke-width:2.09588695;stroke-linecap:round;stroke-linejoin:round;stroke-dasharray:none;stroke-opacity:1;filter:url(#filter6193)"
     d="m 151.07706,159.20895 c 0,13.5045 -24.45206,33.53419 -24.45206,33.53419 0,0 -24.45206,-20.02969 -24.45206,-33.53419 0,-13.5045 10.94756,-24.45206 24.45206,-24.45206 13.5045,0 24.45206,10.94756 24.45206,24.45206 z"
     id="circle5287"
     inkscape:connector-curvature="0"
     sodipodi:nodetypes="scsss"
     transform="matrix(0.93294792,0,0,0.93294792,8.4904676,10.979762)" />
  <path
     style="fill:#ffffff"
     d="m 132.17214,171.59538 c -0.28589,-0.16264 -0.53625,-0.4325 -0.69563,-0.7498 -0.13695,-0.27264 -0.31991,-0.54063 -0.40658,-0.59553 -0.0867,-0.0549 -0.5231,-0.10059 -0.96982,-0.10154 -1.34935,-0.004 -3.22425,-0.42116 -4.02276,-0.89743 -0.65362,-0.38985 -0.91011,-0.72359 -0.91011,-1.18423 0,-0.27605 -0.0959,-0.58073 -0.25289,-0.80351 -0.45191,-0.64127 -0.46036,-0.64417 -0.81032,-0.27836 -0.68075,0.71158 -1.58426,0.84212 -2.47463,0.35752 -0.75868,-0.41293 -1.06483,-1.0401 -1.056,-2.1633 0.005,-0.66535 0.067,-0.93477 0.33567,-1.46592 0.52537,-1.03839 1.4251,-1.75852 2.19503,-1.7569 0.54916,9e-4 1.13985,0.23122 1.48824,0.57962 l 0.34464,0.34463 -0.0542,-0.32023 c -0.0855,-0.50508 -0.59847,-3.9474 -0.79369,-5.32586 -0.24272,-1.71381 -0.27128,-1.82458 -0.42983,-1.66603 -0.19024,0.19024 -0.6261,0.15901 -0.74496,-0.0534 -0.0822,-0.14693 -0.14991,-0.15833 -0.33904,-0.0571 -0.18776,0.10048 -0.27542,0.0874 -0.42653,-0.0637 -0.24148,-0.24148 -0.16239,-0.81527 0.17835,-1.2938 0.21162,-0.2972 0.22434,-0.37333 0.0923,-0.5529 -0.18758,-0.25513 -1.0525,-1.33058 -1.37588,-1.71083 -0.48935,-0.57536 -2.0852,-2.54698 -2.30393,-2.84637 -0.12514,-0.1713 -0.33916,-0.43419 -0.47559,-0.58422 -0.13644,-0.15002 -0.41223,-0.4667 -0.61287,-0.70373 -0.46745,-0.55224 -0.6156,-0.62657 -1.86563,-0.93611 -0.5701,-0.14117 -1.21373,-0.36468 -1.43027,-0.49669 -0.21655,-0.13201 -0.47966,-0.24021 -0.58469,-0.24045 -0.49182,-8.9e-4 -0.68923,-0.75123 -0.31604,-1.2009 0.15288,-0.1842 0.62865,-0.22226 0.72991,-0.0584 0.0361,0.0585 0.33353,0.18646 0.66087,0.28443 0.32733,0.098 0.85113,0.33008 1.16398,0.51583 0.31285,0.18575 0.83083,0.46797 1.15108,0.62716 0.73331,0.36453 1.31747,0.94033 2.582,2.54506 0.58436,0.74156 1.05451,1.24054 1.12678,1.19586 0.0725,-0.0448 0.0916,-0.0242 0.046,0.0496 -0.0758,0.1226 2.04093,2.8668 2.21124,2.8668 0.15447,0 0.59076,-0.84364 0.459,-0.88755 -0.0686,-0.0228 -0.12457,-0.17905 -0.12457,-0.34714 0,-0.22993 0.13786,-0.41481 0.55663,-0.74652 0.42813,-0.33914 0.57227,-0.53556 0.62444,-0.85099 0.0988,-0.59701 0.0852,-1.08849 -0.0333,-1.21212 -0.0887,-0.0925 -0.18127,-1.09138 -0.13802,-1.48934 0.10635,-0.97829 10.59262,-1.22293 12.89708,-0.30088 l 0.42744,0.17103 0,0.78757 c 0,0.59511 -0.0416,0.80356 -0.17064,0.85305 -0.23748,0.0911 -0.24114,1.06502 -0.004,1.06502 0.0917,0 0.22012,0.0999 0.28546,0.222 0.12065,0.22545 -0.0927,0.77424 -0.5771,1.48445 -0.16307,0.23909 -0.20531,0.70145 -0.26507,2.901 -0.0914,3.36262 -0.3792,11.2217 -0.47246,12.89963 l -0.072,1.29568 -0.43146,0.41077 c -0.23732,0.22592 -0.49201,0.60348 -0.56597,0.83902 -0.18719,0.59599 -0.97152,1.55152 -1.43122,1.7436 -0.57748,0.24128 -1.39604,0.19967 -1.91842,-0.0975 z m -7.0049,-5.90817 c 0,-0.18377 -0.0336,-0.21663 -0.12661,-0.12368 -0.0696,0.0696 -0.0922,0.18227 -0.0502,0.25029 0.11768,0.1904 0.17678,0.14808 0.17678,-0.12661 z m -0.12672,-10.27541 c -0.0152,-0.90865 -0.0683,-1.61133 -0.11811,-1.5615 -0.0498,0.0497 -0.15873,0.2874 -0.24201,0.52797 -0.12216,0.35284 -0.12496,0.57224 -0.0145,1.13489 0.0753,0.38363 0.17005,0.88948 0.21053,1.12412 0.13958,0.80929 0.19151,0.42145 0.16407,-1.22548 z m 5.95713,-8.32073 c -0.0782,-0.0316 -0.2062,-0.0316 -0.28441,0 -0.0782,0.0316 -0.0142,0.0574 0.1422,0.0574 0.15643,0 0.22042,-0.0259 0.14221,-0.0574 z m 0.79635,-0.11376 c -0.0782,-0.0316 -0.20619,-0.0316 -0.28441,0 -0.0782,0.0316 -0.0142,0.0574 0.14221,0.0574 0.15642,0 0.22041,-0.0258 0.1422,-0.0574 z"
     id="path3440"
     inkscape:connector-curvature="0" />
</svg>
