<?xml version="1.0" encoding="UTF-8" standalone="no"?>
<svg
   xmlns:dc="http://purl.org/dc/elements/1.1/"
   xmlns:cc="http://creativecommons.org/ns#"
   xmlns:rdf="http://www.w3.org/1999/02/22-rdf-syntax-ns#"
   xmlns:svg="http://www.w3.org/2000/svg"
   xmlns="http://www.w3.org/2000/svg"
   xmlns:xlink="http://www.w3.org/1999/xlink"
   xmlns:sodipodi="http://sodipodi.sourceforge.net/DTD/sodipodi-0.dtd"
   xmlns:inkscape="http://www.inkscape.org/namespaces/inkscape"
   version="1.1"
   viewBox="100 133 53.25 61.5"
   width="71"
   height="82"
   id="svg5325"
   sodipodi:docname="caravan-parked.svg"
   inkscape:export-filename="caravan-parked.png"
   inkscape:export-xdpi="130.68494"
   inkscape:export-ydpi="130.68494"
   inkscape:version="0.91 r13725">
  <sodipodi:namedview
     pagecolor="#ffffff"
     bordercolor="#666666"
     borderopacity="1"
     objecttolerance="10"
     gridtolerance="10"
     guidetolerance="10"
     inkscape:pageopacity="0"
     inkscape:pageshadow="2"
     inkscape:window-width="1920"
     inkscape:window-height="1056"
     id="namedview5327"
     showgrid="false"
     units="px"
     fit-margin-top="0"
     fit-margin-left="0"
     fit-margin-right="0"
     fit-margin-bottom="0"
     inkscape:zoom="5.2149126"
     inkscape:cx="-2.2586996"
     inkscape:cy="20.382555"
     inkscape:window-x="0"
     inkscape:window-y="24"
     inkscape:window-maximized="1"
     inkscape:current-layer="svg5325" />
  <metadata
     id="metadata5244">
    <dc:date>2017-02-14 20:31Z</dc:date>
    <!-- Produced by OmniGraffle Professional 5.4.2 -->
    <rdf:RDF>
      <cc:Work
         rdf:about="">
        <dc:format>image/svg+xml</dc:format>
        <dc:type
           rdf:resource="http://purl.org/dc/dcmitype/StillImage" />
        <dc:title></dc:title>
      </cc:Work>
    </rdf:RDF>
  </metadata>
  <defs
     id="defs5279">
    <linearGradient
       x1="0"
       x2="1"
       id="Gradient"
       gradientUnits="userSpaceOnUse">
      <stop
         offset="0"
         stop-color="#a1a1a1"
         id="stop5246" />
      <stop
         offset=".5"
         stop-color="#d3ddda"
         id="stop5248" />
      <stop
         offset="1"
         stop-color="#333"
         id="stop5250" />
    </linearGradient>
    <linearGradient
       id="Obj_Gradient"
       xlink:href="#Gradient"
       gradientTransform="matrix(-9.6901415,0,0,-9.6901415,151.86676,195.96937)" />
    <radialGradient
       cx="0"
       cy="0"
       r="1"
       id="Gradient_2"
       gradientUnits="userSpaceOnUse">
      <stop
         offset="0"
         stop-color="#333"
         id="stop5254" />
      <stop
         offset="1"
         stop-color="#fefcff"
         id="stop5256" />
    </radialGradient>
    <radialGradient
       id="Obj_Gradient_2"
       xlink:href="#Gradient_2"
       gradientTransform="matrix(11.294566,-3.8890311,3.8890311,11.294566,152.17186,169.50531)" />
    <radialGradient
       cx="0"
       cy="0"
       r="1"
       id="Gradient_3"
       gradientUnits="userSpaceOnUse">
      <stop
         offset="0"
         stop-color="#333"
         id="stop5260" />
      <stop
         offset="1"
         stop-color="#858586"
         id="stop5262" />
    </radialGradient>
    <radialGradient
       id="Obj_Gradient_3"
       xlink:href="#Gradient_3"
       gradientTransform="matrix(8.5071218,-2.929237,2.929237,8.5071218,143.84009,168.83939)" />
    <radialGradient
       cx="0"
       cy="0"
       r="1"
       id="Gradient_4"
       gradientUnits="userSpaceOnUse">
      <stop
         offset="0"
         stop-color="#fefcff"
         id="stop5266" />
      <stop
         offset="1"
         stop-color="#333"
         id="stop5268" />
    </radialGradient>
    <radialGradient
       id="Obj_Gradient_4"
       xlink:href="#Gradient_4"
       gradientTransform="matrix(-5.2298003,-17.640525,13.831792,-4.1006441,127.07119,190.8652)"
       fx="0.53321111"
       fy="0.55251503"
       cx="0.53321111"
       cy="0.55251503" />
    <radialGradient
       id="Obj_Gradient_5"
       xlink:href="#Gradient_3"
       gradientTransform="matrix(10.232955,-3.523489,3.523489,10.232955,142.2044,184.12234)" />
    <radialGradient
       cx="0"
       cy="0"
       r="1"
       id="Gradient_5"
       gradientUnits="userSpaceOnUse">
      <stop
         offset="0"
         stop-color="#fbfcff"
         id="stop5273" />
      <stop
         offset="1"
         stop-color="#333"
         id="stop5275" />
    </radialGradient>
    <radialGradient
       id="Obj_Gradient_6"
       xlink:href="#Gradient_5"
       gradientTransform="matrix(7.9377967,1.1155846,-1.1155846,7.9377967,162.65024,176.08292)"
       fx="0.021611352"
       fy="0.048555344"
       cx="0.021611352"
       cy="0.048555344" />
    <filter
       style="color-interpolation-filters:sRGB;"
       inkscape:label="Drop Shadow"
       id="filter6193">
      <feFlood
         flood-opacity="0.498039"
         flood-color="rgb(0,0,0)"
         result="flood"
         id="feFlood6183" />
      <feComposite
         in="flood"
         in2="SourceGraphic"
         operator="in"
         result="composite1"
         id="feComposite6185" />
      <feGaussianBlur
         in="composite1"
         stdDeviation="1"
         result="blur"
         id="feGaussianBlur6187" />
      <feOffset
         dx="1"
         dy="1"
         result="offset"
         id="feOffset6189" />
      <feComposite
         in="SourceGraphic"
         in2="offset"
         operator="over"
         result="composite2"
         id="feComposite6191" />
    </filter>
  </defs>
  <path
     style="fill:#f29305;fill-opacity:1;stroke:#333333;stroke-width:2.09588695;stroke-linecap:round;stroke-linejoin:round;stroke-dasharray:none;stroke-opacity:1;filter:url(#filter6193)"
     d="m 151.07706,159.20895 c 0,13.5045 -24.45206,33.53419 -24.45206,33.53419 0,0 -24.45206,-20.02969 -24.45206,-33.53419 0,-13.5045 10.94756,-24.45206 24.45206,-24.45206 13.5045,0 24.45206,10.94756 24.45206,24.45206 z"
     id="circle5287"
     inkscape:connector-curvature="0"
     sodipodi:nodetypes="scsss"
     transform="matrix(0.93294792,0,0,0.93294792,8.4904676,10.979762)" />
  <g
     transform="matrix(0.06992358,0,0,0.06992358,108.91145,140.44298)"
     id="g5012"
     style="fill:#ffffff">
    <g
       id="g5014"
       style="fill:#ffffff">
      <g
         id="g5016"
         style="fill:#ffffff">
        <path
           inkscape:connector-curvature="0"
           style="fill:#ffffff"
           d="m 276.5,305 c -11.667,0 -21.5,4 -29.5,12 -8,8 -12,18 -12,30 0,12 4,22 12,30 8,8 17.833,12 29.5,12 11.667,0 21.5,-4 29.5,-12 8,-8 12,-18 12,-30 0,-12 -4,-22 -12,-30 -8,-8 -17.833,-12 -29.5,-12 z m 16,57.5 c -4.333,4.333 -9.667,6.5 -16,6.5 -6.333,0 -11.667,-2.167 -16,-6.5 -4.333,-4.333 -6.5,-9.5 -6.5,-15.5 0,-6 2.167,-11.167 6.5,-15.5 4.335,-4.333 9.669,-6.5 16,-6.5 6.334,0 11.667,2.167 16,6.5 4.333,4.333 6.5,9.5 6.5,15.5 0,6 -2.167,11.167 -6.5,15.5 z"
           id="path5018" />
        <path
           inkscape:connector-curvature="0"
           style="fill:#ffffff"
           d="m 480.5,140 c -7.667,-10 -18.167,-17.333 -31.5,-22 -8,-2.667 -31.333,-5.833 -70,-9.5 -38.667,-3.667 -73,-5.5 -103,-5.5 -28.667,0 -63.5,1.833 -104.5,5.5 -41,3.667 -65.5,6.5 -73.5,8.5 l -6,2 c -2,0.667 -5.667,2.667 -11,6 -5.333,3.333 -10,7 -14,11 -4,4 -7.667,9.833 -11,17.5 -3.333,7.667 -5,16.167 -5,25.5 l 0,129 c 0,13.333 3,20 9,20 l -60,0 0,20 225,0 c 0,-14.667 5,-27 15,-37 10,-10 22.333,-15 37,-15 14.667,0 27,5 37,15 10,10 15,22.333 15,37 l 125,0 c 10,0 18.833,-4 26.5,-12 7.667,-8 11.5,-17.333 11.5,-28 l 0,-136 c 0,-11.333 -3.833,-22 -11.5,-32 z M 195,219 c 0,4.667 -2.333,7 -7,7 l -67,0 c -5.333,0 -8,-2 -8,-6 l 0,-48 c 0,-2 0.833,-3.833 2.5,-5.5 1.667,-1.667 3.5,-2.5 5.5,-2.5 l 67,0 c 4.667,0 7,2.667 7,8 l 0,47 z m 246,1 c 0,4 -2.667,6 -8,6 l -149,0 c -4.667,0 -7,-2 -7,-6 l 0,-48 c 0,-5.333 2.333,-8 7,-8 l 149,0 c 5.333,0 8,2.667 8,8 l 0,48 z"
           id="path5020" />
      </g>
    </g>
  </g>
</svg>
