<?xml version="1.0" encoding="UTF-8" standalone="no"?>
<svg
   xmlns:dc="http://purl.org/dc/elements/1.1/"
   xmlns:cc="http://creativecommons.org/ns#"
   xmlns:rdf="http://www.w3.org/1999/02/22-rdf-syntax-ns#"
   xmlns:svg="http://www.w3.org/2000/svg"
   xmlns="http://www.w3.org/2000/svg"
   xmlns:xlink="http://www.w3.org/1999/xlink"
   xmlns:sodipodi="http://sodipodi.sourceforge.net/DTD/sodipodi-0.dtd"
   xmlns:inkscape="http://www.inkscape.org/namespaces/inkscape"
   version="1.1"
   viewBox="100 133 53.25 61.5"
   width="71"
   height="82"
   id="svg5325"
   sodipodi:docname=" carWithTrailer-broken.svg"
   inkscape:export-filename="carWithTrailer-broken.png"
   inkscape:export-xdpi="130.68494"
   inkscape:export-ydpi="130.68494"
   inkscape:version="0.91 r13725">
  <sodipodi:namedview
     pagecolor="#ffffff"
     bordercolor="#666666"
     borderopacity="1"
     objecttolerance="10"
     gridtolerance="10"
     guidetolerance="10"
     inkscape:pageopacity="0"
     inkscape:pageshadow="2"
     inkscape:window-width="1920"
     inkscape:window-height="1056"
     id="namedview5327"
     showgrid="false"
     units="px"
     fit-margin-top="0"
     fit-margin-left="0"
     fit-margin-right="0"
     fit-margin-bottom="0"
     inkscape:zoom="3.6875001"
     inkscape:cx="1.8103532"
     inkscape:cy="5.0491216"
     inkscape:window-x="0"
     inkscape:window-y="24"
     inkscape:window-maximized="1"
     inkscape:current-layer="svg5325" />
  <metadata
     id="metadata5244">
    <dc:date>2017-02-14 20:31Z</dc:date>
    <!-- Produced by OmniGraffle Professional 5.4.2 -->
    <rdf:RDF>
      <cc:Work
         rdf:about="">
        <dc:format>image/svg+xml</dc:format>
        <dc:type
           rdf:resource="http://purl.org/dc/dcmitype/StillImage" />
        <dc:title></dc:title>
      </cc:Work>
    </rdf:RDF>
  </metadata>
  <defs
     id="defs5279">
    <linearGradient
       x1="0"
       x2="1"
       id="Gradient"
       gradientUnits="userSpaceOnUse">
      <stop
         offset="0"
         stop-color="#a1a1a1"
         id="stop5246" />
      <stop
         offset=".5"
         stop-color="#d3ddda"
         id="stop5248" />
      <stop
         offset="1"
         stop-color="#333"
         id="stop5250" />
    </linearGradient>
    <linearGradient
       id="Obj_Gradient"
       xlink:href="#Gradient"
       gradientTransform="matrix(-9.6901415,0,0,-9.6901415,151.86676,195.96937)" />
    <radialGradient
       cx="0"
       cy="0"
       r="1"
       id="Gradient_2"
       gradientUnits="userSpaceOnUse">
      <stop
         offset="0"
         stop-color="#333"
         id="stop5254" />
      <stop
         offset="1"
         stop-color="#fefcff"
         id="stop5256" />
    </radialGradient>
    <radialGradient
       id="Obj_Gradient_2"
       xlink:href="#Gradient_2"
       gradientTransform="matrix(11.294566,-3.8890311,3.8890311,11.294566,152.17186,169.50531)" />
    <radialGradient
       cx="0"
       cy="0"
       r="1"
       id="Gradient_3"
       gradientUnits="userSpaceOnUse">
      <stop
         offset="0"
         stop-color="#333"
         id="stop5260" />
      <stop
         offset="1"
         stop-color="#858586"
         id="stop5262" />
    </radialGradient>
    <radialGradient
       id="Obj_Gradient_3"
       xlink:href="#Gradient_3"
       gradientTransform="matrix(8.5071218,-2.929237,2.929237,8.5071218,143.84009,168.83939)" />
    <radialGradient
       cx="0"
       cy="0"
       r="1"
       id="Gradient_4"
       gradientUnits="userSpaceOnUse">
      <stop
         offset="0"
         stop-color="#fefcff"
         id="stop5266" />
      <stop
         offset="1"
         stop-color="#333"
         id="stop5268" />
    </radialGradient>
    <radialGradient
       id="Obj_Gradient_4"
       xlink:href="#Gradient_4"
       gradientTransform="matrix(-5.2298003,-17.640525,13.831792,-4.1006441,127.07119,190.8652)"
       fx="0.53321111"
       fy="0.55251503"
       cx="0.53321111"
       cy="0.55251503" />
    <radialGradient
       id="Obj_Gradient_5"
       xlink:href="#Gradient_3"
       gradientTransform="matrix(10.232955,-3.523489,3.523489,10.232955,142.2044,184.12234)" />
    <radialGradient
       cx="0"
       cy="0"
       r="1"
       id="Gradient_5"
       gradientUnits="userSpaceOnUse">
      <stop
         offset="0"
         stop-color="#fbfcff"
         id="stop5273" />
      <stop
         offset="1"
         stop-color="#333"
         id="stop5275" />
    </radialGradient>
    <radialGradient
       id="Obj_Gradient_6"
       xlink:href="#Gradient_5"
       gradientTransform="matrix(7.9377967,1.1155846,-1.1155846,7.9377967,162.65024,176.08292)"
       fx="0.021611352"
       fy="0.048555344"
       cx="0.021611352"
       cy="0.048555344" />
    <filter
       style="color-interpolation-filters:sRGB;"
       inkscape:label="Drop Shadow"
       id="filter6193">
      <feFlood
         flood-opacity="0.498039"
         flood-color="rgb(0,0,0)"
         result="flood"
         id="feFlood6183" />
      <feComposite
         in="flood"
         in2="SourceGraphic"
         operator="in"
         result="composite1"
         id="feComposite6185" />
      <feGaussianBlur
         in="composite1"
         stdDeviation="1"
         result="blur"
         id="feGaussianBlur6187" />
      <feOffset
         dx="1"
         dy="1"
         result="offset"
         id="feOffset6189" />
      <feComposite
         in="SourceGraphic"
         in2="offset"
         operator="over"
         result="composite2"
         id="feComposite6191" />
    </filter>
  </defs>
  <path
     style="fill:#f8001c;fill-opacity:1;stroke:#333333;stroke-width:2.09588695;stroke-linecap:round;stroke-linejoin:round;stroke-dasharray:none;stroke-opacity:1;filter:url(#filter6193)"
     d="m 151.07706,159.20895 c 0,13.5045 -24.45206,33.53419 -24.45206,33.53419 0,0 -24.45206,-20.02969 -24.45206,-33.53419 0,-13.5045 10.94756,-24.45206 24.45206,-24.45206 13.5045,0 24.45206,10.94756 24.45206,24.45206 z"
     id="circle5287"
     inkscape:connector-curvature="0"
     sodipodi:nodetypes="scsss"
     transform="matrix(0.93294792,0,0,0.93294792,8.4904676,10.979762)" />
  <path
     inkscape:connector-curvature="0"
     d="m 143.21062,151.38259 -0.14487,0 c -0.63438,0 -1.15053,0.51605 -1.15053,1.15054 l 0,0.85429 -6.6586,0 0,-0.85429 c 0,-0.63438 -0.51606,-1.15054 -1.15055,-1.15054 l -0.14476,0 c -0.63439,0 -1.15054,0.51605 -1.15054,1.15054 l 0,5.2861 -2.02514,0 0,-2.09291 c 0,-0.52268 -0.2375,-1.26578 -0.5405,-1.69156 l -0.28549,-0.40103 c -0.27377,-0.38466 -0.66309,-1.04391 -0.86796,-1.4697 l -1.40794,-2.92616 c -0.24062,-0.50019 -0.86402,-0.89199 -1.41903,-0.89199 l -8.77099,0 c -0.5463,0 -1.20629,0.35957 -1.50255,0.81863 l -2.59093,4.01503 c -0.23419,0.36289 -0.78744,0.7518 -1.20805,0.84921 l -2.27073,0.52631 c -0.54838,0.12704 -0.99458,0.68847 -0.99458,1.25147 l 0,3.95804 c 0,0.58414 0.47522,1.05935 1.05935,1.05935 l 1.69209,0 c 0.35895,1.2321 1.49757,2.13529 2.84386,2.13529 1.3464,0 2.48502,-0.90329 2.84398,-2.13529 l 4.52891,0 c 0.35895,1.2321 1.49768,2.13529 2.84397,2.13529 1.34629,0 2.48492,-0.90329 2.84387,-2.13529 l 2.14338,0 c 0.58412,0 1.05934,-0.47521 1.05934,-1.05935 l 0,-0.69283 2.02514,0 0,0.60164 c 0,0.63439 0.51605,1.15054 1.15054,1.15054 l 1.78069,0 c 0.35895,1.2321 1.49768,2.13529 2.84407,2.13529 1.3463,0 2.48492,-0.90329 2.84388,-2.13529 l 1.78078,0 c 0.63438,0 1.15054,-0.51615 1.15054,-1.15054 l 0,-7.14025 c -1e-4,-0.63438 -0.51625,-1.15054 -1.15065,-1.15054 z m -28.68844,10.08577 c -0.81252,0 -1.47146,-0.65895 -1.47146,-1.47167 0,-0.81273 0.65885,-1.47137 1.47146,-1.47137 0.81263,0 1.47147,0.65864 1.47147,1.47137 0,0.81272 -0.65884,1.47167 -1.47147,1.47167 z m 7.43165,-7.43836 -6.45871,0 c -0.38704,0 -0.53875,-0.27026 -0.33699,-0.60061 l 1.87726,-3.07475 c 0.20175,-0.33035 0.6834,-0.60061 1.07045,-0.60061 l 3.84809,0 0,4.27597 z m 1.69342,-4.27597 1.83675,0 c 0.38704,0 0.80237,0.30092 0.92277,0.6688 l 0.96278,2.93837 c 0.12051,0.36787 -0.0976,0.6688 -0.48465,0.6688 l -3.23765,0 0,-4.27597 z m 1.09179,11.71433 c -0.81273,0 -1.47157,-0.65895 -1.47157,-1.47167 0,-0.81273 0.65884,-1.47137 1.47157,-1.47137 0.81252,0 1.47137,0.65864 1.47137,1.47137 0,0.81272 -0.65874,1.47167 -1.47137,1.47167 z m 13.84692,0 c -0.81261,0 -1.47156,-0.65895 -1.47156,-1.47167 0,-0.81273 0.65884,-1.47137 1.47156,-1.47137 0.81252,0 1.47137,0.65864 1.47137,1.47137 1.1e-4,0.81272 -0.65885,1.47167 -1.47137,1.47167 z m 3.32926,-4.61781 c 0,0.42828 -0.34838,0.77667 -0.77667,0.77667 l -0.77687,0 c -0.49512,-0.37203 -1.11013,-0.59275 -1.77572,-0.59275 -0.66557,0 -1.28058,0.22072 -1.7758,0.59275 l -0.77688,0 c -0.42828,0 -0.77666,-0.34839 -0.77666,-0.77667 l 0,-2.21052 6.6586,0 0,2.21052 z"
     id="path5637"
     style="fill:#ffffff"
     inkscape:transform-center-x="-7.7288134"
     inkscape:transform-center-y="-6.7118643" />
</svg>
