<?xml version="1.0" encoding="UTF-8" standalone="no"?>
<svg
   xmlns:dc="http://purl.org/dc/elements/1.1/"
   xmlns:cc="http://creativecommons.org/ns#"
   xmlns:rdf="http://www.w3.org/1999/02/22-rdf-syntax-ns#"
   xmlns:svg="http://www.w3.org/2000/svg"
   xmlns="http://www.w3.org/2000/svg"
   xmlns:xlink="http://www.w3.org/1999/xlink"
   xmlns:sodipodi="http://sodipodi.sourceforge.net/DTD/sodipodi-0.dtd"
   xmlns:inkscape="http://www.inkscape.org/namespaces/inkscape"
   version="1.1"
   viewBox="100 133 53.25 61.5"
   width="71"
   height="82"
   id="svg5325"
   sodipodi:docname=" moped-parked.svg"
   inkscape:export-filename=" moped-parked.png"
   inkscape:export-xdpi="130.68494"
   inkscape:export-ydpi="130.68494"
   inkscape:version="0.91 r13725">
  <sodipodi:namedview
     pagecolor="#ffffff"
     bordercolor="#666666"
     borderopacity="1"
     objecttolerance="10"
     gridtolerance="10"
     guidetolerance="10"
     inkscape:pageopacity="0"
     inkscape:pageshadow="2"
     inkscape:window-width="1920"
     inkscape:window-height="1056"
     id="namedview5327"
     showgrid="false"
     units="px"
     fit-margin-top="0"
     fit-margin-left="0"
     fit-margin-right="0"
     fit-margin-bottom="0"
     inkscape:zoom="7.3750001"
     inkscape:cx="27.398836"
     inkscape:cy="25.276012"
     inkscape:window-x="0"
     inkscape:window-y="24"
     inkscape:window-maximized="1"
     inkscape:current-layer="svg5325" />
  <metadata
     id="metadata5244">
    <dc:date>2017-02-14 20:31Z</dc:date>
    <!-- Produced by OmniGraffle Professional 5.4.2 -->
    <rdf:RDF>
      <cc:Work
         rdf:about="">
        <dc:format>image/svg+xml</dc:format>
        <dc:type
           rdf:resource="http://purl.org/dc/dcmitype/StillImage" />
        <dc:title></dc:title>
      </cc:Work>
    </rdf:RDF>
  </metadata>
  <defs
     id="defs5279">
    <linearGradient
       x1="0"
       x2="1"
       id="Gradient"
       gradientUnits="userSpaceOnUse">
      <stop
         offset="0"
         stop-color="#a1a1a1"
         id="stop5246" />
      <stop
         offset=".5"
         stop-color="#d3ddda"
         id="stop5248" />
      <stop
         offset="1"
         stop-color="#333"
         id="stop5250" />
    </linearGradient>
    <linearGradient
       id="Obj_Gradient"
       xlink:href="#Gradient"
       gradientTransform="matrix(-9.6901415,0,0,-9.6901415,151.86676,195.96937)" />
    <radialGradient
       cx="0"
       cy="0"
       r="1"
       id="Gradient_2"
       gradientUnits="userSpaceOnUse">
      <stop
         offset="0"
         stop-color="#333"
         id="stop5254" />
      <stop
         offset="1"
         stop-color="#fefcff"
         id="stop5256" />
    </radialGradient>
    <radialGradient
       id="Obj_Gradient_2"
       xlink:href="#Gradient_2"
       gradientTransform="matrix(11.294566,-3.8890311,3.8890311,11.294566,152.17186,169.50531)" />
    <radialGradient
       cx="0"
       cy="0"
       r="1"
       id="Gradient_3"
       gradientUnits="userSpaceOnUse">
      <stop
         offset="0"
         stop-color="#333"
         id="stop5260" />
      <stop
         offset="1"
         stop-color="#858586"
         id="stop5262" />
    </radialGradient>
    <radialGradient
       id="Obj_Gradient_3"
       xlink:href="#Gradient_3"
       gradientTransform="matrix(8.5071218,-2.929237,2.929237,8.5071218,143.84009,168.83939)" />
    <radialGradient
       cx="0"
       cy="0"
       r="1"
       id="Gradient_4"
       gradientUnits="userSpaceOnUse">
      <stop
         offset="0"
         stop-color="#fefcff"
         id="stop5266" />
      <stop
         offset="1"
         stop-color="#333"
         id="stop5268" />
    </radialGradient>
    <radialGradient
       id="Obj_Gradient_4"
       xlink:href="#Gradient_4"
       gradientTransform="matrix(-5.2298003,-17.640525,13.831792,-4.1006441,127.07119,190.8652)"
       fx="0.53321111"
       fy="0.55251503"
       cx="0.53321111"
       cy="0.55251503" />
    <radialGradient
       id="Obj_Gradient_5"
       xlink:href="#Gradient_3"
       gradientTransform="matrix(10.232955,-3.523489,3.523489,10.232955,142.2044,184.12234)" />
    <radialGradient
       cx="0"
       cy="0"
       r="1"
       id="Gradient_5"
       gradientUnits="userSpaceOnUse">
      <stop
         offset="0"
         stop-color="#fbfcff"
         id="stop5273" />
      <stop
         offset="1"
         stop-color="#333"
         id="stop5275" />
    </radialGradient>
    <radialGradient
       id="Obj_Gradient_6"
       xlink:href="#Gradient_5"
       gradientTransform="matrix(7.9377967,1.1155846,-1.1155846,7.9377967,162.65024,176.08292)"
       fx="0.021611352"
       fy="0.048555344"
       cx="0.021611352"
       cy="0.048555344" />
    <filter
       style="color-interpolation-filters:sRGB;"
       inkscape:label="Drop Shadow"
       id="filter6193">
      <feFlood
         flood-opacity="0.498039"
         flood-color="rgb(0,0,0)"
         result="flood"
         id="feFlood6183" />
      <feComposite
         in="flood"
         in2="SourceGraphic"
         operator="in"
         result="composite1"
         id="feComposite6185" />
      <feGaussianBlur
         in="composite1"
         stdDeviation="1"
         result="blur"
         id="feGaussianBlur6187" />
      <feOffset
         dx="1"
         dy="1"
         result="offset"
         id="feOffset6189" />
      <feComposite
         in="SourceGraphic"
         in2="offset"
         operator="over"
         result="composite2"
         id="feComposite6191" />
    </filter>
  </defs>
  <path
     style="fill:#f29305;fill-opacity:1;stroke:#333333;stroke-width:2.09588695;stroke-linecap:round;stroke-linejoin:round;stroke-dasharray:none;stroke-opacity:1;filter:url(#filter6193)"
     d="m 151.07706,159.20895 c 0,13.5045 -24.45206,33.53419 -24.45206,33.53419 0,0 -24.45206,-20.02969 -24.45206,-33.53419 0,-13.5045 10.94756,-24.45206 24.45206,-24.45206 13.5045,0 24.45206,10.94756 24.45206,24.45206 z"
     id="circle5287"
     inkscape:connector-curvature="0"
     sodipodi:nodetypes="scsss"
     transform="matrix(0.93294792,0,0,0.93294792,8.4904676,10.979762)" />
  <g
     transform="matrix(0.08941346,0,0,0.08941346,113.70701,141.85198)"
     id="XMLID_1204_"
     style="fill:#ffffff">
    <g
       id="g4336"
       style="fill:#ffffff">
      <g
         id="g4338"
         style="fill:#ffffff">
        <circle
           cx="120.349"
           cy="27.18"
           r="27.18"
           id="circle4340"
           style="fill:#ffffff" />
        <path
           inkscape:connector-curvature="0"
           d="m 70.325,217.79 c -22.704,0 -41.175,18.471 -41.175,41.175 0,22.704 18.471,41.175 41.175,41.175 22.704,0 41.175,-18.471 41.175,-41.175 0,-22.704 -18.471,-41.175 -41.175,-41.175 z m 0,52.905 c -6.468,0 -11.731,-5.262 -11.731,-11.731 0,-6.469 5.262,-11.731 11.731,-11.731 6.469,0 11.731,5.262 11.731,11.731 0,6.469 -5.263,11.731 -11.731,11.731 z"
           id="path4342"
           style="fill:#ffffff" />
        <path
           inkscape:connector-curvature="0"
           d="m 297.646,218.447 c -11.582,-13.042 -28.223,-20.522 -45.653,-20.522 -0.702,0 -1.397,0.029 -2.094,0.053 -9.389,-26.751 -28.854,-38.932 -39.949,-43.895 l -2.402,-7.462 6.626,0 c 2.662,6.083 8.73,10.336 15.795,10.336 l 8.274,0 c 2.38,0 4.309,-1.929 4.309,-4.309 l 0,-25.854 c 0,-2.38 -1.929,-4.309 -4.309,-4.309 l -8.274,0 c -5.117,0 -9.712,2.232 -12.869,5.774 -1.201,1.347 -2.193,2.885 -2.926,4.562 l -10.992,0 c 1.158,-1.997 1.775,-4.339 1.643,-6.817 -0.361,-6.791 -6.167,-12.007 -12.951,-11.642 l -42.535,2.264 -23.836,-32.034 19.963,15.894 1.031,-11.749 C 147.383,78.635 139.913,69.728 129.812,68.842 L 97.194,65.98 C 87.092,65.094 78.185,72.564 77.299,82.665 l -5.461,62.245 c -0.896,10.206 3.185,20.129 10.874,26.777 0.501,0.79 1.073,1.528 1.711,2.209 l -13.829,0 -37.84,0 c -5.109,0 -9.251,4.142 -9.251,9.251 l 0,23.864 c -12.424,11.204 -20.811,26.8 -22.71,44.342 -0.21,1.938 0.415,3.873 1.716,5.324 1.301,1.451 3.159,2.288 5.108,2.288 l 12.915,0 c 0,-27.456 22.337,-49.793 49.793,-49.793 27.456,0 49.793,22.337 49.793,49.793 l 0.231,0 0,0.001 c 0,3.609 2.926,6.534 6.535,6.534 18.001,0 62.281,0 68.765,0 6.07,0.368 9.116,-2.919 9.116,-7.614 0,-26.047 21.178,-46.16 47.226,-46.16 13.49,0 26.369,5.79 35.334,15.885 2.531,2.848 6.893,3.107 9.742,0.577 2.851,-2.53 3.109,-6.892 0.579,-9.741 z m -157.76,33.251 0,0 c -0.83,-8.038 -3.021,-15.672 -6.34,-22.667 l 0,-0.01 c -4.261,-8.984 -10.529,-17.196 -18.505,-23.834 0,-9.849 0,-16.113 0,-24.647 l 30.908,2.636 -0.784,61.896 c -0.03,2.378 0.517,4.625 1.49,6.627 l -6.769,0 z m 51.514,0.001 -5.646,0 -12.522,0 c 0.919,-1.893 1.456,-4.009 1.485,-6.253 l 0.957,-75.581 c 0.098,-7.722 -5.766,-14.217 -13.458,-14.906 l -22.658,-0.82 c -7.11,0.378 -13.401,-3.909 -15.919,-10.165 l -17.898,-44.681 27.776,37.33 c 2.432,3.268 6.363,5.166 10.534,4.945 l 46.57,-2.479 3.897,12.107 19.36,60.139 c -12.176,9.766 -20.538,24.089 -22.478,40.364 z"
           id="path4344"
           style="fill:#ffffff" />
        <path
           inkscape:connector-curvature="0"
           d="m 251.992,217.79 c -22.704,0 -41.175,18.471 -41.175,41.175 0,22.704 18.471,41.175 41.175,41.175 22.704,0 41.175,-18.471 41.175,-41.175 0,-22.704 -18.471,-41.175 -41.175,-41.175 z m 0,52.905 c -6.468,0 -11.731,-5.262 -11.731,-11.731 0,-6.469 5.262,-11.731 11.731,-11.731 6.468,0 11.73,5.262 11.73,11.731 0,6.469 -5.261,11.731 -11.73,11.731 z"
           id="path4346"
           style="fill:#ffffff" />
      </g>
    </g>
  </g>
</svg>
