<?xml version="1.0" encoding="UTF-8" standalone="no"?>
<svg
   xmlns:dc="http://purl.org/dc/elements/1.1/"
   xmlns:cc="http://creativecommons.org/ns#"
   xmlns:rdf="http://www.w3.org/1999/02/22-rdf-syntax-ns#"
   xmlns:svg="http://www.w3.org/2000/svg"
   xmlns="http://www.w3.org/2000/svg"
   xmlns:xlink="http://www.w3.org/1999/xlink"
   xmlns:sodipodi="http://sodipodi.sourceforge.net/DTD/sodipodi-0.dtd"
   xmlns:inkscape="http://www.inkscape.org/namespaces/inkscape"
   version="1.1"
   viewBox="100 133 53.25 61.5"
   width="71"
   height="82"
   id="svg5325"
   sodipodi:docname="motorcycleWithSideCar-onRoute.svg"
   inkscape:export-filename="motorcycleWithSideCar-onRoute.png"
   inkscape:export-xdpi="130.68494"
   inkscape:export-ydpi="130.68494"
   inkscape:version="0.91 r13725">
  <sodipodi:namedview
     pagecolor="#ffffff"
     bordercolor="#666666"
     borderopacity="1"
     objecttolerance="10"
     gridtolerance="10"
     guidetolerance="10"
     inkscape:pageopacity="0"
     inkscape:pageshadow="2"
     inkscape:window-width="1920"
     inkscape:window-height="1056"
     id="namedview5327"
     showgrid="false"
     units="px"
     fit-margin-top="0"
     fit-margin-left="0"
     fit-margin-right="0"
     fit-margin-bottom="0"
     inkscape:zoom="5.2149128"
     inkscape:cx="29.045648"
     inkscape:cy="55.133134"
     inkscape:window-x="0"
     inkscape:window-y="24"
     inkscape:window-maximized="1"
     inkscape:current-layer="svg5325" />
  <metadata
     id="metadata5244">
    <dc:date>2017-02-14 20:31Z</dc:date>
    <!-- Produced by OmniGraffle Professional 5.4.2 -->
    <rdf:RDF>
      <cc:Work
         rdf:about="">
        <dc:format>image/svg+xml</dc:format>
        <dc:type
           rdf:resource="http://purl.org/dc/dcmitype/StillImage" />
        <dc:title></dc:title>
      </cc:Work>
    </rdf:RDF>
  </metadata>
  <defs
     id="defs5279">
    <linearGradient
       x1="0"
       x2="1"
       id="Gradient"
       gradientUnits="userSpaceOnUse">
      <stop
         offset="0"
         stop-color="#a1a1a1"
         id="stop5246" />
      <stop
         offset=".5"
         stop-color="#d3ddda"
         id="stop5248" />
      <stop
         offset="1"
         stop-color="#333"
         id="stop5250" />
    </linearGradient>
    <linearGradient
       id="Obj_Gradient"
       xlink:href="#Gradient"
       gradientTransform="matrix(-9.6901415,0,0,-9.6901415,151.86676,195.96937)" />
    <radialGradient
       cx="0"
       cy="0"
       r="1"
       id="Gradient_2"
       gradientUnits="userSpaceOnUse">
      <stop
         offset="0"
         stop-color="#333"
         id="stop5254" />
      <stop
         offset="1"
         stop-color="#fefcff"
         id="stop5256" />
    </radialGradient>
    <radialGradient
       id="Obj_Gradient_2"
       xlink:href="#Gradient_2"
       gradientTransform="matrix(11.294566,-3.8890311,3.8890311,11.294566,152.17186,169.50531)" />
    <radialGradient
       cx="0"
       cy="0"
       r="1"
       id="Gradient_3"
       gradientUnits="userSpaceOnUse">
      <stop
         offset="0"
         stop-color="#333"
         id="stop5260" />
      <stop
         offset="1"
         stop-color="#858586"
         id="stop5262" />
    </radialGradient>
    <radialGradient
       id="Obj_Gradient_3"
       xlink:href="#Gradient_3"
       gradientTransform="matrix(8.5071218,-2.929237,2.929237,8.5071218,143.84009,168.83939)" />
    <radialGradient
       cx="0"
       cy="0"
       r="1"
       id="Gradient_4"
       gradientUnits="userSpaceOnUse">
      <stop
         offset="0"
         stop-color="#fefcff"
         id="stop5266" />
      <stop
         offset="1"
         stop-color="#333"
         id="stop5268" />
    </radialGradient>
    <radialGradient
       id="Obj_Gradient_4"
       xlink:href="#Gradient_4"
       gradientTransform="matrix(-5.2298003,-17.640525,13.831792,-4.1006441,127.07119,190.8652)"
       fx="0.53321111"
       fy="0.55251503"
       cx="0.53321111"
       cy="0.55251503" />
    <radialGradient
       id="Obj_Gradient_5"
       xlink:href="#Gradient_3"
       gradientTransform="matrix(10.232955,-3.523489,3.523489,10.232955,142.2044,184.12234)" />
    <radialGradient
       cx="0"
       cy="0"
       r="1"
       id="Gradient_5"
       gradientUnits="userSpaceOnUse">
      <stop
         offset="0"
         stop-color="#fbfcff"
         id="stop5273" />
      <stop
         offset="1"
         stop-color="#333"
         id="stop5275" />
    </radialGradient>
    <radialGradient
       id="Obj_Gradient_6"
       xlink:href="#Gradient_5"
       gradientTransform="matrix(7.9377967,1.1155846,-1.1155846,7.9377967,162.65024,176.08292)"
       fx="0.021611352"
       fy="0.048555344"
       cx="0.021611352"
       cy="0.048555344" />
    <filter
       style="color-interpolation-filters:sRGB;"
       inkscape:label="Drop Shadow"
       id="filter6193">
      <feFlood
         flood-opacity="0.498039"
         flood-color="rgb(0,0,0)"
         result="flood"
         id="feFlood6183" />
      <feComposite
         in="flood"
         in2="SourceGraphic"
         operator="in"
         result="composite1"
         id="feComposite6185" />
      <feGaussianBlur
         in="composite1"
         stdDeviation="1"
         result="blur"
         id="feGaussianBlur6187" />
      <feOffset
         dx="1"
         dy="1"
         result="offset"
         id="feOffset6189" />
      <feComposite
         in="SourceGraphic"
         in2="offset"
         operator="over"
         result="composite2"
         id="feComposite6191" />
    </filter>
  </defs>
  <path
     style="fill:#3952a3;fill-opacity:1;stroke:#333333;stroke-width:2.09588695;stroke-linecap:round;stroke-linejoin:round;stroke-dasharray:none;stroke-opacity:1;filter:url(#filter6193)"
     d="m 151.07706,159.20895 c 0,13.5045 -24.45206,33.53419 -24.45206,33.53419 0,0 -24.45206,-20.02969 -24.45206,-33.53419 0,-13.5045 10.94756,-24.45206 24.45206,-24.45206 13.5045,0 24.45206,10.94756 24.45206,24.45206 z"
     id="circle5287"
     inkscape:connector-curvature="0"
     sodipodi:nodetypes="scsss"
     transform="matrix(0.93294792,0,0,0.93294792,8.4904676,10.979762)" />
  <g
     id="g4887"
     transform="matrix(0.05781849,0,0,0.05781849,112.12359,142.19298)"
     style="fill:#ffffff">
    <g
       id="g4889"
       style="fill:#ffffff">
      <path
         inkscape:connector-curvature="0"
         d="m 456,231.6 0,-23.6 c 0,-22.056 -17.944,-40 -40,-40 l -56,0 c -22.056,0 -40,17.944 -40,40 l 0,20.2 c -12.664,4.496 -23.712,12.384 -32,22.64 l 0,-2.84 c 0,-48.52 -39.48,-88 -88,-88 l -5.56,0 c 9.184,-6.456 17.072,-14.6 23.224,-24 L 248,136 c 13.232,0 24,-10.768 24,-24 l 0,-9.472 C 281.288,99.216 288,90.416 288,80 288,66.768 277.232,56 264,56 l -38.112,0 C 213.048,23.272 181.224,0 144,0 106.776,0 74.952,23.272 62.112,56 L 24,56 C 10.768,56 0,66.768 0,80 0,90.416 6.712,99.216 16,102.528 L 16,112 c 0,13.232 10.768,24 24,24 l 30.336,0 c 6.152,9.4 14.04,17.544 23.224,24 L 88,160 C 39.48,160 0,199.48 0,248 l 0,184 c 0,13.232 10.768,24 24,24 l 16,0 c 13.232,0 24,-10.768 24,-24 l 0,-83.688 c 0,-14.632 5.832,-28.664 16,-39.088 L 80,472 c 0,13.232 10.768,24 24,24 l 80,0 c 13.232,0 24,-10.768 24,-24 l 0,-156.648 c 10.312,10.528 16,24.4 16,39.152 L 224,432 c 0,13.232 10.768,24 24,24 l 16,0 c 6.168,0 11.744,-2.408 16,-6.24 4.256,3.84 9.832,6.24 16,6.24 l 16,0 c 13.232,0 24,-10.768 24,-24 l 0,-55.528 c 0,-8.856 2.992,-17.576 8.424,-24.552 L 352,342.168 352,472 c 0,13.232 10.768,24 24,24 l 16,0 c 13.232,0 24,-10.768 24,-24 l 0,-129.832 7.576,9.744 c 5.432,6.976 8.424,15.696 8.424,24.56 L 432,432 c 0,13.232 10.768,24 24,24 l 16,0 c 13.232,0 24,-10.768 24,-24 l 0,-136 c 0,-28.2 -16.336,-52.592 -40,-64.4 z M 232,72 l 32,0 c 4.416,0 8,3.592 8,8 0,4.408 -3.584,8 -8,8 l -32,0 0,-16 z m -1.528,32 25.528,0 0,8 c 0,4.408 -3.584,8 -8,8 l -22.112,0 c 2.008,-5.12 3.56,-10.464 4.584,-16 z M 16,80 c 0,-4.408 3.584,-8 8,-8 l 32,0 0,16 -32,0 c -4.416,0 -8,-3.592 -8,-8 z m 24,40 c -4.416,0 -8,-3.592 -8,-8 l 0,-8 25.528,0 c 1.024,5.536 2.576,10.88 4.584,16 L 40,120 Z M 144,16 c 31.28,0 57.888,20.08 67.8,48 L 76.2,64 C 86.112,36.08 112.72,16 144,16 Z M 80,120.832 80,120 79.6,120 C 74.776,110.344 72,99.504 72,88 c 0,-2.704 0.176,-5.368 0.472,-8 l 143.056,0 c 0.296,2.632 0.472,5.296 0.472,8 0,11.504 -2.776,22.344 -7.6,32 l -0.4,0 0,0.832 c -6.056,11.752 -15.24,21.592 -26.456,28.48 C 183.04,145.128 184,140.688 184,136 c 0,-22.056 -17.944,-40 -40,-40 -22.056,0 -40,17.944 -40,40 0,4.688 0.96,9.128 2.456,13.32 C 95.24,142.424 86.056,132.584 80,120.832 Z M 168,136 c 0,13.232 -10.768,24 -24,24 -13.232,0 -24,-10.768 -24,-24 0,-13.232 10.768,-24 24,-24 13.232,0 24,10.768 24,24 z M 71.568,295.04 C 56.584,308.656 48,328.08 48,348.312 L 48,432 c 0,4.416 -3.584,8 -8,8 l -16,0 c -4.416,0 -8,-3.584 -8,-8 l 0,-184 c 0,-12.648 3.304,-24.528 9.056,-34.872 l 61.472,68.304 -14.96,13.608 z M 192,352 l -48,0 0,16 48,0 0,48 -48,0 0,16 48,0 0,40 c 0,4.416 -3.584,8 -8,8 l -80,0 c -4.416,0 -8,-3.584 -8,-8 l 0,-8 48,0 0,-16 -48,0 0,-48 48,0 0,-16 -48,0 0,-48 48,0 0,-16 -48,0 0,-25.552 8.224,-7.48 c 21.6,-19.656 54.4,-19.296 75.648,0.368 l -33.872,0 0,16 46,0 0,48.664 z m -0.656,-75.824 c -13.856,-13.128 -31.616,-19.792 -49.448,-19.792 -15.232,0 -30.48,4.832 -43.32,14.528 L 34.624,199.856 C 47.808,185.248 66.824,176 88,176 l 112,0 c 21.296,0 40.4,9.344 53.592,24.088 l -62.248,76.088 z M 272,296 l 0,136 c 0,4.416 -3.584,8 -8,8 l -16,0 c -4.416,0 -8,-3.584 -8,-8 l 0,-77.496 c 0,-19.232 -7.488,-37.312 -21.088,-50.904 l -16.136,-16.136 60.448,-73.88 C 268.816,223.816 272,235.544 272,248 l 0,48 z m 64,-88 c 0,-13.232 10.768,-24 24,-24 l 56,0 c 13.232,0 24,10.768 24,24 l 0,17.856 C 434.848,224.68 429.504,224 424,224 l -80,0 c -2.704,0 -5.368,0.176 -8,0.472 L 336,208 Z m 3.8,123.8 -8,10.288 c -7.616,9.768 -11.8,21.984 -11.8,34.384 L 320,432 c 0,4.416 -3.584,8 -8,8 l -16,0 c -4.416,0 -8,-3.584 -8,-8 l 0,-136 c 0,-15.608 6.432,-29.728 16.768,-39.888 l 42.944,67.48 c -2.864,2.448 -5.544,5.16 -7.912,8.208 z M 400,472 c 0,4.416 -3.584,8 -8,8 l 0,-144 -16,0 0,144 c -4.416,0 -8,-3.584 -8,-8 l 0,-142.44 c 4.968,-2.168 10.384,-3.376 16,-3.376 5.616,0 11.032,1.208 16,3.376 L 400,472 Z m 7.768,-156.52 c -7.32,-3.424 -15.384,-5.296 -23.768,-5.296 -8,0 -15.696,1.736 -22.752,4.872 L 317.688,246.6 c 7.848,-4.2 16.8,-6.6 26.312,-6.6 l 80,0 c 13.032,0 25.016,4.512 34.544,12.016 L 407.768,315.48 Z M 480,432 c 0,4.416 -3.584,8 -8,8 l -16,0 c -4.416,0 -8,-3.584 -8,-8 l 0,-55.528 c 0,-12.4 -4.184,-24.608 -11.8,-34.384 l -8,-10.288 c -2.128,-2.736 -4.528,-5.168 -7.056,-7.424 L 469.672,263.72 C 476.152,272.848 480,283.976 480,296 l 0,136 z"
         id="path4891"
         style="fill:#ffffff" />
    </g>
  </g>
</svg>
