<?xml version="1.0" encoding="UTF-8" standalone="no"?>
<svg
   xmlns:dc="http://purl.org/dc/elements/1.1/"
   xmlns:cc="http://creativecommons.org/ns#"
   xmlns:rdf="http://www.w3.org/1999/02/22-rdf-syntax-ns#"
   xmlns:svg="http://www.w3.org/2000/svg"
   xmlns="http://www.w3.org/2000/svg"
   xmlns:xlink="http://www.w3.org/1999/xlink"
   xmlns:sodipodi="http://sodipodi.sourceforge.net/DTD/sodipodi-0.dtd"
   xmlns:inkscape="http://www.inkscape.org/namespaces/inkscape"
   version="1.1"
   viewBox="100 133 53.25 61.5"
   width="71"
   height="82"
   id="svg5325"
   sodipodi:docname="motorcycle-broken.svg"
   inkscape:export-filename="motorcycle-broken.png"
   inkscape:export-xdpi="130.68494"
   inkscape:export-ydpi="130.68494"
   inkscape:version="0.91 r13725">
  <sodipodi:namedview
     pagecolor="#ffffff"
     bordercolor="#666666"
     borderopacity="1"
     objecttolerance="10"
     gridtolerance="10"
     guidetolerance="10"
     inkscape:pageopacity="0"
     inkscape:pageshadow="2"
     inkscape:window-width="1920"
     inkscape:window-height="1056"
     id="namedview5327"
     showgrid="false"
     units="px"
     fit-margin-top="0"
     fit-margin-left="0"
     fit-margin-right="0"
     fit-margin-bottom="0"
     inkscape:zoom="3.6875001"
     inkscape:cx="-43.884561"
     inkscape:cy="5.0491216"
     inkscape:window-x="0"
     inkscape:window-y="24"
     inkscape:window-maximized="1"
     inkscape:current-layer="svg5325" />
  <metadata
     id="metadata5244">
    <dc:date>2017-02-14 20:31Z</dc:date>
    <!-- Produced by OmniGraffle Professional 5.4.2 -->
    <rdf:RDF>
      <cc:Work
         rdf:about="">
        <dc:format>image/svg+xml</dc:format>
        <dc:type
           rdf:resource="http://purl.org/dc/dcmitype/StillImage" />
        <dc:title></dc:title>
      </cc:Work>
    </rdf:RDF>
  </metadata>
  <defs
     id="defs5279">
    <linearGradient
       x1="0"
       x2="1"
       id="Gradient"
       gradientUnits="userSpaceOnUse">
      <stop
         offset="0"
         stop-color="#a1a1a1"
         id="stop5246" />
      <stop
         offset=".5"
         stop-color="#d3ddda"
         id="stop5248" />
      <stop
         offset="1"
         stop-color="#333"
         id="stop5250" />
    </linearGradient>
    <linearGradient
       id="Obj_Gradient"
       xlink:href="#Gradient"
       gradientTransform="matrix(-9.6901415,0,0,-9.6901415,151.86676,195.96937)" />
    <radialGradient
       cx="0"
       cy="0"
       r="1"
       id="Gradient_2"
       gradientUnits="userSpaceOnUse">
      <stop
         offset="0"
         stop-color="#333"
         id="stop5254" />
      <stop
         offset="1"
         stop-color="#fefcff"
         id="stop5256" />
    </radialGradient>
    <radialGradient
       id="Obj_Gradient_2"
       xlink:href="#Gradient_2"
       gradientTransform="matrix(11.294566,-3.8890311,3.8890311,11.294566,152.17186,169.50531)" />
    <radialGradient
       cx="0"
       cy="0"
       r="1"
       id="Gradient_3"
       gradientUnits="userSpaceOnUse">
      <stop
         offset="0"
         stop-color="#333"
         id="stop5260" />
      <stop
         offset="1"
         stop-color="#858586"
         id="stop5262" />
    </radialGradient>
    <radialGradient
       id="Obj_Gradient_3"
       xlink:href="#Gradient_3"
       gradientTransform="matrix(8.5071218,-2.929237,2.929237,8.5071218,143.84009,168.83939)" />
    <radialGradient
       cx="0"
       cy="0"
       r="1"
       id="Gradient_4"
       gradientUnits="userSpaceOnUse">
      <stop
         offset="0"
         stop-color="#fefcff"
         id="stop5266" />
      <stop
         offset="1"
         stop-color="#333"
         id="stop5268" />
    </radialGradient>
    <radialGradient
       id="Obj_Gradient_4"
       xlink:href="#Gradient_4"
       gradientTransform="matrix(-5.2298003,-17.640525,13.831792,-4.1006441,127.07119,190.8652)"
       fx="0.53321111"
       fy="0.55251503"
       cx="0.53321111"
       cy="0.55251503" />
    <radialGradient
       id="Obj_Gradient_5"
       xlink:href="#Gradient_3"
       gradientTransform="matrix(10.232955,-3.523489,3.523489,10.232955,142.2044,184.12234)" />
    <radialGradient
       cx="0"
       cy="0"
       r="1"
       id="Gradient_5"
       gradientUnits="userSpaceOnUse">
      <stop
         offset="0"
         stop-color="#fbfcff"
         id="stop5273" />
      <stop
         offset="1"
         stop-color="#333"
         id="stop5275" />
    </radialGradient>
    <radialGradient
       id="Obj_Gradient_6"
       xlink:href="#Gradient_5"
       gradientTransform="matrix(7.9377967,1.1155846,-1.1155846,7.9377967,162.65024,176.08292)"
       fx="0.021611352"
       fy="0.048555344"
       cx="0.021611352"
       cy="0.048555344" />
    <filter
       style="color-interpolation-filters:sRGB;"
       inkscape:label="Drop Shadow"
       id="filter6193">
      <feFlood
         flood-opacity="0.498039"
         flood-color="rgb(0,0,0)"
         result="flood"
         id="feFlood6183" />
      <feComposite
         in="flood"
         in2="SourceGraphic"
         operator="in"
         result="composite1"
         id="feComposite6185" />
      <feGaussianBlur
         in="composite1"
         stdDeviation="1"
         result="blur"
         id="feGaussianBlur6187" />
      <feOffset
         dx="1"
         dy="1"
         result="offset"
         id="feOffset6189" />
      <feComposite
         in="SourceGraphic"
         in2="offset"
         operator="over"
         result="composite2"
         id="feComposite6191" />
    </filter>
  </defs>
  <path
     style="fill:#f8001c;fill-opacity:1;stroke:#333333;stroke-width:2.09588695;stroke-linecap:round;stroke-linejoin:round;stroke-dasharray:none;stroke-opacity:1;filter:url(#filter6193)"
     d="m 151.07706,159.20895 c 0,13.5045 -24.45206,33.53419 -24.45206,33.53419 0,0 -24.45206,-20.02969 -24.45206,-33.53419 0,-13.5045 10.94756,-24.45206 24.45206,-24.45206 13.5045,0 24.45206,10.94756 24.45206,24.45206 z"
     id="circle5287"
     inkscape:connector-curvature="0"
     sodipodi:nodetypes="scsss"
     transform="matrix(0.93294792,0,0,0.93294792,8.4904676,10.979762)" />
  <g
     transform="matrix(0.07270662,0,0,0.07270662,109.25415,140.09313)"
     id="g4644"
     style="fill:#ffffff">
    <g
       id="g4646"
       style="fill:#ffffff">
      <path
         inkscape:connector-curvature="0"
         d="M 76.849,210.531 C 34.406,210.531 0,244.937 0,287.388 c 0,42.438 34.406,76.847 76.849,76.847 30.989,0 57.635,-18.387 69.789,-44.819 l 18.258,14.078 c 0,0 134.168,0.958 141.538,-3.206 0,0 -16.65,-45.469 4.484,-64.688 2.225,-2.024 5.021,-4.332 8.096,-6.777 -3.543,8.829 -5.534,18.45 -5.534,28.558 0,42.446 34.403,76.846 76.846,76.846 42.443,0 76.843,-34.415 76.843,-76.846 0,-42.451 -34.408,-76.849 -76.843,-76.849 -0.697,0 -1.362,0.088 -2.056,0.102 5.551,-3.603 9.093,-5.865 9.093,-5.865 l -5.763,-5.127 c 0,0 16.651,-3.837 12.816,-12.167 -3.848,-8.33 -44.19,-58.28 -44.19,-58.28 0,0 7.146,-15.373 -7.634,-26.261 l -7.098,15.371 c 0,0 -18.093,-12.489 -25.295,-10.084 -7.205,2.398 -18.005,3.603 -21.379,8.884 l -3.358,3.124 c 0,0 -0.95,5.528 4.561,13.693 0,0 55.482,17.05 58.119,29.537 0,0 3.848,7.933 -12.728,9.844 l -3.354,4.328 -8.896,0.479 -16.082,-36.748 c 0,0 -15.381,4.082 -23.299,10.323 l 1.201,6.24 c 0,0 -64.599,-43.943 -125.362,21.137 0,0 -44.909,12.966 -76.37,-26.897 0,0 -0.479,-12.968 -76.367,-10.565 l 5.286,5.524 c 0,0 -5.286,0.479 -7.444,3.841 -2.158,3.358 1.2,6.961 18.494,6.961 0,0 39.153,44.668 69.17,42.032 l 42.743,20.656 18.975,32.42 c 0,0 0.034,2.785 0.23,7.045 -4.404,0.938 -9.341,1.979 -14.579,3.09 -10.155,-30.567 -38.928,-52.638 -72.911,-52.638 z m 313.476,23.55 c 29.395,0 53.299,23.912 53.299,53.299 0,29.39 -23.912,53.294 -53.299,53.294 -29.394,0 -53.294,-23.912 -53.294,-53.294 0,-29.387 23.901,-53.299 53.294,-53.299 z M 76.849,340.683 c -29.387,0 -53.299,-23.913 -53.299,-53.295 0,-29.395 23.912,-53.299 53.299,-53.299 22.592,0 41.896,14.154 49.636,34.039 -28.26,6.011 -56.31,11.99 -56.31,11.99 l 3.619,19.933 55.339,-2.444 c -4.768,24.509 -26.388,43.076 -52.284,43.076 z m 92.303,-44.848 c 1.571,5.334 3.619,9.574 6.312,11.394 l -24.696,0.966 c 1.058,-3.783 1.857,-7.666 2.338,-11.662 l 16.046,-0.698 z"
         id="path4648"
         style="fill:#ffffff" />
    </g>
  </g>
</svg>
