<?xml version="1.0" encoding="UTF-8" standalone="no"?>
<svg
   xmlns:dc="http://purl.org/dc/elements/1.1/"
   xmlns:cc="http://creativecommons.org/ns#"
   xmlns:rdf="http://www.w3.org/1999/02/22-rdf-syntax-ns#"
   xmlns:svg="http://www.w3.org/2000/svg"
   xmlns="http://www.w3.org/2000/svg"
   xmlns:xlink="http://www.w3.org/1999/xlink"
   xmlns:sodipodi="http://sodipodi.sourceforge.net/DTD/sodipodi-0.dtd"
   xmlns:inkscape="http://www.inkscape.org/namespaces/inkscape"
   version="1.1"
   viewBox="100 133 53.25 61.5"
   width="71"
   height="82"
   id="svg5325"
   sodipodi:docname="motorscooter-broken.svg"
   inkscape:export-filename="motorscooter-broken.png"
   inkscape:export-xdpi="130.68494"
   inkscape:export-ydpi="130.68494"
   inkscape:version="0.91 r13725">
  <sodipodi:namedview
     pagecolor="#ffffff"
     bordercolor="#666666"
     borderopacity="1"
     objecttolerance="10"
     gridtolerance="10"
     guidetolerance="10"
     inkscape:pageopacity="0"
     inkscape:pageshadow="2"
     inkscape:window-width="1920"
     inkscape:window-height="1056"
     id="namedview5327"
     showgrid="false"
     units="px"
     fit-margin-top="0"
     fit-margin-left="0"
     fit-margin-right="0"
     fit-margin-bottom="0"
     inkscape:zoom="3.6875001"
     inkscape:cx="-43.884561"
     inkscape:cy="5.0491216"
     inkscape:window-x="0"
     inkscape:window-y="24"
     inkscape:window-maximized="1"
     inkscape:current-layer="svg5325" />
  <metadata
     id="metadata5244">
    <dc:date>2017-02-14 20:31Z</dc:date>
    <!-- Produced by OmniGraffle Professional 5.4.2 -->
    <rdf:RDF>
      <cc:Work
         rdf:about="">
        <dc:format>image/svg+xml</dc:format>
        <dc:type
           rdf:resource="http://purl.org/dc/dcmitype/StillImage" />
        <dc:title></dc:title>
      </cc:Work>
    </rdf:RDF>
  </metadata>
  <defs
     id="defs5279">
    <linearGradient
       x1="0"
       x2="1"
       id="Gradient"
       gradientUnits="userSpaceOnUse">
      <stop
         offset="0"
         stop-color="#a1a1a1"
         id="stop5246" />
      <stop
         offset=".5"
         stop-color="#d3ddda"
         id="stop5248" />
      <stop
         offset="1"
         stop-color="#333"
         id="stop5250" />
    </linearGradient>
    <linearGradient
       id="Obj_Gradient"
       xlink:href="#Gradient"
       gradientTransform="matrix(-9.6901415,0,0,-9.6901415,151.86676,195.96937)" />
    <radialGradient
       cx="0"
       cy="0"
       r="1"
       id="Gradient_2"
       gradientUnits="userSpaceOnUse">
      <stop
         offset="0"
         stop-color="#333"
         id="stop5254" />
      <stop
         offset="1"
         stop-color="#fefcff"
         id="stop5256" />
    </radialGradient>
    <radialGradient
       id="Obj_Gradient_2"
       xlink:href="#Gradient_2"
       gradientTransform="matrix(11.294566,-3.8890311,3.8890311,11.294566,152.17186,169.50531)" />
    <radialGradient
       cx="0"
       cy="0"
       r="1"
       id="Gradient_3"
       gradientUnits="userSpaceOnUse">
      <stop
         offset="0"
         stop-color="#333"
         id="stop5260" />
      <stop
         offset="1"
         stop-color="#858586"
         id="stop5262" />
    </radialGradient>
    <radialGradient
       id="Obj_Gradient_3"
       xlink:href="#Gradient_3"
       gradientTransform="matrix(8.5071218,-2.929237,2.929237,8.5071218,143.84009,168.83939)" />
    <radialGradient
       cx="0"
       cy="0"
       r="1"
       id="Gradient_4"
       gradientUnits="userSpaceOnUse">
      <stop
         offset="0"
         stop-color="#fefcff"
         id="stop5266" />
      <stop
         offset="1"
         stop-color="#333"
         id="stop5268" />
    </radialGradient>
    <radialGradient
       id="Obj_Gradient_4"
       xlink:href="#Gradient_4"
       gradientTransform="matrix(-5.2298003,-17.640525,13.831792,-4.1006441,127.07119,190.8652)"
       fx="0.53321111"
       fy="0.55251503"
       cx="0.53321111"
       cy="0.55251503" />
    <radialGradient
       id="Obj_Gradient_5"
       xlink:href="#Gradient_3"
       gradientTransform="matrix(10.232955,-3.523489,3.523489,10.232955,142.2044,184.12234)" />
    <radialGradient
       cx="0"
       cy="0"
       r="1"
       id="Gradient_5"
       gradientUnits="userSpaceOnUse">
      <stop
         offset="0"
         stop-color="#fbfcff"
         id="stop5273" />
      <stop
         offset="1"
         stop-color="#333"
         id="stop5275" />
    </radialGradient>
    <radialGradient
       id="Obj_Gradient_6"
       xlink:href="#Gradient_5"
       gradientTransform="matrix(7.9377967,1.1155846,-1.1155846,7.9377967,162.65024,176.08292)"
       fx="0.021611352"
       fy="0.048555344"
       cx="0.021611352"
       cy="0.048555344" />
    <filter
       style="color-interpolation-filters:sRGB;"
       inkscape:label="Drop Shadow"
       id="filter6193">
      <feFlood
         flood-opacity="0.498039"
         flood-color="rgb(0,0,0)"
         result="flood"
         id="feFlood6183" />
      <feComposite
         in="flood"
         in2="SourceGraphic"
         operator="in"
         result="composite1"
         id="feComposite6185" />
      <feGaussianBlur
         in="composite1"
         stdDeviation="1"
         result="blur"
         id="feGaussianBlur6187" />
      <feOffset
         dx="1"
         dy="1"
         result="offset"
         id="feOffset6189" />
      <feComposite
         in="SourceGraphic"
         in2="offset"
         operator="over"
         result="composite2"
         id="feComposite6191" />
    </filter>
  </defs>
  <path
     style="fill:#f8001c;fill-opacity:1;stroke:#333333;stroke-width:2.09588695;stroke-linecap:round;stroke-linejoin:round;stroke-dasharray:none;stroke-opacity:1;filter:url(#filter6193)"
     d="m 151.07706,159.20895 c 0,13.5045 -24.45206,33.53419 -24.45206,33.53419 0,0 -24.45206,-20.02969 -24.45206,-33.53419 0,-13.5045 10.94756,-24.45206 24.45206,-24.45206 13.5045,0 24.45206,10.94756 24.45206,24.45206 z"
     id="circle5287"
     inkscape:connector-curvature="0"
     sodipodi:nodetypes="scsss"
     transform="matrix(0.93294792,0,0,0.93294792,8.4904676,10.979762)" />
  <g
     transform="matrix(0.03499101,0,0,0.03499101,109.35195,138.15704)"
     id="g5153"
     style="fill:#ffffff">
    <g
       id="g5155"
       style="fill:#ffffff">
      <path
         inkscape:connector-curvature="0"
         d="m 938.5,591.4 c -0.3,-1 -0.5,-1.8 -0.8,-2.8 -17,-54.3 -64.6,-75 -99.8,-82.8 -0.1,-0.4 -0.2,-0.7 -0.3,-1.1 l -103,-189 C 728.4,299.8 713.4,290 697.4,289.5 l -16.6,-35.4 c 0,-47.6 -31.3,-72.3 -73.5,-82.2 -6.3,-8.2 -16.1,-13.5 -27.3,-13.5 l -25,0 c -19,0 -34.3,15.4 -34.3,34.3 0,19 15.3,34.3 34.3,34.3 l 25,0 c 4,0 7.8,-0.7 11.3,-2 12.7,4.7 21.6,13.4 21.6,29.1 0,0 107.3,272.8 84.7,324.8 C 675,631 468,586.2 468,586.2 c -5.4,-18.8 -10.4,-42.5 -13.2,-71.5 -3.2,-33 1.2,-61.1 8,-83.4 26.7,-4.5 47.1,-27.6 47.1,-55.7 0,-31.2 -25.3,-56.5 -56.5,-56.5 l -313.5,0 c -31.2,0 -56.5,25.3 -56.5,56.5 0,2.7 0.3,5.4 0.6,8 -15.6,8.5 -28.2,21.7 -36,37.8 -21.5,3.4 -38,22 -38,44.6 l 0,22.6 c 0,16.9 9.3,31.6 23.1,39.4 -4.3,47.3 -9.2,103 -9.2,113.8 0,27.3 19.7,49.9 45.6,54.6 0,1.3 -0.1,2.7 -0.1,4 0,77.9 63.3,141.2 141.2,141.2 77.9,0 141.2,-63.3 141.2,-141.2 0,-1 -0.1,-2 -0.1,-3 l 295.1,0 0,0.2 c 22.9,0 44.2,-6.6 62.3,-17.9 -1,6.8 -1.5,13.6 -1.5,20.7 0,77.9 63.3,141.2 141.2,141.2 77.9,0 141.2,-63.3 141.2,-141.2 0,-43.9 -20.1,-83.1 -51.5,-109 z m -728,193.7 c -46.7,0 -84.7,-38 -84.7,-84.7 0,-1 0.1,-2 0.2,-3 l 169.1,0 c 0,1 0.2,2 0.2,3 -0.1,46.7 -38.1,84.7 -84.8,84.7 z m 638.3,0 c -46.7,0 -84.7,-38 -84.7,-84.7 0,-29.4 15.1,-55.3 37.9,-70.5 36.2,-5.2 66.5,-3.7 89.5,-2.5 25.1,14.7 42.1,41.9 42.1,73.1 -0.1,46.6 -38.1,84.6 -84.8,84.6 z"
         id="path5157"
         style="fill:#ffffff" />
    </g>
    <g
       id="g5159"
       style="fill:#ffffff" />
    <g
       id="g5161"
       style="fill:#ffffff" />
    <g
       id="g5163"
       style="fill:#ffffff" />
    <g
       id="g5165"
       style="fill:#ffffff" />
    <g
       id="g5167"
       style="fill:#ffffff" />
    <g
       id="g5169"
       style="fill:#ffffff" />
    <g
       id="g5171"
       style="fill:#ffffff" />
    <g
       id="g5173"
       style="fill:#ffffff" />
    <g
       id="g5175"
       style="fill:#ffffff" />
    <g
       id="g5177"
       style="fill:#ffffff" />
    <g
       id="g5179"
       style="fill:#ffffff" />
    <g
       id="g5181"
       style="fill:#ffffff" />
    <g
       id="g5183"
       style="fill:#ffffff" />
    <g
       id="g5185"
       style="fill:#ffffff" />
    <g
       id="g5187"
       style="fill:#ffffff" />
  </g>
</svg>
