<?xml version="1.0" encoding="UTF-8" standalone="no"?>
<svg
   xmlns:dc="http://purl.org/dc/elements/1.1/"
   xmlns:cc="http://creativecommons.org/ns#"
   xmlns:rdf="http://www.w3.org/1999/02/22-rdf-syntax-ns#"
   xmlns:svg="http://www.w3.org/2000/svg"
   xmlns="http://www.w3.org/2000/svg"
   xmlns:xlink="http://www.w3.org/1999/xlink"
   xmlns:sodipodi="http://sodipodi.sourceforge.net/DTD/sodipodi-0.dtd"
   xmlns:inkscape="http://www.inkscape.org/namespaces/inkscape"
   version="1.1"
   viewBox="100 133 53.25 61.5"
   width="71"
   height="82"
   id="svg5325"
   sodipodi:docname="sweepingMachine-onRoute.svg"
   inkscape:export-filename="trolley-onRoute.png"
   inkscape:export-xdpi="130.68494"
   inkscape:export-ydpi="130.68494"
   inkscape:version="0.91 r13725">
  <sodipodi:namedview
     pagecolor="#ffffff"
     bordercolor="#666666"
     borderopacity="1"
     objecttolerance="10"
     gridtolerance="10"
     guidetolerance="10"
     inkscape:pageopacity="0"
     inkscape:pageshadow="2"
     inkscape:window-width="1920"
     inkscape:window-height="1056"
     id="namedview5327"
     showgrid="false"
     units="px"
     fit-margin-top="0"
     fit-margin-left="0"
     fit-margin-right="0"
     fit-margin-bottom="0"
     inkscape:zoom="3.6875002"
     inkscape:cx="-112.29972"
     inkscape:cy="14.101728"
     inkscape:window-x="0"
     inkscape:window-y="24"
     inkscape:window-maximized="1"
     inkscape:current-layer="svg5325" />
  <metadata
     id="metadata5244">
    <dc:date>2017-02-14 20:31Z</dc:date>
    <!-- Produced by OmniGraffle Professional 5.4.2 -->
    <rdf:RDF>
      <cc:Work
         rdf:about="">
        <dc:format>image/svg+xml</dc:format>
        <dc:type
           rdf:resource="http://purl.org/dc/dcmitype/StillImage" />
        <dc:title></dc:title>
      </cc:Work>
    </rdf:RDF>
  </metadata>
  <defs
     id="defs5279">
    <linearGradient
       x1="0"
       x2="1"
       id="Gradient"
       gradientUnits="userSpaceOnUse">
      <stop
         offset="0"
         stop-color="#a1a1a1"
         id="stop5246" />
      <stop
         offset=".5"
         stop-color="#d3ddda"
         id="stop5248" />
      <stop
         offset="1"
         stop-color="#333"
         id="stop5250" />
    </linearGradient>
    <linearGradient
       id="Obj_Gradient"
       xlink:href="#Gradient"
       gradientTransform="matrix(-9.6901415,0,0,-9.6901415,151.86676,195.96937)" />
    <radialGradient
       cx="0"
       cy="0"
       r="1"
       id="Gradient_2"
       gradientUnits="userSpaceOnUse">
      <stop
         offset="0"
         stop-color="#333"
         id="stop5254" />
      <stop
         offset="1"
         stop-color="#fefcff"
         id="stop5256" />
    </radialGradient>
    <radialGradient
       id="Obj_Gradient_2"
       xlink:href="#Gradient_2"
       gradientTransform="matrix(11.294566,-3.8890311,3.8890311,11.294566,152.17186,169.50531)" />
    <radialGradient
       cx="0"
       cy="0"
       r="1"
       id="Gradient_3"
       gradientUnits="userSpaceOnUse">
      <stop
         offset="0"
         stop-color="#333"
         id="stop5260" />
      <stop
         offset="1"
         stop-color="#858586"
         id="stop5262" />
    </radialGradient>
    <radialGradient
       id="Obj_Gradient_3"
       xlink:href="#Gradient_3"
       gradientTransform="matrix(8.5071218,-2.929237,2.929237,8.5071218,143.84009,168.83939)" />
    <radialGradient
       cx="0"
       cy="0"
       r="1"
       id="Gradient_4"
       gradientUnits="userSpaceOnUse">
      <stop
         offset="0"
         stop-color="#fefcff"
         id="stop5266" />
      <stop
         offset="1"
         stop-color="#333"
         id="stop5268" />
    </radialGradient>
    <radialGradient
       id="Obj_Gradient_4"
       xlink:href="#Gradient_4"
       gradientTransform="matrix(-5.2298003,-17.640525,13.831792,-4.1006441,127.07119,190.8652)"
       fx="0.53321111"
       fy="0.55251503"
       cx="0.53321111"
       cy="0.55251503" />
    <radialGradient
       id="Obj_Gradient_5"
       xlink:href="#Gradient_3"
       gradientTransform="matrix(10.232955,-3.523489,3.523489,10.232955,142.2044,184.12234)" />
    <radialGradient
       cx="0"
       cy="0"
       r="1"
       id="Gradient_5"
       gradientUnits="userSpaceOnUse">
      <stop
         offset="0"
         stop-color="#fbfcff"
         id="stop5273" />
      <stop
         offset="1"
         stop-color="#333"
         id="stop5275" />
    </radialGradient>
    <radialGradient
       id="Obj_Gradient_6"
       xlink:href="#Gradient_5"
       gradientTransform="matrix(7.9377967,1.1155846,-1.1155846,7.9377967,162.65024,176.08292)"
       fx="0.021611352"
       fy="0.048555344"
       cx="0.021611352"
       cy="0.048555344" />
    <filter
       style="color-interpolation-filters:sRGB;"
       inkscape:label="Drop Shadow"
       id="filter6193">
      <feFlood
         flood-opacity="0.498039"
         flood-color="rgb(0,0,0)"
         result="flood"
         id="feFlood6183" />
      <feComposite
         in="flood"
         in2="SourceGraphic"
         operator="in"
         result="composite1"
         id="feComposite6185" />
      <feGaussianBlur
         in="composite1"
         stdDeviation="1"
         result="blur"
         id="feGaussianBlur6187" />
      <feOffset
         dx="1"
         dy="1"
         result="offset"
         id="feOffset6189" />
      <feComposite
         in="SourceGraphic"
         in2="offset"
         operator="over"
         result="composite2"
         id="feComposite6191" />
    </filter>
  </defs>
  <path
     style="fill:#3952a3;fill-opacity:1;stroke:#333333;stroke-width:2.09588695;stroke-linecap:round;stroke-linejoin:round;stroke-dasharray:none;stroke-opacity:1;filter:url(#filter6193)"
     d="m 151.07706,159.20895 c 0,13.5045 -24.45206,33.53419 -24.45206,33.53419 0,0 -24.45206,-20.02969 -24.45206,-33.53419 0,-13.5045 10.94756,-24.45206 24.45206,-24.45206 13.5045,0 24.45206,10.94756 24.45206,24.45206 z"
     id="circle5287"
     inkscape:connector-curvature="0"
     sodipodi:nodetypes="scsss"
     transform="matrix(0.93294792,0,0,0.93294792,8.4904676,10.979762)" />
  <path
     style="fill:#ffffff"
     d="m 117.09334,165.9833 c -0.85176,-0.5193 -1.5777,-1.81419 -1.5777,-2.81421 0,-0.91762 0.81043,-2.31221 1.63635,-2.81585 2.35801,-1.43791 5.23376,0.4995 4.91671,3.3124 -0.26977,2.39336 -2.86687,3.60317 -4.97536,2.31766 z m 10.22591,-0.0131 c -1.1237,-0.71979 -1.76831,-2.41877 -1.3726,-3.61777 0.29868,-0.90501 1.0114,-1.69526 1.97786,-2.19302 1.50352,-0.77436 3.65175,0.18335 4.31667,1.92445 0.39437,1.03261 0.39277,1.1762 -0.0254,2.27087 -0.77105,2.01897 -3.07835,2.78018 -4.89663,1.61547 z m 7.88622,-0.1491 c -0.17876,-0.0721 -0.3186,-0.5667 -0.3186,-1.12685 0,-0.93931 0.0452,-0.9983 0.76465,-0.9983 0.69514,0 0.76466,0.0764 0.76466,0.84112 0,0.46261 -0.13765,0.97875 -0.30586,1.14698 -0.32599,0.32599 -0.40642,0.33817 -0.90485,0.13705 z m 2.16652,-0.10645 c -0.28842,-0.16799 -0.44605,-0.57057 -0.44605,-1.13923 0,-0.83514 0.0449,-0.87942 0.8921,-0.87942 0.81646,0 0.8921,0.0633 0.8921,0.74644 0,0.5778 -0.55611,1.58923 -0.84658,1.53976 -0.025,-0.005 -0.24624,-0.12465 -0.49157,-0.26755 z m 2.15377,-0.0306 c -0.16822,-0.16823 -0.30586,-0.68436 -0.30586,-1.14698 0,-0.76465 0.0695,-0.84112 0.76466,-0.84112 0.71867,0 0.76465,0.0596 0.76465,0.99227 0,0.66969 -0.13107,1.04256 -0.40317,1.14698 -0.51333,0.19698 -0.46284,0.20629 -0.82028,-0.15115 z m 2.3067,0.13705 c -0.17876,-0.0721 -0.3186,-0.5667 -0.3186,-1.12685 0,-0.9393 0.0452,-0.9983 0.76466,-0.9983 0.69514,0 0.76465,0.0765 0.76465,0.84112 0,0.46262 -0.13763,0.97875 -0.30586,1.14698 -0.32599,0.32599 -0.40642,0.33818 -0.90485,0.13705 z m -29.24799,-2.87809 c -0.28036,-0.11593 -0.79651,-0.51918 -1.14698,-0.89602 l -0.63721,-0.68516 -0.0755,-6.72414 c -0.064,-5.70267 -0.015,-6.8412 0.32292,-7.4947 0.79418,-1.53577 0.85922,-1.54394 12.29304,-1.54288 9.86449,8.9e-4 10.44116,0.0265 11.21519,0.49849 0.44881,0.27365 0.98151,0.81804 1.18378,1.20975 0.20227,0.39172 0.73296,3.00617 1.17933,5.8099 0.44636,2.80372 0.90338,5.66301 1.0156,6.35395 0.11226,0.69096 0.11131,1.57987 -0.002,1.97536 l -0.20611,0.71908 2.65849,0 c 2.48857,0 2.65849,0.0326 2.65849,0.50977 0,0.4914 -0.16992,0.50977 -4.71536,0.50977 -4.61948,0 -4.71537,-0.0107 -4.71537,-0.53497 0,-2.37672 -3.11361,-4.46959 -5.63819,-3.78979 -1.42508,0.38373 -2.97463,1.99038 -3.18431,3.30164 -0.13253,0.82878 -0.26841,1.02312 -0.71538,1.02312 -0.43728,0 -0.61443,-0.23428 -0.85375,-1.12912 -0.61912,-2.31481 -3.1804,-3.80461 -5.47749,-3.18607 -1.2649,0.34061 -2.8886,1.8635 -3.12453,2.93053 -0.0909,0.4111 -0.20943,0.89082 -0.26341,1.06606 -0.10998,0.35722 -0.99816,0.39506 -1.77088,0.0754 z m 24.34147,-6.14852 c 0,-0.45003 -1.03411,-7.20723 -1.17696,-7.69068 -0.18151,-0.6142 -0.51699,-0.55945 -1.28637,0.20993 -0.5933,0.59329 -0.6399,0.78204 -0.48771,1.97536 0.43689,3.42573 0.73713,4.60865 1.31683,5.18836 0.60738,0.60737 1.63421,0.80658 1.63421,0.31703 z m -5.24334,-2.9298 c 0.62253,-0.62252 0.54886,-3.27441 -0.10929,-3.9325 -0.6072,-0.6072 -2.69042,-0.70775 -3.4318,-0.16565 -0.67458,0.49327 -0.86153,2.98533 -0.28946,3.85843 0.36962,0.56411 0.59852,0.64026 1.92474,0.64026 1.02854,0 1.63207,-0.12685 1.90576,-0.40054 z m 9.57638,7.36324 c -0.82774,-0.31267 -1.80704,-1.51423 -2.29323,-2.81365 -0.76231,-2.03748 -0.74592,-2.06973 0.91935,-1.80859 0.78641,0.12333 1.75122,0.39042 2.14401,0.59353 0.93318,0.48258 1.77871,1.57461 1.77871,2.29727 0,1.13541 -1.4747,2.13718 -2.54884,1.73144 z m 1.39612,-2.11061 c 0.16349,-0.26451 -0.73065,-1.28371 -1.1262,-1.28371 -0.49124,0 -0.56018,0.55798 -0.12795,1.03559 0.48377,0.53455 1.01248,0.63915 1.25415,0.24812 z"
     id="path4096"
     inkscape:connector-curvature="0"
     inkscape:export-filename="sweepingMachine-onRoute.png"
     inkscape:export-xdpi="130"
     inkscape:export-ydpi="130" />
</svg>
