<?xml version="1.0" encoding="UTF-8" standalone="no"?>
<svg
   xmlns:dc="http://purl.org/dc/elements/1.1/"
   xmlns:cc="http://creativecommons.org/ns#"
   xmlns:rdf="http://www.w3.org/1999/02/22-rdf-syntax-ns#"
   xmlns:svg="http://www.w3.org/2000/svg"
   xmlns="http://www.w3.org/2000/svg"
   xmlns:xlink="http://www.w3.org/1999/xlink"
   xmlns:sodipodi="http://sodipodi.sourceforge.net/DTD/sodipodi-0.dtd"
   xmlns:inkscape="http://www.inkscape.org/namespaces/inkscape"
   version="1.1"
   viewBox="100 133 53.25 61.5"
   width="71"
   height="82"
   id="svg5325"
   sodipodi:docname="trolley-onRoute.svg"
   inkscape:export-filename="trolley-onRoute.png"
   inkscape:export-xdpi="130.68494"
   inkscape:export-ydpi="130.68494"
   inkscape:version="0.91 r13725">
  <sodipodi:namedview
     pagecolor="#ffffff"
     bordercolor="#666666"
     borderopacity="1"
     objecttolerance="10"
     gridtolerance="10"
     guidetolerance="10"
     inkscape:pageopacity="0"
     inkscape:pageshadow="2"
     inkscape:window-width="1920"
     inkscape:window-height="1056"
     id="namedview5327"
     showgrid="false"
     units="px"
     fit-margin-top="0"
     fit-margin-left="0"
     fit-margin-right="0"
     fit-margin-bottom="0"
     inkscape:zoom="5.2149128"
     inkscape:cx="29.045648"
     inkscape:cy="55.133134"
     inkscape:window-x="0"
     inkscape:window-y="24"
     inkscape:window-maximized="1"
     inkscape:current-layer="svg5325" />
  <metadata
     id="metadata5244">
    <dc:date>2017-02-14 20:31Z</dc:date>
    <!-- Produced by OmniGraffle Professional 5.4.2 -->
    <rdf:RDF>
      <cc:Work
         rdf:about="">
        <dc:format>image/svg+xml</dc:format>
        <dc:type
           rdf:resource="http://purl.org/dc/dcmitype/StillImage" />
        <dc:title></dc:title>
      </cc:Work>
    </rdf:RDF>
  </metadata>
  <defs
     id="defs5279">
    <linearGradient
       x1="0"
       x2="1"
       id="Gradient"
       gradientUnits="userSpaceOnUse">
      <stop
         offset="0"
         stop-color="#a1a1a1"
         id="stop5246" />
      <stop
         offset=".5"
         stop-color="#d3ddda"
         id="stop5248" />
      <stop
         offset="1"
         stop-color="#333"
         id="stop5250" />
    </linearGradient>
    <linearGradient
       id="Obj_Gradient"
       xlink:href="#Gradient"
       gradientTransform="matrix(-9.6901415,0,0,-9.6901415,151.86676,195.96937)" />
    <radialGradient
       cx="0"
       cy="0"
       r="1"
       id="Gradient_2"
       gradientUnits="userSpaceOnUse">
      <stop
         offset="0"
         stop-color="#333"
         id="stop5254" />
      <stop
         offset="1"
         stop-color="#fefcff"
         id="stop5256" />
    </radialGradient>
    <radialGradient
       id="Obj_Gradient_2"
       xlink:href="#Gradient_2"
       gradientTransform="matrix(11.294566,-3.8890311,3.8890311,11.294566,152.17186,169.50531)" />
    <radialGradient
       cx="0"
       cy="0"
       r="1"
       id="Gradient_3"
       gradientUnits="userSpaceOnUse">
      <stop
         offset="0"
         stop-color="#333"
         id="stop5260" />
      <stop
         offset="1"
         stop-color="#858586"
         id="stop5262" />
    </radialGradient>
    <radialGradient
       id="Obj_Gradient_3"
       xlink:href="#Gradient_3"
       gradientTransform="matrix(8.5071218,-2.929237,2.929237,8.5071218,143.84009,168.83939)" />
    <radialGradient
       cx="0"
       cy="0"
       r="1"
       id="Gradient_4"
       gradientUnits="userSpaceOnUse">
      <stop
         offset="0"
         stop-color="#fefcff"
         id="stop5266" />
      <stop
         offset="1"
         stop-color="#333"
         id="stop5268" />
    </radialGradient>
    <radialGradient
       id="Obj_Gradient_4"
       xlink:href="#Gradient_4"
       gradientTransform="matrix(-5.2298003,-17.640525,13.831792,-4.1006441,127.07119,190.8652)"
       fx="0.53321111"
       fy="0.55251503"
       cx="0.53321111"
       cy="0.55251503" />
    <radialGradient
       id="Obj_Gradient_5"
       xlink:href="#Gradient_3"
       gradientTransform="matrix(10.232955,-3.523489,3.523489,10.232955,142.2044,184.12234)" />
    <radialGradient
       cx="0"
       cy="0"
       r="1"
       id="Gradient_5"
       gradientUnits="userSpaceOnUse">
      <stop
         offset="0"
         stop-color="#fbfcff"
         id="stop5273" />
      <stop
         offset="1"
         stop-color="#333"
         id="stop5275" />
    </radialGradient>
    <radialGradient
       id="Obj_Gradient_6"
       xlink:href="#Gradient_5"
       gradientTransform="matrix(7.9377967,1.1155846,-1.1155846,7.9377967,162.65024,176.08292)"
       fx="0.021611352"
       fy="0.048555344"
       cx="0.021611352"
       cy="0.048555344" />
    <filter
       style="color-interpolation-filters:sRGB;"
       inkscape:label="Drop Shadow"
       id="filter6193">
      <feFlood
         flood-opacity="0.498039"
         flood-color="rgb(0,0,0)"
         result="flood"
         id="feFlood6183" />
      <feComposite
         in="flood"
         in2="SourceGraphic"
         operator="in"
         result="composite1"
         id="feComposite6185" />
      <feGaussianBlur
         in="composite1"
         stdDeviation="1"
         result="blur"
         id="feGaussianBlur6187" />
      <feOffset
         dx="1"
         dy="1"
         result="offset"
         id="feOffset6189" />
      <feComposite
         in="SourceGraphic"
         in2="offset"
         operator="over"
         result="composite2"
         id="feComposite6191" />
    </filter>
  </defs>
  <path
     style="fill:#3952a3;fill-opacity:1;stroke:#333333;stroke-width:2.09588695;stroke-linecap:round;stroke-linejoin:round;stroke-dasharray:none;stroke-opacity:1;filter:url(#filter6193)"
     d="m 151.07706,159.20895 c 0,13.5045 -24.45206,33.53419 -24.45206,33.53419 0,0 -24.45206,-20.02969 -24.45206,-33.53419 0,-13.5045 10.94756,-24.45206 24.45206,-24.45206 13.5045,0 24.45206,10.94756 24.45206,24.45206 z"
     id="circle5287"
     inkscape:connector-curvature="0"
     sodipodi:nodetypes="scsss"
     transform="matrix(0.93294792,0,0,0.93294792,8.4904676,10.979762)" />
  <g
     transform="matrix(0.06570761,0,0,0.06570761,111.9251,142.28212)"
     id="XMLID_21_"
     style="fill:#ffffff">
    <circle
       id="XMLID_24_"
       cx="244.60001"
       cy="190.379"
       r="27.041"
       style="fill:#ffffff" />
    <path
       inkscape:connector-curvature="0"
       id="XMLID_882_"
       d="m 390.514,358.183 c -16.539,0 -29.946,13.407 -29.946,29.946 0,16.539 13.407,29.946 29.946,29.946 16.539,0 29.946,-13.407 29.946,-29.946 0,-16.539 -13.408,-29.946 -29.946,-29.946 z m -0.001,38.549 c -4.751,0 -8.603,-3.852 -8.603,-8.603 0,-4.751 3.852,-8.603 8.603,-8.603 4.751,0 8.603,3.852 8.603,8.603 0,4.751 -3.851,8.603 -8.603,8.603 z"
       style="fill:#ffffff" />
    <path
       inkscape:connector-curvature="0"
       id="XMLID_892_"
       d="m 209.193,358.183 c -16.539,0 -29.946,13.407 -29.946,29.946 0,16.539 13.407,29.946 29.946,29.946 16.539,0 29.946,-13.407 29.946,-29.946 0,-16.539 -13.407,-29.946 -29.946,-29.946 z m 0,38.549 c -4.751,0 -8.603,-3.852 -8.603,-8.603 0,-4.751 3.852,-8.603 8.603,-8.603 4.751,0 8.603,3.852 8.603,8.603 0,4.751 -3.852,8.603 -8.603,8.603 z"
       style="fill:#ffffff" />
    <path
       inkscape:connector-curvature="0"
       id="XMLID_905_"
       d="m 30.766,300.876 109.007,0 c 5.624,0 10.184,-4.56 10.184,-10.184 l 0,-47.317 c 0,-5.624 -4.56,-10.184 -10.184,-10.184 l -109.007,0 c -5.624,0 -10.184,4.56 -10.184,10.184 l 0,47.317 c 0,5.625 4.56,10.184 10.184,10.184 z"
       style="fill:#ffffff" />
    <path
       inkscape:connector-curvature="0"
       id="XMLID_906_"
       d="m 44.105,146.199 0,47.318 c 0,5.624 4.56,10.184 10.184,10.184 l 109.007,0 c 5.624,0 10.184,-4.56 10.184,-10.184 l 0,-47.318 c 0,-5.624 -4.559,-10.184 -10.184,-10.184 l -109.007,0 c -5.624,0.001 -10.184,4.56 -10.184,10.184 z"
       style="fill:#ffffff" />
    <path
       inkscape:connector-curvature="0"
       id="XMLID_907_"
       d="m 41.491,109.61 109.007,0 c 5.624,0 10.184,-4.56 10.184,-10.184 l 0,-47.317 c 0,-5.624 -4.559,-10.184 -10.184,-10.184 l -109.007,0 c -5.625,0 -10.184,4.559 -10.184,10.184 l 0,47.318 c 0,5.624 4.559,10.183 10.184,10.183 z"
       style="fill:#ffffff" />
    <path
       inkscape:connector-curvature="0"
       id="XMLID_922_"
       d="m 460,384.645 c 0,-35.2 -28.637,-63.838 -63.837,-63.838 l -15.067,0 -34.006,-26.849 7.02,-11.975 c 2.737,-4.669 1.171,-10.674 -3.499,-13.412 -4.668,-2.738 -10.675,-1.172 -13.412,3.499 l -3.021,5.153 c 2.577,3.752 4.145,8.26 4.286,13.147 0.363,12.641 -9.029,24.772 -24.802,25.226 0.158,2.271 1.109,4.453 2.731,6.131 l -13.077,-0.029 -0.007,-0.01 c -2.587,-3.554 -6.764,-5.6 -11.158,-5.474 -10.771,0.31 -29.124,0.837 -31.531,0.907 -7.081,0.204 -13.234,-4.214 -15.586,-10.498 l -16.715,-44.876 26.72,37.805 c 2.449,3.465 6.428,5.303 10.357,5.175 l 48.928,-1.406 c 6.763,-0.194 12.089,-5.835 11.894,-12.598 -0.195,-6.764 -5.821,-12.111 -12.598,-11.894 l -42.361,1.217 -22.928,-32.44 19.469,16.293 1.311,-11.661 c 1.127,-10.025 -6.087,-19.066 -16.112,-20.193 l -32.372,-3.639 c -10.025,-1.127 -19.066,6.087 -20.193,16.112 l -4.524,40.245 0,-31.561 c 0,-8.119 -6.582,-14.702 -14.702,-14.702 -8.119,0 -14.702,6.582 -14.702,14.702 l 0,65.288 -151.838,0.357 c -8.12,0.02 -14.687,6.617 -14.668,14.737 0.019,8.108 6.597,14.667 14.701,14.667 0.011,0 0.024,0 0.035,0 l 150.373,-0.354 5.083,9.726 c 9.167,-11.694 23.322,-19.043 39.001,-19.043 29.069,0 52.2,25.162 49.303,54.46 l 82.714,0 c -2.896,-29.29 20.22,-54.46 49.303,-54.46 6.731,0 13.552,1.319 20.006,4.234 15.339,6.928 29.878,22.464 29.878,41.831 0,5.413 4.388,9.801 9.801,9.801 5.414,10e-4 9.802,-4.387 9.802,-9.801 z m -128.106,-64.764 5.187,-8.849 13.642,10.771 -20.276,-0.044 c 0.543,-0.558 1.036,-1.177 1.447,-1.878 z"
       style="fill:#ffffff" />
  </g>
</svg>
