<?xml version="1.0" encoding="UTF-8" standalone="no"?>
<svg
   xmlns:dc="http://purl.org/dc/elements/1.1/"
   xmlns:cc="http://creativecommons.org/ns#"
   xmlns:rdf="http://www.w3.org/1999/02/22-rdf-syntax-ns#"
   xmlns:svg="http://www.w3.org/2000/svg"
   xmlns="http://www.w3.org/2000/svg"
   xmlns:xlink="http://www.w3.org/1999/xlink"
   xmlns:sodipodi="http://sodipodi.sourceforge.net/DTD/sodipodi-0.dtd"
   xmlns:inkscape="http://www.inkscape.org/namespaces/inkscape"
   version="1.1"
   viewBox="100 133 53.25 61.5"
   width="71"
   height="82"
   id="svg5325"
   sodipodi:docname="van-broken.svg"
   inkscape:export-filename="van-broken.png"
   inkscape:export-xdpi="130.68494"
   inkscape:export-ydpi="130.68494"
   inkscape:version="0.91 r13725">
  <sodipodi:namedview
     pagecolor="#ffffff"
     bordercolor="#666666"
     borderopacity="1"
     objecttolerance="10"
     gridtolerance="10"
     guidetolerance="10"
     inkscape:pageopacity="0"
     inkscape:pageshadow="2"
     inkscape:window-width="1920"
     inkscape:window-height="1056"
     id="namedview5327"
     showgrid="false"
     units="px"
     fit-margin-top="0"
     fit-margin-left="0"
     fit-margin-right="0"
     fit-margin-bottom="0"
     inkscape:zoom="3.6875001"
     inkscape:cx="-43.884561"
     inkscape:cy="5.0491216"
     inkscape:window-x="0"
     inkscape:window-y="24"
     inkscape:window-maximized="1"
     inkscape:current-layer="svg5325" />
  <metadata
     id="metadata5244">
    <dc:date>2017-02-14 20:31Z</dc:date>
    <!-- Produced by OmniGraffle Professional 5.4.2 -->
    <rdf:RDF>
      <cc:Work
         rdf:about="">
        <dc:format>image/svg+xml</dc:format>
        <dc:type
           rdf:resource="http://purl.org/dc/dcmitype/StillImage" />
        <dc:title></dc:title>
      </cc:Work>
    </rdf:RDF>
  </metadata>
  <defs
     id="defs5279">
    <linearGradient
       x1="0"
       x2="1"
       id="Gradient"
       gradientUnits="userSpaceOnUse">
      <stop
         offset="0"
         stop-color="#a1a1a1"
         id="stop5246" />
      <stop
         offset=".5"
         stop-color="#d3ddda"
         id="stop5248" />
      <stop
         offset="1"
         stop-color="#333"
         id="stop5250" />
    </linearGradient>
    <linearGradient
       id="Obj_Gradient"
       xlink:href="#Gradient"
       gradientTransform="matrix(-9.6901415,0,0,-9.6901415,151.86676,195.96937)" />
    <radialGradient
       cx="0"
       cy="0"
       r="1"
       id="Gradient_2"
       gradientUnits="userSpaceOnUse">
      <stop
         offset="0"
         stop-color="#333"
         id="stop5254" />
      <stop
         offset="1"
         stop-color="#fefcff"
         id="stop5256" />
    </radialGradient>
    <radialGradient
       id="Obj_Gradient_2"
       xlink:href="#Gradient_2"
       gradientTransform="matrix(11.294566,-3.8890311,3.8890311,11.294566,152.17186,169.50531)" />
    <radialGradient
       cx="0"
       cy="0"
       r="1"
       id="Gradient_3"
       gradientUnits="userSpaceOnUse">
      <stop
         offset="0"
         stop-color="#333"
         id="stop5260" />
      <stop
         offset="1"
         stop-color="#858586"
         id="stop5262" />
    </radialGradient>
    <radialGradient
       id="Obj_Gradient_3"
       xlink:href="#Gradient_3"
       gradientTransform="matrix(8.5071218,-2.929237,2.929237,8.5071218,143.84009,168.83939)" />
    <radialGradient
       cx="0"
       cy="0"
       r="1"
       id="Gradient_4"
       gradientUnits="userSpaceOnUse">
      <stop
         offset="0"
         stop-color="#fefcff"
         id="stop5266" />
      <stop
         offset="1"
         stop-color="#333"
         id="stop5268" />
    </radialGradient>
    <radialGradient
       id="Obj_Gradient_4"
       xlink:href="#Gradient_4"
       gradientTransform="matrix(-5.2298003,-17.640525,13.831792,-4.1006441,127.07119,190.8652)"
       fx="0.53321111"
       fy="0.55251503"
       cx="0.53321111"
       cy="0.55251503" />
    <radialGradient
       id="Obj_Gradient_5"
       xlink:href="#Gradient_3"
       gradientTransform="matrix(10.232955,-3.523489,3.523489,10.232955,142.2044,184.12234)" />
    <radialGradient
       cx="0"
       cy="0"
       r="1"
       id="Gradient_5"
       gradientUnits="userSpaceOnUse">
      <stop
         offset="0"
         stop-color="#fbfcff"
         id="stop5273" />
      <stop
         offset="1"
         stop-color="#333"
         id="stop5275" />
    </radialGradient>
    <radialGradient
       id="Obj_Gradient_6"
       xlink:href="#Gradient_5"
       gradientTransform="matrix(7.9377967,1.1155846,-1.1155846,7.9377967,162.65024,176.08292)"
       fx="0.021611352"
       fy="0.048555344"
       cx="0.021611352"
       cy="0.048555344" />
    <filter
       style="color-interpolation-filters:sRGB;"
       inkscape:label="Drop Shadow"
       id="filter6193">
      <feFlood
         flood-opacity="0.498039"
         flood-color="rgb(0,0,0)"
         result="flood"
         id="feFlood6183" />
      <feComposite
         in="flood"
         in2="SourceGraphic"
         operator="in"
         result="composite1"
         id="feComposite6185" />
      <feGaussianBlur
         in="composite1"
         stdDeviation="1"
         result="blur"
         id="feGaussianBlur6187" />
      <feOffset
         dx="1"
         dy="1"
         result="offset"
         id="feOffset6189" />
      <feComposite
         in="SourceGraphic"
         in2="offset"
         operator="over"
         result="composite2"
         id="feComposite6191" />
    </filter>
  </defs>
  <path
     style="fill:#f8001c;fill-opacity:1;stroke:#333333;stroke-width:2.09588695;stroke-linecap:round;stroke-linejoin:round;stroke-dasharray:none;stroke-opacity:1;filter:url(#filter6193)"
     d="m 151.07706,159.20895 c 0,13.5045 -24.45206,33.53419 -24.45206,33.53419 0,0 -24.45206,-20.02969 -24.45206,-33.53419 0,-13.5045 10.94756,-24.45206 24.45206,-24.45206 13.5045,0 24.45206,10.94756 24.45206,24.45206 z"
     id="circle5287"
     inkscape:connector-curvature="0"
     sodipodi:nodetypes="scsss"
     transform="matrix(0.93294792,0,0,0.93294792,8.4904676,10.979762)" />
  <g
     transform="matrix(0.06506552,0,0,0.06506552,110.68259,138.67418)"
     id="g5717"
     style="fill:#ffffff">
    <path
       inkscape:connector-curvature="0"
       d="M 494.03,228.989 425.31,205.254 385.501,137.661 C 372.174,116.66 363.099,109.806 323.143,109.806 l -295.277,0 C 12.479,109.807 0,122.286 0,137.662 l 0,148.169 0,26.527 0,14.6 c 0,15.381 12.479,27.865 27.866,27.865 l 14.788,0 c 1.836,-30.591 27.152,-54.854 58.201,-54.854 31.048,0 56.363,24.263 58.202,54.854 l 200.24,0 c 1.106,-18.06 10.519,-35.368 26.973,-45.781 27.237,-17.258 63.3,-9.176 80.557,18.058 5.473,8.646 8.383,18.179 8.952,27.724 l 18.255,0 c 15.387,0 27.853,-12.484 27.853,-27.865 l 0,-70.103 C 521.886,241.463 510.474,234.41 494.03,228.989 Z m -104.566,-16.142 -126.985,0 c -1.908,0 -3.438,-1.529 -3.438,-3.423 l 0,-67.431 c 0,-1.894 1.529,-3.423 3.438,-3.423 l 90.94,0 c 1.882,0 4.687,0.7 6.074,3.423 l 33.39,67.426 c 0,1.898 -1.526,3.428 -3.419,3.428 z m 127.519,86.105 c 0,5.145 -4.169,9.315 -9.313,9.315 l -28.717,0 c -5.144,0 -9.313,-4.171 -9.313,-9.315 l 0,-20.958 c 0,-5.144 4.17,-9.312 9.313,-9.312 l 28.717,0 c 5.145,0 9.313,4.169 9.313,9.312 l 0,20.958 z m -416.828,7.222 c -29.2,0 -52.957,23.762 -52.957,52.958 0,29.2 23.756,52.947 52.957,52.947 29.198,0 52.946,-23.747 52.946,-52.947 0,-29.196 -23.747,-52.958 -52.946,-52.958 z m 0,89.102 c -19.944,0 -36.146,-16.215 -36.146,-36.138 0,-19.924 16.211,-36.141 36.146,-36.141 19.931,0 36.137,16.217 36.137,36.141 0,19.923 -16.206,36.138 -36.137,36.138 z m 317.59,-89.102 c -29.2,0 -52.96,23.762 -52.96,52.958 0,29.2 23.76,52.947 52.96,52.947 29.197,0 52.953,-23.747 52.953,-52.947 0,-29.196 -23.756,-52.958 -52.953,-52.958 z m 0,89.102 c -19.937,0 -36.147,-16.215 -36.147,-36.138 0,-19.924 16.217,-36.141 36.147,-36.141 19.938,0 36.141,16.217 36.141,36.141 -0.001,19.923 -16.208,36.138 -36.141,36.138 z"
       id="path5719"
       style="fill:#ffffff" />
  </g>
</svg>
