<?xml version="1.0" encoding="UTF-8" standalone="no"?>
<svg
   xmlns:dc="http://purl.org/dc/elements/1.1/"
   xmlns:cc="http://creativecommons.org/ns#"
   xmlns:rdf="http://www.w3.org/1999/02/22-rdf-syntax-ns#"
   xmlns:svg="http://www.w3.org/2000/svg"
   xmlns="http://www.w3.org/2000/svg"
   xmlns:xlink="http://www.w3.org/1999/xlink"
   xmlns:sodipodi="http://sodipodi.sourceforge.net/DTD/sodipodi-0.dtd"
   xmlns:inkscape="http://www.inkscape.org/namespaces/inkscape"
   version="1.1"
   viewBox="100 133 53.25 61.5"
   width="71"
   height="82"
   id="svg5325"
   sodipodi:docname="34.svg"
   inkscape:export-filename="34.png"
   inkscape:export-xdpi="143.32001"
   inkscape:export-ydpi="143.32001"
   inkscape:version="0.92.2 5c3e80d, 2017-08-06">
  <sodipodi:namedview
     pagecolor="#ffffff"
     bordercolor="#666666"
     borderopacity="1"
     objecttolerance="10"
     gridtolerance="10"
     guidetolerance="10"
     inkscape:pageopacity="0"
     inkscape:pageshadow="2"
     inkscape:window-width="840"
     inkscape:window-height="1005"
     id="namedview5327"
     showgrid="false"
     units="px"
     fit-margin-top="0"
     fit-margin-left="0"
     fit-margin-right="0"
     fit-margin-bottom="0"
     inkscape:zoom="3.6875001"
     inkscape:cx="24.836209"
     inkscape:cy="49.494944"
     inkscape:window-x="1"
     inkscape:window-y="1"
     inkscape:window-maximized="0"
     inkscape:current-layer="svg5325" />
  <metadata
     id="metadata5244">
    <dc:date>2017-02-14 20:31Z</dc:date>
    <!-- Produced by OmniGraffle Professional 5.4.2 -->
    <rdf:RDF>
      <cc:Work
         rdf:about="">
        <dc:format>image/svg+xml</dc:format>
        <dc:type
           rdf:resource="http://purl.org/dc/dcmitype/StillImage" />
        <dc:title></dc:title>
      </cc:Work>
    </rdf:RDF>
  </metadata>
  <defs
     id="defs5279">
    <linearGradient
       x1="0"
       x2="1"
       id="Gradient"
       gradientUnits="userSpaceOnUse">
      <stop
         offset="0"
         stop-color="#a1a1a1"
         id="stop5246" />
      <stop
         offset=".5"
         stop-color="#d3ddda"
         id="stop5248" />
      <stop
         offset="1"
         stop-color="#333"
         id="stop5250" />
    </linearGradient>
    <linearGradient
       id="Obj_Gradient"
       xlink:href="#Gradient"
       gradientTransform="matrix(-9.6901415,0,0,-9.6901415,151.86676,195.96937)" />
    <radialGradient
       cx="0"
       cy="0"
       r="1"
       id="Gradient_2"
       gradientUnits="userSpaceOnUse">
      <stop
         offset="0"
         stop-color="#333"
         id="stop5254" />
      <stop
         offset="1"
         stop-color="#fefcff"
         id="stop5256" />
    </radialGradient>
    <radialGradient
       id="Obj_Gradient_2"
       xlink:href="#Gradient_2"
       gradientTransform="matrix(11.294566,-3.8890311,3.8890311,11.294566,152.17186,169.50531)" />
    <radialGradient
       cx="0"
       cy="0"
       r="1"
       id="Gradient_3"
       gradientUnits="userSpaceOnUse">
      <stop
         offset="0"
         stop-color="#333"
         id="stop5260" />
      <stop
         offset="1"
         stop-color="#858586"
         id="stop5262" />
    </radialGradient>
    <radialGradient
       id="Obj_Gradient_3"
       xlink:href="#Gradient_3"
       gradientTransform="matrix(8.5071218,-2.929237,2.929237,8.5071218,143.84009,168.83939)" />
    <radialGradient
       cx="0"
       cy="0"
       r="1"
       id="Gradient_4"
       gradientUnits="userSpaceOnUse">
      <stop
         offset="0"
         stop-color="#fefcff"
         id="stop5266" />
      <stop
         offset="1"
         stop-color="#333"
         id="stop5268" />
    </radialGradient>
    <radialGradient
       id="Obj_Gradient_4"
       xlink:href="#Gradient_4"
       gradientTransform="matrix(-5.2298003,-17.640525,13.831792,-4.1006441,127.07119,190.8652)"
       fx="0.53321111"
       fy="0.55251503"
       cx="0.53321111"
       cy="0.55251503" />
    <radialGradient
       id="Obj_Gradient_5"
       xlink:href="#Gradient_3"
       gradientTransform="matrix(10.232955,-3.523489,3.523489,10.232955,142.2044,184.12234)" />
    <radialGradient
       cx="0"
       cy="0"
       r="1"
       id="Gradient_5"
       gradientUnits="userSpaceOnUse">
      <stop
         offset="0"
         stop-color="#fbfcff"
         id="stop5273" />
      <stop
         offset="1"
         stop-color="#333"
         id="stop5275" />
    </radialGradient>
    <radialGradient
       id="Obj_Gradient_6"
       xlink:href="#Gradient_5"
       gradientTransform="matrix(7.9377967,1.1155846,-1.1155846,7.9377967,162.65024,176.08292)"
       fx="0.021611352"
       fy="0.048555344"
       cx="0.021611352"
       cy="0.048555344" />
    <filter
       style="color-interpolation-filters:sRGB;"
       inkscape:label="Drop Shadow"
       id="filter6193">
      <feFlood
         flood-opacity="0.498039"
         flood-color="rgb(0,0,0)"
         result="flood"
         id="feFlood6183" />
      <feComposite
         in="flood"
         in2="SourceGraphic"
         operator="in"
         result="composite1"
         id="feComposite6185" />
      <feGaussianBlur
         in="composite1"
         stdDeviation="1"
         result="blur"
         id="feGaussianBlur6187" />
      <feOffset
         dx="1"
         dy="1"
         result="offset"
         id="feOffset6189" />
      <feComposite
         in="SourceGraphic"
         in2="offset"
         operator="over"
         result="composite2"
         id="feComposite6191" />
    </filter>
    <filter
       style="color-interpolation-filters:sRGB"
       inkscape:label="Drop Shadow"
       id="filter6193-2">
      <feFlood
         flood-opacity="0.498039"
         flood-color="rgb(0,0,0)"
         result="flood"
         id="feFlood6183-9" />
      <feComposite
         in="flood"
         in2="SourceGraphic"
         operator="in"
         result="composite1"
         id="feComposite6185-6" />
      <feGaussianBlur
         in="composite1"
         stdDeviation="1"
         result="blur"
         id="feGaussianBlur6187-3" />
      <feOffset
         dx="1"
         dy="1"
         result="offset"
         id="feOffset6189-2" />
      <feComposite
         in="SourceGraphic"
         in2="offset"
         operator="over"
         result="composite2"
         id="feComposite6191-4" />
    </filter>
    <filter
       style="color-interpolation-filters:sRGB"
       inkscape:label="Drop Shadow"
       id="filter6193-1">
      <feFlood
         flood-opacity="0.498039"
         flood-color="rgb(0,0,0)"
         result="flood"
         id="feFlood6183-2" />
      <feComposite
         in="flood"
         in2="SourceGraphic"
         operator="in"
         result="composite1"
         id="feComposite6185-9" />
      <feGaussianBlur
         in="composite1"
         stdDeviation="1"
         result="blur"
         id="feGaussianBlur6187-0" />
      <feOffset
         dx="1"
         dy="1"
         result="offset"
         id="feOffset6189-4" />
      <feComposite
         in="SourceGraphic"
         in2="offset"
         operator="over"
         result="composite2"
         id="feComposite6191-6" />
    </filter>
  </defs>
  <path
     style="fill:#4a90e2;fill-opacity:1;stroke:#333333;stroke-width:2.09588695;stroke-linecap:round;stroke-linejoin:round;stroke-dasharray:none;stroke-opacity:1;filter:url(#filter6193);font-variant-east_asian:normal;opacity:1;vector-effect:none;stroke-miterlimit:4;stroke-dashoffset:0"
     d="m 151.07706,159.20895 c 0,13.5045 -24.45206,33.53419 -24.45206,33.53419 0,0 -24.45206,-20.02969 -24.45206,-33.53419 0,-13.5045 10.94756,-24.45206 24.45206,-24.45206 13.5045,0 24.45206,10.94756 24.45206,24.45206 z"
     id="circle5287"
     inkscape:connector-curvature="0"
     sodipodi:nodetypes="scsss"
     transform="matrix(0.93294792,0,0,0.93294792,8.4904676,10.979762)" />
  <g
     transform="matrix(0.95974576,0,0,0.95974576,111.26907,146.93355)"
     id="blackboard"
     style="fill:#ffffff;fill-rule:nonzero;stroke:none;stroke-width:1">
    <path
       id="Shape"
       d="M 12.074894,7.950434 C 11.840817,7.7932936 11.523472,7.8557277 11.3664,8.0899404 L 9.9172766,10.249532 8.4681532,8.0899404 C 8.3110128,7.8557957 7.9937362,7.7932255 7.7596596,7.950434 7.5255149,8.1075745 7.4630128,8.424783 7.6201532,8.6589957 l 1.6821787,2.5069613 -1.6821787,2.506962 c -0.1572085,0.234145 -0.094706,0.551421 0.1395064,0.708562 0.087285,0.05862 0.1862127,0.08667 0.284051,0.08667 0.1644937,0 0.3259234,-0.07932 0.4244426,-0.226178 l 1.4491234,-2.15959 1.4491234,2.159592 c 0.09852,0.146859 0.259949,0.226178 0.424443,0.226178 0.09784,0 0.196766,-0.02805 0.284051,-0.08667 0.234144,-0.157141 0.296646,-0.474349 0.139506,-0.708562 L 10.532153,11.165957 12.214332,8.6589957 C 12.37154,8.424783 12.309038,8.1075745 12.074894,7.950434 Z"
       inkscape:connector-curvature="0" />
    <path
       id="path2096"
       d="M 24.237209,7.9483234 C 24.001906,7.7929532 23.685174,7.8577021 23.529668,8.0930723 L 22.094298,10.266894 20.633532,8.0899404 C 20.476391,7.8557957 20.159115,7.7932936 19.925038,7.950434 19.690894,8.1075745 19.628391,8.424783 19.785532,8.6589957 l 1.801532,2.6848683 v 2.613583 c 0,0.282008 0.228561,0.510638 0.510638,0.510638 0.282077,0 0.510638,-0.22863 0.510638,-0.510638 v -2.615626 l 1.773549,-2.6859572 c 0.155507,-0.2353702 0.09062,-0.5521021 -0.14468,-0.7075404 z"
       inkscape:connector-curvature="0" />
    <path
       id="path2098"
       d="M 18.042553,10.610655 H 16.510638 V 9.0787404 c 0,-0.2820085 -0.228561,-0.5106383 -0.510638,-0.5106383 -0.282077,0 -0.510638,0.2286298 -0.510638,0.5106383 v 1.5319146 h -1.531915 c -0.282077,0 -0.510638,0.22863 -0.510638,0.510639 0,0.282008 0.228561,0.510638 0.510638,0.510638 h 1.531915 v 1.531915 c 0,0.282008 0.228561,0.510638 0.510638,0.510638 0.282077,0 0.510638,-0.22863 0.510638,-0.510638 v -1.531915 h 1.531915 c 0.282077,0 0.510638,-0.22863 0.510638,-0.510638 0,-0.282009 -0.228561,-0.510639 -0.510638,-0.510639 z"
       inkscape:connector-curvature="0" />
    <path
       id="path2100"
       d="m 31.898553,22.093413 c 0.0052,-0.0069 0.01055,-0.01369 0.01532,-0.02083 0.005,-0.0076 0.0095,-0.01539 0.01409,-0.02315 0.0039,-0.0065 0.008,-0.01294 0.01164,-0.01975 0.0042,-0.0078 0.0078,-0.01593 0.01151,-0.02397 0.0033,-0.0071 0.0069,-0.01403 0.0099,-0.02131 0.0033,-0.0079 0.0059,-0.01593 0.0087,-0.0239 0.0028,-0.0077 0.0057,-0.01532 0.0081,-0.02322 0.0025,-0.0081 0.0043,-0.01634 0.0063,-0.02458 0.002,-0.008 0.0042,-0.0158 0.0059,-0.0239 0.0019,-0.0096 0.0031,-0.01934 0.0044,-0.02907 9.53e-4,-0.0068 0.0022,-0.01348 0.0029,-0.02036 C 31.999115,21.822434 32,21.805481 32,21.78846 V 0.54331915 c 0,-0.0170213 -8.85e-4,-0.0339745 -0.0026,-0.0509277 -6.81e-4,-0.006877 -0.002,-0.0135489 -0.0029,-0.0203575 -0.0014,-0.009736 -0.0025,-0.0194043 -0.0044,-0.0290723 -0.0016,-0.008102 -0.0038,-0.0159319 -0.0059,-0.0238979 -0.002,-0.008238 -0.0039,-0.0164766 -0.0063,-0.0245787 -0.0024,-0.007898 -0.0054,-0.0155234 -0.0081,-0.023217 -0.0029,-0.007966 -0.0055,-0.0160681 -0.0087,-0.0238979 -0.003,-0.007285 -0.0065,-0.0142298 -0.0099,-0.0213106 -0.0037,-0.008034 -0.0074,-0.0160681 -0.01151,-0.023966 -0.0036,-0.00674 -0.0078,-0.0131404 -0.01164,-0.0197447 -0.0046,-0.007762 -0.009,-0.0155915 -0.01409,-0.0231489 -0.0048,-0.007217 -0.01014,-0.0139574 -0.01532,-0.020834 -0.0048,-0.0064 -0.0092,-0.0130043 -0.01437,-0.0192 -0.0099,-0.0121191 -0.02049,-0.0236936 -0.03152,-0.0348596 -0.01566,-0.0155915 -0.02744,-0.0262808 -0.03969,-0.0363574 -0.0059,-0.004834 -0.01212,-0.009055 -0.01825,-0.013617 -0.0073,-0.005447 -0.01437,-0.0110979 -0.02192,-0.0161362 -0.0073,-0.004834 -0.01478,-0.009055 -0.02226,-0.0135489 -0.0068,-0.004085 -0.01348,-0.0083745 -0.02056,-0.01211915 -0.0077,-0.0040851 -0.01559,-0.0075574 -0.02342,-0.01123404 -0.0073,-0.0034043 -0.01443,-0.0070808 -0.02185,-0.01014468 -0.0077,-0.0032 -0.01552,-0.0057191 -0.02329,-0.0085106 -0.0079,-0.0028596 -0.0158,-0.0059234 -0.0239,-0.0083745 -0.0078,-0.002383 -0.01573,-0.0040851 -0.02363,-0.0060596 -0.0082,-0.0020426 -0.01641,-0.0043574 -0.02478,-0.0060596 -0.0092,-0.0018383 -0.01852,-0.0029277 -0.02778,-0.0042213 -0.0072,-0.0010213 -0.0143,-0.002383 -0.02158,-0.0031319 -0.01682,-0.001634 -0.03377,-0.0025192 -0.05066,-0.0025192 H 0.51077447 c -0.0168851,0 -0.0337702,8.8511e-4 -0.0506553,0.0025192 -0.007285,6.8085e-4 -0.014366,0.0021106 -0.021583,0.0031319 -0.00926,0.0012936 -0.0185872,0.0024511 -0.0277787,0.0042213 -0.008374,0.001634 -0.0165447,0.0039489 -0.024783,0.0060596 -0.007898,0.0019745 -0.0157957,0.0037447 -0.0236255,0.0060596 -0.008102,0.0024511 -0.0159319,0.0055149 -0.0238979,0.0083745 -0.007762,0.0028596 -0.0155915,0.0054468 -0.0232851,0.0086468 -0.007421,0.0030638 -0.0145702,0.0066723 -0.0217872,0.01014468 -0.00783,0.0036766 -0.0157277,0.0071489 -0.0234213,0.01130212 -0.007013,0.0037447 -0.0136851,0.0080341 -0.0205617,0.01211915 -0.007489,0.004426 -0.0149787,0.008647 -0.0222638,0.0135489 -0.007557,0.005038 -0.0147064,0.0106894 -0.0219234,0.0161362 -0.00606,0.004562 -0.0123234,0.008783 -0.0182468,0.013617 -0.0122553,0.0100766 -0.024034,0.020766 -0.0353362,0.0319319 -0.0153872,0.0155915 -0.0259404,0.0271659 -0.0358809,0.0392851 -0.005106,0.006196 -0.0096,0.0128 -0.014366,0.0192 -0.0051745,0.006945 -0.01055319,0.0136851 -0.01531915,0.020834 -0.0050383,0.007557 -0.0094638,0.0153872 -0.01409361,0.0231489 -0.0038808,0.006468 -0.007966,0.0128681 -0.01157447,0.0196085 -0.0042213,0.007898 -0.0078298,0.016 -0.01157447,0.0241021 -0.0033362,0.007013 -0.0068085,0.0139575 -0.0098042,0.0211064 -0.0032681,0.007898 -0.0059234,0.016 -0.008783,0.024034 -0.0027234,0.007694 -0.0057191,0.0152511 -0.0081021,0.0230809 -0.0024511,0.008102 -0.0042894,0.0163404 -0.0063319,0.0245787 -0.0019745,0.007966 -0.0042213,0.0157957 -0.00585531,0.0238979 -0.00190639,0.0096 -0.00306383,0.0193362 -0.00442554,0.0290723 -9.5319e-4,0.006809 -0.0022468,0.0134808 -0.00292766,0.0203575 C 8.8510638e-4,0.50934468 0,0.52636596 0,0.54331915 V 21.788596 c 0,0.01702 8.8510638e-4,0.03397 0.00258723,0.05093 6.8086e-4,0.0069 0.00197447,0.01355 0.00292766,0.02036 0.00136171,0.0097 0.00251915,0.0194 0.00442554,0.02907 0.00156595,0.0081 0.00381276,0.01593 0.00585531,0.0239 0.0020426,0.0082 0.0038809,0.01648 0.0063319,0.02458 0.002383,0.0078 0.0053106,0.01545 0.0081021,0.02308 0.0028596,0.008 0.0055149,0.01614 0.008783,0.02403 0.0029957,0.0072 0.0064681,0.01409 0.0098042,0.02111 0.0037447,0.008 0.0073532,0.0162 0.01157447,0.0241 0.0036085,0.0067 0.0077617,0.01314 0.01164255,0.01975 0.0046298,0.0078 0.0089872,0.01559 0.01409362,0.02315 0.004834,0.0072 0.01014468,0.01396 0.01531915,0.02083 0.004766,0.0064 0.009191,0.013 0.014366,0.0192 0.00994,0.01212 0.0204936,0.02369 0.0315234,0.03486 0.0156596,0.01559 0.0274383,0.02628 0.0396936,0.03636 0.005855,0.0048 0.0120511,0.0091 0.0181106,0.01355 0.007285,0.0054 0.014434,0.01117 0.0220596,0.0162 0.007149,0.0048 0.0145702,0.0089 0.0219234,0.01328 0.006945,0.0042 0.0138213,0.0085 0.0209702,0.01239 0.007489,0.004 0.0151149,0.0074 0.0227404,0.01096 0.007489,0.0035 0.0148426,0.0073 0.0225362,0.01048 0.007421,0.0031 0.0149787,0.0055 0.0225362,0.0082 0.00817,0.0029 0.0162723,0.0061 0.0246468,0.0086 0.007557,0.0023 0.0153191,0.0039 0.0229447,0.0059 0.008511,0.0021 0.016817,0.0045 0.0254638,0.0062 0.008851,0.0018 0.0178383,0.0028 0.0267575,0.0041 0.007557,0.0011 0.0149787,0.0025 0.0226723,0.0033 0.0167489,0.0016 0.033566,0.0025 0.050383,0.0025 H 2.7234043 v 1.531914 c 0,0.282009 0.2285617,0.510639 0.5106382,0.510639 H 28.765957 c 0.282077,0 0.510639,-0.22863 0.510639,-0.510639 v -1.531914 h 2.212766 c 0.01682,0 0.03363,-8.86e-4 0.05038,-0.0025 0.0076,-7.49e-4 0.01512,-0.0022 0.02267,-0.0033 0.0089,-0.0013 0.01791,-0.0023 0.02676,-0.0041 0.0086,-0.0017 0.01702,-0.0041 0.02546,-0.0062 0.0077,-0.0019 0.01539,-0.0036 0.02294,-0.0059 0.0084,-0.0025 0.01648,-0.0057 0.02472,-0.0086 0.0075,-0.0027 0.01505,-0.0052 0.02247,-0.0082 0.0077,-0.0032 0.01512,-0.0069 0.0226,-0.01048 0.0076,-0.0036 0.01525,-0.0069 0.02267,-0.01096 0.0071,-0.0038 0.01403,-0.0082 0.02097,-0.01239 0.0074,-0.0044 0.01477,-0.0085 0.02192,-0.01328 0.0076,-0.0051 0.01478,-0.01076 0.02206,-0.0162 0.0061,-0.0045 0.01225,-0.0087 0.01811,-0.01355 0.01226,-0.01008 0.02403,-0.02077 0.03534,-0.03193 0.01539,-0.01559 0.02594,-0.02717 0.03588,-0.03929 0.005,-0.0063 0.0095,-0.0128 0.01423,-0.01927 z m -4.66451,-0.815115 v -1.021277 h 2.001225 l 1.021277,1.021277 z m -5.106383,0 V 19.57617 h 4.085106 v 1.702128 z m -20.3842047,0 1.0212766,-1.021277 H 21.106383 v 1.021277 z M 26.723404,18.554894 h -5.106383 c -0.282076,0 -0.510638,0.228629 -0.510638,0.510638 v 0.170213 H 3.0638298 V 3.0961702 H 28.93617 V 19.235745 h -1.702127 v -0.170213 c 0,-0.282009 -0.228562,-0.510638 -0.510639,-0.510638 z M 29.235268,2.0748936 H 2.7647319 L 1.7434553,1.053617 H 30.256545 Z M 2.0425532,2.7970723 V 19.534843 L 1.0212766,20.556119 V 1.7757957 Z M 29.957447,19.534843 V 2.7970723 L 30.978723,1.7757957 V 20.556119 Z m -1.702128,3.786008 H 3.7446809 V 22.299574 H 28.255319 Z"
       inkscape:connector-curvature="0" />
  </g>
</svg>
