<?xml version="1.0" encoding="UTF-8" standalone="no"?>
<!-- Created with Inkscape (http://www.inkscape.org/) -->

<svg
   xmlns:dc="http://purl.org/dc/elements/1.1/"
   xmlns:cc="http://creativecommons.org/ns#"
   xmlns:rdf="http://www.w3.org/1999/02/22-rdf-syntax-ns#"
   xmlns:svg="http://www.w3.org/2000/svg"
   xmlns="http://www.w3.org/2000/svg"
   xmlns:xlink="http://www.w3.org/1999/xlink"
   xmlns:sodipodi="http://sodipodi.sourceforge.net/DTD/sodipodi-0.dtd"
   xmlns:inkscape="http://www.inkscape.org/namespaces/inkscape"
   width="51.200001"
   height="51.200001"
   id="svg1306"
   sodipodi:version="0.32"
   inkscape:version="0.92.1 r"
   sodipodi:docname="partlyCloudy.svg"
   inkscape:output_extension="org.inkscape.output.svg.inkscape"
   version="1.1"
   inkscape:export-filename="partlyCloudy.png"
   inkscape:export-xdpi="180"
   inkscape:export-ydpi="180">
  <defs
     id="defs1308">
    <inkscape:perspective
       sodipodi:type="inkscape:persp3d"
       inkscape:vp_x="0 : 25.6 : 1"
       inkscape:vp_y="0 : 1066.6667 : 0"
       inkscape:vp_z="51.2 : 25.6 : 1"
       inkscape:persp3d-origin="25.6 : 17.066667 : 1"
       id="perspective27908" />
    <linearGradient
       inkscape:collect="always"
       xlink:href="#linearGradient6538"
       id="linearGradient6724"
       gradientUnits="userSpaceOnUse"
       x1="284.80219"
       y1="-441.23294"
       x2="288.89954"
       y2="-436.83109"
       gradientTransform="matrix(1.1270443,0,0,1.1270443,-33.278059,26.520864)" />
    <linearGradient
       inkscape:collect="always"
       xlink:href="#linearGradient6549"
       id="linearGradient6722"
       gradientUnits="userSpaceOnUse"
       x1="286.66589"
       y1="-439.48358"
       x2="289.76562"
       y2="-436.70703"
       gradientTransform="matrix(0.96603733,0,0,0.96603733,10.485649,-38.068096)" />
    <linearGradient
       inkscape:collect="always"
       xlink:href="#linearGradient6527"
       id="linearGradient6720"
       gradientUnits="userSpaceOnUse"
       x1="275.94193"
       y1="-437.10501"
       x2="279.97546"
       y2="-431.91833"
       gradientTransform="scale(1.0666667)" />
    <linearGradient
       inkscape:collect="always"
       xlink:href="#linearGradient6538"
       id="linearGradient6718"
       gradientUnits="userSpaceOnUse"
       x1="285.94086"
       y1="-439.939"
       x2="289.39124"
       y2="-436.4429"
       gradientTransform="matrix(1.1270443,0,0,1.1270443,-33.278059,26.520864)" />
    <linearGradient
       inkscape:collect="always"
       xlink:href="#linearGradient6513"
       id="linearGradient6716"
       gradientUnits="userSpaceOnUse"
       x1="286.51172"
       y1="-441.29074"
       x2="289.85379"
       y2="-436.14453"
       gradientTransform="matrix(1.1270443,0,0,1.1270443,-18.344725,26.520864)" />
    <linearGradient
       inkscape:collect="always"
       xlink:href="#linearGradient6497"
       id="linearGradient6714"
       gradientUnits="userSpaceOnUse"
       x1="287.5173"
       y1="-439.75281"
       x2="289.67633"
       y2="-436.32199"
       gradientTransform="matrix(1.1270443,0,0,1.1270443,-25.811392,23.320864)" />
    <linearGradient
       inkscape:collect="always"
       xlink:href="#linearGradient6470"
       id="linearGradient6712"
       gradientUnits="userSpaceOnUse"
       x1="271.0217"
       y1="-441.05182"
       x2="285.02859"
       y2="-431.96991"
       gradientTransform="scale(1.0666667)" />
    <linearGradient
       inkscape:collect="always"
       xlink:href="#linearGradient6538"
       id="linearGradient6839"
       gradientUnits="userSpaceOnUse"
       x1="284.80219"
       y1="-441.23294"
       x2="288.89954"
       y2="-436.83109"
       gradientTransform="matrix(1.1270443,0,0,1.1270443,-33.278059,26.520864)" />
    <linearGradient
       inkscape:collect="always"
       id="linearGradient6549">
      <stop
         style="stop-color:#ffffff;stop-opacity:1;"
         offset="0"
         id="stop6551" />
      <stop
         style="stop-color:#ffffff;stop-opacity:0;"
         offset="1"
         id="stop6553" />
    </linearGradient>
    <linearGradient
       inkscape:collect="always"
       xlink:href="#linearGradient6549"
       id="linearGradient6837"
       gradientUnits="userSpaceOnUse"
       x1="286.66589"
       y1="-439.48358"
       x2="289.76562"
       y2="-436.70703"
       gradientTransform="matrix(0.96603733,0,0,0.96603733,10.485649,-38.068096)" />
    <linearGradient
       inkscape:collect="always"
       id="linearGradient6527">
      <stop
         style="stop-color:#ffffff;stop-opacity:1;"
         offset="0"
         id="stop6530" />
      <stop
         style="stop-color:#ffffff;stop-opacity:0;"
         offset="1"
         id="stop6532" />
    </linearGradient>
    <linearGradient
       inkscape:collect="always"
       xlink:href="#linearGradient6527"
       id="linearGradient6835"
       gradientUnits="userSpaceOnUse"
       x1="275.94193"
       y1="-437.10501"
       x2="279.97546"
       y2="-431.91833"
       gradientTransform="scale(1.0666667)" />
    <linearGradient
       inkscape:collect="always"
       id="linearGradient6538">
      <stop
         style="stop-color:#ffffff;stop-opacity:1;"
         offset="0"
         id="stop6540" />
      <stop
         style="stop-color:#ffffff;stop-opacity:0;"
         offset="1"
         id="stop6542" />
    </linearGradient>
    <linearGradient
       inkscape:collect="always"
       xlink:href="#linearGradient6538"
       id="linearGradient6833"
       gradientUnits="userSpaceOnUse"
       x1="285.94086"
       y1="-439.939"
       x2="289.39124"
       y2="-436.4429"
       gradientTransform="matrix(1.1270443,0,0,1.1270443,-33.278059,26.520864)" />
    <linearGradient
       inkscape:collect="always"
       id="linearGradient6513">
      <stop
         style="stop-color:#ffffff;stop-opacity:1;"
         offset="0"
         id="stop6515" />
      <stop
         style="stop-color:#ffffff;stop-opacity:0;"
         offset="1"
         id="stop6517" />
    </linearGradient>
    <linearGradient
       inkscape:collect="always"
       xlink:href="#linearGradient6513"
       id="linearGradient6831"
       gradientUnits="userSpaceOnUse"
       x1="286.51172"
       y1="-441.29074"
       x2="289.85379"
       y2="-436.14453"
       gradientTransform="matrix(1.1270443,0,0,1.1270443,-18.344725,26.520864)" />
    <linearGradient
       inkscape:collect="always"
       id="linearGradient6497">
      <stop
         style="stop-color:#ffffff;stop-opacity:1;"
         offset="0"
         id="stop6499" />
      <stop
         style="stop-color:#ffffff;stop-opacity:0;"
         offset="1"
         id="stop6501" />
    </linearGradient>
    <linearGradient
       inkscape:collect="always"
       xlink:href="#linearGradient6497"
       id="linearGradient6829"
       gradientUnits="userSpaceOnUse"
       x1="287.5173"
       y1="-439.75281"
       x2="289.67633"
       y2="-436.32199"
       gradientTransform="matrix(1.1270443,0,0,1.1270443,-25.811392,23.320864)" />
    <linearGradient
       inkscape:collect="always"
       id="linearGradient6470">
      <stop
         style="stop-color:#ffffff;stop-opacity:1;"
         offset="0"
         id="stop6472" />
      <stop
         style="stop-color:#ffffff;stop-opacity:0;"
         offset="1"
         id="stop6474" />
    </linearGradient>
    <linearGradient
       inkscape:collect="always"
       xlink:href="#linearGradient6470"
       id="linearGradient6827"
       gradientUnits="userSpaceOnUse"
       x1="271.0217"
       y1="-441.05182"
       x2="285.02859"
       y2="-431.96991"
       gradientTransform="scale(1.0666667)" />
    <linearGradient
       id="linearGradient4083">
      <stop
         id="stop4085"
         offset="0"
         style="stop-color:#ffffff;stop-opacity:0;" />
      <stop
         style="stop-color:#ffffff;stop-opacity:0;"
         offset="0.75"
         id="stop4089" />
      <stop
         id="stop4087"
         offset="1"
         style="stop-color:#ffffff;stop-opacity:1;" />
    </linearGradient>
    <linearGradient
       id="linearGradient4032">
      <stop
         id="stop4034"
         offset="0"
         style="stop-color:#fff7c2;stop-opacity:0.63829786" />
      <stop
         style="stop-color:#fcaf3e;stop-opacity:0.18348624;"
         offset="0.59394139"
         id="stop4036" />
      <stop
         id="stop4038"
         offset="0.83850551"
         style="stop-color:#fcaf3e;stop-opacity:0.50458717;" />
      <stop
         id="stop4040"
         offset="1"
         style="stop-color:#fcaf3e;stop-opacity:1;" />
    </linearGradient>
    <linearGradient
       id="linearGradient4026">
      <stop
         id="stop4028"
         offset="0"
         style="stop-color:#fff9c6;stop-opacity:1" />
      <stop
         style="stop-color:#fff28c;stop-opacity:1;"
         offset="0.54166669"
         id="stop4042" />
      <stop
         id="stop4030"
         offset="1"
         style="stop-color:#ffea85;stop-opacity:1;" />
    </linearGradient>
    <linearGradient
       inkscape:collect="always"
       xlink:href="#linearGradient4026"
       id="linearGradient3168"
       gradientUnits="userSpaceOnUse"
       x1="-28.968945"
       y1="-25.326815"
       x2="-37.19698"
       y2="-9.5590506"
       gradientTransform="matrix(1.2913339,0,0,1.2913354,35.830325,58.379657)" />
    <radialGradient
       inkscape:collect="always"
       xlink:href="#linearGradient4032"
       id="radialGradient4020"
       cx="-33.519073"
       cy="-22.113297"
       fx="-33.519073"
       fy="-22.113297"
       r="9.5"
       gradientUnits="userSpaceOnUse"
       gradientTransform="matrix(0.65318439,1.7513964,-1.4767054,0.67383666,7.7968699,96.439255)" />
    <radialGradient
       inkscape:collect="always"
       xlink:href="#linearGradient4083"
       id="radialGradient4081"
       cx="23.99999"
       cy="23.381506"
       fx="23.99999"
       fy="23.381506"
       r="19.141981"
       gradientTransform="matrix(1.0738144,0,0,1.0746901,-0.17153707,0.4554464)"
       gradientUnits="userSpaceOnUse" />
    <filter
       style="color-interpolation-filters:sRGB;"
       inkscape:label="Drop Shadow"
       id="filter11377"
       width="1.3999999999999999"
       height="1.3999999999999999">
      <feFlood
         flood-opacity="0.498039"
         flood-color="rgb(0,0,0)"
         result="flood"
         id="feFlood11367" />
      <feComposite
         in="flood"
         in2="SourceGraphic"
         operator="in"
         result="composite1"
         id="feComposite11369" />
      <feGaussianBlur
         in="composite1"
         stdDeviation="0.6"
         result="blur"
         id="feGaussianBlur11371" />
      <feOffset
         dx="1"
         dy="1"
         result="offset"
         id="feOffset11373" />
      <feComposite
         in="SourceGraphic"
         in2="offset"
         operator="over"
         result="composite2"
         id="feComposite11375" />
    </filter>
    <filter
       style="color-interpolation-filters:sRGB;"
       inkscape:label="Drop Shadow"
       id="filter11389">
      <feFlood
         flood-opacity="0.498039"
         flood-color="rgb(0,0,0)"
         result="flood"
         id="feFlood11379" />
      <feComposite
         in="flood"
         in2="SourceGraphic"
         operator="in"
         result="composite1"
         id="feComposite11381" />
      <feGaussianBlur
         in="composite1"
         stdDeviation="0.6"
         result="blur"
         id="feGaussianBlur11383" />
      <feOffset
         dx="1"
         dy="1"
         result="offset"
         id="feOffset11385" />
      <feComposite
         in="SourceGraphic"
         in2="offset"
         operator="over"
         result="composite2"
         id="feComposite11387" />
    </filter>
    <filter
       style="color-interpolation-filters:sRGB;"
       inkscape:label="Drop Shadow"
       id="filter11401"
       width="1.3999999999999999"
       height="1.3999999999999999">
      <feFlood
         flood-opacity="0.498039"
         flood-color="rgb(0,0,0)"
         result="flood"
         id="feFlood11391" />
      <feComposite
         in="flood"
         in2="SourceGraphic"
         operator="in"
         result="composite1"
         id="feComposite11393" />
      <feGaussianBlur
         in="composite1"
         stdDeviation="0.6"
         result="blur"
         id="feGaussianBlur11395" />
      <feOffset
         dx="1"
         dy="1"
         result="offset"
         id="feOffset11397" />
      <feComposite
         in="SourceGraphic"
         in2="offset"
         operator="over"
         result="composite2"
         id="feComposite11399" />
    </filter>
  </defs>
  <sodipodi:namedview
     id="base"
     pagecolor="#ffffff"
     bordercolor="#666666"
     borderopacity="1.0"
     inkscape:pageopacity="0.0"
     inkscape:pageshadow="2"
     inkscape:zoom="10.54135"
     inkscape:cx="29.078046"
     inkscape:cy="24.950603"
     inkscape:current-layer="layer1"
     showgrid="true"
     inkscape:grid-bbox="true"
     inkscape:document-units="px"
     inkscape:window-width="1272"
     inkscape:window-height="965"
     inkscape:window-x="28"
     inkscape:window-y="23"
     inkscape:showpageshadow="false"
     inkscape:window-maximized="0" />
  <metadata
     id="metadata1311">
    <rdf:RDF>
      <cc:Work
         rdf:about="">
        <dc:format>image/svg+xml</dc:format>
        <dc:type
           rdf:resource="http://purl.org/dc/dcmitype/StillImage" />
        <dc:title>weather-clear</dc:title>
        <dc:date>January 2006</dc:date>
        <dc:creator>
          <cc:Agent>
            <dc:title>Ryan Collier (pseudo)</dc:title>
          </cc:Agent>
        </dc:creator>
        <dc:publisher>
          <cc:Agent>
            <dc:title>http://www.tango-project.org</dc:title>
          </cc:Agent>
        </dc:publisher>
        <dc:source>http://www.pseudocode.org</dc:source>
        <dc:subject>
          <rdf:Bag>
            <rdf:li>weather</rdf:li>
            <rdf:li>applet</rdf:li>
            <rdf:li>notification</rdf:li>
          </rdf:Bag>
        </dc:subject>
        <cc:license
           rdf:resource="http://creativecommons.org/licenses/by-sa/2.0/" />
        <dc:contributor>
          <cc:Agent>
            <dc:title>Garrett LeSage</dc:title>
          </cc:Agent>
        </dc:contributor>
      </cc:Work>
      <cc:License
         rdf:about="http://creativecommons.org/licenses/by-sa/2.0/">
        <cc:permits
           rdf:resource="http://web.resource.org/cc/Reproduction" />
        <cc:permits
           rdf:resource="http://web.resource.org/cc/Distribution" />
        <cc:requires
           rdf:resource="http://web.resource.org/cc/Notice" />
        <cc:requires
           rdf:resource="http://web.resource.org/cc/Attribution" />
        <cc:permits
           rdf:resource="http://web.resource.org/cc/DerivativeWorks" />
        <cc:requires
           rdf:resource="http://web.resource.org/cc/ShareAlike" />
      </cc:License>
    </rdf:RDF>
  </metadata>
  <g
     id="layer1"
     inkscape:label="Layer 1"
     inkscape:groupmode="layer">
    <g
       id="g6783"
       transform="translate(-281.58933,490.6512)"
       style="filter:url(#filter11401)">
      <path
         sodipodi:nodetypes="ccsscsssscsscc"
         id="path6785"
         d="m 299.2,-475.2 c -2.42222,0 -4.3839,1.65363 -5.03333,3.86667 -0.73945,-0.38809 -1.54081,-0.66667 -2.43334,-0.66667 -2.944,0 -5.33334,2.38932 -5.33333,5.33333 0,0.61753 0.17335,1.18155 0.36667,1.73334 -1.46504,0.82212 -2.5,2.33493 -2.5,4.13333 0,2.6496 2.1504,4.80001 4.8,4.8 0.18894,0 20.07772,0 20.26666,0 2.64959,0 4.8,-2.1504 4.8,-4.8 0,-1.7984 -1.03496,-3.31121 -2.5,-4.13333 0.19333,-0.55178 0.36667,-1.11582 0.36667,-1.73334 0,-2.944 -2.38933,-5.33332 -5.33333,-5.33333 -0.89253,0 -1.69389,0.27858 -2.43334,0.66667 C 303.5839,-473.54637 301.62222,-475.2 299.2,-475.2 Z"
         style="fill:#c4c5c2;fill-opacity:1;stroke:#888a85;stroke-width:1.06666672;stroke-linecap:butt;stroke-linejoin:miter;stroke-miterlimit:2;stroke-dasharray:none;stroke-dashoffset:0;stroke-opacity:1"
         inkscape:connector-curvature="0" />
      <path
         sodipodi:nodetypes="ccsscsssscsscc"
         id="path6787"
         d="m 299.2,-474.66667 c -2.3357,0 -3.97184,1.42482 -4.68859,4.09976 -0.71302,-0.36653 -1.65076,-0.88891 -2.51141,-0.88891 -2.89761,0 -5.07215,2.06808 -5.07214,4.84858 0,0.58322 0.28503,1.42233 0.47143,1.94347 -1.41273,0.77648 -2.59929,2.01654 -2.59929,3.59739 0,2.50245 1.64925,4.53343 4.62857,4.53343 0.18219,0 19.36068,0 19.54286,0 2.95575,0 4.62857,-2.03098 4.62857,-4.53343 0,-1.69853 -1.18656,-2.84447 -2.59929,-3.62095 0.18642,-0.52113 0.49501,-1.3367 0.49501,-1.91991 0,-2.78049 -2.25686,-4.87214 -5.09571,-4.87215 -0.86066,0 -1.75126,0.52239 -2.46429,0.88892 -0.6921,-2.58298 -2.40001,-4.0762 -4.73572,-4.0762 z"
         style="opacity:1;fill:url(#linearGradient6827);fill-opacity:1;stroke:none;stroke-width:1.06666625;stroke-linecap:butt;stroke-linejoin:miter;stroke-miterlimit:2;stroke-dasharray:none;stroke-dashoffset:0;stroke-opacity:1"
         inkscape:connector-curvature="0" />
      <g
         id="g6789">
        <circle
           style="opacity:1;fill:#c4c5c2;fill-opacity:1;stroke:none;stroke-width:1.12704432;stroke-linecap:butt;stroke-linejoin:miter;stroke-miterlimit:2;stroke-dasharray:none;stroke-dashoffset:0;stroke-opacity:1"
           id="path6791"
           cx="299.20001"
           cy="-469.86667"
           r="3.7333341" />
        <circle
           style="opacity:1;fill:url(#linearGradient6829);fill-opacity:1;stroke:none;stroke-width:1.12704432;stroke-linecap:butt;stroke-linejoin:miter;stroke-miterlimit:2;stroke-dasharray:none;stroke-dashoffset:0;stroke-opacity:1"
           id="path6793"
           cx="299.20001"
           cy="-469.86667"
           r="3.7333341" />
      </g>
      <rect
         y="-467.20001"
         x="289.06668"
         height="9.6000004"
         width="21.333334"
         id="rect6795"
         style="opacity:1;fill:#c4c5c2;fill-opacity:1;stroke:none;stroke-width:1.06666672;stroke-linecap:butt;stroke-linejoin:miter;stroke-miterlimit:2;stroke-dasharray:none;stroke-dashoffset:0;stroke-opacity:1" />
      <circle
         id="path6797"
         style="opacity:1;fill:#c4c5c2;fill-opacity:1;stroke:none;stroke-width:0.96603733;stroke-linecap:butt;stroke-linejoin:miter;stroke-miterlimit:2;stroke-dasharray:none;stroke-dashoffset:0;stroke-opacity:1"
         cx="289.06656"
         cy="-460.79984"
         r="3.1999986" />
      <g
         id="g6799">
        <circle
           style="opacity:1;fill:#c4c5c2;fill-opacity:1;stroke:none;stroke-width:1.12704432;stroke-linecap:butt;stroke-linejoin:miter;stroke-miterlimit:2;stroke-dasharray:none;stroke-dashoffset:0;stroke-opacity:1"
           id="path6801"
           cx="306.66675"
           cy="-466.66678"
           r="3.7333341" />
        <circle
           style="opacity:1;fill:url(#linearGradient6831);fill-opacity:1;stroke:none;stroke-width:1.12704432;stroke-linecap:butt;stroke-linejoin:miter;stroke-miterlimit:2;stroke-dasharray:none;stroke-dashoffset:0;stroke-opacity:1"
           id="path6803"
           cx="306.66666"
           cy="-466.66666"
           r="3.7333341" />
      </g>
      <g
         id="g6805">
        <circle
           style="opacity:1;fill:#c4c5c2;fill-opacity:1;stroke:none;stroke-width:1.12704432;stroke-linecap:butt;stroke-linejoin:miter;stroke-miterlimit:2;stroke-dasharray:none;stroke-dashoffset:0;stroke-opacity:1"
           id="path6807"
           cx="291.73334"
           cy="-466.66666"
           r="3.7333341" />
        <circle
           style="opacity:1;fill:url(#linearGradient6833);fill-opacity:1;stroke:none;stroke-width:1.12704432;stroke-linecap:butt;stroke-linejoin:miter;stroke-miterlimit:2;stroke-dasharray:none;stroke-dashoffset:0;stroke-opacity:1"
           id="path6809"
           cx="291.73334"
           cy="-466.66666"
           r="3.7333341" />
      </g>
      <g
         transform="translate(-1.0666667)"
         id="g6811">
        <path
           style="opacity:1;fill:#c4c5c2;fill-opacity:1;stroke:none;stroke-width:1.06666672;stroke-linecap:butt;stroke-linejoin:miter;stroke-miterlimit:2;stroke-dasharray:none;stroke-dashoffset:0;stroke-opacity:1"
           d="m 299.16667,-470.36667 c -3.81801,0 -6.9,3.11534 -6.9,6.93334 0,2.52872 1.43939,4.62697 3.46666,5.83333 h 6.9 c 2.02728,-1.20636 3.46667,-3.33793 3.46667,-5.86667 0,-3.818 -3.11534,-6.9 -6.93333,-6.9 z"
           id="path6813"
           inkscape:connector-curvature="0" />
        <path
           style="opacity:1;fill:url(#linearGradient6835);fill-opacity:1;stroke:none;stroke-width:1.06666672;stroke-linecap:butt;stroke-linejoin:miter;stroke-miterlimit:2;stroke-dasharray:none;stroke-dashoffset:0;stroke-opacity:1"
           d="m 299.2,-470.4 c -3.8272,0 -6.93333,3.10614 -6.93333,6.93333 0,2.53483 1.4345,4.65741 3.46666,5.86667 h 6.93334 c 2.03216,-1.20926 3.46666,-3.33184 3.46666,-5.86667 0,-3.8272 -3.10613,-6.93332 -6.93333,-6.93333 z"
           id="path6815"
           inkscape:connector-curvature="0" />
      </g>
      <circle
         id="path6817"
         style="opacity:1;fill:url(#linearGradient6837);fill-opacity:1;stroke:none;stroke-width:0.96603733;stroke-linecap:butt;stroke-linejoin:miter;stroke-miterlimit:2;stroke-dasharray:none;stroke-dashoffset:0;stroke-opacity:1"
         cx="289.06665"
         cy="-460.79999"
         r="3.1999986" />
      <path
         sodipodi:nodetypes="ccss"
         id="path6819"
         d="m 312.48683,-466.48956 c -0.002,2.86353 -3.48721,3.96155 -3.48721,3.96155 0,0 2.50532,-1.73435 2.49264,-3.95201 0,0 0.99457,-0.01 0.99457,-0.01 z"
         style="fill:#888a85;fill-opacity:1;fill-rule:evenodd;stroke:none;stroke-width:1.06666672px;stroke-linecap:butt;stroke-linejoin:miter;stroke-opacity:1"
         inkscape:connector-curvature="0" />
      <g
         transform="matrix(1.142857,0,0,1.142857,-30.476149,71.466752)"
         id="g6821">
        <circle
           style="opacity:1;fill:#c4c5c2;fill-opacity:1;stroke:none;stroke-width:1.12704432;stroke-linecap:butt;stroke-linejoin:miter;stroke-miterlimit:2;stroke-dasharray:none;stroke-dashoffset:0;stroke-opacity:1"
           id="path6823"
           cx="291.73334"
           cy="-466.66666"
           r="3.7333341" />
        <circle
           style="opacity:1;fill:url(#linearGradient6839);fill-opacity:1;stroke:none;stroke-width:1.12704432;stroke-linecap:butt;stroke-linejoin:miter;stroke-miterlimit:2;stroke-dasharray:none;stroke-dashoffset:0;stroke-opacity:1"
           id="path6825"
           cx="291.73334"
           cy="-466.66666"
           r="3.7333341" />
      </g>
    </g>
    <g
       id="g3936"
       style="filter:url(#filter11389)">
      <g
         style="opacity:0.7"
         id="g4091">
        <path
           style="fill:#fce94f;fill-opacity:1;stroke:#fcaf3e;stroke-width:0.78648418;stroke-linecap:square;stroke-linejoin:miter;stroke-miterlimit:4;stroke-dasharray:none;stroke-opacity:1"
           d="M 25.6,2.6666667 23.066667,9.8 C 23.892303,9.6684073 24.7375,9.6 25.6,9.6 c 0.8625,0 1.707697,0.068408 2.533333,0.2 z m -16.2,6.7 3.233333,6.8666663 c 0.997637,-1.376193 2.223807,-2.602363 3.6,-3.6 z m 32.433333,0 -6.866666,3.2666663 c 1.376193,0.997637 2.602363,2.223807 3.6,3.6 z M 9.8,23.033333 2.6666667,25.566667 9.8,28.1 C 9.6718265,27.284821 9.6,26.451001 9.6,25.6 c 0,-0.874 0.064945,-1.730591 0.2,-2.566667 z m 31.6,0.03333 c 0.131593,0.825636 0.2,1.670833 0.2,2.533333 0,0.8625 -0.0684,1.707697 -0.2,2.533333 L 48.533333,25.6 Z m -28.766667,11.9 L 9.4,41.8 16.233333,38.566667 c -1.376193,-0.997637 -2.602363,-2.223807 -3.6,-3.6 z m 25.933334,0 C 37.578442,36.329877 36.360125,37.541119 35,38.533333 L 41.833333,41.8 Z M 23.066667,41.4 25.6,48.533333 28.133333,41.4 C 27.307697,41.531593 26.4625,41.6 25.6,41.6 c -0.8625,0 -1.707697,-0.0684 -2.533333,-0.2 z"
           id="path7492"
           inkscape:connector-curvature="0" />
        <path
           style="fill:none;fill-opacity:1;stroke:url(#radialGradient4081);stroke-width:0.9028933;stroke-linecap:square;stroke-linejoin:miter;stroke-miterlimit:4;stroke-dasharray:none;stroke-opacity:1"
           d="M 25.6,5.6 24.166667,9.6666667 C 24.638814,9.6246918 25.116999,9.6 25.6,9.6 c 0.483001,0 0.961186,0.024692 1.433333,0.066667 z m -14.1,5.866667 1.833333,3.866666 C 13.942974,14.607028 14.638938,13.907995 15.366667,13.3 Z m 28.233333,0 L 35.866667,13.3 c 0.724986,0.607402 1.425931,1.308347 2.033333,2.033333 z M 9.6666667,24.133333 5.6333333,25.566667 9.6666667,27 C 9.6266464,26.538822 9.6,26.0715 9.6,25.6 c 0,-0.4945 0.022692,-0.983565 0.066667,-1.466667 z m 31.8666663,0.03333 C 41.575308,24.638814 41.6,25.116999 41.6,25.6 c 0,0.483001 -0.02469,0.961186 -0.06667,1.433333 L 45.566667,25.6 Z M 37.9,35.833333 C 37.288846,36.564843 36.597317,37.287854 35.866667,37.9 l 3.866666,1.833333 z M 13.333333,35.866667 11.5,39.7 15.333333,37.866667 c -0.716872,-0.601724 -1.398276,-1.283128 -2,-2 z M 24.166667,41.533333 25.6,45.566667 27.033333,41.533333 C 26.561186,41.575308 26.083001,41.6 25.6,41.6 c -0.483001,0 -0.961186,-0.02469 -1.433333,-0.06667 z"
           id="path7494"
           inkscape:connector-curvature="0" />
      </g>
      <g
         id="g4046">
        <g
           id="g3931">
          <ellipse
             inkscape:r_cy="true"
             inkscape:r_cx="true"
             transform="rotate(-53.753664)"
             id="path7498"
             style="fill:#ffee54;fill-opacity:1;stroke:#fcaf3e;stroke-width:1.06666803;stroke-linecap:square;stroke-linejoin:miter;stroke-miterlimit:4;stroke-dasharray:none;stroke-opacity:1"
             cx="-5.4923563"
             cy="35.781307"
             rx="13.33489"
             ry="13.334907" />
          <ellipse
             inkscape:r_cy="true"
             inkscape:r_cx="true"
             transform="matrix(0.99103844,-0.13357697,0.17052362,0.98535359,0,0)"
             id="path7500"
             style="fill:url(#radialGradient4020);fill-opacity:1;stroke:none;stroke-width:1.37056649;stroke-linecap:square;stroke-linejoin:miter;stroke-miterlimit:4;stroke-dasharray:none;stroke-opacity:1"
             cx="20.886204"
             cy="28.797134"
             rx="12.722485"
             ry="12.873909" />
          <ellipse
             inkscape:r_cy="true"
             inkscape:r_cx="true"
             transform="rotate(-53.753729)"
             id="path7502"
             style="fill:none;fill-opacity:1;stroke:url(#linearGradient3168);stroke-width:1.06666756;stroke-linecap:square;stroke-linejoin:miter;stroke-miterlimit:4;stroke-dasharray:none;stroke-opacity:1"
             cx="-5.4923587"
             cy="35.781288"
             rx="12.267672"
             ry="12.267686" />
        </g>
      </g>
    </g>
    <g
       id="g6668"
       transform="translate(-265.58933,499.18453)"
       style="filter:url(#filter11377)">
      <path
         sodipodi:nodetypes="ccsscsssscsscc"
         id="path6670"
         d="m 299.2,-475.2 c -2.42222,0 -4.3839,1.65363 -5.03333,3.86667 -0.73945,-0.38809 -1.54081,-0.66667 -2.43334,-0.66667 -2.944,0 -5.33334,2.38932 -5.33333,5.33333 0,0.61753 0.17335,1.18155 0.36667,1.73334 -1.46504,0.82212 -2.5,2.33493 -2.5,4.13333 0,2.6496 2.1504,4.80001 4.8,4.8 0.18894,0 20.07772,0 20.26666,0 2.64959,0 4.8,-2.1504 4.8,-4.8 0,-1.7984 -1.03496,-3.31121 -2.5,-4.13333 0.19333,-0.55178 0.36667,-1.11582 0.36667,-1.73334 0,-2.944 -2.38933,-5.33332 -5.33333,-5.33333 -0.89253,0 -1.69389,0.27858 -2.43334,0.66667 C 303.5839,-473.54637 301.62222,-475.2 299.2,-475.2 Z"
         style="fill:#c4c5c2;fill-opacity:1;stroke:#888a85;stroke-width:1.06666672;stroke-linecap:butt;stroke-linejoin:miter;stroke-miterlimit:2;stroke-dasharray:none;stroke-dashoffset:0;stroke-opacity:1"
         inkscape:connector-curvature="0" />
      <path
         sodipodi:nodetypes="ccsscsssscsscc"
         id="path6672"
         d="m 299.2,-474.66667 c -2.3357,0 -3.97184,1.42482 -4.68859,4.09976 -0.71302,-0.36653 -1.65076,-0.88891 -2.51141,-0.88891 -2.89761,0 -5.07215,2.06808 -5.07214,4.84858 0,0.58322 0.28503,1.42233 0.47143,1.94347 -1.41273,0.77648 -2.59929,2.01654 -2.59929,3.59739 0,2.50245 1.64925,4.53343 4.62857,4.53343 0.18219,0 19.36068,0 19.54286,0 2.95575,0 4.62857,-2.03098 4.62857,-4.53343 0,-1.69853 -1.18656,-2.84447 -2.59929,-3.62095 0.18642,-0.52113 0.49501,-1.3367 0.49501,-1.91991 0,-2.78049 -2.25686,-4.87214 -5.09571,-4.87215 -0.86066,0 -1.75126,0.52239 -2.46429,0.88892 -0.6921,-2.58298 -2.40001,-4.0762 -4.73572,-4.0762 z"
         style="opacity:1;fill:url(#linearGradient6712);fill-opacity:1;stroke:none;stroke-width:1.06666625;stroke-linecap:butt;stroke-linejoin:miter;stroke-miterlimit:2;stroke-dasharray:none;stroke-dashoffset:0;stroke-opacity:1"
         inkscape:connector-curvature="0" />
      <g
         id="g6674">
        <circle
           style="opacity:1;fill:#c4c5c2;fill-opacity:1;stroke:none;stroke-width:1.12704432;stroke-linecap:butt;stroke-linejoin:miter;stroke-miterlimit:2;stroke-dasharray:none;stroke-dashoffset:0;stroke-opacity:1"
           id="path6676"
           cx="299.20001"
           cy="-469.86667"
           r="3.7333341" />
        <circle
           style="opacity:1;fill:url(#linearGradient6714);fill-opacity:1;stroke:none;stroke-width:1.12704432;stroke-linecap:butt;stroke-linejoin:miter;stroke-miterlimit:2;stroke-dasharray:none;stroke-dashoffset:0;stroke-opacity:1"
           id="path6678"
           cx="299.20001"
           cy="-469.86667"
           r="3.7333341" />
      </g>
      <rect
         y="-467.20001"
         x="289.06668"
         height="9.6000004"
         width="21.333334"
         id="rect6680"
         style="opacity:1;fill:#c4c5c2;fill-opacity:1;stroke:none;stroke-width:1.06666672;stroke-linecap:butt;stroke-linejoin:miter;stroke-miterlimit:2;stroke-dasharray:none;stroke-dashoffset:0;stroke-opacity:1" />
      <circle
         id="path6682"
         style="opacity:1;fill:#c4c5c2;fill-opacity:1;stroke:none;stroke-width:0.96603733;stroke-linecap:butt;stroke-linejoin:miter;stroke-miterlimit:2;stroke-dasharray:none;stroke-dashoffset:0;stroke-opacity:1"
         cx="289.06656"
         cy="-460.79984"
         r="3.1999986" />
      <g
         id="g6684">
        <circle
           style="opacity:1;fill:#c4c5c2;fill-opacity:1;stroke:none;stroke-width:1.12704432;stroke-linecap:butt;stroke-linejoin:miter;stroke-miterlimit:2;stroke-dasharray:none;stroke-dashoffset:0;stroke-opacity:1"
           id="path6686"
           cx="306.66675"
           cy="-466.66678"
           r="3.7333341" />
        <circle
           style="opacity:1;fill:url(#linearGradient6716);fill-opacity:1;stroke:none;stroke-width:1.12704432;stroke-linecap:butt;stroke-linejoin:miter;stroke-miterlimit:2;stroke-dasharray:none;stroke-dashoffset:0;stroke-opacity:1"
           id="path6688"
           cx="306.66666"
           cy="-466.66666"
           r="3.7333341" />
      </g>
      <g
         id="g6690">
        <circle
           style="opacity:1;fill:#c4c5c2;fill-opacity:1;stroke:none;stroke-width:1.12704432;stroke-linecap:butt;stroke-linejoin:miter;stroke-miterlimit:2;stroke-dasharray:none;stroke-dashoffset:0;stroke-opacity:1"
           id="path6692"
           cx="291.73334"
           cy="-466.66666"
           r="3.7333341" />
        <circle
           style="opacity:1;fill:url(#linearGradient6718);fill-opacity:1;stroke:none;stroke-width:1.12704432;stroke-linecap:butt;stroke-linejoin:miter;stroke-miterlimit:2;stroke-dasharray:none;stroke-dashoffset:0;stroke-opacity:1"
           id="path6694"
           cx="291.73334"
           cy="-466.66666"
           r="3.7333341" />
      </g>
      <g
         transform="translate(-1.0666667)"
         id="g6696">
        <path
           style="opacity:1;fill:#c4c5c2;fill-opacity:1;stroke:none;stroke-width:1.06666672;stroke-linecap:butt;stroke-linejoin:miter;stroke-miterlimit:2;stroke-dasharray:none;stroke-dashoffset:0;stroke-opacity:1"
           d="m 299.16667,-470.36667 c -3.81801,0 -6.9,3.11534 -6.9,6.93334 0,2.52872 1.43939,4.62697 3.46666,5.83333 h 6.9 c 2.02728,-1.20636 3.46667,-3.33793 3.46667,-5.86667 0,-3.818 -3.11534,-6.9 -6.93333,-6.9 z"
           id="path6698"
           inkscape:connector-curvature="0" />
        <path
           style="opacity:1;fill:url(#linearGradient6720);fill-opacity:1;stroke:none;stroke-width:1.06666672;stroke-linecap:butt;stroke-linejoin:miter;stroke-miterlimit:2;stroke-dasharray:none;stroke-dashoffset:0;stroke-opacity:1"
           d="m 299.2,-470.4 c -3.8272,0 -6.93333,3.10614 -6.93333,6.93333 0,2.53483 1.4345,4.65741 3.46666,5.86667 h 6.93334 c 2.03216,-1.20926 3.46666,-3.33184 3.46666,-5.86667 0,-3.8272 -3.10613,-6.93332 -6.93333,-6.93333 z"
           id="path6700"
           inkscape:connector-curvature="0" />
      </g>
      <circle
         id="path6702"
         style="opacity:1;fill:url(#linearGradient6722);fill-opacity:1;stroke:none;stroke-width:0.96603733;stroke-linecap:butt;stroke-linejoin:miter;stroke-miterlimit:2;stroke-dasharray:none;stroke-dashoffset:0;stroke-opacity:1"
         cx="289.06665"
         cy="-460.79999"
         r="3.1999986" />
      <path
         sodipodi:nodetypes="ccss"
         id="path6704"
         d="m 312.48683,-466.48956 c -0.002,2.86353 -3.48721,3.96155 -3.48721,3.96155 0,0 2.50532,-1.73435 2.49264,-3.95201 0,0 0.99457,-0.01 0.99457,-0.01 z"
         style="fill:#888a85;fill-opacity:1;fill-rule:evenodd;stroke:none;stroke-width:1.06666672px;stroke-linecap:butt;stroke-linejoin:miter;stroke-opacity:1"
         inkscape:connector-curvature="0" />
      <g
         transform="matrix(1.142857,0,0,1.142857,-30.476149,71.466752)"
         id="g6706">
        <circle
           style="opacity:1;fill:#c4c5c2;fill-opacity:1;stroke:none;stroke-width:1.12704432;stroke-linecap:butt;stroke-linejoin:miter;stroke-miterlimit:2;stroke-dasharray:none;stroke-dashoffset:0;stroke-opacity:1"
           id="path6708"
           cx="291.73334"
           cy="-466.66666"
           r="3.7333341" />
        <circle
           style="opacity:1;fill:url(#linearGradient6724);fill-opacity:1;stroke:none;stroke-width:1.12704432;stroke-linecap:butt;stroke-linejoin:miter;stroke-miterlimit:2;stroke-dasharray:none;stroke-dashoffset:0;stroke-opacity:1"
           id="path6710"
           cx="291.73334"
           cy="-466.66666"
           r="3.7333341" />
      </g>
    </g>
  </g>
</svg>
