<?xml version="1.0" encoding="UTF-8" standalone="no"?>
<svg
   xmlns:dc="http://purl.org/dc/elements/1.1/"
   xmlns:cc="http://creativecommons.org/ns#"
   xmlns:rdf="http://www.w3.org/1999/02/22-rdf-syntax-ns#"
   xmlns:svg="http://www.w3.org/2000/svg"
   xmlns="http://www.w3.org/2000/svg"
   xmlns:xlink="http://www.w3.org/1999/xlink"
   xmlns:sodipodi="http://sodipodi.sourceforge.net/DTD/sodipodi-0.dtd"
   xmlns:inkscape="http://www.inkscape.org/namespaces/inkscape"
   version="1.1"
   viewBox="100 133 53.25 61.5"
   width="71"
   height="82"
   id="svg5325"
   sodipodi:docname="carAccident_medium.svg"
   inkscape:export-filename="/home/mognom/Git/orion/ngsi-datamodel2poi-operator/src/images/alerts/traffic/carAccident_medium.png"
   inkscape:export-xdpi="134.3662"
   inkscape:export-ydpi="134.3662"
   inkscape:version="0.91 r13725">
  <sodipodi:namedview
     pagecolor="#ffffff"
     bordercolor="#666666"
     borderopacity="1"
     objecttolerance="10"
     gridtolerance="10"
     guidetolerance="10"
     inkscape:pageopacity="0"
     inkscape:pageshadow="2"
     inkscape:window-width="1920"
     inkscape:window-height="1056"
     id="namedview5327"
     showgrid="false"
     units="px"
     fit-margin-top="0"
     fit-margin-left="0"
     fit-margin-right="0"
     fit-margin-bottom="0"
     inkscape:zoom="3.6875001"
     inkscape:cx="25.059666"
     inkscape:cy="7.1804405"
     inkscape:window-x="0"
     inkscape:window-y="24"
     inkscape:window-maximized="1"
     inkscape:current-layer="svg5325" />
  <metadata
     id="metadata5244">
    <dc:date>2017-02-14 20:31Z</dc:date>
    <!-- Produced by OmniGraffle Professional 5.4.2 -->
    <rdf:RDF>
      <cc:Work
         rdf:about="">
        <dc:format>image/svg+xml</dc:format>
        <dc:type
           rdf:resource="http://purl.org/dc/dcmitype/StillImage" />
        <dc:title></dc:title>
      </cc:Work>
    </rdf:RDF>
  </metadata>
  <defs
     id="defs5279">
    <linearGradient
       x1="0"
       x2="1"
       id="Gradient"
       gradientUnits="userSpaceOnUse">
      <stop
         offset="0"
         stop-color="#a1a1a1"
         id="stop5246" />
      <stop
         offset=".5"
         stop-color="#d3ddda"
         id="stop5248" />
      <stop
         offset="1"
         stop-color="#333"
         id="stop5250" />
    </linearGradient>
    <linearGradient
       id="Obj_Gradient"
       xlink:href="#Gradient"
       gradientTransform="matrix(-9.6901415,0,0,-9.6901415,151.86676,195.96937)" />
    <radialGradient
       cx="0"
       cy="0"
       r="1"
       id="Gradient_2"
       gradientUnits="userSpaceOnUse">
      <stop
         offset="0"
         stop-color="#333"
         id="stop5254" />
      <stop
         offset="1"
         stop-color="#fefcff"
         id="stop5256" />
    </radialGradient>
    <radialGradient
       id="Obj_Gradient_2"
       xlink:href="#Gradient_2"
       gradientTransform="matrix(11.294566,-3.8890311,3.8890311,11.294566,152.17186,169.50531)" />
    <radialGradient
       cx="0"
       cy="0"
       r="1"
       id="Gradient_3"
       gradientUnits="userSpaceOnUse">
      <stop
         offset="0"
         stop-color="#333"
         id="stop5260" />
      <stop
         offset="1"
         stop-color="#858586"
         id="stop5262" />
    </radialGradient>
    <radialGradient
       id="Obj_Gradient_3"
       xlink:href="#Gradient_3"
       gradientTransform="matrix(8.5071218,-2.929237,2.929237,8.5071218,143.84009,168.83939)" />
    <radialGradient
       cx="0"
       cy="0"
       r="1"
       id="Gradient_4"
       gradientUnits="userSpaceOnUse">
      <stop
         offset="0"
         stop-color="#fefcff"
         id="stop5266" />
      <stop
         offset="1"
         stop-color="#333"
         id="stop5268" />
    </radialGradient>
    <radialGradient
       id="Obj_Gradient_4"
       xlink:href="#Gradient_4"
       gradientTransform="matrix(-5.2298003,-17.640525,13.831792,-4.1006441,127.07119,190.8652)"
       fx="0.53321111"
       fy="0.55251503"
       cx="0.53321111"
       cy="0.55251503" />
    <radialGradient
       id="Obj_Gradient_5"
       xlink:href="#Gradient_3"
       gradientTransform="matrix(10.232955,-3.523489,3.523489,10.232955,142.2044,184.12234)" />
    <radialGradient
       cx="0"
       cy="0"
       r="1"
       id="Gradient_5"
       gradientUnits="userSpaceOnUse">
      <stop
         offset="0"
         stop-color="#fbfcff"
         id="stop5273" />
      <stop
         offset="1"
         stop-color="#333"
         id="stop5275" />
    </radialGradient>
    <radialGradient
       id="Obj_Gradient_6"
       xlink:href="#Gradient_5"
       gradientTransform="matrix(7.9377967,1.1155846,-1.1155846,7.9377967,162.65024,176.08292)"
       fx="0.021611352"
       fy="0.048555344"
       cx="0.021611352"
       cy="0.048555344" />
    <filter
       style="color-interpolation-filters:sRGB;"
       inkscape:label="Drop Shadow"
       id="filter6193">
      <feFlood
         flood-opacity="0.498039"
         flood-color="rgb(0,0,0)"
         result="flood"
         id="feFlood6183" />
      <feComposite
         in="flood"
         in2="SourceGraphic"
         operator="in"
         result="composite1"
         id="feComposite6185" />
      <feGaussianBlur
         in="composite1"
         stdDeviation="1"
         result="blur"
         id="feGaussianBlur6187" />
      <feOffset
         dx="1"
         dy="1"
         result="offset"
         id="feOffset6189" />
      <feComposite
         in="SourceGraphic"
         in2="offset"
         operator="over"
         result="composite2"
         id="feComposite6191" />
    </filter>
  </defs>
  <path
     style="fill:#eec20b;fill-opacity:1;stroke:#333333;stroke-width:2.09588695;stroke-linecap:round;stroke-linejoin:round;stroke-dasharray:none;stroke-opacity:1;filter:url(#filter6193)"
     d="m 151.07706,159.20895 c 0,13.5045 -24.45206,33.53419 -24.45206,33.53419 0,0 -24.45206,-20.02969 -24.45206,-33.53419 0,-13.5045 10.94756,-24.45206 24.45206,-24.45206 13.5045,0 24.45206,10.94756 24.45206,24.45206 z"
     id="circle5287"
     inkscape:connector-curvature="0"
     sodipodi:nodetypes="scsss"
     transform="matrix(0.93294792,0,0,0.93294792,8.4904676,10.979762)" />
  <path
     inkscape:connector-curvature="0"
     d="m 118.83902,144.89171 c 0,0.12911 0.0185,0.26165 0.055,0.39391 l 0.41232,1.49671 -3.78603,1.5542 c -1.07264,0.44018 -1.94519,1.74183 -1.94519,2.90124 l 0,14.5454 c 0,1.15951 0.87255,2.46105 1.94519,2.90124 l 3.78086,1.55217 -0.40715,1.47792 c -0.0364,0.13214 -0.055,0.2648 -0.055,0.39379 0,0.70724 0.5403,1.22069 1.28487,1.22069 l 0.8825,0 c 0.86917,0 1.57615,-0.707 1.57615,-1.57614 l 0,-0.16922 0.61104,0.25079 c 0.99663,0.40904 2.6836,0.74181 3.76081,0.74181 l 7.52148,0 c 0.86914,0 1.57613,-0.70712 1.57613,-1.57615 l 0,-2.05856 c 0,-0.86917 -0.70699,-1.57614 -1.57613,-1.57614 l -1.87839,0 0,-17.71006 1.87839,0 c 0.86914,0 1.57613,-0.70699 1.57613,-1.57613 l 0,-2.05845 c 0,-0.86914 -0.70699,-1.57613 -1.57613,-1.57613 l -7.52148,0 c -1.07708,0 -2.76418,0.33275 -3.76081,0.74192 l -0.61104,0.25078 0,-0.19015 c 0,-0.869 -0.70698,-1.57614 -1.57615,-1.57614 l -0.8825,0 c -0.74457,0 -1.28487,0.51332 -1.28487,1.22069 z m 2.88737,24.21458 -5.72671,-2.35097 c -0.64154,-0.2634 -1.16645,-1.0463 -1.16645,-1.7398 l 0,-13.01037 c 0,-0.69349 0.52491,-1.4764 1.16645,-1.73968 l 5.72671,-2.35098 c 0.64154,-0.2634 1.16646,0.0885 1.16646,0.78203 l 0,19.62762 c 0,0.69351 -0.52492,1.04543 -1.16646,0.78215 z m 7.24345,-5.24829 c 0.34673,0 0.63045,0.28371 0.63045,0.63044 l 0,4.46617 c 0,0.34675 -0.28372,0.63046 -0.63045,0.63046 l -2.14344,0 c -0.34675,0 -0.63046,-0.28371 -0.63046,-0.63046 l 0,-4.46617 c 0,-0.34673 0.28371,-0.63044 0.63046,-0.63044 l 2.14344,0 z m 0,-16.38003 c 0.34673,0 0.63045,0.28371 0.63045,0.63045 l 0,4.46605 c 0,0.34675 -0.28372,0.63044 -0.63045,0.63044 l -2.14344,0 c -0.34675,0 -0.63046,-0.28369 -0.63046,-0.63044 l 0,-4.46605 c 0,-0.34674 0.28371,-0.63045 0.63046,-0.63045 l 2.14344,0 z"
     id="path3710"
     style="fill:#ffffff" />
</svg>
