<?xml version="1.0" encoding="UTF-8" standalone="no"?>
<svg
   xmlns:dc="http://purl.org/dc/elements/1.1/"
   xmlns:cc="http://creativecommons.org/ns#"
   xmlns:rdf="http://www.w3.org/1999/02/22-rdf-syntax-ns#"
   xmlns:svg="http://www.w3.org/2000/svg"
   xmlns="http://www.w3.org/2000/svg"
   xmlns:xlink="http://www.w3.org/1999/xlink"
   xmlns:sodipodi="http://sodipodi.sourceforge.net/DTD/sodipodi-0.dtd"
   xmlns:inkscape="http://www.inkscape.org/namespaces/inkscape"
   version="1.1"
   viewBox="100 133 53.25 61.5"
   width="71"
   height="82"
   id="svg5325"
   sodipodi:docname="pothole_medium.svg"
   inkscape:export-filename="/home/mognom/Git/orion/ngsi-datamodel2poi-operator/src/images/alerts/traffic/pothole_medium.png"
   inkscape:export-xdpi="134.3662"
   inkscape:export-ydpi="134.3662"
   inkscape:version="0.91 r13725">
  <sodipodi:namedview
     pagecolor="#ffffff"
     bordercolor="#666666"
     borderopacity="1"
     objecttolerance="10"
     gridtolerance="10"
     guidetolerance="10"
     inkscape:pageopacity="0"
     inkscape:pageshadow="2"
     inkscape:window-width="1920"
     inkscape:window-height="1056"
     id="namedview5327"
     showgrid="false"
     units="px"
     fit-margin-top="0"
     fit-margin-left="0"
     fit-margin-right="0"
     fit-margin-bottom="0"
     inkscape:zoom="3.6875001"
     inkscape:cx="25.059666"
     inkscape:cy="28.875355"
     inkscape:window-x="0"
     inkscape:window-y="24"
     inkscape:window-maximized="1"
     inkscape:current-layer="svg5325" />
  <metadata
     id="metadata5244">
    <dc:date>2017-02-14 20:31Z</dc:date>
    <!-- Produced by OmniGraffle Professional 5.4.2 -->
    <rdf:RDF>
      <cc:Work
         rdf:about="">
        <dc:format>image/svg+xml</dc:format>
        <dc:type
           rdf:resource="http://purl.org/dc/dcmitype/StillImage" />
        <dc:title></dc:title>
      </cc:Work>
    </rdf:RDF>
  </metadata>
  <defs
     id="defs5279">
    <linearGradient
       x1="0"
       x2="1"
       id="Gradient"
       gradientUnits="userSpaceOnUse">
      <stop
         offset="0"
         stop-color="#a1a1a1"
         id="stop5246" />
      <stop
         offset=".5"
         stop-color="#d3ddda"
         id="stop5248" />
      <stop
         offset="1"
         stop-color="#333"
         id="stop5250" />
    </linearGradient>
    <linearGradient
       id="Obj_Gradient"
       xlink:href="#Gradient"
       gradientTransform="matrix(-9.6901415,0,0,-9.6901415,151.86676,195.96937)" />
    <radialGradient
       cx="0"
       cy="0"
       r="1"
       id="Gradient_2"
       gradientUnits="userSpaceOnUse">
      <stop
         offset="0"
         stop-color="#333"
         id="stop5254" />
      <stop
         offset="1"
         stop-color="#fefcff"
         id="stop5256" />
    </radialGradient>
    <radialGradient
       id="Obj_Gradient_2"
       xlink:href="#Gradient_2"
       gradientTransform="matrix(11.294566,-3.8890311,3.8890311,11.294566,152.17186,169.50531)" />
    <radialGradient
       cx="0"
       cy="0"
       r="1"
       id="Gradient_3"
       gradientUnits="userSpaceOnUse">
      <stop
         offset="0"
         stop-color="#333"
         id="stop5260" />
      <stop
         offset="1"
         stop-color="#858586"
         id="stop5262" />
    </radialGradient>
    <radialGradient
       id="Obj_Gradient_3"
       xlink:href="#Gradient_3"
       gradientTransform="matrix(8.5071218,-2.929237,2.929237,8.5071218,143.84009,168.83939)" />
    <radialGradient
       cx="0"
       cy="0"
       r="1"
       id="Gradient_4"
       gradientUnits="userSpaceOnUse">
      <stop
         offset="0"
         stop-color="#fefcff"
         id="stop5266" />
      <stop
         offset="1"
         stop-color="#333"
         id="stop5268" />
    </radialGradient>
    <radialGradient
       id="Obj_Gradient_4"
       xlink:href="#Gradient_4"
       gradientTransform="matrix(-5.2298003,-17.640525,13.831792,-4.1006441,127.07119,190.8652)"
       fx="0.53321111"
       fy="0.55251503"
       cx="0.53321111"
       cy="0.55251503" />
    <radialGradient
       id="Obj_Gradient_5"
       xlink:href="#Gradient_3"
       gradientTransform="matrix(10.232955,-3.523489,3.523489,10.232955,142.2044,184.12234)" />
    <radialGradient
       cx="0"
       cy="0"
       r="1"
       id="Gradient_5"
       gradientUnits="userSpaceOnUse">
      <stop
         offset="0"
         stop-color="#fbfcff"
         id="stop5273" />
      <stop
         offset="1"
         stop-color="#333"
         id="stop5275" />
    </radialGradient>
    <radialGradient
       id="Obj_Gradient_6"
       xlink:href="#Gradient_5"
       gradientTransform="matrix(7.9377967,1.1155846,-1.1155846,7.9377967,162.65024,176.08292)"
       fx="0.021611352"
       fy="0.048555344"
       cx="0.021611352"
       cy="0.048555344" />
    <filter
       style="color-interpolation-filters:sRGB;"
       inkscape:label="Drop Shadow"
       id="filter6193">
      <feFlood
         flood-opacity="0.498039"
         flood-color="rgb(0,0,0)"
         result="flood"
         id="feFlood6183" />
      <feComposite
         in="flood"
         in2="SourceGraphic"
         operator="in"
         result="composite1"
         id="feComposite6185" />
      <feGaussianBlur
         in="composite1"
         stdDeviation="1"
         result="blur"
         id="feGaussianBlur6187" />
      <feOffset
         dx="1"
         dy="1"
         result="offset"
         id="feOffset6189" />
      <feComposite
         in="SourceGraphic"
         in2="offset"
         operator="over"
         result="composite2"
         id="feComposite6191" />
    </filter>
  </defs>
  <path
     style="fill:#eec20b;fill-opacity:1;stroke:#333333;stroke-width:2.09588695;stroke-linecap:round;stroke-linejoin:round;stroke-dasharray:none;stroke-opacity:1;filter:url(#filter6193)"
     d="m 151.07706,159.20895 c 0,13.5045 -24.45206,33.53419 -24.45206,33.53419 0,0 -24.45206,-20.02969 -24.45206,-33.53419 0,-13.5045 10.94756,-24.45206 24.45206,-24.45206 13.5045,0 24.45206,10.94756 24.45206,24.45206 z"
     id="circle5287"
     inkscape:connector-curvature="0"
     sodipodi:nodetypes="scsss"
     transform="matrix(0.93294792,0,0,0.93294792,8.4904676,10.979762)" />
  <path
     inkscape:connector-curvature="0"
     d="M 118.48383,155.14594"
     id="path5223"
     style="fill:#ffffff" />
  <path
     inkscape:connector-curvature="0"
     d="M 136.50224,157.37341"
     id="path5225"
     style="fill:#ffffff" />
  <polygon
     transform="matrix(0.33107471,0,0,0.33107471,110.08745,142.44062)"
     points="72.223,78.862 65.277,70.528 0,70.546 0,81.64 100,81.64 100,70.546 90.771,70.546 88.89,76.085 "
     id="polygon5227"
     style="fill:#ffffff" />
  <circle
     cx="131.23486"
     cy="148.26389"
     r="1.706359"
     id="circle5229"
     style="fill:#ffffff" />
  <path
     inkscape:connector-curvature="0"
     d="m 139.12998,152.81947 -1.58552,-6.30068 c -0.29333,-1.20512 -1.12366,-2.30196 -2.92372,-2.53306 l -3.2826,-0.40589 -5.61305,-0.69394 -3.34086,-0.41251 c -1.79477,-0.21388 -2.86678,0.64825 -3.45279,1.74477 l -3.0717,5.72526 c -0.94026,0.005 -2.71085,0.88862 -2.96213,2.9479 l -0.94655,7.65577 2.27217,0.28075 -0.30195,2.44365 c -0.3784,3.01279 3.8898,3.50411 4.25696,0.52609 l 0.30162,-2.44333 7.67431,0.9482 7.65544,0.94654 -0.30161,2.44333 c -0.36022,2.97901 3.90038,3.54152 4.27484,0.52906 l 0.30226,-2.44367 2.27251,0.28075 0.94654,-7.65576 c 0.24731,-2.05962 -1.2561,-3.34849 -2.17417,-3.58323 z m -19.92408,1.87984 c -0.13673,1.11739 -1.13127,1.91693 -2.21655,1.77955 -1.08924,-0.13179 -1.85799,-1.14884 -1.71629,-2.26589 0.13541,-1.12566 1.12896,-1.92586 2.21654,-1.78185 1.08726,0.12548 1.85635,1.14354 1.7163,2.26819 z m 15.4433,-2.491 c -0.14631,-0.82304 -0.68795,-1.52923 -1.68185,-1.65174 l -3.79576,-0.47078 c -0.931,-0.1152 -1.66299,0.39332 -2.01592,1.19617 l -8.86584,-1.09551 2.34168,-4.51819 c 0.29499,-0.64593 0.68367,-1.08592 1.46136,-1.00183 l 6.12853,0.75849 0.0182,0.002 6.14805,0.75982 c 0.76381,0.10622 1.03395,0.62739 1.17268,1.32696 l 1.17068,4.9522 -2.08181,-0.25757 z m 4.02919,4.89858 c -0.145,1.11639 -1.13922,1.91461 -2.21654,1.77887 -1.09717,-0.13209 -1.8676,-1.15015 -1.73516,-2.26787 0.145,-1.12433 1.13955,-1.92452 2.23574,-1.77953 1.07897,0.12416 1.84806,1.14189 1.71596,2.26853 z"
     id="path5231"
     style="fill:#ffffff" />
</svg>
