<?xml version="1.0" encoding="UTF-8" standalone="no"?>
<svg
   xmlns:dc="http://purl.org/dc/elements/1.1/"
   xmlns:cc="http://creativecommons.org/ns#"
   xmlns:rdf="http://www.w3.org/1999/02/22-rdf-syntax-ns#"
   xmlns:svg="http://www.w3.org/2000/svg"
   xmlns="http://www.w3.org/2000/svg"
   xmlns:xlink="http://www.w3.org/1999/xlink"
   xmlns:sodipodi="http://sodipodi.sourceforge.net/DTD/sodipodi-0.dtd"
   xmlns:inkscape="http://www.inkscape.org/namespaces/inkscape"
   version="1.1"
   viewBox="100 133 53.25 61.5"
   width="71"
   height="82"
   id="svg5325"
   sodipodi:docname="trafficJam_low.svg"
   inkscape:export-filename="/home/mognom/Git/orion/ngsi-datamodel2poi-operator/src/images/alerts/traffic/trafficJam_low.png"
   inkscape:export-xdpi="130.68494"
   inkscape:export-ydpi="130.68494"
   inkscape:version="0.91 r13725">
  <sodipodi:namedview
     pagecolor="#ffffff"
     bordercolor="#666666"
     borderopacity="1"
     objecttolerance="10"
     gridtolerance="10"
     guidetolerance="10"
     inkscape:pageopacity="0"
     inkscape:pageshadow="2"
     inkscape:window-width="1920"
     inkscape:window-height="1056"
     id="namedview5327"
     showgrid="false"
     units="px"
     fit-margin-top="0"
     fit-margin-left="0"
     fit-margin-right="0"
     fit-margin-bottom="0"
     inkscape:zoom="2.6074563"
     inkscape:cx="-84.53152"
     inkscape:cy="65.766131"
     inkscape:window-x="0"
     inkscape:window-y="24"
     inkscape:window-maximized="1"
     inkscape:current-layer="svg5325" />
  <metadata
     id="metadata5244">
    <dc:date>2017-02-14 20:31Z</dc:date>
    <!-- Produced by OmniGraffle Professional 5.4.2 -->
    <rdf:RDF>
      <cc:Work
         rdf:about="">
        <dc:format>image/svg+xml</dc:format>
        <dc:type
           rdf:resource="http://purl.org/dc/dcmitype/StillImage" />
        <dc:title></dc:title>
      </cc:Work>
    </rdf:RDF>
  </metadata>
  <defs
     id="defs5279">
    <linearGradient
       x1="0"
       x2="1"
       id="Gradient"
       gradientUnits="userSpaceOnUse">
      <stop
         offset="0"
         stop-color="#a1a1a1"
         id="stop5246" />
      <stop
         offset=".5"
         stop-color="#d3ddda"
         id="stop5248" />
      <stop
         offset="1"
         stop-color="#333"
         id="stop5250" />
    </linearGradient>
    <linearGradient
       id="Obj_Gradient"
       xlink:href="#Gradient"
       gradientTransform="matrix(-9.6901415,0,0,-9.6901415,151.86676,195.96937)" />
    <radialGradient
       cx="0"
       cy="0"
       r="1"
       id="Gradient_2"
       gradientUnits="userSpaceOnUse">
      <stop
         offset="0"
         stop-color="#333"
         id="stop5254" />
      <stop
         offset="1"
         stop-color="#fefcff"
         id="stop5256" />
    </radialGradient>
    <radialGradient
       id="Obj_Gradient_2"
       xlink:href="#Gradient_2"
       gradientTransform="matrix(11.294566,-3.8890311,3.8890311,11.294566,152.17186,169.50531)" />
    <radialGradient
       cx="0"
       cy="0"
       r="1"
       id="Gradient_3"
       gradientUnits="userSpaceOnUse">
      <stop
         offset="0"
         stop-color="#333"
         id="stop5260" />
      <stop
         offset="1"
         stop-color="#858586"
         id="stop5262" />
    </radialGradient>
    <radialGradient
       id="Obj_Gradient_3"
       xlink:href="#Gradient_3"
       gradientTransform="matrix(8.5071218,-2.929237,2.929237,8.5071218,143.84009,168.83939)" />
    <radialGradient
       cx="0"
       cy="0"
       r="1"
       id="Gradient_4"
       gradientUnits="userSpaceOnUse">
      <stop
         offset="0"
         stop-color="#fefcff"
         id="stop5266" />
      <stop
         offset="1"
         stop-color="#333"
         id="stop5268" />
    </radialGradient>
    <radialGradient
       id="Obj_Gradient_4"
       xlink:href="#Gradient_4"
       gradientTransform="matrix(-5.2298003,-17.640525,13.831792,-4.1006441,127.07119,190.8652)"
       fx="0.53321111"
       fy="0.55251503"
       cx="0.53321111"
       cy="0.55251503" />
    <radialGradient
       id="Obj_Gradient_5"
       xlink:href="#Gradient_3"
       gradientTransform="matrix(10.232955,-3.523489,3.523489,10.232955,142.2044,184.12234)" />
    <radialGradient
       cx="0"
       cy="0"
       r="1"
       id="Gradient_5"
       gradientUnits="userSpaceOnUse">
      <stop
         offset="0"
         stop-color="#fbfcff"
         id="stop5273" />
      <stop
         offset="1"
         stop-color="#333"
         id="stop5275" />
    </radialGradient>
    <radialGradient
       id="Obj_Gradient_6"
       xlink:href="#Gradient_5"
       gradientTransform="matrix(7.9377967,1.1155846,-1.1155846,7.9377967,162.65024,176.08292)"
       fx="0.021611352"
       fy="0.048555344"
       cx="0.021611352"
       cy="0.048555344" />
    <filter
       style="color-interpolation-filters:sRGB;"
       inkscape:label="Drop Shadow"
       id="filter6193">
      <feFlood
         flood-opacity="0.498039"
         flood-color="rgb(0,0,0)"
         result="flood"
         id="feFlood6183" />
      <feComposite
         in="flood"
         in2="SourceGraphic"
         operator="in"
         result="composite1"
         id="feComposite6185" />
      <feGaussianBlur
         in="composite1"
         stdDeviation="1"
         result="blur"
         id="feGaussianBlur6187" />
      <feOffset
         dx="1"
         dy="1"
         result="offset"
         id="feOffset6189" />
      <feComposite
         in="SourceGraphic"
         in2="offset"
         operator="over"
         result="composite2"
         id="feComposite6191" />
    </filter>
  </defs>
  <path
     style="fill:#79bc6a;fill-opacity:1;stroke:#333333;stroke-width:2.09588695;stroke-linecap:round;stroke-linejoin:round;stroke-dasharray:none;stroke-opacity:1;filter:url(#filter6193)"
     d="m 151.07706,159.20895 c 0,13.5045 -24.45206,33.53419 -24.45206,33.53419 0,0 -24.45206,-20.02969 -24.45206,-33.53419 0,-13.5045 10.94756,-24.45206 24.45206,-24.45206 13.5045,0 24.45206,10.94756 24.45206,24.45206 z"
     id="circle5287"
     inkscape:connector-curvature="0"
     sodipodi:nodetypes="scsss"
     transform="matrix(0.93294792,0,0,0.93294792,8.4904676,10.979762)" />
  <path
     inkscape:connector-curvature="0"
     style="line-height:normal;-inkscape-font-specification:'Bitstream Vera Sans';text-indent:0;text-align:start;text-transform:none;block-progression:tb;fill:#ffffff"
     d="m 132.32674,142.98029 c -1.76753,0 -2.93646,0.13834 -3.67889,0.27329 -0.68757,0.12498 -0.99858,0.25056 -1.05112,0.27328 -0.004,0.002 -0.084,0.021 -0.084,0.021 -0.73791,0.25222 -1.88432,0.60725 -2.43858,1.70281 -0.15074,0.29751 -0.36449,0.85863 -0.67272,1.66075 -0.22692,0.59053 -0.49552,1.30532 -0.7568,1.99711 -0.0276,-0.0112 -0.0643,-0.0153 -0.084,-0.021 l 0,0.021 c -0.0646,-0.0276 -0.33557,-0.15086 -1.00907,-0.27328 -0.74252,-0.13492 -1.91145,-0.27326 -3.67898,-0.27326 -1.76753,0 -2.93646,0.13834 -3.67889,0.2733 -0.68757,0.12498 -0.99857,0.25056 -1.05112,0.27328 -0.004,0.002 -0.084,0.021 -0.084,0.021 -0.7379,0.25222 -1.88432,0.60724 -2.43858,1.7028 -0.13871,0.27433 -0.33376,0.75661 -0.60965,1.47155 -0.17333,0.44917 -0.38896,1.01488 -0.58862,1.55565 l -0.021,0 c -0.0477,0.12529 -0.19116,0.42046 -0.27329,0.79885 -0.0163,0.0437 -0.0257,0.0826 -0.0421,0.12613 -0.64977,1.73477 -1.26133,3.38459 -1.26133,3.38459 l -0.0421,0.1051 0,0.12614 0,4.01525 0,2.29142 c 0,0.73532 0.6101,1.34543 1.34542,1.34543 l 2.69085,0 c 0.73532,0 1.34542,-0.61011 1.34542,-1.34543 l 0,-0.67271 5.3817,0 0,3.76298 0,2.29143 c 0,0.73532 0.6101,1.34542 1.34542,1.34542 l 2.69085,0 c 0.73532,0 1.34542,-0.6101 1.34542,-1.34542 l 0,-0.67271 9.41797,0 0,0.67271 c 0,0.73532 0.6101,1.34542 1.34542,1.34542 l 2.69085,0 c 0.73532,0 1.34542,-0.6101 1.34542,-1.34542 l 0,-2.69085 0,-3.61583 0,-0.12613 -0.0421,-0.10511 c 0,0 -0.52685,-1.43845 -1.07214,-2.88005 l 2.45961,0 c 0.73532,0 1.34542,-0.6101 1.34542,-1.34542 l 0,-2.69085 0,-3.61583 0,-0.12613 -0.0421,-0.10511 c 0,0 -0.5909,-1.59251 -1.24031,-3.30049 -0.11876,-0.31234 -0.17554,-0.42588 -0.29431,-0.73578 -0.0476,-0.11272 -0.0853,-0.20032 -0.10511,-0.25227 -0.4838,-1.25865 -1.00329,-2.64588 -1.17725,-3.04822 -0.51045,-1.18296 -1.76301,-1.51039 -2.43858,-1.70281 -0.0282,-0.008 -0.079,-0.0345 -0.10511,-0.0421 l 0,0.021 c -0.0646,-0.0276 -0.33558,-0.15085 -1.00908,-0.27328 -0.74241,-0.13486 -1.91135,-0.2732 -3.67887,-0.2732 z m 0,1.34542 c 1.70232,0 2.78125,0.11393 3.42662,0.23125 0.64537,0.11731 0.79885,0.21022 0.79885,0.21022 l 0.0421,0.021 0.0631,0.021 c 0.59661,0.17267 1.50588,0.5804 1.68178,0.98804 0.12938,0.29922 0.6568,1.71081 1.13521,2.96414 0.12808,0.33644 0.30443,0.84454 0.25227,1.09316 -0.0261,0.12432 -0.0442,0.18628 -0.23125,0.29431 -0.18703,0.10804 -0.57413,0.23125 -1.26133,0.23125 l -12.27699,0 c -0.27001,-0.4585 -0.64805,-0.77322 -1.05112,-0.98805 0.26358,-0.69198 0.53039,-1.40791 0.7568,-1.99712 0.30546,-0.79489 0.58077,-1.47761 0.60965,-1.53461 0.23443,-0.46338 1.0398,-0.82096 1.76587,-1.07214 l 0.0421,0 0.021,-0.021 c 0,0 0.15348,-0.0929 0.79885,-0.21023 0.64537,-0.11728 1.7243,-0.23121 3.42662,-0.23121 z m -13.45424,5.3817 c 1.70232,0 2.78125,0.11393 3.42662,0.23124 0.64538,0.11731 0.79885,0.21023 0.79885,0.21023 l 0.0421,0.021 0.0631,0.021 c 0.5966,0.17268 1.50588,0.5804 1.68177,0.98805 0.1284,0.29787 0.62321,1.60394 1.09316,2.83801 -0.006,9e-4 -0.015,-9e-4 -0.021,0 -0.68756,0.12498 -0.99857,0.25056 -1.05111,0.27328 -0.004,0.002 -0.0841,0.021 -0.0841,0.021 -0.67716,0.23147 -1.69953,0.55305 -2.2914,1.45054 l -9.56514,0 c -0.6869,0 -1.0873,-0.11964 -1.28236,-0.23125 -0.19505,-0.11161 -0.22221,-0.18674 -0.25227,-0.31534 -0.0301,-0.12858 -0.008,-0.30803 0.0421,-0.50453 0.27971,-0.74877 0.56318,-1.51254 0.79884,-2.12324 0.27299,-0.70741 0.51948,-1.29181 0.54658,-1.34542 0.23443,-0.46338 1.0398,-0.82096 1.76587,-1.07215 l 0.0421,0 0.021,-0.021 c 0,0 0.15347,-0.0929 0.79885,-0.21023 0.64527,-0.11724 1.7242,-0.23117 3.42652,-0.23117 z m 21.52678,1.45054 c 0.26365,0.69957 0.65199,1.73185 0.67271,1.78688 l 0,3.88912 c 0,0.14818 -0.11818,0.27329 -0.27329,0.27329 l -3.51071,0 c -0.13359,-0.346 -0.35809,-0.94895 -0.42045,-1.09316 -0.0813,-0.18823 -0.20185,-0.3357 -0.31533,-0.48351 0.27278,0.1543 0.59569,0.23124 0.92498,0.23124 0.36541,0 0.68854,-0.0425 0.96702,-0.14715 0.27847,-0.10467 0.50761,-0.24038 0.81986,-0.39943 0.22841,-0.11668 0.45841,-0.23633 0.69374,-0.46248 0.23534,-0.22616 0.44147,-0.61388 0.44147,-1.00907 0,-0.77594 -0.68939,-1.34542 -1.42951,-1.34542 l -1.49258,0 c -0.946,0 -1.78689,0.71999 -1.78689,1.68178 0,0.32558 0.1091,0.61029 0.27329,0.86191 -0.53069,-0.35803 -1.1347,-0.51676 -1.53463,-0.63067 -0.0283,-0.008 -0.079,-0.0345 -0.10511,-0.0421 l 0,0.021 c -0.0646,-0.0276 -0.33557,-0.15086 -1.00907,-0.27328 -0.74243,-0.1349 -1.91136,-0.27324 -3.67889,-0.27324 -0.9174,0 -1.67248,0.0293 -2.29143,0.084 -0.34786,-0.91031 -0.58009,-1.49754 -0.81986,-2.10222 l 11.70939,0 c 0.83311,0 1.44945,-0.1195 1.93405,-0.39942 0.0823,-0.0476 0.15934,-0.11022 0.23124,-0.16818 z m -2.92209,2.58573 1.49258,0 c 0.0324,0 0.0508,0.0169 0.0631,0.021 -0.0431,0.0414 -0.18594,0.1526 -0.37839,0.25226 -0.007,0.004 -0.0133,-0.004 -0.021,0 -0.32126,0.16398 -0.51967,0.28673 -0.65169,0.33636 -0.13541,0.0509 -0.24366,0.0631 -0.50453,0.0631 -0.29181,0 -0.44147,-0.18279 -0.44147,-0.33636 0,-0.15357 0.14966,-0.33636 0.44147,-0.33636 z m -7.8413,1.34542 c 1.70232,0 2.78125,0.11393 3.42662,0.23125 0.64538,0.11731 0.79885,0.21022 0.79885,0.21022 l 0.0421,0.021 0.0631,0.021 c 0.5966,0.17267 1.50587,0.5804 1.68178,0.98804 0.12937,0.29922 0.6568,1.71081 1.1352,2.96414 0.12809,0.33644 0.30443,0.84453 0.25227,1.09316 -0.0261,0.12432 -0.0442,0.18627 -0.23124,0.29431 -0.18704,0.10804 -0.57413,0.23125 -1.26134,0.23125 l -11.81451,0 c -0.6869,0 -1.08729,-0.11964 -1.28235,-0.23125 -0.19506,-0.11161 -0.22221,-0.18674 -0.25227,-0.31534 -0.0301,-0.12858 -0.008,-0.30803 0.0421,-0.50453 0.27971,-0.74877 0.56318,-1.51254 0.79884,-2.12324 0.27298,-0.70741 0.51947,-1.29181 0.54658,-1.34542 0.23443,-0.46338 1.0398,-0.82096 1.76587,-1.07214 l 0.0421,0 0.021,-0.021 c 0,0 0.15348,-0.0929 0.79885,-0.21023 0.64535,-0.11728 1.72428,-0.23121 3.4266,-0.23121 z m -18.83593,1.45054 c 0.0745,0.0588 0.14592,0.11936 0.23124,0.16818 0.48735,0.27885 1.10029,0.39942 1.93405,0.39942 l 8.95548,0 c -0.0508,0.12924 -0.0895,0.22909 -0.14716,0.37839 -0.17333,0.44917 -0.38897,1.01488 -0.58863,1.55565 l -0.021,0 c -0.0477,0.12529 -0.19115,0.42046 -0.27329,0.79885 -0.0163,0.0437 -0.0257,0.0826 -0.0421,0.12613 -0.48467,1.29399 -0.7418,1.97265 -0.946,2.52267 l -9.50205,0 c -0.15511,0 -0.27329,-0.12395 -0.27329,-0.27329 l 0,-0.39942 0,-3.4897 c 0.0198,-0.0538 0.41638,-1.09624 0.67271,-1.78688 z m 1.42951,1.24031 c -0.74027,0 -1.42951,0.5703 -1.42951,1.34542 0,0.39484 0.2061,0.78275 0.44147,1.00907 0.23536,0.22632 0.46477,0.3457 0.69373,0.46249 0.31226,0.15904 0.54139,0.29475 0.81987,0.39943 0.27848,0.10466 0.60161,0.14715 0.96702,0.14715 0.94599,0 1.78689,-0.71999 1.78689,-1.68178 0,-0.96179 -0.8409,-1.68178 -1.78689,-1.68178 l -1.49258,0 z m 28.84252,0.63066 0,0.71476 -2.69085,0 0,-0.67271 2.41756,0 c 0.0958,0 0.18166,-0.0255 0.27329,-0.0421 z m -28.84252,0.71476 1.49258,0 c 0.2918,0 0.44147,0.18279 0.44147,0.33636 0,0.15357 -0.14967,0.33636 -0.44147,0.33636 -0.26088,0 -0.36912,-0.0122 -0.50454,-0.0631 -0.13202,-0.0496 -0.33042,-0.17238 -0.65168,-0.33636 -0.008,-0.004 -0.0132,0.004 -0.021,0 -0.19198,-0.0993 -0.33551,-0.19 -0.3784,-0.23125 -0.0268,-0.0257 -0.0235,-0.0204 -0.021,-0.021 0.0103,-0.004 0.0412,-0.021 0.084,-0.021 z m 9.33388,2.79596 c 0.0745,0.0588 0.14592,0.11936 0.23124,0.16818 0.48735,0.27886 1.10029,0.39942 1.93405,0.39942 l 11.8145,0 c 0.83312,0 1.44945,-0.1195 1.93405,-0.39942 0.0823,-0.0476 0.15934,-0.11021 0.23124,-0.16818 0.26365,0.69958 0.65199,1.73186 0.67271,1.78689 l 0,3.88912 c 0,0.14818 -0.11818,0.27329 -0.27329,0.27329 l -16.94392,0 c -0.15511,0 -0.27329,-0.12395 -0.27329,-0.27329 l 0,-0.39942 0,-3.4897 c 0.0198,-0.0538 0.41638,-1.09624 0.67271,-1.78689 z m 1.42951,1.24031 c -0.73954,0 -1.42951,0.57036 -1.42951,1.34543 0,0.39484 0.2061,0.78275 0.44147,1.00907 0.23536,0.22631 0.46477,0.3457 0.69372,0.46248 0.31227,0.15905 0.5414,0.29476 0.81988,0.39943 0.27847,0.10467 0.60161,0.14715 0.96702,0.14715 0.94599,0 1.78689,-0.71999 1.78689,-1.68178 0,-0.96179 -0.8409,-1.68178 -1.78689,-1.68178 l -1.49258,0 z m 11.79348,0 c -0.94599,0 -1.78689,0.71999 -1.78689,1.68178 0,0.96179 0.8409,1.68178 1.78689,1.68178 0.36541,0 0.68854,-0.0425 0.96702,-0.14715 0.27848,-0.10467 0.50761,-0.24038 0.81987,-0.39943 0.2284,-0.11668 0.4584,-0.23633 0.69373,-0.46248 0.23534,-0.22616 0.44147,-0.61388 0.44147,-1.00907 0,-0.77588 -0.69011,-1.34543 -1.42951,-1.34543 l -1.49258,0 z m -24.65909,0.63067 c 0.0916,0.0166 0.17746,0.0421 0.27329,0.0421 l 2.41755,0 0,0.67272 -2.69084,0 0,-0.71476 z m 12.86561,0.71476 1.49258,0 c 0.2918,0 0.44147,0.18279 0.44147,0.33635 0,0.15357 -0.14967,0.33636 -0.44147,0.33636 -0.26088,0 -0.36912,-0.0122 -0.50454,-0.0631 -0.13202,-0.0496 -0.33042,-0.17238 -0.65168,-0.33635 -0.008,-0.004 -0.0132,0.004 -0.021,0 -0.19198,-0.0993 -0.33551,-0.19 -0.3784,-0.23125 -0.0268,-0.0257 -0.0235,-0.0204 -0.021,-0.021 0.0102,-0.004 0.0408,-0.021 0.084,-0.021 z m 11.79348,0 1.49258,0 c 0.0327,0 0.0509,0.017 0.0631,0.021 -0.0431,0.0414 -0.18593,0.1526 -0.37839,0.25226 -0.007,0.004 -0.0133,-0.004 -0.021,0 -0.32126,0.16398 -0.51967,0.28673 -0.65169,0.33636 -0.13541,0.0509 -0.24365,0.0631 -0.50453,0.0631 -0.29181,0 -0.44147,-0.18279 -0.44147,-0.33636 0,-0.15357 0.14966,-0.33636 0.44147,-0.33636 z m -13.8957,4.66693 c 0.0916,0.0166 0.17746,0.0421 0.27329,0.0421 l 2.41755,0 0,0.67271 -2.69084,0 0,-0.71476 z m 17.4905,0 0,0.71476 -2.69084,0 0,-0.67271 2.41755,0 c 0.0958,0 0.18166,-0.0255 0.27329,-0.0421 z"
     id="path4962"
     inkscape:transform-center-x="3.1640032"
     inkscape:transform-center-y="-16.682926" />
</svg>
