<?xml version="1.0" encoding="UTF-8" standalone="no"?>
<svg
   xmlns:dc="http://purl.org/dc/elements/1.1/"
   xmlns:cc="http://creativecommons.org/ns#"
   xmlns:rdf="http://www.w3.org/1999/02/22-rdf-syntax-ns#"
   xmlns:svg="http://www.w3.org/2000/svg"
   xmlns="http://www.w3.org/2000/svg"
   xmlns:xlink="http://www.w3.org/1999/xlink"
   xmlns:sodipodi="http://sodipodi.sourceforge.net/DTD/sodipodi-0.dtd"
   xmlns:inkscape="http://www.inkscape.org/namespaces/inkscape"
   version="1.1"
   viewBox="100 133 53.25 61.5"
   width="71"
   height="82"
   id="svg5325"
   sodipodi:docname="noise.svg"
   inkscape:export-filename="noise.png"
   inkscape:export-xdpi="134.3662"
   inkscape:export-ydpi="134.3662"
   inkscape:version="0.91 r13725">
  <sodipodi:namedview
     pagecolor="#ffffff"
     bordercolor="#666666"
     borderopacity="1"
     objecttolerance="10"
     gridtolerance="10"
     guidetolerance="10"
     inkscape:pageopacity="0"
     inkscape:pageshadow="2"
     inkscape:window-width="1920"
     inkscape:window-height="1056"
     id="namedview5327"
     showgrid="false"
     units="px"
     fit-margin-top="0"
     fit-margin-left="0"
     fit-margin-right="0"
     fit-margin-bottom="0"
     inkscape:zoom="3.6875002"
     inkscape:cx="70.330844"
     inkscape:cy="-19.728937"
     inkscape:window-x="0"
     inkscape:window-y="24"
     inkscape:window-maximized="1"
     inkscape:current-layer="svg5325" />
  <metadata
     id="metadata5244">
    <dc:date>2017-02-14 20:31Z</dc:date>
    <!-- Produced by OmniGraffle Professional 5.4.2 -->
    <rdf:RDF>
      <cc:Work
         rdf:about="">
        <dc:format>image/svg+xml</dc:format>
        <dc:type
           rdf:resource="http://purl.org/dc/dcmitype/StillImage" />
        <dc:title></dc:title>
      </cc:Work>
    </rdf:RDF>
  </metadata>
  <defs
     id="defs5279">
    <linearGradient
       x1="0"
       x2="1"
       id="Gradient"
       gradientUnits="userSpaceOnUse">
      <stop
         offset="0"
         stop-color="#a1a1a1"
         id="stop5246" />
      <stop
         offset=".5"
         stop-color="#d3ddda"
         id="stop5248" />
      <stop
         offset="1"
         stop-color="#333"
         id="stop5250" />
    </linearGradient>
    <linearGradient
       id="Obj_Gradient"
       xlink:href="#Gradient"
       gradientTransform="matrix(-9.6901415,0,0,-9.6901415,151.86676,195.96937)" />
    <radialGradient
       cx="0"
       cy="0"
       r="1"
       id="Gradient_2"
       gradientUnits="userSpaceOnUse">
      <stop
         offset="0"
         stop-color="#333"
         id="stop5254" />
      <stop
         offset="1"
         stop-color="#fefcff"
         id="stop5256" />
    </radialGradient>
    <radialGradient
       id="Obj_Gradient_2"
       xlink:href="#Gradient_2"
       gradientTransform="matrix(11.294566,-3.8890311,3.8890311,11.294566,152.17186,169.50531)" />
    <radialGradient
       cx="0"
       cy="0"
       r="1"
       id="Gradient_3"
       gradientUnits="userSpaceOnUse">
      <stop
         offset="0"
         stop-color="#333"
         id="stop5260" />
      <stop
         offset="1"
         stop-color="#858586"
         id="stop5262" />
    </radialGradient>
    <radialGradient
       id="Obj_Gradient_3"
       xlink:href="#Gradient_3"
       gradientTransform="matrix(8.5071218,-2.929237,2.929237,8.5071218,143.84009,168.83939)" />
    <radialGradient
       cx="0"
       cy="0"
       r="1"
       id="Gradient_4"
       gradientUnits="userSpaceOnUse">
      <stop
         offset="0"
         stop-color="#fefcff"
         id="stop5266" />
      <stop
         offset="1"
         stop-color="#333"
         id="stop5268" />
    </radialGradient>
    <radialGradient
       id="Obj_Gradient_4"
       xlink:href="#Gradient_4"
       gradientTransform="matrix(-5.2298003,-17.640525,13.831792,-4.1006441,127.07119,190.8652)"
       fx="0.53321111"
       fy="0.55251503"
       cx="0.53321111"
       cy="0.55251503" />
    <radialGradient
       id="Obj_Gradient_5"
       xlink:href="#Gradient_3"
       gradientTransform="matrix(10.232955,-3.523489,3.523489,10.232955,142.2044,184.12234)" />
    <radialGradient
       cx="0"
       cy="0"
       r="1"
       id="Gradient_5"
       gradientUnits="userSpaceOnUse">
      <stop
         offset="0"
         stop-color="#fbfcff"
         id="stop5273" />
      <stop
         offset="1"
         stop-color="#333"
         id="stop5275" />
    </radialGradient>
    <radialGradient
       id="Obj_Gradient_6"
       xlink:href="#Gradient_5"
       gradientTransform="matrix(7.9377967,1.1155846,-1.1155846,7.9377967,162.65024,176.08292)"
       fx="0.021611352"
       fy="0.048555344"
       cx="0.021611352"
       cy="0.048555344" />
    <filter
       style="color-interpolation-filters:sRGB;"
       inkscape:label="Drop Shadow"
       id="filter6193">
      <feFlood
         flood-opacity="0.498039"
         flood-color="rgb(0,0,0)"
         result="flood"
         id="feFlood6183" />
      <feComposite
         in="flood"
         in2="SourceGraphic"
         operator="in"
         result="composite1"
         id="feComposite6185" />
      <feGaussianBlur
         in="composite1"
         stdDeviation="1"
         result="blur"
         id="feGaussianBlur6187" />
      <feOffset
         dx="1"
         dy="1"
         result="offset"
         id="feOffset6189" />
      <feComposite
         in="SourceGraphic"
         in2="offset"
         operator="over"
         result="composite2"
         id="feComposite6191" />
    </filter>
  </defs>
  <path
     style="fill:#3952a3;fill-opacity:1;stroke:#333333;stroke-width:2.09588695;stroke-linecap:round;stroke-linejoin:round;stroke-dasharray:none;stroke-opacity:1;filter:url(#filter6193)"
     d="m 151.07706,159.20895 c 0,13.5045 -24.45206,33.53419 -24.45206,33.53419 0,0 -24.45206,-20.02969 -24.45206,-33.53419 0,-13.5045 10.94756,-24.45206 24.45206,-24.45206 13.5045,0 24.45206,10.94756 24.45206,24.45206 z"
     id="circle5287"
     inkscape:connector-curvature="0"
     sodipodi:nodetypes="scsss"
     transform="matrix(0.93294792,0,0,0.93294792,8.4904676,10.979762)" />
  <g
     transform="matrix(2.0979562,0,0,2.0979562,109.71305,142.95558)"
     id="g3796"
     style="fill:#ffffff">
    <g
       id="g3798"
       style="fill:#ffffff">
      <path
         inkscape:connector-curvature="0"
         style="fill:#ffffff"
         d="M 14.867,10.591 13.672,7.058 C 14.04,6.541 14.144,5.879 13.939,5.273 13.735,4.667 13.251,4.203 12.643,4.015 L 11.446,0.475 C 11.306,0.062 11.04,0 10.892,0 10.523,0 10.323,0.365 10.21,0.705 9.348,4.14 5.462,5.245 5.397,5.264 5.045,5.383 4.898,5.599 4.836,5.76 4.731,6.034 4.817,6.284 4.866,6.392 l 1.195,3.532 c 0.125,0.368 0.427,0.587 0.811,0.587 0.157,0 0.279,-0.037 0.312,-0.048 0.981,-0.332 1.941,-0.501 2.854,-0.501 2.434,0 3.78,1.208 3.792,1.22 l 0.063,0.048 c 0.106,0.067 0.314,0.182 0.52,0.182 0.178,0 0.335,-0.08 0.43,-0.221 0.166,-0.248 0.053,-0.53 0.024,-0.6 z M 10.037,9.089 C 9.03,9.089 7.975,9.273 6.889,9.645 L 5.686,6.09 C 6.103,5.97 9.698,4.844 10.876,1.519 l 1.101,3.252 0.707,2.091 1.086,3.209 C 13.065,9.647 11.805,9.089 10.037,9.089 Z"
         id="path3800" />
      <path
         inkscape:connector-curvature="0"
         style="fill:#ffffff"
         d="m 5.581,11.977 c 0,0 0.233,-0.753 0.118,-1.099 L 4.33,6.744 c 0,0 -0.083,-0.517 -0.631,-0.332 L 2.001,6.987 c 0,0 -1.322,0.512 -0.883,1.81 l 0.605,1.786 c 0,0 0.479,1.508 1.794,1.063 0,0 0.517,-0.154 0.75,0.68 l 1.091,3.229 c 0,0 0.093,0.547 0.613,0.37 0,0 1.598,-0.277 0.32,-1.573 0.371,-0.779 -0.71,-1.303 -0.71,-2.375 z"
         id="path3802" />
      <path
         inkscape:connector-curvature="0"
         style="fill:#ffffff"
         d="M 10.682,3.486 C 10.496,3.463 10.32,3.596 10.296,3.785 10.12,5.17 8.064,5.752 8.043,5.758 7.858,5.809 7.751,5.999 7.801,6.183 c 0.042,0.153 0.181,0.254 0.333,0.254 0.03,0 0.061,-0.004 0.092,-0.012 0.103,-0.028 2.522,-0.708 2.756,-2.553 0.023,-0.19 -0.111,-0.362 -0.3,-0.386 z"
         id="path3804" />
    </g>
  </g>
</svg>
