<?xml version="1.0" encoding="UTF-8" standalone="no"?>
<svg
   xmlns:dc="http://purl.org/dc/elements/1.1/"
   xmlns:cc="http://creativecommons.org/ns#"
   xmlns:rdf="http://www.w3.org/1999/02/22-rdf-syntax-ns#"
   xmlns:svg="http://www.w3.org/2000/svg"
   xmlns="http://www.w3.org/2000/svg"
   xmlns:xlink="http://www.w3.org/1999/xlink"
   xmlns:sodipodi="http://sodipodi.sourceforge.net/DTD/sodipodi-0.dtd"
   xmlns:inkscape="http://www.inkscape.org/namespaces/inkscape"
   version="1.1"
   viewBox="100 133 53.25 61.5"
   width="71"
   height="82"
   id="svg5325"
   sodipodi:docname="assault_high.svg"
   inkscape:export-filename="/home/mognom/Git/orion/ngsi-datamodel2poi-operator/src/images/alerts/security/assault_high.png"
   inkscape:export-xdpi="134.3662"
   inkscape:export-ydpi="134.3662"
   inkscape:version="0.91 r13725">
  <sodipodi:namedview
     pagecolor="#ffffff"
     bordercolor="#666666"
     borderopacity="1"
     objecttolerance="10"
     gridtolerance="10"
     guidetolerance="10"
     inkscape:pageopacity="0"
     inkscape:pageshadow="2"
     inkscape:window-width="1920"
     inkscape:window-height="1056"
     id="namedview5327"
     showgrid="false"
     units="px"
     fit-margin-top="0"
     fit-margin-left="0"
     fit-margin-right="0"
     fit-margin-bottom="0"
     inkscape:zoom="3.6875001"
     inkscape:cx="42.072224"
     inkscape:cy="1.1386183"
     inkscape:window-x="0"
     inkscape:window-y="24"
     inkscape:window-maximized="1"
     inkscape:current-layer="svg5325" />
  <metadata
     id="metadata5244">
    <dc:date>2017-02-14 20:31Z</dc:date>
    <!-- Produced by OmniGraffle Professional 5.4.2 -->
    <rdf:RDF>
      <cc:Work
         rdf:about="">
        <dc:format>image/svg+xml</dc:format>
        <dc:type
           rdf:resource="http://purl.org/dc/dcmitype/StillImage" />
        <dc:title></dc:title>
      </cc:Work>
    </rdf:RDF>
  </metadata>
  <defs
     id="defs5279">
    <linearGradient
       x1="0"
       x2="1"
       id="Gradient"
       gradientUnits="userSpaceOnUse">
      <stop
         offset="0"
         stop-color="#a1a1a1"
         id="stop5246" />
      <stop
         offset=".5"
         stop-color="#d3ddda"
         id="stop5248" />
      <stop
         offset="1"
         stop-color="#333"
         id="stop5250" />
    </linearGradient>
    <linearGradient
       id="Obj_Gradient"
       xlink:href="#Gradient"
       gradientTransform="matrix(-9.6901415,0,0,-9.6901415,151.86676,195.96937)" />
    <radialGradient
       cx="0"
       cy="0"
       r="1"
       id="Gradient_2"
       gradientUnits="userSpaceOnUse">
      <stop
         offset="0"
         stop-color="#333"
         id="stop5254" />
      <stop
         offset="1"
         stop-color="#fefcff"
         id="stop5256" />
    </radialGradient>
    <radialGradient
       id="Obj_Gradient_2"
       xlink:href="#Gradient_2"
       gradientTransform="matrix(11.294566,-3.8890311,3.8890311,11.294566,152.17186,169.50531)" />
    <radialGradient
       cx="0"
       cy="0"
       r="1"
       id="Gradient_3"
       gradientUnits="userSpaceOnUse">
      <stop
         offset="0"
         stop-color="#333"
         id="stop5260" />
      <stop
         offset="1"
         stop-color="#858586"
         id="stop5262" />
    </radialGradient>
    <radialGradient
       id="Obj_Gradient_3"
       xlink:href="#Gradient_3"
       gradientTransform="matrix(8.5071218,-2.929237,2.929237,8.5071218,143.84009,168.83939)" />
    <radialGradient
       cx="0"
       cy="0"
       r="1"
       id="Gradient_4"
       gradientUnits="userSpaceOnUse">
      <stop
         offset="0"
         stop-color="#fefcff"
         id="stop5266" />
      <stop
         offset="1"
         stop-color="#333"
         id="stop5268" />
    </radialGradient>
    <radialGradient
       id="Obj_Gradient_4"
       xlink:href="#Gradient_4"
       gradientTransform="matrix(-5.2298003,-17.640525,13.831792,-4.1006441,127.07119,190.8652)"
       fx="0.53321111"
       fy="0.55251503"
       cx="0.53321111"
       cy="0.55251503" />
    <radialGradient
       id="Obj_Gradient_5"
       xlink:href="#Gradient_3"
       gradientTransform="matrix(10.232955,-3.523489,3.523489,10.232955,142.2044,184.12234)" />
    <radialGradient
       cx="0"
       cy="0"
       r="1"
       id="Gradient_5"
       gradientUnits="userSpaceOnUse">
      <stop
         offset="0"
         stop-color="#fbfcff"
         id="stop5273" />
      <stop
         offset="1"
         stop-color="#333"
         id="stop5275" />
    </radialGradient>
    <radialGradient
       id="Obj_Gradient_6"
       xlink:href="#Gradient_5"
       gradientTransform="matrix(7.9377967,1.1155846,-1.1155846,7.9377967,162.65024,176.08292)"
       fx="0.021611352"
       fy="0.048555344"
       cx="0.021611352"
       cy="0.048555344" />
    <filter
       style="color-interpolation-filters:sRGB;"
       inkscape:label="Drop Shadow"
       id="filter6193">
      <feFlood
         flood-opacity="0.498039"
         flood-color="rgb(0,0,0)"
         result="flood"
         id="feFlood6183" />
      <feComposite
         in="flood"
         in2="SourceGraphic"
         operator="in"
         result="composite1"
         id="feComposite6185" />
      <feGaussianBlur
         in="composite1"
         stdDeviation="1"
         result="blur"
         id="feGaussianBlur6187" />
      <feOffset
         dx="1"
         dy="1"
         result="offset"
         id="feOffset6189" />
      <feComposite
         in="SourceGraphic"
         in2="offset"
         operator="over"
         result="composite2"
         id="feComposite6191" />
    </filter>
  </defs>
  <path
     style="fill:#f8001c;fill-opacity:1;stroke:#333333;stroke-width:2.09588695;stroke-linecap:round;stroke-linejoin:round;stroke-dasharray:none;stroke-opacity:1;filter:url(#filter6193)"
     d="m 151.07706,159.20895 c 0,13.5045 -24.45206,33.53419 -24.45206,33.53419 0,0 -24.45206,-20.02969 -24.45206,-33.53419 0,-13.5045 10.94756,-24.45206 24.45206,-24.45206 13.5045,0 24.45206,10.94756 24.45206,24.45206 z"
     id="circle5287"
     inkscape:connector-curvature="0"
     sodipodi:nodetypes="scsss"
     transform="matrix(0.93294792,0,0,0.93294792,8.4904676,10.979762)" />
  <g
     transform="matrix(0.05877555,0,0,0.05877555,110.58068,143.04671)"
     id="g7478"
     style="fill:#ffffff">
    <g
       id="g7480"
       style="fill:#ffffff">
      <path
         inkscape:connector-curvature="0"
         d="m 490.018,16.435 c 3.544,-3.544 3.544,-9.29 0,-12.834 -3.544,-3.544 -9.291,-3.544 -12.834,0 l -3.331,3.331 -4.274,-4.274 c -3.543,-3.544 -9.29,-3.544 -12.834,0 -3.544,3.544 -3.544,9.29 0,12.835 l 4.274,4.274 -60.202,60.203 -21.947,-9.976 c -3.443,-1.565 -7.499,-0.83 -10.173,1.845 l -55.217,55.217 -0.344,-0.344 c -3.544,-3.544 -9.291,-3.544 -12.834,0 L 134.419,292.593 c -1.703,1.701 -2.659,4.01 -2.659,6.417 l 0,18.588 -26.167,50.212 -19.942,6.647 c -1.715,0.571 -3.219,1.641 -4.321,3.074 l -60.124,78.082 c -1.567,2.035 -2.199,4.638 -1.738,7.165 0.461,2.527 1.97,4.74 4.154,6.09 l 67.541,41.774 c 1.45,0.897 3.105,1.357 4.775,1.357 0.897,0 1.797,-0.133 2.672,-0.403 2.504,-0.771 4.551,-2.587 5.617,-4.979 l 65.763,-147.602 11.52,5.349 c 5.128,2.381 9.163,6.562 11.359,11.773 l 19.289,45.762 c 0.937,2.222 2.719,3.98 4.953,4.885 1.094,0.443 2.252,0.666 3.41,0.666 1.208,0 2.414,-0.241 3.548,-0.722 l 34.434,-14.622 c 4.227,-1.795 6.447,-6.465 5.169,-10.877 l -19.263,-66.547 33.913,-33.913 c 16.372,10.333 34.258,18.19 53.059,23.182 16.238,4.313 32.967,6.47 49.7,6.47 15.849,0 31.703,-1.936 47.138,-5.812 4.608,-1.157 7.544,-5.67 6.733,-10.351 l -9.593,-55.386 c -0.44,-2.541 -1.941,-4.774 -4.125,-6.142 -2.187,-1.369 -4.851,-1.742 -7.327,-1.03 -39.855,11.471 -82.684,1.24 -112.984,-26.671 l 2.797,-13.176 40.863,-40.864 c 1.703,-1.701 2.659,-4.01 2.659,-6.417 0,-1.509 -0.376,-2.978 -1.076,-4.285 L 409.205,97.248 490.018,16.435 Z M 91.878,489.74 41.723,458.72 94.021,390.801 114.816,383.87 c 2.234,-0.744 4.09,-2.328 5.178,-4.416 l 23.173,-44.466 12.217,12.217 -63.506,142.535 z m 78.174,-153.536 -20.142,-20.14 0,-13.294 0.001,0 114.042,-114.042 21.545,21.545 -2.823,13.306 -112.623,112.625 z m 71.003,-23.837 -6.854,6.855 -10.75,-10.75 6.855,-6.855 10.749,10.75 z m -15.704,94.098 -15.754,-37.377 c -3.952,-9.377 -11.213,-16.901 -20.442,-21.187 l -3.504,-1.628 24.966,-24.966 15.517,15.516 17.866,61.722 -18.649,7.92 z m 28.539,-106.932 -10.75,-10.75 8.404,-8.404 c 3.771,3.429 7.661,6.711 11.678,9.821 l -9.332,9.333 z m 155.248,-27.958 6.457,37.281 c -26.281,5.264 -53.611,4.442 -79.555,-2.447 -26.599,-7.064 -51.2,-20.428 -71.664,-38.861 l 26.832,-26.832 c 32.254,28.227 75.986,39.652 117.93,30.859 z M 295.4,194.504 276.789,175.893 306.108,146.574 c 0.109,0.121 0.211,0.244 0.326,0.361 l 18.267,18.267 -29.301,29.302 z m 38.205,-47.326 -7.291,-7.291 50.769,-50.768 10.024,4.556 -53.502,53.503 z"
         id="path7482"
         style="fill:#ffffff" />
    </g>
  </g>
</svg>
