<?xml version="1.0" encoding="UTF-8" standalone="no"?>
<svg
   xmlns:dc="http://purl.org/dc/elements/1.1/"
   xmlns:cc="http://creativecommons.org/ns#"
   xmlns:rdf="http://www.w3.org/1999/02/22-rdf-syntax-ns#"
   xmlns:svg="http://www.w3.org/2000/svg"
   xmlns="http://www.w3.org/2000/svg"
   xmlns:xlink="http://www.w3.org/1999/xlink"
   xmlns:sodipodi="http://sodipodi.sourceforge.net/DTD/sodipodi-0.dtd"
   xmlns:inkscape="http://www.inkscape.org/namespaces/inkscape"
   version="1.1"
   viewBox="100 133 53.25 61.5"
   width="71"
   height="82"
   id="svg5325"
   sodipodi:docname="robbery_informational.svg"
   inkscape:export-filename="/home/mognom/Git/orion/ngsi-datamodel2poi-operator/src/images/alerts/security/robbery_informational.png"
   inkscape:export-xdpi="131.01186"
   inkscape:export-ydpi="131.01186"
   inkscape:version="0.91 r13725">
  <sodipodi:namedview
     pagecolor="#ffffff"
     bordercolor="#666666"
     borderopacity="1"
     objecttolerance="10"
     gridtolerance="10"
     guidetolerance="10"
     inkscape:pageopacity="0"
     inkscape:pageshadow="2"
     inkscape:window-width="1920"
     inkscape:window-height="1056"
     id="namedview5327"
     showgrid="false"
     units="px"
     fit-margin-top="0"
     fit-margin-left="0"
     fit-margin-right="0"
     fit-margin-bottom="0"
     inkscape:zoom="5.2149127"
     inkscape:cx="-27.105611"
     inkscape:cy="0.85949477"
     inkscape:window-x="0"
     inkscape:window-y="24"
     inkscape:window-maximized="1"
     inkscape:current-layer="svg5325" />
  <metadata
     id="metadata5244">
    <dc:date>2017-02-14 20:31Z</dc:date>
    <!-- Produced by OmniGraffle Professional 5.4.2 -->
    <rdf:RDF>
      <cc:Work
         rdf:about="">
        <dc:format>image/svg+xml</dc:format>
        <dc:type
           rdf:resource="http://purl.org/dc/dcmitype/StillImage" />
        <dc:title></dc:title>
      </cc:Work>
    </rdf:RDF>
  </metadata>
  <defs
     id="defs5279">
    <linearGradient
       x1="0"
       x2="1"
       id="Gradient"
       gradientUnits="userSpaceOnUse">
      <stop
         offset="0"
         stop-color="#a1a1a1"
         id="stop5246" />
      <stop
         offset=".5"
         stop-color="#d3ddda"
         id="stop5248" />
      <stop
         offset="1"
         stop-color="#333"
         id="stop5250" />
    </linearGradient>
    <linearGradient
       id="Obj_Gradient"
       xlink:href="#Gradient"
       gradientTransform="matrix(-9.6901415,0,0,-9.6901415,151.86676,195.96937)" />
    <radialGradient
       cx="0"
       cy="0"
       r="1"
       id="Gradient_2"
       gradientUnits="userSpaceOnUse">
      <stop
         offset="0"
         stop-color="#333"
         id="stop5254" />
      <stop
         offset="1"
         stop-color="#fefcff"
         id="stop5256" />
    </radialGradient>
    <radialGradient
       id="Obj_Gradient_2"
       xlink:href="#Gradient_2"
       gradientTransform="matrix(11.294566,-3.8890311,3.8890311,11.294566,152.17186,169.50531)" />
    <radialGradient
       cx="0"
       cy="0"
       r="1"
       id="Gradient_3"
       gradientUnits="userSpaceOnUse">
      <stop
         offset="0"
         stop-color="#333"
         id="stop5260" />
      <stop
         offset="1"
         stop-color="#858586"
         id="stop5262" />
    </radialGradient>
    <radialGradient
       id="Obj_Gradient_3"
       xlink:href="#Gradient_3"
       gradientTransform="matrix(8.5071218,-2.929237,2.929237,8.5071218,143.84009,168.83939)" />
    <radialGradient
       cx="0"
       cy="0"
       r="1"
       id="Gradient_4"
       gradientUnits="userSpaceOnUse">
      <stop
         offset="0"
         stop-color="#fefcff"
         id="stop5266" />
      <stop
         offset="1"
         stop-color="#333"
         id="stop5268" />
    </radialGradient>
    <radialGradient
       id="Obj_Gradient_4"
       xlink:href="#Gradient_4"
       gradientTransform="matrix(-5.2298003,-17.640525,13.831792,-4.1006441,127.07119,190.8652)"
       fx="0.53321111"
       fy="0.55251503"
       cx="0.53321111"
       cy="0.55251503" />
    <radialGradient
       id="Obj_Gradient_5"
       xlink:href="#Gradient_3"
       gradientTransform="matrix(10.232955,-3.523489,3.523489,10.232955,142.2044,184.12234)" />
    <radialGradient
       cx="0"
       cy="0"
       r="1"
       id="Gradient_5"
       gradientUnits="userSpaceOnUse">
      <stop
         offset="0"
         stop-color="#fbfcff"
         id="stop5273" />
      <stop
         offset="1"
         stop-color="#333"
         id="stop5275" />
    </radialGradient>
    <radialGradient
       id="Obj_Gradient_6"
       xlink:href="#Gradient_5"
       gradientTransform="matrix(7.9377967,1.1155846,-1.1155846,7.9377967,162.65024,176.08292)"
       fx="0.021611352"
       fy="0.048555344"
       cx="0.021611352"
       cy="0.048555344" />
    <filter
       style="color-interpolation-filters:sRGB;"
       inkscape:label="Drop Shadow"
       id="filter6193">
      <feFlood
         flood-opacity="0.498039"
         flood-color="rgb(0,0,0)"
         result="flood"
         id="feFlood6183" />
      <feComposite
         in="flood"
         in2="SourceGraphic"
         operator="in"
         result="composite1"
         id="feComposite6185" />
      <feGaussianBlur
         in="composite1"
         stdDeviation="1"
         result="blur"
         id="feGaussianBlur6187" />
      <feOffset
         dx="1"
         dy="1"
         result="offset"
         id="feOffset6189" />
      <feComposite
         in="SourceGraphic"
         in2="offset"
         operator="over"
         result="composite2"
         id="feComposite6191" />
    </filter>
  </defs>
  <path
     style="fill:#3952a3;fill-opacity:1;stroke:#333333;stroke-width:2.09588695;stroke-linecap:round;stroke-linejoin:round;stroke-dasharray:none;stroke-opacity:1;filter:url(#filter6193)"
     d="m 151.07706,159.20895 c 0,13.5045 -24.45206,33.53419 -24.45206,33.53419 0,0 -24.45206,-20.02969 -24.45206,-33.53419 0,-13.5045 10.94756,-24.45206 24.45206,-24.45206 13.5045,0 24.45206,10.94756 24.45206,24.45206 z"
     id="circle5287"
     inkscape:connector-curvature="0"
     sodipodi:nodetypes="scsss"
     transform="matrix(0.93294792,0,0,0.93294792,8.4904676,10.979762)" />
  <g
     transform="matrix(0.53298971,0,0,0.53298971,111.27086,143.43478)"
     id="g7015"
     style="fill:#ffffff">
    <g
       id="g7017"
       style="fill:#ffffff">
      <path
         inkscape:connector-curvature="0"
         style="fill:#ffffff"
         d="m 33.47,36.538 c 0.102,-0.43 0.172,-0.885 0.193,-1.372 0.404,-8.843 -4.428,-16.084 -11.671,-20.739 -4.308,-2.77 -8.394,0.25 -9.432,4.101 -2.67,-2.125 -7.294,1.055 -5.214,4.548 0.076,0.127 0.154,0.255 0.232,0.383 -2.088,-0.008 -8.742,-0.029 -6.879,0.002 2.202,0.038 7.486,5.964 7.486,5.964 l 0,-5 c 1.623,2.482 3.698,4.804 6.786,5.155 1.408,0.161 2.571,-0.275 3.527,-1.038 1.207,1.477 1.822,3.135 1.942,5.125 -1.057,-0.016 -2.117,0.027 -3.187,0.152 -3.691,0.435 -5.969,1.248 -6.715,5.109 -1.122,5.824 1.907,10.078 5.174,14.53 2.658,3.621 8.776,0.112 6.083,-3.56 -2.202,-3 -4.417,-5.465 -4.326,-8.951 2.152,-0.327 4.292,-0.239 6.477,-0.03 1.069,0.46 2.275,0.646 3.469,0.553 1.781,5.955 5.163,11.259 9.543,15.783 3.166,3.271 8.143,-1.722 4.982,-4.979 -4.343,-4.492 -7.252,-9.689 -8.47,-15.736 z"
         id="path7019" />
      <path
         inkscape:connector-curvature="0"
         style="fill:#ffffff"
         d="m 6.805,7.951 c 0.009,0.1 0.012,0.2 0.026,0.301 0.449,3.26 3.454,5.539 6.712,5.09 3.26,-0.448 5.536,-3.452 5.09,-6.712 C 18.541,5.952 18.333,5.321 18.039,4.745 18.24,4.648 18.331,4.417 18.263,3.936 L 18.069,2.513 C 17.849,0.922 16.382,-0.192 14.793,0.028 L 8.451,0.898 C 6.856,1.118 5.745,2.585 5.964,4.178 L 6.119,5.329 C 5.23,6.038 4.479,6.934 4.642,7.884 4.784,8.727 5.718,8.518 6.805,7.951 Z"
         id="path7021" />
      <path
         inkscape:connector-curvature="0"
         style="fill:#ffffff"
         d="m 22.894,13.399 c 0,0 14.28,7.656 12.593,18.94 -3.698,9.408 12.449,19.098 21.229,-2.6 -10e-4,0 11.179,-29.738 -33.822,-16.34 z m 24.177,17.706 0,1.814 -1.93,0 0,-1.707 c -0.894,-0.084 -1.783,-0.379 -2.358,-0.787 l -0.271,-0.195 0.7,-1.958 0.47,0.313 c 0.609,0.407 1.396,0.642 2.15,0.642 0.923,0 1.539,-0.479 1.539,-1.19 0,-0.48 -0.191,-1.001 -1.604,-1.573 -1.492,-0.584 -3.021,-1.435 -3.021,-3.287 0,-1.489 0.979,-2.65 2.514,-3.037 l 0,-1.763 1.913,0 0,1.643 c 0.731,0.074 1.37,0.277 1.945,0.614 l 0.321,0.19 -0.73,1.928 -0.45,-0.256 c -0.264,-0.151 -0.887,-0.508 -1.876,-0.508 -0.975,0 -1.322,0.512 -1.322,0.991 0,0.519 0.258,0.855 1.791,1.491 1.326,0.54 2.853,1.422 2.853,3.451 -0.003,1.537 -1.046,2.779 -2.634,3.184 z"
         id="path7023" />
    </g>
  </g>
</svg>
